<svg xmlns="http://www.w3.org/2000/svg" viewBox="0 0 1027.48 154.78"><defs><style>.cls-1,.cls-2,.cls-3,.cls-4{fill:none;stroke:#000;}.cls-1,.cls-4{stroke-linecap:round;}.cls-1,.cls-2,.cls-3{stroke-miterlimit:10;}.cls-1{stroke-width:2px;}.cls-2{stroke-width:0.87px;}.cls-4{stroke-linejoin:round;}</style></defs><title>Asset 116</title><g id="Layer_2" data-name="Layer 2"><g id="Слой_1" data-name="Слой 1"><line class="cls-1" x1="6.54" y1="78.87" x2="1026.48" y2="78.87"/><path class="cls-2" d="M30.27,29.51l-2.83,8.4h-.93l-2.46-7.16-2.47,7.16h-.93l-2.83-8.4h.91l2.42,7.23,2.51-7.23h.83L27,36.77l2.46-7.26Z"/><path class="cls-2" d="M36.91,35.67H32.23l-1,2.24H30.3l3.84-8.4H35l3.83,8.4h-.93ZM36.59,35l-2-4.52-2,4.52Z"/><path class="cls-2" d="M40.77,37.68a3.29,3.29,0,0,1-1.33-.79l.35-.68A3.41,3.41,0,0,0,41,37a4.67,4.67,0,0,0,1.56.28,2.81,2.81,0,0,0,1.69-.42,1.26,1.26,0,0,0,.57-1.07,1.08,1.08,0,0,0-.31-.81,2.16,2.16,0,0,0-.75-.46c-.29-.1-.71-.22-1.23-.35A12.38,12.38,0,0,1,41,33.66a2.55,2.55,0,0,1-1-.68,1.8,1.8,0,0,1-.4-1.24A2.09,2.09,0,0,1,40,30.59a2.34,2.34,0,0,1,1-.84,4.13,4.13,0,0,1,1.72-.31,5.16,5.16,0,0,1,1.41.2,4.13,4.13,0,0,1,1.2.54l-.3.71a4.44,4.44,0,0,0-1.13-.52,4.06,4.06,0,0,0-1.18-.17,2.75,2.75,0,0,0-1.66.42,1.34,1.34,0,0,0-.56,1.1,1.06,1.06,0,0,0,.31.81,2,2,0,0,0,.77.47c.3.1.72.22,1.24.35a11.51,11.51,0,0,1,1.49.45,2.53,2.53,0,0,1,1,.67,1.81,1.81,0,0,1,.39,1.22,2,2,0,0,1-.34,1.16,2.35,2.35,0,0,1-1.05.83,4.45,4.45,0,0,1-1.74.3A5.38,5.38,0,0,1,40.77,37.68Z"/><path class="cls-2" d="M57.34,34.29a2.08,2.08,0,0,1,.45,1.38,1.94,1.94,0,0,1-.8,1.66,4,4,0,0,1-2.36.58H50.77v-8.4H54.4a3.59,3.59,0,0,1,2.17.57,1.83,1.83,0,0,1,.78,1.59,2,2,0,0,1-1.29,1.91A2.27,2.27,0,0,1,57.34,34.29Zm-5.68-4.05v3.05h2.67a2.73,2.73,0,0,0,1.58-.39,1.45,1.45,0,0,0,0-2.27,2.73,2.73,0,0,0-1.58-.39Zm4.67,6.56a1.35,1.35,0,0,0,.57-1.2c0-1.05-.76-1.58-2.28-1.58h-3v3.16h3A3.19,3.19,0,0,0,56.33,36.8Z"/><path class="cls-2" d="M61.23,37.43a4.13,4.13,0,0,1-1.59-1.54,4.45,4.45,0,0,1,0-4.36A4,4,0,0,1,61.23,30a4.86,4.86,0,0,1,4.51,0,4.15,4.15,0,0,1,1.58,1.53,4.49,4.49,0,0,1,0,4.38,4.15,4.15,0,0,1-1.58,1.53,4.9,4.9,0,0,1-4.51,0Zm4.06-.69a3.16,3.16,0,0,0,1.26-1.25,3.67,3.67,0,0,0,0-3.56,3.22,3.22,0,0,0-1.26-1.25,3.64,3.64,0,0,0-1.8-.45,3.68,3.68,0,0,0-1.81.45,3.32,3.32,0,0,0-1.27,1.25,3.67,3.67,0,0,0,0,3.56,3.25,3.25,0,0,0,1.27,1.25,3.68,3.68,0,0,0,1.81.45A3.64,3.64,0,0,0,65.29,36.74Z"/><path class="cls-2" d="M75.62,37.91l-1.92-2.7a4.83,4.83,0,0,1-.67,0H70.77v2.66h-.88v-8.4H73a3.81,3.81,0,0,1,2.52.77,2.61,2.61,0,0,1,.91,2.11A2.61,2.61,0,0,1,74.54,35l2,2.88Zm-.71-4a2.16,2.16,0,0,0,0-3.11,2.87,2.87,0,0,0-1.9-.55H70.77v4.21H73A2.87,2.87,0,0,0,74.91,33.94Z"/><path class="cls-2" d="M85.58,29.51v8.4h-.73l-5.4-6.81v6.81h-.89v-8.4h.73l5.42,6.82V29.51Z"/><path d="M20.72,50.49a4.64,4.64,0,0,0-2,.41,3.31,3.31,0,0,0-1.35,1.15L18.8,53a1.9,1.9,0,0,1,.75-.63,2.25,2.25,0,0,1,1-.21,1.57,1.57,0,0,1,1,.27.93.93,0,0,1,.35.77,1.56,1.56,0,0,1-.18.71,3.73,3.73,0,0,1-.7.84l-3.24,3.06V59h6.35V57.45H20.51l1.93-1.83a5.12,5.12,0,0,0,1.12-1.36A3,3,0,0,0,23.84,53a2.23,2.23,0,0,0-.39-1.31,2.58,2.58,0,0,0-1.09-.87,4.14,4.14,0,0,0-1.64-.3Z"/><polygon points="28.16 50.63 24.54 50.63 24.54 52.19 26.22 52.19 26.22 59.03 28.16 59.03 28.16 50.63 28.16 50.63"/><path d="M30.73,57.8c.1,0,.12,0,.14,0s0,0,0,.11,0,.11,0,.13a.17.17,0,0,1-.24,0s0,0,0-.13,0-.1,0-.11.05,0,.14,0m0-1a1.18,1.18,0,0,0-.83.32,1.1,1.1,0,0,0-.33.83,1.14,1.14,0,0,0,.33.84,1.18,1.18,0,0,0,1.66,0,1.14,1.14,0,0,0,.33-.84,1.1,1.1,0,0,0-.33-.83,1.18,1.18,0,0,0-.83-.32Z"/><polygon points="35.82 50.63 32.2 50.63 32.2 52.19 33.88 52.19 33.88 59.03 35.82 59.03 35.82 50.63 35.82 50.63"/><path d="M40.88,50.49a3.29,3.29,0,0,0-3.13,2,6,6,0,0,0,0,4.67A3.4,3.4,0,0,0,39,58.66a3.47,3.47,0,0,0,1.86.52,3.36,3.36,0,0,0,3.14-2,6.16,6.16,0,0,0,0-4.67A3.5,3.5,0,0,0,42.74,51a3.42,3.42,0,0,0-1.86-.51Zm0,7a1.36,1.36,0,0,1-1.19-.66,4.95,4.95,0,0,1,0-4.08,1.42,1.42,0,0,1,2.4,0,4.95,4.95,0,0,1,0,4.08,1.37,1.37,0,0,1-1.21.66Z"/><path d="M46.38,57.8c.09,0,.12,0,.14,0s0,0,0,.11,0,.11,0,.13a.17.17,0,0,1-.24,0s0,0,0-.13,0-.1,0-.11,0,0,.14,0m0-1a1.16,1.16,0,0,0-.83.32,1.1,1.1,0,0,0-.33.83,1.14,1.14,0,0,0,.33.84,1.1,1.1,0,0,0,.83.34,1.12,1.12,0,0,0,.83-.34,1.14,1.14,0,0,0,.33-.84,1.1,1.1,0,0,0-.33-.83,1.18,1.18,0,0,0-.83-.32Z"/><polygon points="51.47 50.63 47.84 50.63 47.84 52.19 49.52 52.19 49.52 59.03 51.47 59.03 51.47 50.63 51.47 50.63"/><path d="M55.88,50.49a3.69,3.69,0,0,0-1.61.34,2.69,2.69,0,0,0-1.15,1,2.59,2.59,0,0,0-.42,1.47,2.48,2.48,0,0,0,.39,1.38,2.58,2.58,0,0,0,1,.92,3.36,3.36,0,0,0,1.46.32,2.8,2.8,0,0,0,2.09-.76A2.62,2.62,0,0,1,57,57a2.28,2.28,0,0,1-1.69.63,2.7,2.7,0,0,1-1.57-.42L53,58.6a3.43,3.43,0,0,0,1,.43,5.4,5.4,0,0,0,1.28.15,4.67,4.67,0,0,0,2.25-.53,3.57,3.57,0,0,0,1.5-1.55,5.18,5.18,0,0,0,.54-2.45,4.37,4.37,0,0,0-1-3.09,3.59,3.59,0,0,0-2.76-1.07Zm.15,4a1.55,1.55,0,0,1-1-.34,1.17,1.17,0,0,1-.39-.92,1.12,1.12,0,0,1,.39-.91,1.47,1.47,0,0,1,1-.34,1.58,1.58,0,0,1,1.08.35,1.14,1.14,0,0,1,.39.9,1.13,1.13,0,0,1-.41.9,1.47,1.47,0,0,1-1,.36Z"/><path d="M64.06,50.49a4.64,4.64,0,0,0-1.69.29,2.74,2.74,0,0,0-1.14.84,2,2,0,0,0-.4,1.27,2,2,0,0,0,.25,1,2.18,2.18,0,0,0,.72.73,2.35,2.35,0,0,0-.94.81,2.11,2.11,0,0,0-.33,1.17A2.21,2.21,0,0,0,61,58a2.84,2.84,0,0,0,1.24.9,5,5,0,0,0,1.86.32,5.1,5.1,0,0,0,1.86-.32,2.78,2.78,0,0,0,1.24-.9,2.16,2.16,0,0,0,.45-1.36,2.11,2.11,0,0,0-.33-1.17,2.34,2.34,0,0,0-1-.81,2.16,2.16,0,0,0,.74-.73,2.15,2.15,0,0,0-.16-2.27,2.6,2.6,0,0,0-1.15-.84,4.68,4.68,0,0,0-1.69-.29Zm0,3.51a1.49,1.49,0,0,1-1-.27.91.91,0,0,1-.35-.76.94.94,0,0,1,.35-.77,1.47,1.47,0,0,1,1-.28,1.52,1.52,0,0,1,1,.28,1,1,0,0,1,0,1.53,1.58,1.58,0,0,1-1,.27Zm0,3.75a1.76,1.76,0,0,1-1.14-.33,1,1,0,0,1-.42-.88,1,1,0,0,1,.42-.88,1.76,1.76,0,0,1,1.14-.32,1.83,1.83,0,0,1,1.15.32,1,1,0,0,1,.43.88,1.05,1.05,0,0,1-.43.88,1.83,1.83,0,0,1-1.15.33Z"/><path d="M72.78,50.49a4.5,4.5,0,0,0-2.24.53A3.74,3.74,0,0,0,69,52.56,5.18,5.18,0,0,0,68.49,55a4.42,4.42,0,0,0,1,3.09,3.56,3.56,0,0,0,2.76,1.08,3.69,3.69,0,0,0,1.61-.35,2.67,2.67,0,0,0,1.15-1,2.64,2.64,0,0,0,.42-1.48A2.49,2.49,0,0,0,75.05,55a2.53,2.53,0,0,0-1-.92,3.23,3.23,0,0,0-1.46-.33,2.81,2.81,0,0,0-2.08.75,2.62,2.62,0,0,1,.67-1.81,2.29,2.29,0,0,1,1.7-.63,2.76,2.76,0,0,1,1.57.42l.72-1.43a3.6,3.6,0,0,0-1.05-.42,5.43,5.43,0,0,0-1.29-.15Zm-.64,7.23a1.61,1.61,0,0,1-1.08-.34,1.17,1.17,0,0,1-.39-.9,1.16,1.16,0,0,1,.4-.91,1.53,1.53,0,0,1,1.05-.35,1.52,1.52,0,0,1,1,.34,1.27,1.27,0,0,1,0,1.83,1.53,1.53,0,0,1-1,.33Z"/><path class="cls-2" d="M112.18,95.49v8.4h-.86V97.17l-3.3,5.65h-.42l-3.3-5.62v6.69h-.85v-8.4h.73l3.65,6.22,3.61-6.22Z"/><path class="cls-2" d="M120.18,101.64H115.5l-1,2.25h-.92l3.84-8.4h.87l3.84,8.4h-.93Zm-.32-.72-2-4.51-2,4.51Z"/><path class="cls-2" d="M124,103.66a3.4,3.4,0,0,1-1.33-.79l.35-.69a3.27,3.27,0,0,0,1.21.74,4.43,4.43,0,0,0,1.56.28,2.88,2.88,0,0,0,1.69-.41,1.29,1.29,0,0,0,.57-1.08,1.05,1.05,0,0,0-.31-.8,2,2,0,0,0-.75-.46,11.85,11.85,0,0,0-1.23-.36,12.62,12.62,0,0,1-1.52-.46,2.48,2.48,0,0,1-1-.68,1.77,1.77,0,0,1-.4-1.23,2.12,2.12,0,0,1,.33-1.16,2.28,2.28,0,0,1,1-.83,4.21,4.21,0,0,1,1.73-.32,5.16,5.16,0,0,1,1.41.2,4.14,4.14,0,0,1,1.2.55l-.3.71a4.16,4.16,0,0,0-1.13-.53,4.43,4.43,0,0,0-1.18-.17,2.68,2.68,0,0,0-1.66.43,1.32,1.32,0,0,0-.56,1.09,1.06,1.06,0,0,0,.31.81,1.93,1.93,0,0,0,.77.47c.3.11.72.23,1.24.36a12,12,0,0,1,1.49.45,2.42,2.42,0,0,1,1,.67,1.79,1.79,0,0,1,.39,1.22,2,2,0,0,1-.34,1.15,2.28,2.28,0,0,1-1.05.83,4.27,4.27,0,0,1-1.74.31A5.38,5.38,0,0,1,124,103.66Z"/><path class="cls-2" d="M132.41,96.25h-2.95v-.76h6.79v.76H133.3v7.64h-.89Z"/><path class="cls-2" d="M143.6,103.12v.77h-5.94v-8.4h5.76v.76h-4.87v3h4.35V100h-4.35v3.12Z"/><path class="cls-2" d="M151.43,103.89l-1.92-2.7c-.22,0-.44,0-.67,0h-2.26v2.67h-.89v-8.4h3.15a3.81,3.81,0,0,1,2.52.76,2.66,2.66,0,0,1,.91,2.12,2.75,2.75,0,0,1-.5,1.66,2.78,2.78,0,0,1-1.42,1l2.05,2.88Zm-.71-4a1.89,1.89,0,0,0,.66-1.54,1.92,1.92,0,0,0-.66-1.57,3,3,0,0,0-1.91-.55h-2.23v4.22h2.23A2.9,2.9,0,0,0,150.72,99.91Z"/><path class="cls-2" d="M154.89,103.66a3.4,3.4,0,0,1-1.33-.79l.35-.69a3.27,3.27,0,0,0,1.21.74,4.43,4.43,0,0,0,1.56.28,2.86,2.86,0,0,0,1.69-.41,1.29,1.29,0,0,0,.57-1.08,1.05,1.05,0,0,0-.31-.8,2,2,0,0,0-.75-.46,11.85,11.85,0,0,0-1.23-.36,12.38,12.38,0,0,1-1.51-.46,2.45,2.45,0,0,1-1-.68,1.77,1.77,0,0,1-.4-1.23,2.12,2.12,0,0,1,.33-1.16,2.25,2.25,0,0,1,1-.83,4.13,4.13,0,0,1,1.72-.32,5.16,5.16,0,0,1,1.41.2,4.14,4.14,0,0,1,1.2.55l-.3.71a4.16,4.16,0,0,0-1.13-.53,4.43,4.43,0,0,0-1.18-.17,2.68,2.68,0,0,0-1.66.43,1.32,1.32,0,0,0-.56,1.09,1.1,1.1,0,0,0,.31.81,1.93,1.93,0,0,0,.77.47c.3.11.72.23,1.24.36a11.51,11.51,0,0,1,1.49.45,2.42,2.42,0,0,1,1,.67,1.79,1.79,0,0,1,.39,1.22,2,2,0,0,1-.34,1.15,2.19,2.19,0,0,1-1.05.83,4.27,4.27,0,0,1-1.74.31A5.38,5.38,0,0,1,154.89,103.66Z"/><path class="cls-2" d="M164.89,95.49h3.42a4.94,4.94,0,0,1,2.35.53,3.94,3.94,0,0,1,1.59,1.49,4.5,4.5,0,0,1,0,4.35,3.88,3.88,0,0,1-1.59,1.49,4.94,4.94,0,0,1-2.35.54h-3.42Zm3.37,7.63a4.07,4.07,0,0,0,1.93-.44,3.21,3.21,0,0,0,1.29-1.21,3.77,3.77,0,0,0,0-3.57,3.21,3.21,0,0,0-1.29-1.21,4.07,4.07,0,0,0-1.93-.44h-2.48v6.87Z"/><path class="cls-2" d="M180.74,103.12v.77H174.8v-8.4h5.76v.76h-4.87v3H180V100h-4.34v3.12Z"/><path class="cls-2" d="M188.7,99.69h.85v3.2a4.13,4.13,0,0,1-1.39.79,5,5,0,0,1-1.69.28,4.73,4.73,0,0,1-2.27-.55,4.17,4.17,0,0,1-1.59-1.53,4.31,4.31,0,0,1-.57-2.19,4.26,4.26,0,0,1,.57-2.19A4,4,0,0,1,184.2,96a4.64,4.64,0,0,1,2.28-.56,5,5,0,0,1,1.76.31,3.47,3.47,0,0,1,1.36.91l-.55.56a3.45,3.45,0,0,0-2.54-1,3.77,3.77,0,0,0-1.84.45,3.28,3.28,0,0,0-1.29,1.24,3.52,3.52,0,0,0-.47,1.79,3.44,3.44,0,0,0,.47,1.77,3.3,3.3,0,0,0,1.29,1.25,4,4,0,0,0,4-.19Z"/><path class="cls-2" d="M197.79,103.89l-1.92-2.7c-.21,0-.44,0-.67,0H193v2.67h-.89v-8.4h3.14a3.81,3.81,0,0,1,2.52.76,2.63,2.63,0,0,1,.91,2.12,2.74,2.74,0,0,1-.49,1.66,2.81,2.81,0,0,1-1.43,1l2.06,2.88Zm-.7-4a1.89,1.89,0,0,0,.66-1.54,1.92,1.92,0,0,0-.66-1.57,3,3,0,0,0-1.91-.55H193v4.22h2.23A2.9,2.9,0,0,0,197.09,99.91Z"/><path class="cls-2" d="M206.67,103.12v.77h-5.94v-8.4h5.76v.76h-4.87v3H206V100h-4.35v3.12Z"/><path class="cls-2" d="M214.7,103.12v.77h-5.94v-8.4h5.76v.76h-4.87v3H214V100h-4.34v3.12Z"/><path class="cls-2" d="M103.45,109.89h.89v8.4h-.89Z"/><path class="cls-2" d="M114.1,109.89v8.4h-.74l-5.4-6.82v6.82h-.88v-8.4h.73l5.41,6.81v-6.81Z"/><path class="cls-2" d="M120,109.89h.88v8.4H120Z"/><path class="cls-2" d="M130.62,109.89v8.4h-.73l-5.4-6.82v6.82h-.89v-8.4h.73l5.41,6.81v-6.81Z"/><path class="cls-2" d="M135,110.65h-3v-.76h6.8v.76h-3v7.64H135Z"/><path class="cls-2" d="M146.18,117.52v.77h-5.94v-8.4H146v.76h-4.87v3h4.34v.76h-4.34v3.12Z"/><path class="cls-2" d="M154,118.29l-1.92-2.7c-.22,0-.44,0-.68,0h-2.25v2.67h-.89v-8.4h3.14a3.77,3.77,0,0,1,2.52.76,2.64,2.64,0,0,1,.92,2.12,2.75,2.75,0,0,1-.5,1.66,2.78,2.78,0,0,1-1.42,1l2,2.88Zm-.71-4a1.89,1.89,0,0,0,.66-1.54,1.92,1.92,0,0,0-.66-1.57,3,3,0,0,0-1.91-.55h-2.23v4.22h2.23A2.9,2.9,0,0,0,153.3,114.31Z"/><path class="cls-2" d="M164,109.89v8.4h-.74l-5.4-6.82v6.82H157v-8.4h.73l5.41,6.81v-6.81Z"/><path class="cls-2" d="M172,116h-4.68l-1,2.25h-.92l3.84-8.4h.87l3.84,8.4H173Zm-.32-.72-2-4.51-2,4.51Z"/><path class="cls-2" d="M176.52,110.65h-3v-.76h6.79v.76h-3v7.64h-.89Z"/><path class="cls-2" d="M181.77,109.89h.89v8.4h-.89Z"/><path class="cls-2" d="M186.81,117.8a4,4,0,0,1-1.59-1.53,4.47,4.47,0,0,1,0-4.37,4,4,0,0,1,1.59-1.53,4.82,4.82,0,0,1,4.51,0,4,4,0,0,1,1.58,1.53,4.26,4.26,0,0,1,.57,2.19,4.31,4.31,0,0,1-.57,2.19,4.15,4.15,0,0,1-1.58,1.53,4.68,4.68,0,0,1-2.25.55A4.62,4.62,0,0,1,186.81,117.8Zm4.06-.68a3.22,3.22,0,0,0,1.26-1.25,3.57,3.57,0,0,0,.46-1.78,3.61,3.61,0,0,0-.46-1.79,3.2,3.2,0,0,0-1.26-1.24,3.64,3.64,0,0,0-1.8-.45,3.68,3.68,0,0,0-1.81.45A3.29,3.29,0,0,0,186,112.3a3.51,3.51,0,0,0-.46,1.79,3.47,3.47,0,0,0,.46,1.78,3.32,3.32,0,0,0,1.27,1.25,3.68,3.68,0,0,0,1.81.45A3.64,3.64,0,0,0,190.87,117.12Z"/><path class="cls-2" d="M202.49,109.89v8.4h-.74l-5.4-6.82v6.82h-.88v-8.4h.73l5.41,6.81v-6.81Z"/><path class="cls-2" d="M210.49,116h-4.68l-1,2.25h-.92l3.84-8.4h.87l3.84,8.4h-.93Zm-.32-.72-2-4.51-2,4.51Z"/><path class="cls-2" d="M213.83,109.89h.88v7.63h4.71v.77h-5.59Z"/><path class="cls-2" d="M109.39,131.92v.77h-5.94v-8.4h5.76v.76h-4.87v3h4.34v.76h-4.34v3.12Z"/><path class="cls-2" d="M112.83,132.21a4.05,4.05,0,0,1-1.57-1.53,4.31,4.31,0,0,1-.57-2.19,4.26,4.26,0,0,1,.57-2.19,3.88,3.88,0,0,1,1.58-1.53,4.58,4.58,0,0,1,2.25-.56,4.63,4.63,0,0,1,1.73.32,3.4,3.4,0,0,1,1.34.91l-.56.56a3.35,3.35,0,0,0-2.48-1,3.72,3.72,0,0,0-1.82.45,3.32,3.32,0,0,0-1.27,1.25,3.59,3.59,0,0,0,0,3.55,3.25,3.25,0,0,0,1.27,1.25,3.73,3.73,0,0,0,1.82.46,3.32,3.32,0,0,0,2.48-1l.56.56a3.49,3.49,0,0,1-1.35.92,4.86,4.86,0,0,1-4-.23Z"/><path class="cls-2" d="M121.29,132.2a4,4,0,0,1-1.58-1.53,4.47,4.47,0,0,1,0-4.37,4,4,0,0,1,1.58-1.53,4.64,4.64,0,0,1,2.26-.56,4.58,4.58,0,0,1,2.25.56,3.94,3.94,0,0,1,1.58,1.53,4.27,4.27,0,0,1,.58,2.19,4.32,4.32,0,0,1-.58,2.19,4.08,4.08,0,0,1-1.58,1.53,4.86,4.86,0,0,1-4.51,0Zm4.06-.68a3.22,3.22,0,0,0,1.26-1.25,3.47,3.47,0,0,0,.46-1.78,3.51,3.51,0,0,0-.46-1.79,3.2,3.2,0,0,0-1.26-1.24,3.83,3.83,0,0,0-3.6,0,3.32,3.32,0,0,0-1.28,1.24,3.61,3.61,0,0,0-.46,1.79,3.57,3.57,0,0,0,.46,1.78,3.34,3.34,0,0,0,1.28,1.25,3.82,3.82,0,0,0,3.6,0Z"/><path class="cls-2" d="M137,124.29v8.4h-.74l-5.4-6.82v6.82H130v-8.4h.73l5.41,6.81v-6.81Z"/><path class="cls-2" d="M141.11,132.2a4.08,4.08,0,0,1-1.58-1.53,4.47,4.47,0,0,1,0-4.37,4.08,4.08,0,0,1,1.58-1.53,4.64,4.64,0,0,1,2.26-.56,4.52,4.52,0,0,1,2.25.56,3.94,3.94,0,0,1,1.58,1.53,4.17,4.17,0,0,1,.58,2.19,4.22,4.22,0,0,1-.58,2.19,4.08,4.08,0,0,1-1.58,1.53,4.86,4.86,0,0,1-4.51,0Zm4.06-.68a3.32,3.32,0,0,0,1.27-1.25,3.57,3.57,0,0,0,.45-1.78,3.61,3.61,0,0,0-.45-1.79,3.29,3.29,0,0,0-1.27-1.24,3.59,3.59,0,0,0-1.8-.45,3.64,3.64,0,0,0-1.8.45,3.22,3.22,0,0,0-1.27,1.24,3.52,3.52,0,0,0-.47,1.79,3.48,3.48,0,0,0,.47,1.78,3.25,3.25,0,0,0,1.27,1.25,3.64,3.64,0,0,0,1.8.45A3.59,3.59,0,0,0,145.17,131.52Z"/><path class="cls-2" d="M158.49,124.29v8.4h-.85V126l-3.3,5.65h-.42l-3.3-5.62v6.69h-.85v-8.4h.73l3.65,6.22,3.61-6.22Z"/><path class="cls-2" d="M161.23,124.29h.89v8.4h-.89Z"/><path class="cls-2" d="M166.25,132.21a4.05,4.05,0,0,1-1.57-1.53,4.31,4.31,0,0,1-.57-2.19,4.26,4.26,0,0,1,.57-2.19,3.94,3.94,0,0,1,1.58-1.53,4.58,4.58,0,0,1,2.25-.56,4.63,4.63,0,0,1,1.73.32,3.51,3.51,0,0,1,1.35.91L171,126a3.34,3.34,0,0,0-2.48-1,3.65,3.65,0,0,0-1.81.45,3.34,3.34,0,0,0-1.28,1.25,3.65,3.65,0,0,0,0,3.55,3.27,3.27,0,0,0,1.28,1.25,3.66,3.66,0,0,0,1.81.46,3.3,3.3,0,0,0,2.48-1l.57.56a3.65,3.65,0,0,1-1.35.92,4.88,4.88,0,0,1-4-.23Z"/><path class="cls-2" d="M174,132.46a3.33,3.33,0,0,1-1.33-.79L173,131a3.27,3.27,0,0,0,1.21.74,4.35,4.35,0,0,0,1.56.28,2.88,2.88,0,0,0,1.69-.41,1.29,1.29,0,0,0,.57-1.08,1.09,1.09,0,0,0-.31-.8,2,2,0,0,0-.75-.46,12.17,12.17,0,0,0-1.24-.36,13,13,0,0,1-1.51-.46,2.41,2.41,0,0,1-1-.68,1.77,1.77,0,0,1-.41-1.23,2.13,2.13,0,0,1,.34-1.16,2.23,2.23,0,0,1,1-.83,4.21,4.21,0,0,1,1.73-.32,5.16,5.16,0,0,1,1.41.2,4,4,0,0,1,1.19.55l-.3.71a4,4,0,0,0-1.12-.53,4.49,4.49,0,0,0-1.18-.17,2.66,2.66,0,0,0-1.66.43,1.32,1.32,0,0,0-.56,1.09,1.06,1.06,0,0,0,.31.81,2,2,0,0,0,.76.47c.31.11.73.23,1.25.36a12,12,0,0,1,1.49.45,2.42,2.42,0,0,1,1,.67,1.79,1.79,0,0,1,.39,1.22,2,2,0,0,1-.34,1.15,2.28,2.28,0,0,1-1,.83,4.27,4.27,0,0,1-1.74.31A5.38,5.38,0,0,1,174,132.46Z"/><path d="M105.43,146.09a4.5,4.5,0,0,0-2,.42,3.22,3.22,0,0,0-1.35,1.14l1.41.91a1.9,1.9,0,0,1,.75-.63,2.25,2.25,0,0,1,1-.21,1.57,1.57,0,0,1,1,.27.93.93,0,0,1,.35.78,1.55,1.55,0,0,1-.18.7,3.54,3.54,0,0,1-.7.85l-3.24,3.06v1.26h6.35v-1.59h-3.61l1.93-1.82a4.88,4.88,0,0,0,1.11-1.37,2.82,2.82,0,0,0,.29-1.28,2.24,2.24,0,0,0-.39-1.32,2.49,2.49,0,0,0-1.09-.86,4,4,0,0,0-1.64-.31Z"/><path d="M113.21,146.09a3.34,3.34,0,0,0-1.86.52,3.42,3.42,0,0,0-1.28,1.49,6.16,6.16,0,0,0,0,4.67,3.42,3.42,0,0,0,1.28,1.49,3.34,3.34,0,0,0,1.86.52,3.39,3.39,0,0,0,1.86-.52,3.48,3.48,0,0,0,1.28-1.49,6.16,6.16,0,0,0,0-4.67,3.48,3.48,0,0,0-1.28-1.49,3.39,3.39,0,0,0-1.86-.52Zm0,7a1.38,1.38,0,0,1-1.2-.66,5.05,5.05,0,0,1,0-4.08,1.42,1.42,0,0,1,2.4,0,4.95,4.95,0,0,1,0,4.08,1.36,1.36,0,0,1-1.2.66Z"/><path d="M121.35,146.09a3.36,3.36,0,0,0-3.13,2,6,6,0,0,0,0,4.67,3.36,3.36,0,0,0,3.13,2,3.33,3.33,0,0,0,3.14-2,6,6,0,0,0,0-4.67,3.33,3.33,0,0,0-3.14-2Zm0,7a1.36,1.36,0,0,1-1.19-.66,4.95,4.95,0,0,1,0-4.08,1.42,1.42,0,0,1,2.4,0,4.95,4.95,0,0,1,0,4.08,1.37,1.37,0,0,1-1.21.66Z"/><path d="M128.85,146.09a3.87,3.87,0,0,0-1.61.34,2.73,2.73,0,0,0-1.14,1,2.57,2.57,0,0,0-.42,1.48,2.41,2.41,0,0,0,.38,1.37,2.51,2.51,0,0,0,1,.92,3.24,3.24,0,0,0,1.47.32,2.85,2.85,0,0,0,2.09-.75,2.67,2.67,0,0,1-.68,1.82,2.26,2.26,0,0,1-1.69.63,2.72,2.72,0,0,1-1.57-.42L126,154.2a3.39,3.39,0,0,0,1,.43,5.43,5.43,0,0,0,1.29.15,4.66,4.66,0,0,0,2.24-.53,3.65,3.65,0,0,0,1.51-1.55,5.26,5.26,0,0,0,.53-2.44,4.38,4.38,0,0,0-1-3.09,3.59,3.59,0,0,0-2.77-1.08Zm.15,4a1.52,1.52,0,0,1-1-.34,1.16,1.16,0,0,1-.39-.92,1.14,1.14,0,0,1,.39-.91,1.53,1.53,0,0,1,1-.34,1.57,1.57,0,0,1,1.07.35,1.23,1.23,0,0,1,0,1.81,1.56,1.56,0,0,1-1,.35Z"/><path class="cls-2" d="M181.08,23.27a2.59,2.59,0,0,1-1-.89l.53-.6a2.09,2.09,0,0,0,1.81,1c1,0,1.56-.61,1.56-1.84V15.88h-3.07v-.77h4v5.82a2.86,2.86,0,0,1-.62,2,2.38,2.38,0,0,1-1.83.66A2.86,2.86,0,0,1,181.08,23.27Z"/><path class="cls-2" d="M188.93,23a4.12,4.12,0,0,1-1.58-1.52,4.26,4.26,0,0,1-.57-2.19,4.2,4.2,0,0,1,.57-2.18,4.08,4.08,0,0,1,1.58-1.53,4.64,4.64,0,0,1,2.26-.56,4.52,4.52,0,0,1,2.25.55A4.08,4.08,0,0,1,195,17.12a4.42,4.42,0,0,1,0,4.38A4.08,4.08,0,0,1,193.44,23a4.86,4.86,0,0,1-4.51,0Zm4.06-.68a3.16,3.16,0,0,0,1.26-1.25,3.67,3.67,0,0,0,0-3.56A3.22,3.22,0,0,0,193,16.28a3.59,3.59,0,0,0-1.8-.45,3.64,3.64,0,0,0-1.8.45,3.25,3.25,0,0,0-1.27,1.25,3.61,3.61,0,0,0,0,3.56,3.18,3.18,0,0,0,1.27,1.25,3.64,3.64,0,0,0,1.8.45A3.59,3.59,0,0,0,193,22.34Z"/><path class="cls-2" d="M204.16,19.89a2.08,2.08,0,0,1,.45,1.38,1.94,1.94,0,0,1-.8,1.66,4,4,0,0,1-2.36.58h-3.86v-8.4h3.62a3.6,3.6,0,0,1,2.18.57,1.83,1.83,0,0,1,.78,1.59,2,2,0,0,1-1.29,1.91A2.27,2.27,0,0,1,204.16,19.89Zm-5.68-4.05v3.05h2.67a2.73,2.73,0,0,0,1.58-.39,1.45,1.45,0,0,0,0-2.27,2.73,2.73,0,0,0-1.58-.39Zm4.67,6.55a1.33,1.33,0,0,0,.57-1.2c0-1-.76-1.57-2.28-1.57h-3v3.16h3A3.09,3.09,0,0,0,203.15,22.39Z"/><path class="cls-2" d="M211.19,23a4.12,4.12,0,0,1-1.58-1.52,4.26,4.26,0,0,1-.57-2.19,4.2,4.2,0,0,1,.57-2.18,4.08,4.08,0,0,1,1.58-1.53,4.64,4.64,0,0,1,2.26-.56,4.52,4.52,0,0,1,2.25.55,4.08,4.08,0,0,1,1.58,1.53,4.42,4.42,0,0,1,0,4.38A4.08,4.08,0,0,1,215.7,23a4.86,4.86,0,0,1-4.51,0Zm4.06-.68a3.16,3.16,0,0,0,1.26-1.25,3.67,3.67,0,0,0,0-3.56,3.22,3.22,0,0,0-1.26-1.25,3.59,3.59,0,0,0-1.8-.45,3.64,3.64,0,0,0-1.8.45,3.25,3.25,0,0,0-1.27,1.25,3.61,3.61,0,0,0,0,3.56,3.18,3.18,0,0,0,1.27,1.25,3.64,3.64,0,0,0,1.8.45A3.59,3.59,0,0,0,215.25,22.34Z"/><path class="cls-2" d="M226.87,15.11v8.4h-.73l-5.4-6.82v6.82h-.89v-8.4h.73L226,21.93V15.11Z"/><path class="cls-2" d="M233.27,23.28a3.25,3.25,0,0,1-1.32-.79l.34-.68a3.46,3.46,0,0,0,1.22.74,4.58,4.58,0,0,0,1.56.28,2.83,2.83,0,0,0,1.69-.42,1.27,1.27,0,0,0,.56-1.07,1.06,1.06,0,0,0-.3-.8,2.22,2.22,0,0,0-.75-.47c-.3-.1-.71-.22-1.24-.35a12.38,12.38,0,0,1-1.51-.46,2.55,2.55,0,0,1-1-.68,1.81,1.81,0,0,1-.4-1.24,2.07,2.07,0,0,1,.34-1.16,2.3,2.3,0,0,1,1-.83,4.18,4.18,0,0,1,1.73-.31,4.81,4.81,0,0,1,1.41.2,4.07,4.07,0,0,1,1.19.54l-.3.71a4.29,4.29,0,0,0-1.13-.52,4,4,0,0,0-1.17-.17,2.78,2.78,0,0,0-1.67.42,1.33,1.33,0,0,0-.55,1.1,1.11,1.11,0,0,0,.3.81,2.13,2.13,0,0,0,.77.47c.31.11.72.22,1.24.35a11.72,11.72,0,0,1,1.5.45,2.42,2.42,0,0,1,1,.67,1.76,1.76,0,0,1,.4,1.22,2.13,2.13,0,0,1-.34,1.16,2.35,2.35,0,0,1-1.05.83,4.52,4.52,0,0,1-1.74.3A5.4,5.4,0,0,1,233.27,23.28Z"/><path class="cls-2" d="M241.64,15.88h-2.95v-.77h6.79v.77h-2.95v7.63h-.89Z"/><path class="cls-2" d="M248.19,23a4.08,4.08,0,0,1-1.59-1.52,4.26,4.26,0,0,1-.57-2.19,4.2,4.2,0,0,1,.57-2.18,4,4,0,0,1,1.59-1.53,4.86,4.86,0,0,1,4.51,0,4.15,4.15,0,0,1,1.58,1.53,4.49,4.49,0,0,1,0,4.38A4.15,4.15,0,0,1,252.7,23a4.57,4.57,0,0,1-2.25.55A4.51,4.51,0,0,1,248.19,23Zm4.06-.68a3.16,3.16,0,0,0,1.26-1.25,3.67,3.67,0,0,0,0-3.56,3.22,3.22,0,0,0-1.26-1.25,3.64,3.64,0,0,0-1.8-.45,3.68,3.68,0,0,0-1.81.45,3.32,3.32,0,0,0-1.27,1.25,3.67,3.67,0,0,0,0,3.56,3.25,3.25,0,0,0,1.27,1.25,3.68,3.68,0,0,0,1.81.45A3.64,3.64,0,0,0,252.25,22.34Z"/><path class="cls-2" d="M258.24,23a4.12,4.12,0,0,1-1.57-1.53,4.49,4.49,0,0,1,0-4.38,4.08,4.08,0,0,1,1.58-1.53,4.92,4.92,0,0,1,4-.24,3.62,3.62,0,0,1,1.35.91l-.57.57a3.31,3.31,0,0,0-2.48-1,3.58,3.58,0,0,0-1.81.46,3.27,3.27,0,0,0-1.28,1.25,3.41,3.41,0,0,0-.46,1.77,3.37,3.37,0,0,0,1.74,3,3.68,3.68,0,0,0,1.81.45,3.25,3.25,0,0,0,2.48-1l.57.57a3.77,3.77,0,0,1-1.35.92,4.68,4.68,0,0,1-1.74.31A4.57,4.57,0,0,1,258.24,23Z"/><path class="cls-2" d="M268.08,19.56l-1.72,1.74v2.21h-.89v-8.4h.89v5.08l4.93-5.08h1l-3.63,3.81,3.89,4.59h-1.06Z"/><path class="cls-2" d="M187.45,37.14v.77h-5.94v-8.4h5.76v.77H182.4v3h4.34V34H182.4v3.12Z"/><path class="cls-2" d="M194.7,37.91,192,34.22l-2.7,3.69h-1l3.19-4.32-3-4.08h1L192,32.94l2.52-3.43h1l-3,4.06,3.2,4.34Z"/><path class="cls-2" d="M198.4,37.43a4.05,4.05,0,0,1-1.57-1.53,4.49,4.49,0,0,1,0-4.38A4.08,4.08,0,0,1,198.41,30a4.57,4.57,0,0,1,2.25-.55,4.63,4.63,0,0,1,1.73.31,3.62,3.62,0,0,1,1.35.91l-.57.57a3.31,3.31,0,0,0-2.48-1,3.56,3.56,0,0,0-1.81.46,3.27,3.27,0,0,0-1.28,1.25,3.41,3.41,0,0,0-.46,1.77,3.45,3.45,0,0,0,.46,1.78,3.34,3.34,0,0,0,1.28,1.25,3.65,3.65,0,0,0,1.81.45,3.26,3.26,0,0,0,2.48-1l.57.57a3.77,3.77,0,0,1-1.35.92,4.72,4.72,0,0,1-1.74.31A4.57,4.57,0,0,1,198.4,37.43Z"/><path class="cls-2" d="M212.65,29.51v8.4h-.87V34h-5.26v3.87h-.89v-8.4h.89v3.75h5.26V29.51Z"/><path class="cls-2" d="M220.66,35.67H216l-1,2.24H214l3.84-8.4h.88l3.84,8.4h-.94Zm-.33-.72-2-4.51-2,4.51Z"/><path class="cls-2" d="M231,29.51v8.4h-.73l-5.4-6.81v6.81H224v-8.4h.73l5.41,6.82V29.51Z"/><path class="cls-2" d="M239.66,33.71h.85v3.21a4.2,4.2,0,0,1-1.39.79,5.25,5.25,0,0,1-1.69.27,4.62,4.62,0,0,1-2.27-.55,4.08,4.08,0,0,1-1.58-1.53,4.42,4.42,0,0,1,0-4.38A4.08,4.08,0,0,1,235.16,30a4.63,4.63,0,0,1,2.28-.55,4.84,4.84,0,0,1,1.77.31,3.49,3.49,0,0,1,1.35.9l-.55.57a3.44,3.44,0,0,0-2.53-1,3.74,3.74,0,0,0-1.84.45,3.3,3.3,0,0,0-1.29,1.25,3.48,3.48,0,0,0,1.28,4.81,3.74,3.74,0,0,0,1.84.45,3.6,3.6,0,0,0,2.19-.65Z"/><path class="cls-2" d="M249,37.14v.77H243v-8.4h5.76v.77h-4.87v3h4.34V34h-4.34v3.12Z"/><path class="cls-2" d="M262.92,29.51v8.4h-.85V31.19l-3.3,5.65h-.42l-3.3-5.61v6.68h-.86v-8.4h.74l3.64,6.23,3.62-6.23Z"/><path class="cls-2" d="M270.92,35.67h-4.68l-1,2.24h-.92l3.84-8.4H269l3.84,8.4h-.94ZM270.6,35l-2-4.51-2,4.51Z"/><path class="cls-2" d="M280,37.91l-1.92-2.7a4.83,4.83,0,0,1-.67,0h-2.25v2.66h-.89v-8.4h3.14a3.81,3.81,0,0,1,2.52.77,2.61,2.61,0,0,1,.91,2.11,2.72,2.72,0,0,1-.49,1.66,2.75,2.75,0,0,1-1.43,1L281,37.91Zm-.7-4a2.16,2.16,0,0,0,0-3.11,2.9,2.9,0,0,0-1.91-.55h-2.23v4.21h2.23A2.9,2.9,0,0,0,279.29,33.94Z"/><path class="cls-2" d="M285.54,34l-1.72,1.74v2.21h-.89v-8.4h.89v5.08l4.93-5.08h1l-3.63,3.81L290,37.91H289Z"/><path class="cls-2" d="M297.41,37.14v.77h-5.94v-8.4h5.76v.77h-4.88v3h4.35V34h-4.35v3.12Z"/><path class="cls-2" d="M301.13,30.28h-3v-.77H305v.77h-3v7.63h-.88Z"/><path class="cls-2" d="M320.35,100.27a2,2,0,0,1,.45,1.37,1.92,1.92,0,0,1-.79,1.66,4,4,0,0,1-2.36.59h-3.87v-8.4h3.63a3.65,3.65,0,0,1,2.18.56,1.88,1.88,0,0,1,.77,1.6,2,2,0,0,1-.34,1.18,2.07,2.07,0,0,1-.94.72A2.2,2.2,0,0,1,320.35,100.27Zm-5.68-4v3h2.68a2.7,2.7,0,0,0,1.57-.39,1.45,1.45,0,0,0,0-2.27,2.7,2.7,0,0,0-1.57-.39Zm4.67,6.55a1.36,1.36,0,0,0,.58-1.2c0-1-.76-1.57-2.28-1.57h-3v3.15h3A3,3,0,0,0,319.34,102.77Z"/><path class="cls-2" d="M328.77,103.12v.77h-5.94v-8.4h5.76v.76h-4.87v3h4.34V100h-4.34v3.12Z"/><path class="cls-2" d="M332.21,103.41a4.05,4.05,0,0,1-1.57-1.53,4.31,4.31,0,0,1-.57-2.19,4.26,4.26,0,0,1,.57-2.19A3.88,3.88,0,0,1,332.22,96a4.58,4.58,0,0,1,2.25-.56,4.63,4.63,0,0,1,1.73.32,3.4,3.4,0,0,1,1.34.91l-.56.56a3.35,3.35,0,0,0-2.48-1,3.72,3.72,0,0,0-1.82.45,3.32,3.32,0,0,0-1.27,1.25,3.59,3.59,0,0,0,0,3.55,3.25,3.25,0,0,0,1.27,1.25,3.73,3.73,0,0,0,1.82.46,3.32,3.32,0,0,0,2.48-1l.56.56a3.49,3.49,0,0,1-1.35.92,4.86,4.86,0,0,1-4-.23Z"/><path class="cls-2" d="M344.49,101.64h-4.68l-1,2.25h-.92l3.84-8.4h.88l3.84,8.4h-.94Zm-.32-.72-2-4.51-2,4.51Z"/><path class="cls-2" d="M356.55,95.49v8.4h-.85V97.17l-3.3,5.65H352l-3.3-5.62v6.69h-.85v-8.4h.73l3.65,6.22,3.61-6.22Z"/><path class="cls-2" d="M365.23,103.12v.77h-5.94v-8.4h5.76v.76h-4.87v3h4.34V100h-4.34v3.12Z"/><path class="cls-2" d="M375.73,101.64h-4.68l-1,2.25h-.92l3.84-8.4h.87l3.84,8.4h-.93Zm-.33-.72-2-4.51-2,4.51Z"/><path class="cls-2" d="M389.23,95.49v8.4h-.88V100H383.1v3.88h-.89v-8.4h.89v3.74h5.25V95.49Z"/><path class="cls-2" d="M397.9,103.12v.77H392v-8.4h5.76v.76h-4.87v3h4.35V100h-4.35v3.12Z"/><path class="cls-2" d="M405.26,101.64h-4.68l-1,2.25h-.92l3.84-8.4h.87l3.84,8.4h-.93Zm-.33-.72-2-4.51-2,4.51Z"/><path class="cls-2" d="M408.6,95.49H412a5,5,0,0,1,2.35.53A3.85,3.85,0,0,1,416,97.51a4.43,4.43,0,0,1,0,4.35,3.79,3.79,0,0,1-1.58,1.49,5,5,0,0,1-2.35.54H408.6Zm3.37,7.63a4.1,4.1,0,0,0,1.93-.44,3.18,3.18,0,0,0,1.28-1.21,3.69,3.69,0,0,0,0-3.57,3.18,3.18,0,0,0-1.28-1.21,4.1,4.1,0,0,0-1.93-.44h-2.49v6.87Z"/><path class="cls-2" d="M423.06,103.4a4,4,0,0,1-1.58-1.53,4.47,4.47,0,0,1,0-4.37A4,4,0,0,1,423.06,96a4.64,4.64,0,0,1,2.26-.56,4.52,4.52,0,0,1,2.25.56,3.94,3.94,0,0,1,1.58,1.53,4.17,4.17,0,0,1,.58,2.19,4.22,4.22,0,0,1-.58,2.19,4.08,4.08,0,0,1-1.58,1.53,4.86,4.86,0,0,1-4.51,0Zm4.06-.68a3.22,3.22,0,0,0,1.26-1.25,3.47,3.47,0,0,0,.46-1.78,3.51,3.51,0,0,0-.46-1.79,3.2,3.2,0,0,0-1.26-1.24,3.59,3.59,0,0,0-1.8-.45,3.64,3.64,0,0,0-1.8.45,3.22,3.22,0,0,0-1.27,1.24,3.52,3.52,0,0,0-.47,1.79,3.48,3.48,0,0,0,.47,1.78,3.25,3.25,0,0,0,1.27,1.25,3.64,3.64,0,0,0,1.8.45A3.59,3.59,0,0,0,427.12,102.72Z"/><path class="cls-2" d="M432.61,96.25v3.3H437v.77h-4.34v3.57h-.89v-8.4h5.76v.76Z"/><path class="cls-2" d="M313.78,109.89h3.42a5,5,0,0,1,2.36.53,3.92,3.92,0,0,1,1.58,1.49,4.5,4.5,0,0,1,0,4.35,3.85,3.85,0,0,1-1.58,1.49,5,5,0,0,1-2.36.54h-3.42Zm3.38,7.63a4.1,4.1,0,0,0,1.93-.44,3.18,3.18,0,0,0,1.28-1.21,3.69,3.69,0,0,0,0-3.57,3.18,3.18,0,0,0-1.28-1.21,4.1,4.1,0,0,0-1.93-.44h-2.49v6.87Z"/><path class="cls-2" d="M329.64,117.52v.77H323.7v-8.4h5.76v.76h-4.88v3h4.35v.76h-4.35v3.12Z"/><path class="cls-2" d="M337.39,110.65a2.63,2.63,0,0,1,.91,2.12,2.59,2.59,0,0,1-.91,2.1,3.81,3.81,0,0,1-2.52.76h-2.26v2.66h-.89v-8.4h3.15A3.81,3.81,0,0,1,337.39,110.65Zm-.64,3.66a1.9,1.9,0,0,0,.66-1.54,1.92,1.92,0,0,0-.66-1.57,2.94,2.94,0,0,0-1.91-.55h-2.23v4.2h2.23A2.94,2.94,0,0,0,336.75,114.31Z"/><path class="cls-2" d="M345.07,116h-4.68l-1,2.25h-.92l3.84-8.4h.87l3.84,8.4h-.93Zm-.33-.72-2-4.51-2,4.51Z"/><path class="cls-2" d="M354.14,118.29l-1.92-2.7c-.22,0-.44,0-.67,0h-2.26v2.67h-.89v-8.4h3.15a3.81,3.81,0,0,1,2.52.76,2.66,2.66,0,0,1,.91,2.12,2.75,2.75,0,0,1-.5,1.66,2.78,2.78,0,0,1-1.42,1l2.05,2.88Zm-.71-4a1.89,1.89,0,0,0,.66-1.54,1.92,1.92,0,0,0-.66-1.57,2.94,2.94,0,0,0-1.91-.55h-2.23v4.22h2.23A2.88,2.88,0,0,0,353.43,114.31Z"/><path class="cls-2" d="M358.59,110.65h-2.95v-.76h6.79v.76h-2.95v7.64h-.89Z"/><path class="cls-2" d="M369.79,117.52v.77h-5.94v-8.4h5.76v.76h-4.87v3h4.34v.76h-4.34v3.12Z"/><path class="cls-2" d="M380.6,109.89v8.4h-.85v-6.72l-3.3,5.65H376l-3.3-5.62v6.69h-.85v-8.4h.73l3.65,6.22,3.61-6.22Z"/><path class="cls-2" d="M389.27,117.52v.77h-5.94v-8.4h5.76v.76h-4.87v3h4.35v.76h-4.35v3.12Z"/><path class="cls-2" d="M398.38,109.89v8.4h-.73l-5.4-6.82v6.82h-.89v-8.4h.73l5.42,6.81v-6.81Z"/><path class="cls-2" d="M402.75,110.65H399.8v-.76h6.79v.76h-2.95v7.64h-.89Z"/><path class="cls-2" d="M436.08,17.66a2.08,2.08,0,0,1,.45,1.38,1.93,1.93,0,0,1-.79,1.66,4,4,0,0,1-2.36.58h-3.87v-8.4h3.63a3.64,3.64,0,0,1,2.18.57,1.85,1.85,0,0,1,.77,1.59,2,2,0,0,1-.34,1.18,2,2,0,0,1-.94.73A2.24,2.24,0,0,1,436.08,17.66Zm-5.68-4.05v3.05h2.68a2.7,2.7,0,0,0,1.57-.39,1.45,1.45,0,0,0,0-2.27,2.7,2.7,0,0,0-1.57-.39Zm4.67,6.56a1.36,1.36,0,0,0,.58-1.2c0-1-.76-1.58-2.28-1.58h-3v3.16h3A3.12,3.12,0,0,0,435.07,20.17Z"/><path class="cls-2" d="M444.5,20.51v.77h-5.94v-8.4h5.76v.77h-4.87v3h4.34v.75h-4.34v3.12Z"/><path class="cls-2" d="M447.94,20.8a4.05,4.05,0,0,1-1.57-1.53,4.49,4.49,0,0,1,0-4.38A4,4,0,0,1,448,13.36a4.57,4.57,0,0,1,2.25-.55,4.63,4.63,0,0,1,1.73.31,3.51,3.51,0,0,1,1.34.91l-.56.57a3.32,3.32,0,0,0-2.48-1,3.62,3.62,0,0,0-1.82.46,3.25,3.25,0,0,0-1.27,1.25,3.42,3.42,0,0,0-.47,1.77,3.45,3.45,0,0,0,.47,1.78,3.32,3.32,0,0,0,1.27,1.25,3.72,3.72,0,0,0,1.82.45,3.28,3.28,0,0,0,2.48-1l.56.57a3.6,3.6,0,0,1-1.35.92,4.67,4.67,0,0,1-1.73.31A4.57,4.57,0,0,1,447.94,20.8Z"/><path class="cls-2" d="M460.22,19h-4.68l-1,2.24h-.92l3.84-8.4h.88l3.84,8.4h-.94Zm-.32-.72-2-4.51-2,4.51Z"/><path class="cls-2" d="M472.28,12.88v8.4h-.85V14.56l-3.3,5.65h-.42l-3.3-5.61v6.68h-.85v-8.4h.73l3.65,6.23,3.61-6.23Z"/><path class="cls-2" d="M481,20.51v.77H475v-8.4h5.76v.77h-4.87v3h4.34v.75h-4.34v3.12Z"/><path class="cls-2" d="M491.46,19h-4.68l-1,2.24h-.92l3.84-8.4h.87l3.84,8.4h-.94Zm-.33-.72-2-4.51-2,4.51Z"/><path class="cls-2" d="M499.33,20.8a4.12,4.12,0,0,1-1.57-1.53,4.49,4.49,0,0,1,0-4.38,4.08,4.08,0,0,1,1.58-1.53,4.61,4.61,0,0,1,2.26-.55,4.67,4.67,0,0,1,1.73.31,3.67,3.67,0,0,1,1.34.91l-.56.57a3.35,3.35,0,0,0-2.49-1,3.58,3.58,0,0,0-1.81.46,3.34,3.34,0,0,0-1.28,1.25,3.41,3.41,0,0,0-.46,1.77,3.37,3.37,0,0,0,1.74,3,3.68,3.68,0,0,0,1.81.45,3.29,3.29,0,0,0,2.49-1l.56.57a3.77,3.77,0,0,1-1.35.92,4.67,4.67,0,0,1-1.73.31A4.58,4.58,0,0,1,499.33,20.8Z"/><path class="cls-2" d="M512.51,20.51v.77h-5.94v-8.4h5.76v.77h-4.88v3h4.35v.75h-4.35v3.12Z"/><path class="cls-2" d="M516,20.8a4.18,4.18,0,0,1-1.59-1.53,4.47,4.47,0,0,1,0-4.37A4,4,0,0,1,516,13.37a4.86,4.86,0,0,1,4.51,0,4.15,4.15,0,0,1,1.58,1.53,4.49,4.49,0,0,1,0,4.38,4.15,4.15,0,0,1-1.58,1.53,4.9,4.9,0,0,1-4.51,0Zm4.06-.69a3.29,3.29,0,0,0,1.26-1.25,3.75,3.75,0,0,0,0-3.56A3.36,3.36,0,0,0,520,14.05a3.85,3.85,0,0,0-3.61,0,3.32,3.32,0,0,0-1.27,1.25,3.67,3.67,0,0,0,0,3.56,3.25,3.25,0,0,0,1.27,1.25,3.85,3.85,0,0,0,3.61,0Z"/><path class="cls-2" d="M430.92,35.2a4.34,4.34,0,0,1-1.58-5.9,4.08,4.08,0,0,1,1.58-1.53,4.66,4.66,0,0,1,2.27-.56,4.57,4.57,0,0,1,2.25.55A4.12,4.12,0,0,1,437,29.29a4.42,4.42,0,0,1,0,4.38,4.12,4.12,0,0,1-1.57,1.53,4.57,4.57,0,0,1-2.25.55A4.65,4.65,0,0,1,430.92,35.2Zm4.07-.69a3.29,3.29,0,0,0,1.26-1.25,3.75,3.75,0,0,0,0-3.56A3.36,3.36,0,0,0,435,28.45a3.85,3.85,0,0,0-3.61,0,3.32,3.32,0,0,0-1.27,1.25,3.67,3.67,0,0,0,0,3.56,3.25,3.25,0,0,0,1.27,1.25,3.85,3.85,0,0,0,3.61,0Z"/><path class="cls-2" d="M440.47,28.05v3.3h4.34v.77h-4.34v3.56h-.89v-8.4h5.76v.77Z"/><path class="cls-2" d="M452,28.05H449v-.77h6.79v.77h-3v7.63H452Z"/><path class="cls-2" d="M464.23,27.28v8.4h-.88V31.81H458.1v3.87h-.89v-8.4h.89V31h5.25V27.28Z"/><path class="cls-2" d="M472.9,34.91v.77H467v-8.4h5.76v.77h-4.87v3h4.35v.75h-4.35v3.12Z"/><path class="cls-2" d="M479.53,35.2A4.12,4.12,0,0,1,478,33.67a4.49,4.49,0,0,1,0-4.38,4.08,4.08,0,0,1,1.58-1.53,4.92,4.92,0,0,1,4-.24,3.62,3.62,0,0,1,1.35.91l-.57.57a3.31,3.31,0,0,0-2.48-1,3.58,3.58,0,0,0-1.81.46,3.27,3.27,0,0,0-1.28,1.25,3.41,3.41,0,0,0-.46,1.77,3.45,3.45,0,0,0,.46,1.78A3.34,3.34,0,0,0,480,34.51a3.68,3.68,0,0,0,1.81.45,3.25,3.25,0,0,0,2.48-1l.57.57a3.77,3.77,0,0,1-1.35.92,4.68,4.68,0,0,1-1.74.31A4.57,4.57,0,0,1,479.53,35.2Z"/><path class="cls-2" d="M488,35.2a4.18,4.18,0,0,1-1.59-1.53,4.47,4.47,0,0,1,0-4.37A4,4,0,0,1,488,27.77a4.86,4.86,0,0,1,4.51,0,4.12,4.12,0,0,1,1.57,1.53,4.42,4.42,0,0,1,0,4.38,4.12,4.12,0,0,1-1.57,1.53,4.9,4.9,0,0,1-4.51,0Zm4.06-.69a3.29,3.29,0,0,0,1.26-1.25,3.75,3.75,0,0,0,0-3.56,3.36,3.36,0,0,0-1.26-1.25,3.85,3.85,0,0,0-3.61,0,3.32,3.32,0,0,0-1.27,1.25,3.67,3.67,0,0,0,0,3.56,3.25,3.25,0,0,0,1.27,1.25,3.85,3.85,0,0,0,3.61,0Z"/><path class="cls-2" d="M505.38,27.28v8.4h-.86V29l-3.29,5.65h-.43L497.5,29v6.68h-.85v-8.4h.73L501,33.51l3.62-6.23Z"/><path class="cls-2" d="M513.78,28.05a2.9,2.9,0,0,1,0,4.22,3.81,3.81,0,0,1-2.52.76H509v2.65h-.89v-8.4h3.15A3.81,3.81,0,0,1,513.78,28.05Zm-.64,3.65a1.87,1.87,0,0,0,.66-1.54,1.9,1.9,0,0,0-.66-1.56,2.9,2.9,0,0,0-1.91-.55H509v4.2h2.23A2.9,2.9,0,0,0,513.14,31.7Z"/><path class="cls-2" d="M521.46,33.44h-4.68l-1,2.24h-.92l3.84-8.4h.87l3.84,8.4h-.94Zm-.33-.72-2-4.51-2,4.51Z"/><path class="cls-2" d="M533.52,27.28v8.4h-.86V29l-3.3,5.65h-.42L525.64,29v6.68h-.85v-8.4h.73l3.65,6.23,3.61-6.23Z"/><path class="cls-2" d="M539.13,32.78v2.9h-.87v-2.9l-3.36-5.5h.94L538.72,32l2.88-4.72h.89Z"/><path class="cls-2" d="M560.18,96.21v3.3h4.34v.76h-4.34v3.57h-.89v-8.4h5.76v.77Z"/><path class="cls-2" d="M566.89,95.44h.88v8.4h-.88Z"/><path class="cls-2" d="M577.53,95.44v8.4h-.73L571.4,97v6.82h-.89v-8.4h.73l5.41,6.81V95.44Z"/><path class="cls-2" d="M580.27,95.44h.88v8.4h-.88Z"/><path class="cls-2" d="M584.41,103.61a3.25,3.25,0,0,1-1.32-.79l.35-.69a3.19,3.19,0,0,0,1.21.74,4.35,4.35,0,0,0,1.56.28,2.83,2.83,0,0,0,1.69-.41,1.28,1.28,0,0,0,.56-1.07,1.09,1.09,0,0,0-.3-.81,2.2,2.2,0,0,0-.75-.46,10.3,10.3,0,0,0-1.24-.35,12.15,12.15,0,0,1-1.51-.47,2.42,2.42,0,0,1-1-.67,1.86,1.86,0,0,1-.4-1.24,2.07,2.07,0,0,1,.34-1.16,2.24,2.24,0,0,1,1-.83,4.18,4.18,0,0,1,1.73-.31,5.16,5.16,0,0,1,1.41.19,4.36,4.36,0,0,1,1.19.55l-.3.71a4,4,0,0,0-1.13-.52,4.06,4.06,0,0,0-1.17-.18,2.66,2.66,0,0,0-1.66.43,1.3,1.3,0,0,0-.56,1.1,1.13,1.13,0,0,0,.3.81,2,2,0,0,0,.77.46c.31.11.72.23,1.24.36a11.72,11.72,0,0,1,1.5.45,2.42,2.42,0,0,1,1,.67,1.76,1.76,0,0,1,.4,1.22,2.07,2.07,0,0,1-.34,1.16,2.33,2.33,0,0,1-1,.82,4.27,4.27,0,0,1-1.74.31A5.4,5.4,0,0,1,584.41,103.61Z"/><path class="cls-2" d="M598.29,95.44v8.4h-.88V100h-5.25v3.88h-.89v-8.4h.89v3.74h5.25V95.44Z"/><path class="cls-2" d="M607,103.07v.77H601v-8.4h5.76v.77h-4.88v3h4.35V100h-4.35v3.12Z"/><path class="cls-2" d="M609.05,95.44h3.42a5.1,5.1,0,0,1,2.36.53,3.92,3.92,0,0,1,1.58,1.49,4.52,4.52,0,0,1,0,4.36,3.89,3.89,0,0,1-1.58,1.48,5,5,0,0,1-2.36.54h-3.42Zm3.38,7.63a4.1,4.1,0,0,0,1.93-.44,3.11,3.11,0,0,0,1.28-1.21,3.67,3.67,0,0,0,0-3.56,3.2,3.2,0,0,0-1.28-1.22,4.1,4.1,0,0,0-1.93-.43h-2.49v6.86Z"/><path class="cls-2" d="M628.68,100.22a2.06,2.06,0,0,1,.45,1.37,2,2,0,0,1-.8,1.67,4,4,0,0,1-2.35.58h-3.87v-8.4h3.62a3.68,3.68,0,0,1,2.18.56,1.86,1.86,0,0,1,.78,1.6,2,2,0,0,1-.35,1.18,2,2,0,0,1-.94.73A2.21,2.21,0,0,1,628.68,100.22Zm-5.68-4v3h2.67a2.73,2.73,0,0,0,1.58-.39,1.45,1.45,0,0,0,0-2.27,2.73,2.73,0,0,0-1.58-.39Zm4.67,6.55a1.33,1.33,0,0,0,.57-1.2c0-1-.76-1.57-2.28-1.57h-3v3.16h3A3.09,3.09,0,0,0,627.67,102.72Z"/><path class="cls-2" d="M631.16,95.44h.89v8.4h-.89Z"/><path class="cls-2" d="M636.19,103.35a4.08,4.08,0,0,1-1.58-1.53,4.25,4.25,0,0,1,1.58-5.9,4.64,4.64,0,0,1,2.26-.55,4.52,4.52,0,0,1,2.25.55,4.08,4.08,0,0,1,1.58,1.53,4.42,4.42,0,0,1,0,4.38,4.08,4.08,0,0,1-1.58,1.53,4.52,4.52,0,0,1-2.25.55A4.64,4.64,0,0,1,636.19,103.35Zm4.06-.68a3.22,3.22,0,0,0,1.26-1.25,3.67,3.67,0,0,0,0-3.56,3.16,3.16,0,0,0-1.26-1.25,3.59,3.59,0,0,0-1.8-.45,3.64,3.64,0,0,0-1.8.45,3.18,3.18,0,0,0-1.27,1.25,3.61,3.61,0,0,0,0,3.56,3.25,3.25,0,0,0,1.27,1.25,3.64,3.64,0,0,0,1.8.45A3.59,3.59,0,0,0,640.25,102.67Z"/><path class="cls-2" d="M651.87,95.44v8.4h-.73L645.74,97v6.82h-.89v-8.4h.73l5.41,6.81V95.44Z"/><path class="cls-2" d="M654.61,95.44h.88v8.4h-.88Z"/><path class="cls-2" d="M659.63,103.36a4.05,4.05,0,0,1-1.57-1.53,4.49,4.49,0,0,1,0-4.38,4.05,4.05,0,0,1,1.57-1.53,4.95,4.95,0,0,1,4-.24,3.59,3.59,0,0,1,1.34.91l-.56.56a3.38,3.38,0,0,0-2.49-1,3.71,3.71,0,0,0-1.81.45,3.41,3.41,0,0,0-1.28,1.25,3.55,3.55,0,0,0-.46,1.78,3.51,3.51,0,0,0,.46,1.77,3.34,3.34,0,0,0,1.28,1.25,3.61,3.61,0,0,0,1.81.46,3.32,3.32,0,0,0,2.49-1l.56.56a3.65,3.65,0,0,1-1.35.92,4.67,4.67,0,0,1-1.73.32A4.57,4.57,0,0,1,659.63,103.36Z"/><path class="cls-2" d="M560.13,117.37a3.73,3.73,0,0,1-.91-2.72v-4.81h.89v4.77a3.15,3.15,0,0,0,.66,2.19,2.91,2.91,0,0,0,3.83,0,3.15,3.15,0,0,0,.66-2.19v-4.77h.86v4.81a3.73,3.73,0,0,1-.91,2.72,3.33,3.33,0,0,1-2.53.94A3.38,3.38,0,0,1,560.13,117.37Z"/><path class="cls-2" d="M575.81,109.84v8.4h-.73l-5.4-6.82v6.82h-.88v-8.4h.73l5.41,6.81v-6.81Z"/><path class="cls-2" d="M578.55,109.84h.89v8.4h-.89Z"/><path class="cls-2" d="M589.06,109.84l-3.72,8.4h-.87l-3.72-8.4h1l3.21,7.3,3.24-7.3Z"/><path class="cls-2" d="M596.21,117.47v.77h-5.94v-8.4H596v.77h-4.87v3h4.35v.75h-4.35v3.12Z"/><path class="cls-2" d="M604,118.24l-1.92-2.7c-.22,0-.44,0-.67,0h-2.26v2.67h-.89v-8.4h3.15a3.81,3.81,0,0,1,2.52.77,2.62,2.62,0,0,1,.91,2.11,2.75,2.75,0,0,1-.5,1.66,2.78,2.78,0,0,1-1.42,1l2,2.88Zm-.71-4a2.17,2.17,0,0,0,0-3.12,2.94,2.94,0,0,0-1.91-.54h-2.23v4.21h2.23A2.88,2.88,0,0,0,603.33,114.27Z"/><path class="cls-2" d="M607.5,118a3.25,3.25,0,0,1-1.32-.79l.34-.69a3.36,3.36,0,0,0,1.21.74,4.44,4.44,0,0,0,1.56.29,2.84,2.84,0,0,0,1.7-.42,1.28,1.28,0,0,0,.56-1.07,1.06,1.06,0,0,0-.31-.81,2,2,0,0,0-.75-.46,9.55,9.55,0,0,0-1.23-.35,12.15,12.15,0,0,1-1.51-.47,2.42,2.42,0,0,1-1-.67,1.81,1.81,0,0,1-.4-1.24,2.14,2.14,0,0,1,.33-1.16,2.32,2.32,0,0,1,1-.83,4.18,4.18,0,0,1,1.73-.31,5.26,5.26,0,0,1,1.41.19,4.36,4.36,0,0,1,1.19.55l-.3.71a4,4,0,0,0-1.13-.52,4.06,4.06,0,0,0-1.17-.18,2.71,2.71,0,0,0-1.67.43,1.32,1.32,0,0,0-.56,1.1,1.13,1.13,0,0,0,.31.81,2,2,0,0,0,.77.46c.31.11.72.23,1.24.36a11,11,0,0,1,1.49.45,2.45,2.45,0,0,1,1,.67,1.81,1.81,0,0,1,.4,1.22,2.08,2.08,0,0,1-.35,1.16A2.23,2.23,0,0,1,611,118a4.27,4.27,0,0,1-1.74.31A5.38,5.38,0,0,1,607.5,118Z"/><path class="cls-2" d="M614.36,109.84h.89v8.4h-.89Z"/><path class="cls-2" d="M619.61,110.61h-3v-.77h6.79v.77h-3v7.63h-.89Z"/><path class="cls-2" d="M627.69,115.33v2.91h-.88v-2.91l-3.36-5.49h.95l2.88,4.72,2.88-4.72h.89Z"/><path class="cls-2" d="M641.24,110.61a2.89,2.89,0,0,1,0,4.21,3.81,3.81,0,0,1-2.52.77h-2.26v2.65h-.89v-8.4h3.15A3.81,3.81,0,0,1,641.24,110.61Zm-.64,3.65a1.89,1.89,0,0,0,.66-1.54,1.93,1.93,0,0,0-.66-1.57,2.94,2.94,0,0,0-1.91-.54h-2.23v4.2h2.23A2.94,2.94,0,0,0,640.6,114.26Z"/><path class="cls-2" d="M649.81,118.24l-1.92-2.7c-.22,0-.44,0-.68,0H645v2.67h-.89v-8.4h3.14a3.78,3.78,0,0,1,2.52.77,2.6,2.6,0,0,1,.92,2.11,2.75,2.75,0,0,1-.5,1.66,2.78,2.78,0,0,1-1.42,1l2,2.88Zm-.71-4a2.17,2.17,0,0,0,0-3.12,3,3,0,0,0-1.91-.54H645v4.21h2.23A2.9,2.9,0,0,0,649.1,114.27Z"/><path class="cls-2" d="M654.16,117.75a4,4,0,0,1-1.59-1.53,4.47,4.47,0,0,1,0-4.37,4.18,4.18,0,0,1,1.59-1.53,4.9,4.9,0,0,1,4.51,0,4.15,4.15,0,0,1,1.58,1.53,4.49,4.49,0,0,1,0,4.38,4.15,4.15,0,0,1-1.58,1.53,4.86,4.86,0,0,1-4.51,0Zm4.06-.68a3.36,3.36,0,0,0,1.26-1.25,3.75,3.75,0,0,0,0-3.56,3.36,3.36,0,0,0-1.26-1.25,3.85,3.85,0,0,0-3.61,0,3.32,3.32,0,0,0-1.27,1.25,3.67,3.67,0,0,0,0,3.56,3.32,3.32,0,0,0,1.27,1.25,3.85,3.85,0,0,0,3.61,0Z"/><path class="cls-2" d="M668.73,114h.85v3.2a3.88,3.88,0,0,1-1.39.79,5,5,0,0,1-1.69.28,4.62,4.62,0,0,1-2.27-.55,4.08,4.08,0,0,1-1.58-1.53,4.42,4.42,0,0,1,0-4.38,4.08,4.08,0,0,1,1.58-1.53,4.63,4.63,0,0,1,2.28-.55,5,5,0,0,1,1.76.3,3.58,3.58,0,0,1,1.36.91l-.55.56a3.49,3.49,0,0,0-2.53-1,3.81,3.81,0,0,0-1.85.45,3.54,3.54,0,0,0-1.29,4.8,3.37,3.37,0,0,0,1.29,1.25,3.61,3.61,0,0,0,1.83.46,3.67,3.67,0,0,0,2.2-.65Z"/><path class="cls-2" d="M677.83,118.24l-1.92-2.7c-.22,0-.44,0-.68,0H673v2.67h-.89v-8.4h3.14a3.78,3.78,0,0,1,2.52.77,2.6,2.6,0,0,1,.92,2.11,2.75,2.75,0,0,1-.5,1.66,2.78,2.78,0,0,1-1.42,1l2,2.88Zm-.71-4a2.17,2.17,0,0,0,0-3.12,3,3,0,0,0-1.91-.54H673v4.21h2.23A2.9,2.9,0,0,0,677.12,114.27Z"/><path class="cls-2" d="M686,116h-4.68l-1,2.25h-.93l3.84-8.4h.88l3.84,8.4H687Zm-.32-.72-2-4.51-2,4.51Z"/><path class="cls-2" d="M698.09,109.84v8.4h-.85v-6.72l-3.3,5.65h-.42l-3.3-5.61v6.68h-.85v-8.4h.73l3.65,6.23,3.61-6.23Z"/><path d="M564.56,126.18h-1.68l-1.69,2.35,1.69,2.34h1.68l-1.64-2.34,1.64-2.35Zm-2.71,0h-1.68l-1.69,2.35,1.69,2.34h1.68l-1.65-2.34,1.65-2.35Z"/><path d="M567,125.18v6.52h-.06v-6.52H567m5.34-.94H566v8.4h1.94v-3.06h3.89V128h-3.89V125.8h4.4v-1.56Z"/><path d="M574.65,125.18v6.52h-.07v-6.52h.07m4.9.8a2.43,2.43,0,0,1,.14.2,1.93,1.93,0,0,1,.3,1.11,1.89,1.89,0,0,1-.3,1.09.61.61,0,0,1-.12.16,2.35,2.35,0,0,0,.33-1.25,2.43,2.43,0,0,0-.35-1.31m-2.27-1.74h-3.64v8.4h2V130.3h1.78l1.62,2.34h2.09l-1.88-2.7a2.89,2.89,0,0,0,1.28-1,3.12,3.12,0,0,0,0-3.23,2.81,2.81,0,0,0-1.26-1.06,4.66,4.66,0,0,0-1.94-.37Zm-1.69,4.51v-2.93h1.58a2,2,0,0,1,1.33.38,1.31,1.31,0,0,1,.46,1.09,1.33,1.33,0,0,1-.46,1.08,2,2,0,0,1-1.33.38Z"/><path d="M583.55,126.38l-.12.21a3.88,3.88,0,0,0,0,3.7l.12.21a2.2,2.2,0,0,1-.21-.32,3.3,3.3,0,0,1-.46-1.74,3.34,3.34,0,0,1,.45-1.74,2.57,2.57,0,0,1,.22-.32m6,.07c.05.08.11.16.16.25a3.17,3.17,0,0,1,.47,1.74,3.22,3.22,0,0,1-.47,1.74l-.16.25a1,1,0,0,1,.08-.14,4,4,0,0,0,0-3.7l-.08-.14m-3-2.36a4.87,4.87,0,0,0-2.36.57,4.15,4.15,0,0,0-1.64,1.55,4.49,4.49,0,0,0,0,4.45,4.25,4.25,0,0,0,1.64,1.56,5,5,0,0,0,2.36.56,4.92,4.92,0,0,0,2.35-.56,4.27,4.27,0,0,0,1.65-1.56,4.27,4.27,0,0,0-1.65-6,4.81,4.81,0,0,0-2.35-.57Zm0,7a2.65,2.65,0,0,1-1.34-.35,2.32,2.32,0,0,1-.94-.95,2.94,2.94,0,0,1,0-2.78,2.41,2.41,0,0,1,.94-1,2.83,2.83,0,0,1,2.69,0,2.55,2.55,0,0,1,.94,1,3,3,0,0,1,0,2.78,2.45,2.45,0,0,1-.94.95,2.66,2.66,0,0,1-1.35.35Z"/><path d="M599.36,125.18v6.52h0v-6.52h0m-5.79,0v6.52h0v-6.52h0m6.73-.94h-1.92v5.1l-4.18-5.1h-1.61v8.4h1.92v-5.1l4.19,5.1h1.6v-8.4Z"/><path d="M605,125.18v6.52H605v-6.52H605m3.63-.94h-7.32v1.58H604v6.82H606v-6.82h2.69v-1.58Z"/><polygon points="612.63 127.63 609.24 127.63 609.24 129.13 612.63 129.13 612.63 127.63 612.63 127.63"/><path d="M615.35,125.18v6.52h-.05v-6.52h.05m5.36-.94h-6.35v8.4h6.5v-1.56h-4.57v-2h3.9v-1.51h-3.9V125.8h4.42v-1.56Z"/><path d="M629.17,125.18v6.52h0v-6.52h0m-5.78,0v6.52h0v-6.52h0m6.72-.94h-1.92v5.1l-4.17-5.1h-1.61v8.4h1.92v-5.1l4.19,5.1h1.59v-8.4Z"/><path d="M633.11,125.18v6.52h-.06v-6.52h.06m5.87,1.27a2.61,2.61,0,0,1,.19.27,3.2,3.2,0,0,1,.45,1.72,3.2,3.2,0,0,1-.63,2,3.64,3.64,0,0,0,.54-2,3.57,3.57,0,0,0-.55-2m-3.06-2.21h-3.81v8.4h3.81a5.49,5.49,0,0,0,2.42-.52,3.94,3.94,0,0,0,1.63-1.47,4.43,4.43,0,0,0,0-4.42,3.94,3.94,0,0,0-1.63-1.47,5.35,5.35,0,0,0-2.42-.52Zm-1.87,6.8v-5.21h1.78a2.82,2.82,0,0,1,2,.71,2.78,2.78,0,0,1,0,3.8,2.81,2.81,0,0,1-2,.7Z"/><path d="M645.83,126.18h-1.68l1.65,2.35-1.65,2.34h1.68l1.7-2.34-1.7-2.35Zm-2.71,0h-1.68l1.65,2.35-1.65,2.34h1.68l1.69-2.34-1.69-2.35Z"/><path class="cls-2" d="M692,1.27v3.3h4.34v.77H692V8.91h-.89V.51h5.76v.76Z"/><path class="cls-2" d="M698.71.51h.89v8.4h-.89Z"/><path class="cls-2" d="M709.35.51v8.4h-.73l-5.4-6.82V8.91h-.89V.51h.73l5.42,6.81V.51Z"/><path class="cls-2" d="M712.09.51H713v8.4h-.89Z"/><path class="cls-2" d="M716.23,8.68a3.25,3.25,0,0,1-1.32-.79l.35-.69a3.19,3.19,0,0,0,1.21.74,4.35,4.35,0,0,0,1.56.28,2.9,2.9,0,0,0,1.69-.41,1.28,1.28,0,0,0,.56-1.08,1.09,1.09,0,0,0-.3-.8,2.2,2.2,0,0,0-.75-.46A12.17,12.17,0,0,0,718,5.11a12.38,12.38,0,0,1-1.51-.46,2.53,2.53,0,0,1-1-.67,1.86,1.86,0,0,1-.4-1.24,2,2,0,0,1,.34-1.16,2.23,2.23,0,0,1,1-.83,4.18,4.18,0,0,1,1.73-.32,5.16,5.16,0,0,1,1.41.2,4.22,4.22,0,0,1,1.19.55l-.3.71a4,4,0,0,0-1.13-.53,4.41,4.41,0,0,0-1.17-.17,2.66,2.66,0,0,0-1.66.43A1.29,1.29,0,0,0,716,2.71a1.09,1.09,0,0,0,.3.81,2,2,0,0,0,.77.47c.31.11.72.23,1.24.36a11.72,11.72,0,0,1,1.5.45,2.32,2.32,0,0,1,1,.67,1.76,1.76,0,0,1,.4,1.22,2.07,2.07,0,0,1-.34,1.16,2.33,2.33,0,0,1-1.05.82A4.27,4.27,0,0,1,718,9,5.44,5.44,0,0,1,716.23,8.68Z"/><path class="cls-2" d="M730.11.51v8.4h-.88V5H724V8.91h-.89V.51H724V4.25h5.25V.51Z"/><path class="cls-2" d="M738.79,8.14v.77h-5.94V.51h5.76v.76h-4.88v3h4.35V5h-4.35V8.14Z"/><path class="cls-2" d="M740.87.51h3.42a5,5,0,0,1,2.36.53,3.92,3.92,0,0,1,1.58,1.49,4.14,4.14,0,0,1,.56,2.18,4.13,4.13,0,0,1-.56,2.17,3.85,3.85,0,0,1-1.58,1.49,5,5,0,0,1-2.36.54h-3.42Zm3.38,7.63a4.1,4.1,0,0,0,1.93-.44,3.18,3.18,0,0,0,1.28-1.21,3.4,3.4,0,0,0,.46-1.78,3.41,3.41,0,0,0-.46-1.79,3.18,3.18,0,0,0-1.28-1.21,4.1,4.1,0,0,0-1.93-.44h-2.49V8.14Z"/><path class="cls-2" d="M760.5,5.29A2,2,0,0,1,761,6.66a1.9,1.9,0,0,1-.8,1.66,4,4,0,0,1-2.35.59h-3.87V.51h3.63a3.59,3.59,0,0,1,2.17.56,1.86,1.86,0,0,1,.78,1.6,2,2,0,0,1-.35,1.18,2,2,0,0,1-.94.72A2.22,2.22,0,0,1,760.5,5.29Zm-5.68-4V4.29h2.67a2.71,2.71,0,0,0,1.58-.39,1.3,1.3,0,0,0,.55-1.14,1.3,1.3,0,0,0-.55-1.13,2.71,2.71,0,0,0-1.58-.39Zm4.67,6.55a1.34,1.34,0,0,0,.57-1.2c0-1-.76-1.57-2.28-1.57h-3V8.17h3A3.1,3.1,0,0,0,759.49,7.79Z"/><path class="cls-2" d="M763,.51h.89v8.4H763Z"/><path class="cls-2" d="M768,8.42a4.08,4.08,0,0,1-1.58-1.53,4.22,4.22,0,0,1-.57-2.18,4.26,4.26,0,0,1,.57-2.19A4.08,4.08,0,0,1,768,1a4.64,4.64,0,0,1,2.26-.56,4.52,4.52,0,0,1,2.25.56,3.94,3.94,0,0,1,1.58,1.53,4.17,4.17,0,0,1,.58,2.19,4.2,4.2,0,0,1-.58,2.19,4.08,4.08,0,0,1-1.58,1.53,4.86,4.86,0,0,1-4.51,0Zm4.06-.68a3.22,3.22,0,0,0,1.26-1.25,3.47,3.47,0,0,0,.46-1.78,3.51,3.51,0,0,0-.46-1.79,3.2,3.2,0,0,0-1.26-1.24,3.59,3.59,0,0,0-1.8-.45,3.64,3.64,0,0,0-1.8.45,3.22,3.22,0,0,0-1.27,1.24,3.52,3.52,0,0,0-.47,1.79,3.48,3.48,0,0,0,.47,1.78,3.25,3.25,0,0,0,1.27,1.25,3.64,3.64,0,0,0,1.8.45A3.59,3.59,0,0,0,772.07,7.74Z"/><path class="cls-2" d="M783.69.51v8.4H783l-5.4-6.82V8.91h-.89V.51h.73l5.41,6.81V.51Z"/><path class="cls-2" d="M786.43.51h.88v8.4h-.88Z"/><path class="cls-2" d="M791.45,8.43a4.05,4.05,0,0,1-1.57-1.53,4.28,4.28,0,0,1-.57-2.19,4.26,4.26,0,0,1,.57-2.19A3.92,3.92,0,0,1,791.45,1a4.84,4.84,0,0,1,4-.24,3.47,3.47,0,0,1,1.34.91l-.56.56a3.38,3.38,0,0,0-2.49-1,3.71,3.71,0,0,0-1.81.45,3.41,3.41,0,0,0-1.28,1.25,3.55,3.55,0,0,0-.46,1.78,3.54,3.54,0,0,0,.46,1.77,3.34,3.34,0,0,0,1.28,1.25,3.72,3.72,0,0,0,1.81.46,3.32,3.32,0,0,0,2.49-1l.56.56a3.65,3.65,0,0,1-1.35.92,4.86,4.86,0,0,1-4-.23Z"/><path class="cls-2" d="M692,22.44a3.73,3.73,0,0,1-.91-2.72V14.91h.89v4.77a3.15,3.15,0,0,0,.66,2.19,2.91,2.91,0,0,0,3.83,0,3.15,3.15,0,0,0,.66-2.19V14.91h.86v4.81a3.73,3.73,0,0,1-.91,2.72,3.33,3.33,0,0,1-2.53.94A3.38,3.38,0,0,1,692,22.44Z"/><path class="cls-2" d="M707.64,14.91v8.4h-.74l-5.4-6.82v6.82h-.88v-8.4h.73l5.41,6.81V14.91Z"/><path class="cls-2" d="M710.37,14.91h.89v8.4h-.89Z"/><path class="cls-2" d="M720.88,14.91l-3.72,8.4h-.87l-3.72-8.4h1l3.21,7.29L720,14.91Z"/><path class="cls-2" d="M728,22.54v.77H722.1v-8.4h5.75v.77H723v3h4.35v.76H723v3.12Z"/><path class="cls-2" d="M735.86,23.31l-1.92-2.7c-.22,0-.44,0-.67,0H731v2.67h-.89v-8.4h3.15a3.76,3.76,0,0,1,2.52.77,2.59,2.59,0,0,1,.91,2.11,2.61,2.61,0,0,1-1.92,2.64l2.05,2.88Zm-.71-4a1.92,1.92,0,0,0,.66-1.55,1.93,1.93,0,0,0-.66-1.57,2.94,2.94,0,0,0-1.91-.54H731v4.21h2.23A2.94,2.94,0,0,0,735.15,19.34Z"/><path class="cls-2" d="M739.32,23.08a3.25,3.25,0,0,1-1.32-.79l.34-.69a3.32,3.32,0,0,0,1.22.74,4.34,4.34,0,0,0,1.55.28,2.92,2.92,0,0,0,1.7-.41,1.3,1.3,0,0,0,.56-1.07,1.06,1.06,0,0,0-.31-.81,2,2,0,0,0-.75-.46,9.55,9.55,0,0,0-1.23-.35,14.13,14.13,0,0,1-1.51-.47,2.53,2.53,0,0,1-1-.67,1.81,1.81,0,0,1-.4-1.24,2.14,2.14,0,0,1,.33-1.16,2.25,2.25,0,0,1,1-.83,4.18,4.18,0,0,1,1.73-.31,5.26,5.26,0,0,1,1.41.19,4.36,4.36,0,0,1,1.19.55l-.3.71a4,4,0,0,0-1.13-.52,4.06,4.06,0,0,0-1.17-.18,2.71,2.71,0,0,0-1.67.43,1.32,1.32,0,0,0-.56,1.09,1.14,1.14,0,0,0,.31.82,2.11,2.11,0,0,0,.77.46c.31.11.72.23,1.24.36a11.72,11.72,0,0,1,1.5.45,2.42,2.42,0,0,1,1,.67,1.81,1.81,0,0,1,.4,1.22,2.08,2.08,0,0,1-.35,1.16,2.23,2.23,0,0,1-1,.82,4.27,4.27,0,0,1-1.74.31A5.38,5.38,0,0,1,739.32,23.08Z"/><path class="cls-2" d="M746.18,14.91h.89v8.4h-.89Z"/><path class="cls-2" d="M751.44,15.68h-3v-.77h6.79v.77h-2.95v7.63h-.88Z"/><path class="cls-2" d="M759.51,20.4v2.91h-.87V20.4l-3.37-5.49h1l2.88,4.71L762,14.91h.89Z"/><path class="cls-2" d="M773.06,15.68a2.59,2.59,0,0,1,.91,2.11,2.57,2.57,0,0,1-.91,2.1,3.81,3.81,0,0,1-2.52.76h-2.26v2.66h-.88v-8.4h3.14A3.76,3.76,0,0,1,773.06,15.68Zm-.64,3.65a1.89,1.89,0,0,0,.66-1.54,1.93,1.93,0,0,0-.66-1.57,2.93,2.93,0,0,0-1.9-.54h-2.24v4.2h2.24A2.93,2.93,0,0,0,772.42,19.33Z"/><path class="cls-2" d="M781.63,23.31l-1.92-2.7c-.22,0-.44,0-.68,0h-2.25v2.67h-.89v-8.4H779a3.77,3.77,0,0,1,2.53.77,2.62,2.62,0,0,1,.91,2.11,2.75,2.75,0,0,1-.5,1.66,2.78,2.78,0,0,1-1.42,1l2.05,2.88Zm-.71-4a1.92,1.92,0,0,0,.66-1.55,1.93,1.93,0,0,0-.66-1.57,3,3,0,0,0-1.91-.54h-2.23v4.21H779A3,3,0,0,0,780.92,19.34Z"/><path class="cls-2" d="M786,22.82a4,4,0,0,1-1.59-1.53,4.47,4.47,0,0,1,0-4.37A4.11,4.11,0,0,1,786,15.39a4.9,4.9,0,0,1,4.51,0,4.15,4.15,0,0,1,1.58,1.53,4.49,4.49,0,0,1,0,4.38,4.15,4.15,0,0,1-1.58,1.53,4.68,4.68,0,0,1-2.25.55A4.62,4.62,0,0,1,786,22.82Zm4.06-.68a3.36,3.36,0,0,0,1.26-1.25,3.57,3.57,0,0,0,.45-1.78,3.61,3.61,0,0,0-.45-1.79A3.33,3.33,0,0,0,790,16.08a3.85,3.85,0,0,0-3.61,0,3.29,3.29,0,0,0-1.27,1.24,3.51,3.51,0,0,0-.46,1.79,3.47,3.47,0,0,0,.46,1.78,3.32,3.32,0,0,0,1.27,1.25,3.85,3.85,0,0,0,3.61,0Z"/><path class="cls-2" d="M800.55,19.11h.85v3.2a4,4,0,0,1-1.39.79,5,5,0,0,1-1.69.28,4.73,4.73,0,0,1-2.27-.55,4.08,4.08,0,0,1-1.58-1.53,4.42,4.42,0,0,1,0-4.38,4.08,4.08,0,0,1,1.58-1.53,4.63,4.63,0,0,1,2.28-.55,5,5,0,0,1,1.76.3,3.58,3.58,0,0,1,1.36.91l-.55.56a3.49,3.49,0,0,0-2.53-1,3.81,3.81,0,0,0-1.85.45,3.41,3.41,0,0,0-1.29,1.24,3.51,3.51,0,0,0-.46,1.79,3.44,3.44,0,0,0,.46,1.77,3.37,3.37,0,0,0,1.29,1.25,4,4,0,0,0,4-.19Z"/><path class="cls-2" d="M809.65,23.31l-1.92-2.7c-.22,0-.44,0-.68,0H804.8v2.67h-.89v-8.4h3.14a3.72,3.72,0,0,1,2.52.77,2.6,2.6,0,0,1,.92,2.11,2.75,2.75,0,0,1-.5,1.66,2.78,2.78,0,0,1-1.42,1l2,2.88Zm-.71-4a1.92,1.92,0,0,0,.66-1.55,1.93,1.93,0,0,0-.66-1.57,3,3,0,0,0-1.91-.54H804.8v4.21H807A3,3,0,0,0,808.94,19.34Z"/><path class="cls-2" d="M817.85,21.06h-4.68l-1,2.25h-.93l3.84-8.4H816l3.84,8.4h-.94Zm-.32-.72-2-4.51-2,4.51Z"/><path class="cls-2" d="M829.91,14.91v8.4h-.85V16.59l-3.3,5.65h-.42L822,16.62v6.69h-.85v-8.4h.73l3.65,6.23,3.61-6.23Z"/><path d="M696.38,31.25H694.7L693,33.6l1.69,2.34h1.68l-1.64-2.34,1.64-2.35Zm-2.71,0H692L690.3,33.6,692,35.94h1.68L692,33.6l1.65-2.35Z"/><path d="M698.8,30.25v6.52h-.06V30.25h.06m5.34-.94H697.8v8.4h1.94V34.65h3.89V33.09h-3.89V30.87h4.4V29.31Z"/><path d="M706.47,30.25v6.52h-.07V30.25h.07m4.9.8a1.43,1.43,0,0,1,.14.2,2.17,2.17,0,0,1,0,2.2.83.83,0,0,1-.12.16,2.36,2.36,0,0,0,.33-1.26,2.39,2.39,0,0,0-.35-1.3m-2.27-1.74h-3.64v8.4h1.95V35.37h1.78l1.62,2.34h2.09L711,35a2.89,2.89,0,0,0,1.28-1,2.85,2.85,0,0,0,.45-1.62,2.9,2.9,0,0,0-.45-1.62A2.86,2.86,0,0,0,711,29.68a4.66,4.66,0,0,0-1.94-.37Zm-1.69,4.51V30.89H709a2,2,0,0,1,1.33.38,1.5,1.5,0,0,1,0,2.16,2,2,0,0,1-1.33.39Z"/><path d="M715.37,31.45a2,2,0,0,0-.12.21,3.88,3.88,0,0,0,0,3.7l.12.21a2.2,2.2,0,0,1-.21-.32,3.3,3.3,0,0,1-.46-1.74,3.4,3.4,0,0,1,.45-1.75,3.46,3.46,0,0,1,.22-.31m6,.07c0,.08.11.16.16.25a3.17,3.17,0,0,1,.47,1.74,3.22,3.22,0,0,1-.47,1.74l-.16.25a1,1,0,0,1,.08-.14,4,4,0,0,0,0-3.7l-.08-.14m-3-2.36a4.87,4.87,0,0,0-2.36.57,4.15,4.15,0,0,0-1.64,1.55,4.49,4.49,0,0,0,0,4.45A4.25,4.25,0,0,0,716,37.29a5,5,0,0,0,2.36.56,4.92,4.92,0,0,0,2.35-.56,4.27,4.27,0,0,0,1.65-1.56,4.27,4.27,0,0,0-1.65-6,4.81,4.81,0,0,0-2.35-.57Zm0,7a2.64,2.64,0,0,1-1.34-.34,2.39,2.39,0,0,1-.94-1,2.79,2.79,0,0,1-.35-1.39,2.82,2.82,0,0,1,.35-1.4,2.45,2.45,0,0,1,.94-.95,2.83,2.83,0,0,1,2.69,0,2.52,2.52,0,0,1,.94.95,2.82,2.82,0,0,1,.34,1.4,2.78,2.78,0,0,1-.34,1.39,2.45,2.45,0,0,1-.94,1,2.66,2.66,0,0,1-1.35.34Z"/><path d="M731.18,30.25v6.52h0V30.25h0m-5.79,0v6.52h0V30.25h0m6.73-.94H730.2v5.1L726,29.31h-1.61v8.4h1.92v-5.1l4.19,5.1h1.6v-8.4Z"/><path d="M736.85,30.25v6.52h-.06V30.25h.06m3.63-.94h-7.32v1.58h2.69v6.82h1.94V30.89h2.69V29.31Z"/><polygon points="744.45 32.7 741.05 32.7 741.05 34.2 744.45 34.2 744.45 32.7 744.45 32.7"/><path d="M747.17,30.25v6.52h0V30.25h0m5.36-.94h-6.35v8.4h6.5V36.15h-4.57V34.2H752V32.69h-3.9V30.87h4.42V29.31Z"/><path d="M761,30.25v6.52h0V30.25h0m-5.79,0v6.52h0V30.25h0m6.73-.94H760v5.1l-4.18-5.1h-1.61v8.4h1.92v-5.1l4.19,5.1h1.6v-8.4Z"/><path d="M764.93,30.25v6.52h-.06V30.25h.06m5.87,1.27a1.85,1.85,0,0,1,.19.27,3.2,3.2,0,0,1,.45,1.72,3.2,3.2,0,0,1-.63,2,3.89,3.89,0,0,0,0-4m-3.06-2.21h-3.81v8.4h3.81a5.35,5.35,0,0,0,2.42-.53,3.81,3.81,0,0,0,1.63-1.47,4.42,4.42,0,0,0,0-4.41,3.94,3.94,0,0,0-1.63-1.47,5.35,5.35,0,0,0-2.42-.52Zm-1.87,6.8V30.9h1.78a2.86,2.86,0,0,1,2,.7,2.79,2.79,0,0,1,0,3.81,2.81,2.81,0,0,1-2,.7Z"/><path d="M778.24,30.25v6.52h-.07V30.25h.07m4.9.8.15.2a2,2,0,0,1,.29,1.1,2,2,0,0,1-.3,1.11c0,.07-.1.14-.15.21a2.44,2.44,0,0,0,.36-1.32,2.39,2.39,0,0,0-.35-1.3m-2.27-1.74h-3.64v8.4h1.95V35.39h1.69a4.66,4.66,0,0,0,1.94-.37A2.73,2.73,0,0,0,784.07,34a3.14,3.14,0,0,0,0-3.24,2.86,2.86,0,0,0-1.26-1.05,4.66,4.66,0,0,0-1.94-.37Zm-1.69,4.5V30.89h1.58a2.08,2.08,0,0,1,1.34.38,1.52,1.52,0,0,1,0,2.16,2.08,2.08,0,0,1-1.34.38Z"/><path d="M786.9,30.25v6.52h-.06V30.25h.06m4.9.8a1,1,0,0,1,.15.2,2.23,2.23,0,0,1,0,2.2l-.12.16a2.36,2.36,0,0,0,.32-1.26,2.39,2.39,0,0,0-.35-1.3m-2.27-1.74H785.9v8.4h1.94V35.37h1.79l1.62,2.34h2.09L791.45,35a2.74,2.74,0,0,0,1.73-2.66,3,3,0,0,0-.44-1.62,2.94,2.94,0,0,0-1.27-1.05,4.63,4.63,0,0,0-1.94-.37Zm-1.69,4.51V30.89h1.59a2.07,2.07,0,0,1,1.33.38,1.52,1.52,0,0,1,0,2.16,2,2,0,0,1-1.33.39Z"/><path d="M795.81,31.45a1.07,1.07,0,0,0-.13.21,4,4,0,0,0,0,3.7,2.39,2.39,0,0,0,.13.21,3.62,3.62,0,0,1-.22-.32,3.54,3.54,0,0,1,0-3.49,3.46,3.46,0,0,1,.22-.31m6,.07a2.2,2.2,0,0,1,.17.25,3.26,3.26,0,0,1,.46,1.74,3.3,3.3,0,0,1-.46,1.74l-.17.25a1,1,0,0,0,.08-.14,3.88,3.88,0,0,0,0-3.7.64.64,0,0,0-.08-.14m-3-2.36a4.87,4.87,0,0,0-2.36.57,4.18,4.18,0,0,0-1.65,1.55,4.29,4.29,0,0,0,1.65,6,5.23,5.23,0,0,0,4.71,0,4.25,4.25,0,0,0,1.64-1.56,4.43,4.43,0,0,0,0-4.45,4.15,4.15,0,0,0-1.64-1.55,4.84,4.84,0,0,0-2.35-.57Zm0,7a2.66,2.66,0,0,1-1.35-.34,2.45,2.45,0,0,1-.94-1,2.78,2.78,0,0,1-.34-1.39,2.82,2.82,0,0,1,.34-1.4,2.52,2.52,0,0,1,.94-.95,2.83,2.83,0,0,1,2.69,0,2.45,2.45,0,0,1,.94.95,2.82,2.82,0,0,1,.35,1.4,2.79,2.79,0,0,1-.35,1.39,2.39,2.39,0,0,1-.94,1,2.64,2.64,0,0,1-1.34.34Z"/><path d="M808.66,31.25H807l1.65,2.35L807,35.94h1.68l1.69-2.34-1.69-2.35Zm-2.71,0h-1.68l1.64,2.35-1.64,2.34H806l1.69-2.34L806,31.25Z"/><path class="cls-3" d="M821.35,96.26v3.3h4.35v.76h-4.35v3.57h-.88v-8.4h5.76v.77Z"/><path class="cls-3" d="M828.06,95.49H829v8.4h-.89Z"/><path class="cls-3" d="M838.7,95.49v8.4H838l-5.4-6.82v6.82h-.88v-8.4h.73l5.41,6.81V95.49Z"/><path class="cls-3" d="M841.44,95.49h.89v8.4h-.89Z"/><path class="cls-3" d="M845.59,103.66a3.29,3.29,0,0,1-1.33-.79l.35-.69a3.27,3.27,0,0,0,1.21.74,4.35,4.35,0,0,0,1.56.28,2.88,2.88,0,0,0,1.69-.41,1.28,1.28,0,0,0,.57-1.07,1.1,1.1,0,0,0-.31-.81,2,2,0,0,0-.75-.46,10.61,10.61,0,0,0-1.23-.35,14.42,14.42,0,0,1-1.52-.47,2.49,2.49,0,0,1-1-.67,1.82,1.82,0,0,1-.41-1.24,2.15,2.15,0,0,1,.34-1.16,2.23,2.23,0,0,1,1-.83,4.22,4.22,0,0,1,1.73-.31,5.16,5.16,0,0,1,1.41.19,4.22,4.22,0,0,1,1.19.55l-.3.71a3.94,3.94,0,0,0-1.12-.52,4.13,4.13,0,0,0-1.18-.18,2.66,2.66,0,0,0-1.66.43,1.32,1.32,0,0,0-.56,1.09,1.1,1.1,0,0,0,.31.82,2.06,2.06,0,0,0,.76.46c.31.11.73.23,1.25.36a12,12,0,0,1,1.49.45,2.53,2.53,0,0,1,1,.67,1.81,1.81,0,0,1,.39,1.22,2.07,2.07,0,0,1-.34,1.16,2.33,2.33,0,0,1-1,.82,4.27,4.27,0,0,1-1.74.31A5.38,5.38,0,0,1,845.59,103.66Z"/><path class="cls-3" d="M859.46,95.49v8.4h-.87V100h-5.26v3.88h-.89v-8.4h.89v3.74h5.26V95.49Z"/><path class="cls-3" d="M868.14,103.12v.77H862.2v-8.4H868v.77h-4.87v3h4.34V100h-4.34v3.12Z"/><path class="cls-3" d="M870.23,95.49h3.42A5.06,5.06,0,0,1,876,96a3.85,3.85,0,0,1,1.58,1.49,4.43,4.43,0,0,1,0,4.35,3.79,3.79,0,0,1-1.58,1.49,4.94,4.94,0,0,1-2.35.54h-3.42Zm3.37,7.63a4.07,4.07,0,0,0,1.93-.44,3.27,3.27,0,0,0,1.29-1.21,3.49,3.49,0,0,0,.45-1.78,3.53,3.53,0,0,0-.45-1.79,3.27,3.27,0,0,0-1.29-1.21,4.07,4.07,0,0,0-1.93-.43h-2.48v6.86Z"/><path class="cls-3" d="M889,96.26a2.89,2.89,0,0,1,0,4.21,3.81,3.81,0,0,1-2.52.76h-2.26v2.66h-.89v-8.4h3.15A3.76,3.76,0,0,1,889,96.26Zm-.64,3.65a1.89,1.89,0,0,0,.66-1.54,1.93,1.93,0,0,0-.66-1.57,2.94,2.94,0,0,0-1.91-.54h-2.23v4.2h2.23A2.94,2.94,0,0,0,888.31,99.91Z"/><path class="cls-3" d="M897.52,103.89l-1.92-2.7c-.22,0-.44,0-.68,0h-2.25v2.67h-.89v-8.4h3.14a3.72,3.72,0,0,1,2.52.77,2.6,2.6,0,0,1,.92,2.11,2.75,2.75,0,0,1-.5,1.66,2.78,2.78,0,0,1-1.42,1l2,2.88Zm-.71-4a2.17,2.17,0,0,0,0-3.12,3,3,0,0,0-1.91-.54h-2.23v4.21h2.23A3,3,0,0,0,896.81,99.92Z"/><path class="cls-3" d="M901.87,103.4a4,4,0,0,1-1.59-1.53,4.47,4.47,0,0,1,0-4.37A4.11,4.11,0,0,1,901.87,96a4.9,4.9,0,0,1,4.51,0A4.15,4.15,0,0,1,908,97.5a4.49,4.49,0,0,1,0,4.38,4.15,4.15,0,0,1-1.58,1.53,4.68,4.68,0,0,1-2.25.55A4.62,4.62,0,0,1,901.87,103.4Zm4.06-.68a3.36,3.36,0,0,0,1.26-1.25,3.57,3.57,0,0,0,.45-1.78,3.61,3.61,0,0,0-.45-1.79,3.33,3.33,0,0,0-1.26-1.24,3.85,3.85,0,0,0-3.61,0,3.29,3.29,0,0,0-1.27,1.24,3.51,3.51,0,0,0-.46,1.79,3.47,3.47,0,0,0,.46,1.78,3.32,3.32,0,0,0,1.27,1.25,3.85,3.85,0,0,0,3.61,0Z"/><path class="cls-3" d="M909.91,103.65a2.57,2.57,0,0,1-1-.89l.52-.6a2.11,2.11,0,0,0,1.82,1c1,0,1.56-.61,1.56-1.85V96.26h-3.08v-.77h4v5.82a2.77,2.77,0,0,1-.62,2,2.35,2.35,0,0,1-1.83.67A3,3,0,0,1,909.91,103.65Z"/><path class="cls-3" d="M922.3,103.12v.77h-5.94v-8.4h5.76v.77h-4.88v3h4.35V100h-4.35v3.12Z"/><path class="cls-3" d="M925.73,103.41a4.05,4.05,0,0,1-1.57-1.53,4.49,4.49,0,0,1,0-4.38A4.08,4.08,0,0,1,925.74,96a4.92,4.92,0,0,1,4-.24,3.51,3.51,0,0,1,1.35.91l-.57.56a3.34,3.34,0,0,0-2.48-1,3.65,3.65,0,0,0-1.81.45,3.34,3.34,0,0,0-1.28,1.25,3.65,3.65,0,0,0,0,3.55,3.27,3.27,0,0,0,1.28,1.25,3.56,3.56,0,0,0,1.81.46,3.3,3.3,0,0,0,2.48-1l.57.56a3.65,3.65,0,0,1-1.35.92,4.88,4.88,0,0,1-4-.23Z"/><path class="cls-3" d="M934.49,96.26h-3v-.77h6.79v.77h-3v7.63h-.89Z"/><path class="cls-3" d="M941,103.4a4.08,4.08,0,0,1-1.58-1.53,4.47,4.47,0,0,1,0-4.37A4.15,4.15,0,0,1,941,96a4.65,4.65,0,0,1,2.27-.55,4.57,4.57,0,0,1,2.25.55,4.12,4.12,0,0,1,1.57,1.53,4.42,4.42,0,0,1,0,4.38,4.12,4.12,0,0,1-1.57,1.53,4.88,4.88,0,0,1-4.52,0Zm4.07-.68a3.26,3.26,0,0,0,1.25-1.25,3.47,3.47,0,0,0,.46-1.78,3.51,3.51,0,0,0-.46-1.79,3.24,3.24,0,0,0-1.25-1.24,3.85,3.85,0,0,0-3.61,0,3.22,3.22,0,0,0-1.27,1.24,3.51,3.51,0,0,0-.46,1.79,3.47,3.47,0,0,0,.46,1.78,3.25,3.25,0,0,0,1.27,1.25,3.85,3.85,0,0,0,3.61,0Z"/><path class="cls-3" d="M955.43,103.89l-1.92-2.7c-.22,0-.44,0-.67,0h-2.26v2.67h-.89v-8.4h3.15a3.76,3.76,0,0,1,2.52.77,2.62,2.62,0,0,1,.91,2.11,2.75,2.75,0,0,1-.5,1.66,2.78,2.78,0,0,1-1.42,1l2,2.88Zm-.71-4a2.17,2.17,0,0,0,0-3.12,3,3,0,0,0-1.91-.54h-2.23v4.21h2.23A3,3,0,0,0,954.72,99.92Z"/><path class="cls-3" d="M967.18,96.26a2.89,2.89,0,0,1,0,4.21,3.82,3.82,0,0,1-2.53.76H962.4v2.66h-.89v-8.4h3.14A3.77,3.77,0,0,1,967.18,96.26Zm-.64,3.65a1.89,1.89,0,0,0,.66-1.54,1.93,1.93,0,0,0-.66-1.57,3,3,0,0,0-1.91-.54H962.4v4.2h2.23A3,3,0,0,0,966.54,99.91Z"/><path class="cls-3" d="M975.74,103.89l-1.92-2.7c-.21,0-.44,0-.67,0H970.9v2.67H970v-8.4h3.14a3.76,3.76,0,0,1,2.52.77,2.59,2.59,0,0,1,.91,2.11,2.74,2.74,0,0,1-.49,1.66,2.81,2.81,0,0,1-1.43,1l2.06,2.88Zm-.7-4a2.2,2.2,0,0,0,0-3.12,3,3,0,0,0-1.91-.54H970.9v4.21h2.23A3,3,0,0,0,975,99.92Z"/><path class="cls-3" d="M980.09,103.4a4.08,4.08,0,0,1-1.58-1.53,4.47,4.47,0,0,1,0-4.37A4.15,4.15,0,0,1,980.09,96a4.64,4.64,0,0,1,2.26-.55,4.52,4.52,0,0,1,2.25.55,4.08,4.08,0,0,1,1.58,1.53,4.42,4.42,0,0,1,0,4.38,4.08,4.08,0,0,1-1.58,1.53,4.86,4.86,0,0,1-4.51,0Zm4.06-.68a3.22,3.22,0,0,0,1.26-1.25,3.47,3.47,0,0,0,.46-1.78,3.51,3.51,0,0,0-.46-1.79,3.2,3.2,0,0,0-1.26-1.24,3.59,3.59,0,0,0-1.8-.45,3.64,3.64,0,0,0-1.8.45,3.22,3.22,0,0,0-1.27,1.24,3.52,3.52,0,0,0-.47,1.79,3.48,3.48,0,0,0,.47,1.78,3.25,3.25,0,0,0,1.27,1.25,3.64,3.64,0,0,0,1.8.45A3.59,3.59,0,0,0,984.15,102.72Z"/><path class="cls-3" d="M994.67,99.69h.85v3.2a4.13,4.13,0,0,1-1.39.79,5,5,0,0,1-1.69.28,4.73,4.73,0,0,1-2.27-.55,4.17,4.17,0,0,1-1.59-1.53,4.49,4.49,0,0,1,0-4.38A4.17,4.17,0,0,1,990.17,96a4.63,4.63,0,0,1,2.28-.55,5,5,0,0,1,1.76.3,3.58,3.58,0,0,1,1.36.91l-.55.56a3.49,3.49,0,0,0-2.54-1,3.77,3.77,0,0,0-1.84.45,3.28,3.28,0,0,0-1.29,1.24,3.52,3.52,0,0,0-.47,1.79,3.44,3.44,0,0,0,.47,1.77,3.3,3.3,0,0,0,1.29,1.25,3.61,3.61,0,0,0,1.83.46,3.67,3.67,0,0,0,2.2-.65Z"/><path class="cls-3" d="M1003.76,103.89l-1.92-2.7c-.21,0-.44,0-.67,0h-2.26v2.67H998v-8.4h3.14a3.76,3.76,0,0,1,2.52.77,2.59,2.59,0,0,1,.91,2.11,2.68,2.68,0,0,1-.5,1.66,2.74,2.74,0,0,1-1.42,1l2.05,2.88Zm-.7-4a2.2,2.2,0,0,0,0-3.12,3,3,0,0,0-1.91-.54h-2.24v4.21h2.24A3,3,0,0,0,1003.06,99.92Z"/><path class="cls-3" d="M1012,101.64h-4.68l-1,2.25h-.92l3.84-8.4h.87l3.84,8.4H1013Zm-.32-.72-2-4.51-2,4.51Z"/><path class="cls-3" d="M1024,95.49v8.4h-.85V97.17l-3.3,5.65h-.42l-3.3-5.62v6.69h-.85v-8.4h.73l3.65,6.23,3.61-6.23Z"/><path d="M825.73,111.83h-1.68l-1.69,2.35,1.69,2.34h1.68l-1.64-2.34,1.64-2.35Zm-2.71,0h-1.68l-1.69,2.35,1.69,2.34H823l-1.64-2.34,1.64-2.35Z"/><path d="M828.15,110.83v6.52h-.06v-6.52h.06m5.35-.94h-6.35v8.4h1.94v-3.06H833v-1.56h-3.89v-2.22h4.41v-1.56Z"/><path d="M835.82,110.83v6.52h-.06v-6.52h.06m4.9.8a1.49,1.49,0,0,1,.15.2,1.93,1.93,0,0,1,.29,1.11,1.91,1.91,0,0,1-.29,1.09l-.12.16a2.44,2.44,0,0,0,.32-1.25,2.4,2.4,0,0,0-.35-1.31m-2.27-1.74h-3.63v8.4h1.94V116h1.79l1.62,2.34h2.09l-1.89-2.7a2.89,2.89,0,0,0,1.28-1,2.84,2.84,0,0,0,.45-1.61,2.93,2.93,0,0,0-.44-1.62,2.9,2.9,0,0,0-1.27-1.06,4.63,4.63,0,0,0-1.94-.37Zm-1.69,4.51v-2.93h1.59a2.07,2.07,0,0,1,1.33.38,1.33,1.33,0,0,1,.45,1.09,1.35,1.35,0,0,1-.45,1.08,2.07,2.07,0,0,1-1.33.38Z"/><path d="M844.73,112a2.39,2.39,0,0,0-.13.21,4,4,0,0,0,0,3.7,2.39,2.39,0,0,0,.13.21,3.62,3.62,0,0,1-.22-.32,3.3,3.3,0,0,1-.46-1.74,3.26,3.26,0,0,1,.46-1.74,2.57,2.57,0,0,1,.22-.32m6,.07.17.25a3.26,3.26,0,0,1,.46,1.74,3.3,3.3,0,0,1-.46,1.74l-.17.25.08-.14a4,4,0,0,0,0-3.7.64.64,0,0,0-.08-.14m-3-2.36a4.85,4.85,0,0,0-2.36.57,4.18,4.18,0,0,0-1.65,1.55,4.29,4.29,0,0,0,1.65,6,5.23,5.23,0,0,0,4.71,0,4.32,4.32,0,0,0,1.64-1.56,4.28,4.28,0,0,0-1.64-6,4.84,4.84,0,0,0-2.35-.57Zm0,7a2.66,2.66,0,0,1-1.35-.35,2.39,2.39,0,0,1-.94-1,3,3,0,0,1,0-2.78,2.48,2.48,0,0,1,.94-1,2.83,2.83,0,0,1,2.69,0,2.48,2.48,0,0,1,.94,1,3,3,0,0,1,0,2.78,2.39,2.39,0,0,1-.94,1,2.65,2.65,0,0,1-1.34.35Z"/><path d="M860.53,110.83v6.52h0v-6.52h0m-5.78,0v6.52h0v-6.52h0m6.72-.94h-1.92V115l-4.18-5.1h-1.6v8.4h1.92v-5.1l4.18,5.1h1.6v-8.4Z"/><path d="M866.2,110.83v6.52h-.06v-6.52h.06m3.63-.94h-7.32v1.58h2.69v6.82h1.94v-6.82h2.69v-1.58Z"/><polygon points="873.8 113.28 870.41 113.28 870.41 114.78 873.8 114.78 873.8 113.28 873.8 113.28"/><path d="M876.52,110.83v6.52h0v-6.52h0m5.36-.94h-6.35v8.4H882v-1.56h-4.58v-2h3.9v-1.51h-3.9v-1.82h4.42v-1.56Z"/><path d="M890.35,110.83v6.52h0v-6.52h0m-5.79,0v6.52h0v-6.52h0m6.73-.94h-1.92V115l-4.18-5.1h-1.61v8.4h1.92v-5.1l4.19,5.1h1.6v-8.4Z"/><path d="M894.29,110.83v6.52h-.07v-6.52h.07m5.87,1.27.19.27a3.28,3.28,0,0,1,.44,1.72,3.22,3.22,0,0,1-.44,1.71,1.85,1.85,0,0,1-.19.27,3.92,3.92,0,0,0,0-4m-3.06-2.21h-3.82v8.4h3.82a5.52,5.52,0,0,0,2.42-.52,4,4,0,0,0,1.63-1.47,4.5,4.5,0,0,0,0-4.42,4,4,0,0,0-1.63-1.47,5.38,5.38,0,0,0-2.42-.52Zm-1.87,6.8v-5.21H897a2.82,2.82,0,0,1,2,.71,2.78,2.78,0,0,1,0,3.8,2.81,2.81,0,0,1-2,.7Z"/><path d="M903.53,117c.11,0,.15,0,.18.06s0,0,0,.15,0,.14-.06.17-.07.06-.16.06a.19.19,0,0,1-.17-.06.23.23,0,0,1-.06-.17c0-.11,0-.14.05-.15s.07-.06.18-.06m0-.94a1.16,1.16,0,0,0-.83.31,1.13,1.13,0,0,0-.34.84,1.18,1.18,0,0,0,.34.84,1.13,1.13,0,0,0,.83.33,1.15,1.15,0,0,0,.83-.33,1.17,1.17,0,0,0,.33-.84,1.12,1.12,0,0,0-.33-.84,1.17,1.17,0,0,0-.83-.31Z"/><path d="M913.12,110.83v4.51a2.34,2.34,0,0,1-.49,1.66h0a2.56,2.56,0,0,0,.44-1.56v-4.61h0m.94-.94h-4.88v1.56h3v4c0,.93-.39,1.4-1.19,1.4a2,2,0,0,1-1.56-.93l-1.08,1.3a3.07,3.07,0,0,0,1.17.9,3.71,3.71,0,0,0,1.57.32,3.09,3.09,0,0,0,2.26-.77,3.18,3.18,0,0,0,.76-2.32v-5.45Z"/><path d="M920.36,109.89h-1.92l-3.74,8.4h2l.75-1.8h3.9l.74,1.8h2l-3.76-8.4Zm-2.3,5.12,1.33-3.21,1.33,3.21Z"/><path d="M924.92,110.83l2.31,5.43.46,1.09h0l-2.81-6.52h0m7.7-.94h-1.94l-2.59,6-2.55-6h-2.1l3.62,8.4H929l3.64-8.4Z"/><path d="M937.6,109.89h-1.92l-3.75,8.4h2l.75-1.8h3.9l.74,1.8h2l-3.75-8.4ZM935.29,115l1.33-3.21L938,115Z"/><path d="M942.8,111.77a1.68,1.68,0,0,0,.3,1.53,2.13,2.13,0,0,1-.22-.21,1.08,1.08,0,0,1-.2-.73,1.41,1.41,0,0,1,.12-.59m4.27,3a1.59,1.59,0,0,1,.34.3,1.07,1.07,0,0,1,.2.71,1.33,1.33,0,0,1-.09.49,1.34,1.34,0,0,0,0-.35,1.57,1.57,0,0,0-.49-1.15m-1.79-5.08a4.89,4.89,0,0,0-1.95.35,2.7,2.7,0,0,0-1.2.94,2.38,2.38,0,0,0-.39,1.33,2,2,0,0,0,.43,1.34,2.72,2.72,0,0,0,1.05.74,14.15,14.15,0,0,0,1.58.45q.62.15,1,.27a1.88,1.88,0,0,1,.6.31.66.66,0,0,1,.23.5.75.75,0,0,1-.4.66,2.4,2.4,0,0,1-1.22.24,4.84,4.84,0,0,1-1.49-.24,4.63,4.63,0,0,1-1.28-.63l-.66,1.46a4.4,4.4,0,0,0,1.49.7,6.87,6.87,0,0,0,1.93.27,4.72,4.72,0,0,0,2-.35,2.66,2.66,0,0,0,1.21-.94,2.25,2.25,0,0,0,.4-1.31,1.88,1.88,0,0,0-.44-1.33,2.54,2.54,0,0,0-1.05-.72,11.46,11.46,0,0,0-1.57-.46,7.5,7.5,0,0,1-1.37-.41.69.69,0,0,1-.45-.65.8.8,0,0,1,.39-.69,2.13,2.13,0,0,1,1.2-.27,4.66,4.66,0,0,1,2.33.66l.6-1.47a4.38,4.38,0,0,0-1.34-.55,6.37,6.37,0,0,0-1.57-.2Z"/><path d="M951,111.94a1.83,1.83,0,0,0-.18.3,3.88,3.88,0,0,0,0,3.7,2.82,2.82,0,0,0,.18.29,2.7,2.7,0,0,1-.27-.39,3.29,3.29,0,0,1-.46-1.75,3.33,3.33,0,0,1,.46-1.76,2.7,2.7,0,0,1,.27-.39m2.89-2.2a4.88,4.88,0,0,0-2.34.56,4.19,4.19,0,0,0-1.63,1.55,4.55,4.55,0,0,0,0,4.48,4.17,4.17,0,0,0,1.63,1.54,4.74,4.74,0,0,0,2.32.56,5,5,0,0,0,2-.38,3.87,3.87,0,0,0,1.49-1.12l-1.25-1.15a2.67,2.67,0,0,1-2.11,1,2.79,2.79,0,0,1-1.39-.35,2.29,2.29,0,0,1-1-1,2.94,2.94,0,0,1,0-2.78,2.37,2.37,0,0,1,1-1,2.78,2.78,0,0,1,1.39-.34,2.68,2.68,0,0,1,2.11,1l1.25-1.15a3.86,3.86,0,0,0-1.48-1.1,4.84,4.84,0,0,0-2-.39Z"/><path d="M959.68,110.83v6.52h-.06v-6.52h.06m4.91.8a1.43,1.43,0,0,1,.14.2,1.93,1.93,0,0,1,.29,1.11,1.91,1.91,0,0,1-.29,1.09l-.12.16a2.35,2.35,0,0,0,.33-1.25,2.49,2.49,0,0,0-.35-1.31m-2.27-1.74h-3.64v8.4h1.94V116h1.79l1.62,2.34h2.09l-1.88-2.7a3,3,0,0,0,1.28-4.27,2.9,2.9,0,0,0-1.27-1.06,4.58,4.58,0,0,0-1.93-.37Zm-1.7,4.51v-2.93h1.59a2,2,0,0,1,1.33.38,1.34,1.34,0,0,1,.46,1.09,1.36,1.36,0,0,1-.46,1.08,2,2,0,0,1-1.33.38Z"/><path d="M968.5,110.83v6.52h-.06v-6.52h.06m.94-.94H967.5v8.4h1.94v-8.4Z"/><path d="M972.44,110.83v6.52h-.06v-6.52h.06m4.9.8.15.2a2,2,0,0,1,.29,1.11,2,2,0,0,1-.3,1.1,1.13,1.13,0,0,1-.15.21,2.59,2.59,0,0,0,0-2.62m-2.27-1.74h-3.63v8.4h1.94V116h1.69a4.83,4.83,0,0,0,1.94-.36,2.81,2.81,0,0,0,1.26-1.06,2.89,2.89,0,0,0,.45-1.61,2.85,2.85,0,0,0-.45-1.62,2.81,2.81,0,0,0-1.26-1.06,4.66,4.66,0,0,0-1.94-.37Zm-1.69,4.5v-2.92H975a2.08,2.08,0,0,1,1.34.38,1.33,1.33,0,0,1,.45,1.09,1.32,1.32,0,0,1-.45,1.07,2.08,2.08,0,0,1-1.34.38Z"/><path d="M982.62,110.83v6.52h-.07v-6.52h.07m3.62-.94h-7.32v1.58h2.69v6.82h1.95v-6.82h2.68v-1.58Z"/><path d="M991,111.83h-1.68l1.64,2.35-1.64,2.34H991l1.69-2.34L991,111.83Zm-2.71,0h-1.68l1.64,2.35-1.64,2.34h1.68l1.69-2.34-1.69-2.35Z"/><path d="M3.77,75.09a3.78,3.78,0,1,0,3.77,3.77,3.77,3.77,0,0,0-3.77-3.77Z"/><polyline class="cls-4" points="4.1 77.7 13.77 44.37 89.61 44.37"/><path d="M183.43,50.49a4.64,4.64,0,0,0-2,.41,3.31,3.31,0,0,0-1.35,1.15l1.41.91a1.9,1.9,0,0,1,.75-.63,2.25,2.25,0,0,1,1-.21,1.57,1.57,0,0,1,1,.27.93.93,0,0,1,.35.77,1.56,1.56,0,0,1-.18.71,3.73,3.73,0,0,1-.7.84l-3.24,3.06V59h6.35V57.45h-3.61l1.93-1.83a4.86,4.86,0,0,0,1.11-1.36,2.84,2.84,0,0,0,.29-1.29,2.23,2.23,0,0,0-.39-1.31,2.58,2.58,0,0,0-1.09-.87,4.14,4.14,0,0,0-1.64-.3Z"/><path d="M191.21,50.49a3.42,3.42,0,0,0-1.86.51,3.5,3.5,0,0,0-1.28,1.5,6.16,6.16,0,0,0,0,4.67,3.36,3.36,0,0,0,3.14,2,3.36,3.36,0,0,0,3.14-2,6.16,6.16,0,0,0,0-4.67,3.57,3.57,0,0,0-1.28-1.5,3.47,3.47,0,0,0-1.86-.51Zm0,7a1.38,1.38,0,0,1-1.2-.66,5.05,5.05,0,0,1,0-4.08,1.42,1.42,0,0,1,2.4,0,3.68,3.68,0,0,1,.44,2,3.68,3.68,0,0,1-.44,2,1.36,1.36,0,0,1-1.2.66Z"/><path d="M199.35,50.49a3.32,3.32,0,0,0-3.13,2,6,6,0,0,0,0,4.67,3.36,3.36,0,0,0,1.28,1.49,3.41,3.41,0,0,0,1.85.52,3.48,3.48,0,0,0,1.87-.52,3.4,3.4,0,0,0,1.27-1.49,6,6,0,0,0,0-4.67,3.29,3.29,0,0,0-3.14-2Zm0,7a1.36,1.36,0,0,1-1.19-.66,4.95,4.95,0,0,1,0-4.08,1.42,1.42,0,0,1,2.4,0,4.95,4.95,0,0,1,0,4.08,1.37,1.37,0,0,1-1.21.66Z"/><path d="M206.85,50.49a3.72,3.72,0,0,0-1.61.34,2.66,2.66,0,0,0-1.14,1,2.51,2.51,0,0,0-.42,1.47,2.47,2.47,0,0,0,.38,1.38,2.58,2.58,0,0,0,1,.92,3.37,3.37,0,0,0,1.47.32,2.81,2.81,0,0,0,2.09-.76A2.65,2.65,0,0,1,208,57a2.26,2.26,0,0,1-1.69.63,2.72,2.72,0,0,1-1.57-.42L204,58.6a3.65,3.65,0,0,0,1,.43,5.43,5.43,0,0,0,1.29.15,4.66,4.66,0,0,0,2.24-.53,3.65,3.65,0,0,0,1.51-1.55,5.31,5.31,0,0,0,.53-2.45,4.41,4.41,0,0,0-1-3.09,3.62,3.62,0,0,0-2.77-1.07Zm.15,4a1.57,1.57,0,0,1-1-.34,1.17,1.17,0,0,1-.39-.92,1.12,1.12,0,0,1,.39-.91,1.48,1.48,0,0,1,1-.34,1.57,1.57,0,0,1,1.07.35,1.14,1.14,0,0,1,.39.9,1.12,1.12,0,0,1-.4.9,1.51,1.51,0,0,1-1,.36Z"/><path d="M167.31,75.09a3.78,3.78,0,1,0,3.77,3.77,3.77,3.77,0,0,0-3.77-3.77Z"/><polyline class="cls-4" points="167.65 77.7 177.31 44.37 306.58 44.37"/><path d="M431.49,50.49a4.64,4.64,0,0,0-2,.41,3.38,3.38,0,0,0-1.35,1.15l1.41.91a1.9,1.9,0,0,1,.75-.63,2.28,2.28,0,0,1,1-.21,1.62,1.62,0,0,1,1,.27,1,1,0,0,1,.34.77,1.56,1.56,0,0,1-.18.71,3.48,3.48,0,0,1-.7.84l-3.24,3.06V59h6.35V57.45h-3.61l1.93-1.83a5.12,5.12,0,0,0,1.12-1.36,3,3,0,0,0,.28-1.29,2.23,2.23,0,0,0-.39-1.31,2.58,2.58,0,0,0-1.09-.87,4.14,4.14,0,0,0-1.64-.3Z"/><path d="M439.27,50.49a3.42,3.42,0,0,0-1.86.51,3.57,3.57,0,0,0-1.28,1.5,6.16,6.16,0,0,0,0,4.67,3.48,3.48,0,0,0,1.28,1.49,3.59,3.59,0,0,0,3.72,0,3.48,3.48,0,0,0,1.28-1.49,6.16,6.16,0,0,0,0-4.67,3.57,3.57,0,0,0-1.28-1.5,3.42,3.42,0,0,0-1.86-.51Zm0,7a1.36,1.36,0,0,1-1.19-.66,3.68,3.68,0,0,1-.44-2,3.68,3.68,0,0,1,.44-2,1.36,1.36,0,0,1,1.19-.66,1.39,1.39,0,0,1,1.21.66,5.05,5.05,0,0,1,0,4.08,1.39,1.39,0,0,1-1.21.66Z"/><polygon points="446.99 50.63 443.36 50.63 443.36 52.19 445.04 52.19 445.04 59.03 446.99 59.03 446.99 50.63 446.99 50.63"/><path d="M452.73,50.49a4.49,4.49,0,0,0-2.23.53A3.62,3.62,0,0,0,449,52.56a5.18,5.18,0,0,0-.54,2.45,4.37,4.37,0,0,0,1,3.09,3.56,3.56,0,0,0,2.76,1.08,3.69,3.69,0,0,0,1.61-.35,2.73,2.73,0,0,0,1.15-1,2.64,2.64,0,0,0,.42-1.48A2.42,2.42,0,0,0,455,55a2.45,2.45,0,0,0-1-.92,3.24,3.24,0,0,0-1.47-.33,2.78,2.78,0,0,0-2.07.75,2.57,2.57,0,0,1,.67-1.81,2.28,2.28,0,0,1,1.69-.63,2.74,2.74,0,0,1,1.57.42l.72-1.43a3.38,3.38,0,0,0-1.05-.42,5.43,5.43,0,0,0-1.29-.15Zm-.63,7.23a1.57,1.57,0,0,1-1.08-.34,1.15,1.15,0,0,1-.4-.9,1.16,1.16,0,0,1,.41-.91,1.74,1.74,0,0,1,2.08,0,1.27,1.27,0,0,1,0,1.83,1.52,1.52,0,0,1-1,.33Z"/><path d="M415.37,75.09a3.78,3.78,0,1,0,3.78,3.77,3.77,3.77,0,0,0-3.78-3.77Z"/><polyline class="cls-4" points="415.71 77.7 425.38 44.37 555.13 44.37"/><path d="M693.09,50.49a4.64,4.64,0,0,0-2,.41,3.25,3.25,0,0,0-1.35,1.15l1.41.91a1.94,1.94,0,0,1,.74-.63,2.33,2.33,0,0,1,1-.21,1.57,1.57,0,0,1,1,.27.93.93,0,0,1,.35.77,1.57,1.57,0,0,1-.19.71,3.64,3.64,0,0,1-.69.84l-3.24,3.06V59h6.35V57.45h-3.62l1.94-1.83a4.86,4.86,0,0,0,1.11-1.36,3,3,0,0,0,.29-1.29,2.23,2.23,0,0,0-.39-1.31,2.58,2.58,0,0,0-1.09-.87,4.14,4.14,0,0,0-1.64-.3Z"/><path d="M700.87,50.49A3.42,3.42,0,0,0,699,51a3.5,3.5,0,0,0-1.28,1.5,6.16,6.16,0,0,0,0,4.67,3.36,3.36,0,0,0,3.14,2,3.36,3.36,0,0,0,3.14-2,6.16,6.16,0,0,0,0-4.67,3.57,3.57,0,0,0-1.28-1.5,3.47,3.47,0,0,0-1.86-.51Zm0,7a1.38,1.38,0,0,1-1.2-.66,4.95,4.95,0,0,1,0-4.08,1.42,1.42,0,0,1,2.4,0,4.95,4.95,0,0,1,0,4.08,1.36,1.36,0,0,1-1.2.66Z"/><polygon points="708.58 50.63 704.96 50.63 704.96 52.19 706.64 52.19 706.64 59.03 708.58 59.03 708.58 50.63 708.58 50.63"/><polygon points="716.62 50.63 709.89 50.63 709.89 53.58 711.62 53.58 711.62 52.22 714.4 52.22 711.39 59.03 713.5 59.03 716.62 51.89 716.62 50.63 716.62 50.63"/><path d="M677,75.09a3.78,3.78,0,1,0,3.77,3.77A3.77,3.77,0,0,0,677,75.09Z"/><polyline class="cls-4" points="677.31 77.7 686.97 44.37 832.73 44.37"/><path d="M82,75.7a3.77,3.77,0,1,0,3.77,3.77A3.77,3.77,0,0,0,82,75.7Z"/><polyline class="cls-4" points="82.33 80.64 99.08 139.24 221.84 139.24"/><path d="M561.27,146.09a4.5,4.5,0,0,0-2,.42,3.22,3.22,0,0,0-1.35,1.14l1.41.91a1.9,1.9,0,0,1,.75-.63,2.25,2.25,0,0,1,1-.21,1.59,1.59,0,0,1,1,.27.93.93,0,0,1,.35.78,1.55,1.55,0,0,1-.18.7,3.54,3.54,0,0,1-.7.85l-3.24,3.06v1.26h6.35v-1.59h-3.61l1.93-1.82a4.88,4.88,0,0,0,1.11-1.37,2.82,2.82,0,0,0,.29-1.28,2.24,2.24,0,0,0-.39-1.32,2.49,2.49,0,0,0-1.09-.86,4,4,0,0,0-1.64-.31Z"/><path d="M569.05,146.09a3.34,3.34,0,0,0-1.86.52,3.42,3.42,0,0,0-1.28,1.49,6.16,6.16,0,0,0,0,4.67,3.42,3.42,0,0,0,1.28,1.49,3.34,3.34,0,0,0,1.86.52,3.39,3.39,0,0,0,1.86-.52,3.48,3.48,0,0,0,1.28-1.49,6.16,6.16,0,0,0,0-4.67,3.48,3.48,0,0,0-1.28-1.49,3.39,3.39,0,0,0-1.86-.52Zm0,7a1.38,1.38,0,0,1-1.2-.66,5.05,5.05,0,0,1,0-4.08,1.42,1.42,0,0,1,2.4,0,4.95,4.95,0,0,1,0,4.08,1.36,1.36,0,0,1-1.2.66Z"/><polygon points="576.76 146.24 573.14 146.24 573.14 147.8 574.82 147.8 574.82 154.64 576.76 154.64 576.76 146.24 576.76 146.24"/><polygon points="584.8 146.24 578.07 146.24 578.07 149.19 579.8 149.19 579.8 147.82 582.58 147.82 579.57 154.64 581.68 154.64 584.8 147.5 584.8 146.24 584.8 146.24"/><path d="M537.84,75.7a3.77,3.77,0,1,0,3.77,3.77,3.77,3.77,0,0,0-3.77-3.77Z"/><polyline class="cls-4" points="538.17 80.64 554.92 139.24 700.68 139.24"/><path d="M822.44,130.7a4.42,4.42,0,0,0-2,.41,3.34,3.34,0,0,0-1.36,1.15l1.41.91a2,2,0,0,1,.75-.63,2.29,2.29,0,0,1,1-.21,1.61,1.61,0,0,1,1,.27,1,1,0,0,1,.34.77,1.52,1.52,0,0,1-.18.7,3.31,3.31,0,0,1-.7.85L819.49,138v1.26h6.35v-1.58h-3.61l1.93-1.83a5.14,5.14,0,0,0,1.12-1.37,2.92,2.92,0,0,0,.28-1.28,2.22,2.22,0,0,0-.38-1.31,2.59,2.59,0,0,0-1.1-.87,4.14,4.14,0,0,0-1.64-.3Z"/><path d="M830.22,130.7a3.42,3.42,0,0,0-1.86.51,3.51,3.51,0,0,0-1.28,1.5,6.13,6.13,0,0,0,0,4.66,3.51,3.51,0,0,0,1.28,1.5,3.43,3.43,0,0,0,5-1.5,6.13,6.13,0,0,0,0-4.66,3.32,3.32,0,0,0-3.14-2Zm0,7a1.36,1.36,0,0,1-1.19-.66,4.95,4.95,0,0,1,0-4.08,1.36,1.36,0,0,1,1.19-.66,1.38,1.38,0,0,1,1.21.66,5.05,5.05,0,0,1,0,4.08,1.38,1.38,0,0,1-1.21.66Z"/><polygon points="837.94 130.84 834.31 130.84 834.31 132.4 835.99 132.4 835.99 139.24 837.94 139.24 837.94 130.84 837.94 130.84"/><path d="M842.88,130.7a4.42,4.42,0,0,0-1.68.29,2.6,2.6,0,0,0-1.14.83,2.08,2.08,0,0,0-.41,1.28,1.92,1.92,0,0,0,1,1.72,2.44,2.44,0,0,0-.94.82,2.07,2.07,0,0,0-.33,1.16,2.24,2.24,0,0,0,.44,1.37,2.88,2.88,0,0,0,1.24.9,5,5,0,0,0,1.85.31,5.11,5.11,0,0,0,1.86-.31,3,3,0,0,0,1.25-.9,2.24,2.24,0,0,0,.44-1.37,2.07,2.07,0,0,0-.33-1.16,2.4,2.4,0,0,0-1-.82,2,2,0,0,0,.73-.72,2,2,0,0,0,.25-1,2.08,2.08,0,0,0-.4-1.28,2.7,2.7,0,0,0-1.15-.83,4.49,4.49,0,0,0-1.7-.29Zm0,3.51a1.45,1.45,0,0,1-1-.28,1,1,0,0,1,0-1.52,1.45,1.45,0,0,1,.94-.29,1.5,1.5,0,0,1,1,.29.91.91,0,0,1,.36.77.88.88,0,0,1-.36.75,1.5,1.5,0,0,1-1,.28Zm0,3.75a1.8,1.8,0,0,1-1.14-.33,1.05,1.05,0,0,1-.42-.89,1,1,0,0,1,.42-.87,1.8,1.8,0,0,1,1.14-.33,1.86,1.86,0,0,1,1.16.33,1,1,0,0,1,.43.87,1.09,1.09,0,0,1-.43.89,1.86,1.86,0,0,1-1.16.33Z"/><path d="M799,75.7a3.77,3.77,0,1,0,3.77,3.77A3.77,3.77,0,0,0,799,75.7Z"/><polyline class="cls-4" points="799.35 80.64 812.05 124.53 1026.48 124.53"/><path d="M315.76,130.7a4.5,4.5,0,0,0-2,.41,3.38,3.38,0,0,0-1.35,1.15l1.41.91a1.9,1.9,0,0,1,.75-.63,2.28,2.28,0,0,1,1-.21,1.62,1.62,0,0,1,1,.27,1,1,0,0,1,.34.77,1.52,1.52,0,0,1-.18.7,3.31,3.31,0,0,1-.7.85L312.81,138v1.26h6.35v-1.58h-3.61l1.93-1.83a5.14,5.14,0,0,0,1.12-1.37,2.92,2.92,0,0,0,.28-1.28,2.23,2.23,0,0,0-.39-1.31,2.5,2.5,0,0,0-1.09-.87,4.14,4.14,0,0,0-1.64-.3Z"/><path d="M323.54,130.7a3.42,3.42,0,0,0-1.86.51,3.51,3.51,0,0,0-1.28,1.5,6.13,6.13,0,0,0,0,4.66,3.51,3.51,0,0,0,1.28,1.5,3.65,3.65,0,0,0,3.72,0,3.51,3.51,0,0,0,1.28-1.5,6.13,6.13,0,0,0,0-4.66,3.51,3.51,0,0,0-1.28-1.5,3.42,3.42,0,0,0-1.86-.51Zm0,7a1.36,1.36,0,0,1-1.19-.66,4.95,4.95,0,0,1,0-4.08,1.36,1.36,0,0,1,1.19-.66,1.39,1.39,0,0,1,1.21.66,5.05,5.05,0,0,1,0,4.08,1.39,1.39,0,0,1-1.21.66Z"/><polygon points="331.26 130.84 327.63 130.84 327.63 132.4 329.31 132.4 329.31 139.24 331.26 139.24 331.26 130.84 331.26 130.84"/><path d="M338.54,130.84h-5.88v1.56h3.58l-1.73,2v1.28h.89c1,0,1.57.34,1.57,1a.9.9,0,0,1-.42.8,2,2,0,0,1-1.15.28,4,4,0,0,1-1.29-.2A3.6,3.6,0,0,1,333,137l-.76,1.48a4.58,4.58,0,0,0,1.46.67,6.4,6.4,0,0,0,1.74.23,4.46,4.46,0,0,0,1.93-.37,2.75,2.75,0,0,0,1.17-1,2.46,2.46,0,0,0,.38-1.35,2.28,2.28,0,0,0-.58-1.59,2.85,2.85,0,0,0-1.7-.82l1.9-2.16v-1.26Z"/><path d="M292.33,75.7a3.77,3.77,0,1,0,3.77,3.77,3.77,3.77,0,0,0-3.77-3.77Z"/><polyline class="cls-4" points="292.67 80.64 305.84 123.86 439.51 123.86"/></g></g></svg>