<svg class="" xmlns="http://www.w3.org/2000/svg" xmlns:xlink="http://www.w3.org/1999/xlink" viewBox="0 0 462 385.67"><defs><style>.cls-1{fill:#231300;}.cls-2{fill:url(#Безымянный_градиент_2);}.cls-3{fill:url(#Безымянный_градиент_2-2);}.cls-4{fill:url(#Безымянный_градиент_2-3);}.cls-5{fill:url(#Безымянный_градиент_2-4);}.cls-6{fill:url(#Безымянный_градиент_2-5);}.cls-7{fill:url(#Безымянный_градиент_2-6);}.cls-8{fill:url(#Безымянный_градиент_2-7);}.cls-9{fill:url(#Безымянный_градиент_2-8);}</style><linearGradient id="Безымянный_градиент_2" x1="462" y1="14.66" x2="230.08" y2="14.66" gradientUnits="userSpaceOnUse"><stop offset="0" stop-color="#fff"/><stop offset="0.05" stop-color="#d2d2d2"/><stop offset="0.1" stop-color="#a6a6a6"/><stop offset="0.16" stop-color="#7e7e7e"/><stop offset="0.22" stop-color="#5c5c5c"/><stop offset="0.29" stop-color="#3f3f3f"/><stop offset="0.36" stop-color="#282828"/><stop offset="0.45" stop-color="#161616"/><stop offset="0.55" stop-color="#090909"/><stop offset="0.69" stop-color="#020202"/><stop offset="1"/></linearGradient><linearGradient id="Безымянный_градиент_2-2" y1="117.99" x2="230.08" y2="117.99" xlink:href="#Безымянный_градиент_2"/><linearGradient id="Безымянный_градиент_2-3" x1="-297.54" y1="-96.53" x2="-528.61" y2="-96.53" gradientTransform="translate(-297.54 -23.64) rotate(180)" xlink:href="#Безымянный_градиент_2"/><linearGradient id="Безымянный_градиент_2-4" y1="207.22" x2="230.08" y2="207.22" xlink:href="#Безымянный_градиент_2"/><linearGradient id="Безымянный_градиент_2-5" x1="-297.54" y1="-185.77" x2="-528.61" y2="-185.77" gradientTransform="translate(-297.54 -23.64) rotate(180)" xlink:href="#Безымянный_градиент_2"/><linearGradient id="Безымянный_градиент_2-6" y1="326.56" x2="230.08" y2="326.56" xlink:href="#Безымянный_градиент_2"/><linearGradient id="Безымянный_градиент_2-7" x1="-297.54" y1="-291.14" x2="-528.61" y2="-291.14" gradientTransform="translate(-297.54 -23.64) rotate(180)" xlink:href="#Безымянный_градиент_2"/><linearGradient id="Безымянный_градиент_2-8" x1="-297.54" y1="-395.26" x2="-528.61" y2="-395.26" gradientTransform="translate(-297.54 -23.64) rotate(180)" xlink:href="#Безымянный_градиент_2"/></defs><title>for small screen</title><g id="Layer_2" data-name="Layer 2"><g id="Слой_1" data-name="Слой 1"><path class="cls-1" d="M230.58,372.62a1,1,0,0,1-1-1V14.39a1,1,0,0,1,2,0V371.62A1,1,0,0,1,230.58,372.62Z"/><path class="cls-1" d="M324.18.07l-2.83,8.4h-.94L318,1.31l-2.47,7.16h-.92L311.72.07h.92l2.42,7.23L317.57.07h.83l2.47,7.26L323.33.07Z"/><path class="cls-1" d="M330.82,6.23h-4.68l-1,2.24h-.92L328,.07h.88l3.84,8.4h-.93Zm-.33-.72-2-4.51-2,4.51Z"/><path class="cls-1" d="M334.67,8.24a3.25,3.25,0,0,1-1.32-.79l.35-.68a3.41,3.41,0,0,0,1.21.74,4.58,4.58,0,0,0,1.56.28,2.81,2.81,0,0,0,1.69-.42,1.25,1.25,0,0,0,.56-1.07,1.07,1.07,0,0,0-.3-.8,2.22,2.22,0,0,0-.75-.47c-.3-.1-.71-.22-1.24-.35a13,13,0,0,1-1.51-.46,2.44,2.44,0,0,1-1-.68,1.8,1.8,0,0,1-.41-1.24,2.1,2.1,0,0,1,.34-1.15,2.31,2.31,0,0,1,1-.84A4.18,4.18,0,0,1,336.65,0a5.16,5.16,0,0,1,1.41.2,4,4,0,0,1,1.19.54l-.3.71a4.38,4.38,0,0,0-1.12-.52,4.16,4.16,0,0,0-1.18-.17,2.72,2.72,0,0,0-1.66.42,1.34,1.34,0,0,0-.56,1.1,1.06,1.06,0,0,0,.31.81,2.08,2.08,0,0,0,.76.47c.31.11.72.22,1.25.35a12,12,0,0,1,1.49.45,2.53,2.53,0,0,1,1,.67,1.81,1.81,0,0,1,.39,1.22,2,2,0,0,1-.34,1.16,2.35,2.35,0,0,1-1.05.83,4.45,4.45,0,0,1-1.74.3A5.44,5.44,0,0,1,334.67,8.24Z"/><path class="cls-1" d="M351.25,4.85a2.08,2.08,0,0,1,.45,1.38,1.94,1.94,0,0,1-.8,1.66,4,4,0,0,1-2.36.58h-3.86V.07h3.62a3.62,3.62,0,0,1,2.18.57,1.83,1.83,0,0,1,.77,1.59,2,2,0,0,1-.34,1.18,2,2,0,0,1-.94.73A2.27,2.27,0,0,1,351.25,4.85Zm-5.69-4V3.85h2.68a2.7,2.7,0,0,0,1.57-.39,1.3,1.3,0,0,0,.56-1.13,1.31,1.31,0,0,0-.56-1.14A2.7,2.7,0,0,0,348.24.8Zm4.67,6.56a1.34,1.34,0,0,0,.58-1.2c0-1-.76-1.58-2.28-1.58h-3V7.74h3A3.12,3.12,0,0,0,350.23,7.36Z"/><path class="cls-1" d="M355.13,8A4.13,4.13,0,0,1,353,4.27a4.22,4.22,0,0,1,.57-2.18A4.08,4.08,0,0,1,355.13.56,4.66,4.66,0,0,1,357.4,0a4.57,4.57,0,0,1,2.25.55,4.12,4.12,0,0,1,1.57,1.53,4.17,4.17,0,0,1,.58,2.19,4.17,4.17,0,0,1-.58,2.19A4.12,4.12,0,0,1,359.65,8a4.57,4.57,0,0,1-2.25.55A4.65,4.65,0,0,1,355.13,8Zm4.07-.69a3.29,3.29,0,0,0,1.26-1.25,3.54,3.54,0,0,0,.45-1.78,3.57,3.57,0,0,0-.45-1.78,3.36,3.36,0,0,0-1.26-1.25,3.85,3.85,0,0,0-3.61,0,3.32,3.32,0,0,0-1.27,1.25,3.47,3.47,0,0,0-.46,1.78,3.45,3.45,0,0,0,.46,1.78,3.25,3.25,0,0,0,1.27,1.25,3.85,3.85,0,0,0,3.61,0Z"/><path class="cls-1" d="M369.53,8.47l-1.92-2.7a4.92,4.92,0,0,1-.67,0h-2.26V8.47h-.89V.07h3.15a3.81,3.81,0,0,1,2.52.77A2.64,2.64,0,0,1,370.37,3a2.73,2.73,0,0,1-.5,1.66,2.73,2.73,0,0,1-1.42,1l2.05,2.88Zm-.71-4A1.91,1.91,0,0,0,369.48,3a1.9,1.9,0,0,0-.66-1.56,2.9,2.9,0,0,0-1.91-.55h-2.23V5.05h2.23A2.9,2.9,0,0,0,368.82,4.5Z"/><path class="cls-1" d="M379.49.07v8.4h-.73l-5.4-6.81V8.47h-.89V.07h.73l5.41,6.82V.07Z"/><path class="cls-1" d="M323.67,28v1.58h-6.35V28.33l3.24-3.06a3.64,3.64,0,0,0,.69-.84,1.56,1.56,0,0,0,.18-.71.92.92,0,0,0-.34-.77,1.59,1.59,0,0,0-1-.27,2.33,2.33,0,0,0-1,.21,1.94,1.94,0,0,0-.74.63l-1.42-.91a3.34,3.34,0,0,1,1.36-1.15,4.58,4.58,0,0,1,2-.41,4.17,4.17,0,0,1,1.64.3,2.58,2.58,0,0,1,1.09.87,2.23,2.23,0,0,1,.39,1.31,3,3,0,0,1-.29,1.29A4.75,4.75,0,0,1,322,26.18L320.05,28Z"/><path class="cls-1" d="M327.71,21.19v8.4h-1.95V22.75h-1.68V21.19Z"/><path class="cls-1" d="M329.45,29.35a1.11,1.11,0,0,1-.34-.84,1.07,1.07,0,0,1,.34-.83,1.22,1.22,0,0,1,1.65,0,1.07,1.07,0,0,1,.34.83,1.11,1.11,0,0,1-.34.84,1.17,1.17,0,0,1-1.65,0Z"/><path class="cls-1" d="M335.36,21.19v8.4h-1.94V22.75h-1.68V21.19Z"/><path class="cls-1" d="M338.57,29.22a3.42,3.42,0,0,1-1.28-1.49,5.43,5.43,0,0,1-.46-2.34,5.38,5.38,0,0,1,.46-2.33,3.5,3.5,0,0,1,1.28-1.5,3.65,3.65,0,0,1,3.72,0,3.57,3.57,0,0,1,1.28,1.5,6.16,6.16,0,0,1,0,4.67,3.48,3.48,0,0,1-1.28,1.49,3.59,3.59,0,0,1-3.72,0Zm3.06-1.79a3.68,3.68,0,0,0,.44-2,3.68,3.68,0,0,0-.44-2,1.42,1.42,0,0,0-2.4,0,3.78,3.78,0,0,0-.43,2,3.78,3.78,0,0,0,.43,2,1.42,1.42,0,0,0,2.4,0Z"/><path class="cls-1" d="M345.1,29.35a1.11,1.11,0,0,1-.34-.84,1.07,1.07,0,0,1,.34-.83,1.22,1.22,0,0,1,1.65,0,1.07,1.07,0,0,1,.34.83,1.16,1.16,0,0,1-1.17,1.18A1.09,1.09,0,0,1,345.1,29.35Z"/><path class="cls-1" d="M351,21.19v8.4h-1.94V22.75h-1.68V21.19Z"/><path class="cls-1" d="M358.19,22.12a4.41,4.41,0,0,1,1,3.09,5.16,5.16,0,0,1-.53,2.45,3.65,3.65,0,0,1-1.51,1.55,4.61,4.61,0,0,1-2.24.53,5.28,5.28,0,0,1-1.28-.15,3.6,3.6,0,0,1-1.05-.43l.72-1.43a2.72,2.72,0,0,0,1.57.42,2.29,2.29,0,0,0,1.7-.63,2.64,2.64,0,0,0,.67-1.82,2.81,2.81,0,0,1-2.09.76,3.33,3.33,0,0,1-1.46-.32,2.68,2.68,0,0,1-1.05-.92,2.55,2.55,0,0,1-.38-1.38,2.59,2.59,0,0,1,.42-1.47,2.72,2.72,0,0,1,1.14-1,3.76,3.76,0,0,1,1.62-.34A3.62,3.62,0,0,1,358.19,22.12Zm-1.58,2.53a1.12,1.12,0,0,0,.4-.9,1.14,1.14,0,0,0-.39-.9,1.57,1.57,0,0,0-1.07-.35,1.48,1.48,0,0,0-1,.34,1.12,1.12,0,0,0-.39.91,1.17,1.17,0,0,0,.39.92,1.57,1.57,0,0,0,1,.34A1.5,1.5,0,0,0,356.61,24.65Z"/><path class="cls-1" d="M366.82,26a2.11,2.11,0,0,1,.33,1.17,2.21,2.21,0,0,1-.44,1.36,2.81,2.81,0,0,1-1.25.9,5.1,5.1,0,0,1-1.86.32,5,5,0,0,1-1.85-.32,2.72,2.72,0,0,1-1.24-.9,2.21,2.21,0,0,1-.44-1.36A2.11,2.11,0,0,1,360.4,26a2.41,2.41,0,0,1,.94-.81,2.06,2.06,0,0,1-.71-.73,2,2,0,0,1-.26-1,2.05,2.05,0,0,1,.41-1.27,2.62,2.62,0,0,1,1.14-.84,4.62,4.62,0,0,1,1.68-.29,4.69,4.69,0,0,1,1.7.29,2.62,2.62,0,0,1,1.14.84,2,2,0,0,1,.41,1.27,2,2,0,0,1-.25,1,2.12,2.12,0,0,1-.73.73A2.38,2.38,0,0,1,366.82,26Zm-2.06,2a1.07,1.07,0,0,0,.42-.88,1.06,1.06,0,0,0-.42-.88,1.86,1.86,0,0,0-1.16-.32,1.8,1.8,0,0,0-1.14.32,1.06,1.06,0,0,0-.42.88,1,1,0,0,0,.42.88,1.8,1.8,0,0,0,1.14.33A1.86,1.86,0,0,0,364.76,28Zm-2.1-5.22a1,1,0,0,0,0,1.53,1.51,1.51,0,0,0,1,.27,1.56,1.56,0,0,0,1-.27.92.92,0,0,0,.36-.76.93.93,0,0,0-.36-.77,1.5,1.5,0,0,0-1-.28A1.44,1.44,0,0,0,362.66,22.76Z"/><path class="cls-1" d="M373.55,24.65a2.45,2.45,0,0,1,1,.92,2.42,2.42,0,0,1,.39,1.37,2.64,2.64,0,0,1-.42,1.48,2.73,2.73,0,0,1-1.15,1,3.69,3.69,0,0,1-1.61.35A3.56,3.56,0,0,1,369,28.66a4.37,4.37,0,0,1-1-3.09,5.11,5.11,0,0,1,.54-2.44,3.59,3.59,0,0,1,1.51-1.55,4.49,4.49,0,0,1,2.23-.53,5.43,5.43,0,0,1,1.29.15,3.16,3.16,0,0,1,1.05.43l-.72,1.42a2.74,2.74,0,0,0-1.57-.42,2.28,2.28,0,0,0-1.69.63,2.57,2.57,0,0,0-.67,1.81,2.78,2.78,0,0,1,2.07-.75A3.24,3.24,0,0,1,373.55,24.65ZM372.7,28a1.14,1.14,0,0,0,.39-.91,1.16,1.16,0,0,0-.39-.92,1.5,1.5,0,0,0-1-.34,1.56,1.56,0,0,0-1,.35,1.16,1.16,0,0,0-.41.91,1.14,1.14,0,0,0,.4.9,1.57,1.57,0,0,0,1.08.34A1.52,1.52,0,0,0,372.7,28Z"/><circle class="cls-1" cx="230.58" cy="14.66" r="3.77"/><path class="cls-2" d="M461.5,15.16H230.58a.5.5,0,0,1-.5-.5.5.5,0,0,1,.5-.5H461.5a.5.5,0,0,1,.5.5A.5.5,0,0,1,461.5,15.16Z"/><circle class="cls-1" cx="230.58" cy="117.99" r="3.77"/><path class="cls-3" d="M461.5,118.49H230.58a.5.5,0,0,1,0-1H461.5a.5.5,0,0,1,0,1Z"/><path class="cls-1" d="M299.19,96.22a2.59,2.59,0,0,1-1-.89l.53-.6a2.09,2.09,0,0,0,1.81,1c1,0,1.56-.61,1.56-1.84V88.83H299v-.77H303v5.82a2.86,2.86,0,0,1-.61,2,2.38,2.38,0,0,1-1.83.66A2.83,2.83,0,0,1,299.19,96.22Z"/><path class="cls-1" d="M307,96a4,4,0,0,1-1.58-1.53,4.39,4.39,0,0,1,0-4.36A4,4,0,0,1,307,88.55,4.51,4.51,0,0,1,309.3,88a4.57,4.57,0,0,1,2.25.55,4.15,4.15,0,0,1,1.58,1.53,4.42,4.42,0,0,1,0,4.38A4.15,4.15,0,0,1,311.55,96a4.57,4.57,0,0,1-2.25.55A4.51,4.51,0,0,1,307,96Zm4.06-.68A3.22,3.22,0,0,0,312.36,94a3.67,3.67,0,0,0,0-3.56,3.22,3.22,0,0,0-1.26-1.25,3.64,3.64,0,0,0-1.8-.45,3.71,3.71,0,0,0-1.81.45,3.39,3.39,0,0,0-1.27,1.25,3.67,3.67,0,0,0,0,3.56,3.39,3.39,0,0,0,1.27,1.25,3.71,3.71,0,0,0,1.81.45A3.64,3.64,0,0,0,311.1,95.29Z"/><path class="cls-1" d="M322.27,92.84a2.08,2.08,0,0,1,.45,1.38,1.94,1.94,0,0,1-.8,1.66,4,4,0,0,1-2.36.58H315.7v-8.4h3.62a3.7,3.7,0,0,1,2.18.56,1.88,1.88,0,0,1,.77,1.6,2,2,0,0,1-.34,1.18,2,2,0,0,1-.94.73A2.27,2.27,0,0,1,322.27,92.84Zm-5.69-4v3h2.68a2.7,2.7,0,0,0,1.57-.39,1.45,1.45,0,0,0,0-2.27,2.7,2.7,0,0,0-1.57-.39Zm4.67,6.55a1.32,1.32,0,0,0,.58-1.2c0-1-.76-1.57-2.28-1.57h-3v3.16h3A3,3,0,0,0,321.25,95.34Z"/><path class="cls-1" d="M329.3,96a4,4,0,0,1-1.59-1.53,4.45,4.45,0,0,1,0-4.36,4,4,0,0,1,1.59-1.53,4.51,4.51,0,0,1,2.26-.56,4.57,4.57,0,0,1,2.25.55,4.15,4.15,0,0,1,1.58,1.53,4.49,4.49,0,0,1,0,4.38A4.15,4.15,0,0,1,333.81,96a4.57,4.57,0,0,1-2.25.55A4.51,4.51,0,0,1,329.3,96Zm4.06-.68A3.22,3.22,0,0,0,334.62,94a3.67,3.67,0,0,0,0-3.56,3.22,3.22,0,0,0-1.26-1.25,3.64,3.64,0,0,0-1.8-.45,3.68,3.68,0,0,0-1.81.45,3.32,3.32,0,0,0-1.27,1.25,3.67,3.67,0,0,0,0,3.56,3.32,3.32,0,0,0,1.27,1.25,3.68,3.68,0,0,0,1.81.45A3.64,3.64,0,0,0,333.36,95.29Z"/><path class="cls-1" d="M345,88.06v8.4h-.74l-5.4-6.82v6.82H338v-8.4h.73l5.41,6.82V88.06Z"/><path class="cls-1" d="M351.38,96.23a3.29,3.29,0,0,1-1.33-.79l.35-.68a3.26,3.26,0,0,0,1.21.73,4.44,4.44,0,0,0,1.56.29,2.81,2.81,0,0,0,1.69-.42,1.26,1.26,0,0,0,.57-1.07,1.06,1.06,0,0,0-.31-.81,2,2,0,0,0-.75-.46,12.26,12.26,0,0,0-1.23-.35,13.74,13.74,0,0,1-1.51-.46,2.55,2.55,0,0,1-1-.68,1.81,1.81,0,0,1-.4-1.24,2.14,2.14,0,0,1,.33-1.16,2.39,2.39,0,0,1,1-.83,4.13,4.13,0,0,1,1.72-.31,4.81,4.81,0,0,1,1.41.2,4.13,4.13,0,0,1,1.2.54l-.3.71a4.13,4.13,0,0,0-1.13-.52,4.08,4.08,0,0,0-1.18-.18,2.74,2.74,0,0,0-1.66.43,1.32,1.32,0,0,0-.56,1.1,1.09,1.09,0,0,0,.31.81,2,2,0,0,0,.77.47c.3.1.72.22,1.24.35a12,12,0,0,1,1.49.45,2.53,2.53,0,0,1,1,.67,1.81,1.81,0,0,1,.39,1.22A2.07,2.07,0,0,1,356,95.4a2.35,2.35,0,0,1-1,.83,4.45,4.45,0,0,1-1.74.3A5.38,5.38,0,0,1,351.38,96.23Z"/><path class="cls-1" d="M359.75,88.83H356.8v-.77h6.79v.77h-2.95v7.63h-.89Z"/><path class="cls-1" d="M366.29,96a4.08,4.08,0,0,1-1.58-1.53,4.45,4.45,0,0,1,0-4.36,4.08,4.08,0,0,1,1.58-1.53,4.88,4.88,0,0,1,4.52,0,4.12,4.12,0,0,1,1.57,1.53,4.42,4.42,0,0,1,0,4.38A4.12,4.12,0,0,1,370.81,96a4.88,4.88,0,0,1-4.52,0Zm4.07-.68A3.36,3.36,0,0,0,371.62,94a3.75,3.75,0,0,0,0-3.56,3.36,3.36,0,0,0-1.26-1.25,3.85,3.85,0,0,0-3.61,0,3.32,3.32,0,0,0-1.27,1.25,3.67,3.67,0,0,0,0,3.56,3.32,3.32,0,0,0,1.27,1.25,3.85,3.85,0,0,0,3.61,0Z"/><path class="cls-1" d="M376.35,96a4.05,4.05,0,0,1-1.57-1.53,4.49,4.49,0,0,1,0-4.38,4,4,0,0,1,1.58-1.53,4.57,4.57,0,0,1,2.25-.55,4.63,4.63,0,0,1,1.73.31,3.51,3.51,0,0,1,1.34.91l-.56.57a3.32,3.32,0,0,0-2.48-1,3.62,3.62,0,0,0-1.82.46,3.29,3.29,0,0,0-1.27,1.24,3.61,3.61,0,0,0,0,3.56,3.29,3.29,0,0,0,1.27,1.24,3.62,3.62,0,0,0,1.82.46,3.32,3.32,0,0,0,2.48-1l.56.57a3.47,3.47,0,0,1-1.35.91,4.48,4.48,0,0,1-1.73.32A4.57,4.57,0,0,1,376.35,96Z"/><path class="cls-1" d="M386.18,92.51l-1.71,1.74v2.21h-.89v-8.4h.89v5.08l4.93-5.08h1l-3.64,3.8,3.89,4.6h-1.05Z"/><path class="cls-1" d="M290.94,110.09v.77H285v-8.4h5.76v.77h-4.87v3h4.34V107h-4.34v3.12Z"/><path class="cls-1" d="M298.19,110.86l-2.71-3.7-2.7,3.7h-1l3.19-4.32-3-4.08h1l2.53,3.43,2.52-3.43h1l-3,4.06,3.2,4.34Z"/><path class="cls-1" d="M301.89,110.38a4.05,4.05,0,0,1-1.57-1.53,4.49,4.49,0,0,1,0-4.38,4,4,0,0,1,1.58-1.53,4.57,4.57,0,0,1,2.25-.55,4.63,4.63,0,0,1,1.73.31,3.51,3.51,0,0,1,1.34.91l-.56.57a3.32,3.32,0,0,0-2.48-1,3.56,3.56,0,0,0-1.81.46,3.25,3.25,0,0,0-1.28,1.24,3.67,3.67,0,0,0,0,3.56,3.25,3.25,0,0,0,1.28,1.24,3.56,3.56,0,0,0,1.81.46,3.3,3.3,0,0,0,2.48-1l.56.57a3.51,3.51,0,0,1-1.34.91,4.53,4.53,0,0,1-1.74.32A4.57,4.57,0,0,1,301.89,110.38Z"/><path class="cls-1" d="M316.14,102.46v8.4h-.87V107H310v3.88h-.89v-8.4H310v3.74h5.26v-3.74Z"/><path class="cls-1" d="M324.14,108.62h-4.68l-1,2.24h-.93l3.84-8.4h.88l3.84,8.4h-.94Zm-.32-.72-2-4.52-2,4.52Z"/><path class="cls-1" d="M334.5,102.46v8.4h-.73l-5.4-6.82v6.82h-.89v-8.4h.73l5.42,6.82v-6.82Z"/><path class="cls-1" d="M343.15,106.66H344v3.2a4.05,4.05,0,0,1-1.39.8,5.25,5.25,0,0,1-1.69.27,4.62,4.62,0,0,1-2.27-.55,4.08,4.08,0,0,1-1.58-1.53,4.42,4.42,0,0,1,0-4.38,4.08,4.08,0,0,1,1.58-1.53,4.63,4.63,0,0,1,2.28-.55,5.06,5.06,0,0,1,1.77.3,3.62,3.62,0,0,1,1.35.91l-.55.56a3.47,3.47,0,0,0-2.53-1,3.74,3.74,0,0,0-1.84.45,3.3,3.3,0,0,0-1.29,1.25,3.46,3.46,0,0,0,1.28,4.8,4,4,0,0,0,4-.19Z"/><path class="cls-1" d="M352.45,110.09v.77h-5.94v-8.4h5.76v.77H347.4v3h4.34V107H347.4v3.12Z"/><path class="cls-1" d="M366.41,102.46v8.4h-.85v-6.72l-3.3,5.65h-.42l-3.3-5.61v6.68h-.86v-8.4h.74l3.64,6.23,3.62-6.23Z"/><path class="cls-1" d="M374.41,108.62h-4.68l-1,2.24h-.92l3.84-8.4h.88l3.84,8.4h-.94Zm-.32-.72-2-4.52-2,4.52Z"/><path class="cls-1" d="M383.48,110.86l-1.92-2.7c-.21,0-.44,0-.67,0h-2.25v2.66h-.89v-8.4h3.14a3.81,3.81,0,0,1,2.52.77,2.59,2.59,0,0,1,.91,2.11,2.72,2.72,0,0,1-.49,1.66,2.81,2.81,0,0,1-1.43,1l2.06,2.88Zm-.7-4a2.17,2.17,0,0,0,0-3.12,3,3,0,0,0-1.91-.54h-2.23v4.21h2.23A2.9,2.9,0,0,0,382.78,106.89Z"/><path class="cls-1" d="M389,106.91l-1.72,1.74v2.21h-.89v-8.4h.89v5.08l4.93-5.08h1l-3.63,3.8,3.89,4.6h-1.06Z"/><path class="cls-1" d="M400.9,110.09v.77H395v-8.4h5.76v.77h-4.88v3h4.35V107h-4.35v3.12Z"/><path class="cls-1" d="M404.62,103.23h-3v-.77h6.8v.77h-3v7.63h-.88Z"/><path class="cls-1" d="M337.26,130.4V132h-6.35v-1.26l3.24-3.06a3.45,3.45,0,0,0,.69-.85,1.49,1.49,0,0,0,.18-.7.92.92,0,0,0-.34-.77,1.59,1.59,0,0,0-1-.27,2.33,2.33,0,0,0-1,.21,1.94,1.94,0,0,0-.74.63l-1.42-.91a3.34,3.34,0,0,1,1.36-1.15,4.64,4.64,0,0,1,2-.41,4.17,4.17,0,0,1,1.64.3,2.56,2.56,0,0,1,1.09.87,2.23,2.23,0,0,1,.39,1.31,3,3,0,0,1-.29,1.29,5,5,0,0,1-1.11,1.36l-1.94,1.83Z"/><path class="cls-1" d="M339.78,131.61a3.33,3.33,0,0,1-1.28-1.5,6.13,6.13,0,0,1,0-4.66,3.32,3.32,0,0,1,3.13-2,3.29,3.29,0,0,1,3.14,2,6,6,0,0,1,0,4.66,3.44,3.44,0,0,1-1.27,1.5,3.48,3.48,0,0,1-1.87.52A3.41,3.41,0,0,1,339.78,131.61Zm3.06-1.79a4.95,4.95,0,0,0,0-4.08,1.42,1.42,0,0,0-2.4,0,4.95,4.95,0,0,0,0,4.08,1.42,1.42,0,0,0,2.4,0Z"/><path class="cls-1" d="M347.92,131.61a3.45,3.45,0,0,1-1.28-1.5,6.13,6.13,0,0,1,0-4.66,3.51,3.51,0,0,1,1.28-1.5,3.47,3.47,0,0,1,1.86-.51,3.32,3.32,0,0,1,3.14,2,6.13,6.13,0,0,1,0,4.66,3.35,3.35,0,0,1-3.14,2A3.47,3.47,0,0,1,347.92,131.61Zm3.07-1.79a4.95,4.95,0,0,0,0-4.08,1.38,1.38,0,0,0-1.21-.66,1.36,1.36,0,0,0-1.19.66,4.95,4.95,0,0,0,0,4.08,1.36,1.36,0,0,0,1.19.66A1.38,1.38,0,0,0,351,129.82Z"/><path class="cls-1" d="M360,124.51a4.37,4.37,0,0,1,1,3.09,5.18,5.18,0,0,1-.54,2.45,3.57,3.57,0,0,1-1.5,1.55,4.67,4.67,0,0,1-2.25.53,6,6,0,0,1-1.28-.15,3.43,3.43,0,0,1-1-.43l.72-1.43a2.7,2.7,0,0,0,1.57.42,2.28,2.28,0,0,0,1.69-.63,2.62,2.62,0,0,0,.67-1.82,2.8,2.8,0,0,1-2.09.76,3.23,3.23,0,0,1-1.46-.33,2.48,2.48,0,0,1-1.43-2.29,2.59,2.59,0,0,1,.42-1.47,2.69,2.69,0,0,1,1.15-1,3.69,3.69,0,0,1,1.61-.34A3.55,3.55,0,0,1,360,124.51ZM358.46,127a1.21,1.21,0,0,0,0-1.8,1.53,1.53,0,0,0-1.08-.35,1.47,1.47,0,0,0-1,.34,1.12,1.12,0,0,0-.39.91,1.17,1.17,0,0,0,.39.92,1.55,1.55,0,0,0,1,.34A1.47,1.47,0,0,0,358.46,127Z"/><path class="cls-1" d="M304.89,181.36a2,2,0,0,1,.44,1.37,1.92,1.92,0,0,1-.79,1.66,4,4,0,0,1-2.36.59h-3.86v-8.41h3.62a3.62,3.62,0,0,1,2.18.57,1.87,1.87,0,0,1,.77,1.59,2,2,0,0,1-.34,1.19,2.07,2.07,0,0,1-.94.72A2.26,2.26,0,0,1,304.89,181.36Zm-5.69-4.05v3h2.68a2.7,2.7,0,0,0,1.57-.38,1.45,1.45,0,0,0,0-2.27,2.7,2.7,0,0,0-1.57-.39Zm4.67,6.55a1.36,1.36,0,0,0,.58-1.2c0-1-.76-1.57-2.28-1.57h-3v3.15h3A3.12,3.12,0,0,0,303.87,183.86Z"/><path class="cls-1" d="M313.3,184.21V185h-5.94v-8.41h5.76v.77h-4.87v3h4.34v.76h-4.34v3.12Z"/><path class="cls-1" d="M316.74,184.49a4,4,0,0,1-1.57-1.52,4.32,4.32,0,0,1-.57-2.2,4.25,4.25,0,0,1,.57-2.18,3.94,3.94,0,0,1,1.58-1.53,4.58,4.58,0,0,1,2.25-.56,4.84,4.84,0,0,1,1.73.31,3.65,3.65,0,0,1,1.35.92l-.57.56a3.34,3.34,0,0,0-2.48-1,3.65,3.65,0,0,0-1.81.45,3.34,3.34,0,0,0-1.28,1.25,3.65,3.65,0,0,0,0,3.55,3.27,3.27,0,0,0,1.28,1.25,3.66,3.66,0,0,0,1.81.46,3.3,3.3,0,0,0,2.48-1l.57.56a3.65,3.65,0,0,1-1.35.92,4.72,4.72,0,0,1-1.74.32A4.58,4.58,0,0,1,316.74,184.49Z"/><path class="cls-1" d="M329,182.73h-4.68l-1,2.25h-.93l3.84-8.41h.88L331,185H330Zm-.32-.72-2-4.51-2,4.51Z"/><path class="cls-1" d="M341.08,176.57V185h-.85v-6.72l-3.3,5.65h-.42l-3.3-5.62V185h-.85v-8.41h.73l3.65,6.23,3.61-6.23Z"/><path class="cls-1" d="M349.76,184.21V185h-5.94v-8.41h5.76v.77h-4.87v3h4.34v.76h-4.34v3.12Z"/><path class="cls-1" d="M360.26,182.73h-4.68l-1,2.25h-.92l3.84-8.41h.87L362.2,185h-.93Zm-.33-.72-2-4.51-2,4.51Z"/><path class="cls-1" d="M368.14,184.49a4,4,0,0,1-1.57-1.52,4.22,4.22,0,0,1-.57-2.2,4.15,4.15,0,0,1,.57-2.18,3.92,3.92,0,0,1,1.57-1.53,4.64,4.64,0,0,1,2.26-.56,4.88,4.88,0,0,1,1.73.31,3.61,3.61,0,0,1,1.34.92l-.56.56a3.38,3.38,0,0,0-2.49-1,3.71,3.71,0,0,0-1.81.45,3.41,3.41,0,0,0-1.28,1.25,3.65,3.65,0,0,0,0,3.55,3.34,3.34,0,0,0,1.28,1.25,3.72,3.72,0,0,0,1.81.46,3.32,3.32,0,0,0,2.49-1l.56.56a3.65,3.65,0,0,1-1.35.92,4.67,4.67,0,0,1-1.73.32A4.52,4.52,0,0,1,368.14,184.49Z"/><path class="cls-1" d="M381.31,184.21V185h-5.94v-8.41h5.76v.77h-4.88v3h4.35v.76h-4.35v3.12Z"/><path class="cls-1" d="M384.76,184.49a4,4,0,0,1-1.59-1.53,4.47,4.47,0,0,1,0-4.37,4,4,0,0,1,1.59-1.53,4.82,4.82,0,0,1,4.51,0,4,4,0,0,1,1.58,1.53,4.25,4.25,0,0,1,.57,2.18,4.32,4.32,0,0,1-.57,2.2,4.05,4.05,0,0,1-1.58,1.52,4.82,4.82,0,0,1-4.51,0Zm4.06-.68a3.36,3.36,0,0,0,1.26-1.25,3.61,3.61,0,0,0,.45-1.79,3.57,3.57,0,0,0-.45-1.78,3.43,3.43,0,0,0-1.26-1.25,3.92,3.92,0,0,0-3.61,0,3.39,3.39,0,0,0-1.27,1.25,3.47,3.47,0,0,0-.46,1.78,3.51,3.51,0,0,0,.46,1.79,3.32,3.32,0,0,0,1.27,1.25,3.85,3.85,0,0,0,3.61,0Z"/><path class="cls-1" d="M291.67,198.89a4,4,0,0,1-1.59-1.53,4.47,4.47,0,0,1,0-4.37,4,4,0,0,1,1.59-1.53,4.82,4.82,0,0,1,4.51,0,4,4,0,0,1,1.58,1.53,4.26,4.26,0,0,1,.57,2.19,4.31,4.31,0,0,1-.57,2.19,4.15,4.15,0,0,1-1.58,1.53,4.68,4.68,0,0,1-2.25.55A4.62,4.62,0,0,1,291.67,198.89Zm4.06-.68A3.36,3.36,0,0,0,297,197a3.57,3.57,0,0,0,.45-1.78,3.61,3.61,0,0,0-.45-1.79,3.33,3.33,0,0,0-1.26-1.24,3.85,3.85,0,0,0-3.61,0,3.29,3.29,0,0,0-1.27,1.24,3.51,3.51,0,0,0-.46,1.79,3.47,3.47,0,0,0,.46,1.78,3.32,3.32,0,0,0,1.27,1.25,3.85,3.85,0,0,0,3.61,0Z"/><path class="cls-1" d="M301.21,191.74V195h4.35v.77h-4.35v3.57h-.89V191h5.76v.76Z"/><path class="cls-1" d="M312.7,191.74h-3V191h6.8v.76h-3v7.64h-.88Z"/><path class="cls-1" d="M325,191v8.4h-.87V195.5h-5.26v3.88H318V191h.89v3.74h5.26V191Z"/><path class="cls-1" d="M333.65,198.61v.77h-5.94V191h5.76v.76H328.6v3h4.34v.76H328.6v3.12Z"/><path class="cls-1" d="M340.28,198.9a4.05,4.05,0,0,1-1.57-1.53,4.31,4.31,0,0,1-.57-2.19,4.26,4.26,0,0,1,.57-2.19,3.92,3.92,0,0,1,1.57-1.53,4.84,4.84,0,0,1,4-.24,3.47,3.47,0,0,1,1.34.91l-.56.56a3.38,3.38,0,0,0-2.49-1,3.71,3.71,0,0,0-1.81.45,3.41,3.41,0,0,0-1.28,1.25,3.65,3.65,0,0,0,0,3.55,3.34,3.34,0,0,0,1.28,1.25,3.72,3.72,0,0,0,1.81.46,3.32,3.32,0,0,0,2.49-1l.56.56a3.65,3.65,0,0,1-1.35.92,4.86,4.86,0,0,1-4-.23Z"/><path class="cls-1" d="M348.74,198.89a4,4,0,0,1-1.59-1.53,4.47,4.47,0,0,1,0-4.37,4,4,0,0,1,1.59-1.53,4.82,4.82,0,0,1,4.51,0,4,4,0,0,1,1.58,1.53,4.26,4.26,0,0,1,.57,2.19,4.31,4.31,0,0,1-.57,2.19,4.15,4.15,0,0,1-1.58,1.53,4.68,4.68,0,0,1-2.25.55A4.62,4.62,0,0,1,348.74,198.89Zm4.06-.68a3.22,3.22,0,0,0,1.26-1.25,3.57,3.57,0,0,0,.46-1.78,3.61,3.61,0,0,0-.46-1.79,3.2,3.2,0,0,0-1.26-1.24,3.64,3.64,0,0,0-1.8-.45,3.68,3.68,0,0,0-1.81.45,3.29,3.29,0,0,0-1.27,1.24,3.51,3.51,0,0,0-.46,1.79,3.47,3.47,0,0,0,.46,1.78,3.32,3.32,0,0,0,1.27,1.25,3.68,3.68,0,0,0,1.81.45A3.64,3.64,0,0,0,352.8,198.21Z"/><path class="cls-1" d="M366.12,191v8.4h-.85v-6.72l-3.3,5.65h-.42l-3.3-5.62v6.69h-.85V191h.73l3.65,6.22,3.61-6.22Z"/><path class="cls-1" d="M374.52,191.74a2.63,2.63,0,0,1,.91,2.12,2.59,2.59,0,0,1-.91,2.1,3.81,3.81,0,0,1-2.52.76h-2.26v2.66h-.88V191H372A3.81,3.81,0,0,1,374.52,191.74Zm-.64,3.66a1.9,1.9,0,0,0,.66-1.54,1.92,1.92,0,0,0-.66-1.57,2.93,2.93,0,0,0-1.9-.55h-2.24v4.2H372A2.93,2.93,0,0,0,373.88,195.4Z"/><path class="cls-1" d="M382.2,197.13h-4.68l-1,2.25h-.92l3.84-8.4h.87l3.84,8.4h-.93Zm-.32-.72-2-4.51-2,4.51Z"/><path class="cls-1" d="M394.26,191v8.4h-.85v-6.72l-3.3,5.65h-.42l-3.3-5.62v6.69h-.85V191h.73l3.65,6.22,3.61-6.22Z"/><path class="cls-1" d="M399.88,196.47v2.91H399v-2.91L395.64,191h.95l2.88,4.71,2.88-4.71h.89Z"/><path class="cls-1" d="M339.07,221.14v1.59h-6.35v-1.26l3.24-3.06a3.31,3.31,0,0,0,.7-.85,1.55,1.55,0,0,0,.18-.7.93.93,0,0,0-.34-.78,1.59,1.59,0,0,0-1-.27,2.33,2.33,0,0,0-1,.21,1.94,1.94,0,0,0-.74.63l-1.42-.91a3.25,3.25,0,0,1,1.36-1.14,4.44,4.44,0,0,1,2-.42,3.92,3.92,0,0,1,1.63.31,2.52,2.52,0,0,1,1.1.86,2.24,2.24,0,0,1,.39,1.32,3,3,0,0,1-.29,1.28,4.77,4.77,0,0,1-1.12,1.37l-1.93,1.82Z"/><path class="cls-1" d="M341.59,222.35a3.48,3.48,0,0,1-1.28-1.49,6.16,6.16,0,0,1,0-4.67,3.48,3.48,0,0,1,1.28-1.49,3.39,3.39,0,0,1,1.86-.52,3.34,3.34,0,0,1,1.86.52,3.42,3.42,0,0,1,1.28,1.49,6.16,6.16,0,0,1,0,4.67,3.42,3.42,0,0,1-1.28,1.49,3.34,3.34,0,0,1-1.86.52A3.39,3.39,0,0,1,341.59,222.35Zm3.07-1.78a4.95,4.95,0,0,0,0-4.08,1.38,1.38,0,0,0-1.21-.66,1.36,1.36,0,0,0-1.19.66,4.95,4.95,0,0,0,0,4.08,1.36,1.36,0,0,0,1.19.66A1.38,1.38,0,0,0,344.66,220.57Z"/><path class="cls-1" d="M351.17,214.33v8.4h-1.95v-6.84h-1.68v-1.56Z"/><path class="cls-1" d="M358.14,217.78a2.51,2.51,0,0,1,1,.92,2.44,2.44,0,0,1,.39,1.37,2.62,2.62,0,0,1-.42,1.48,2.76,2.76,0,0,1-1.15,1,3.69,3.69,0,0,1-1.61.34,3.56,3.56,0,0,1-2.76-1.08,4.36,4.36,0,0,1-1-3.08,5.15,5.15,0,0,1,.54-2.45,3.7,3.7,0,0,1,1.51-1.55,4.61,4.61,0,0,1,2.24-.53,5.55,5.55,0,0,1,1.29.15,3.35,3.35,0,0,1,1.05.43l-.72,1.43a2.77,2.77,0,0,0-1.58-.42,2.27,2.27,0,0,0-1.69.62,2.64,2.64,0,0,0-.67,1.81,2.84,2.84,0,0,1,2.08-.74A3.36,3.36,0,0,1,358.14,217.78Zm-.85,3.3a1.14,1.14,0,0,0,.39-.91,1.17,1.17,0,0,0-.39-.92,1.47,1.47,0,0,0-1-.34,1.57,1.57,0,0,0-1.05.35,1.16,1.16,0,0,0-.41.91,1.15,1.15,0,0,0,.4.9,1.58,1.58,0,0,0,1.08.35A1.44,1.44,0,0,0,357.29,221.08Z"/><path class="cls-1" d="M293,283.81v3.3h4.34v.76H293v3.57h-.89V283h5.76v.77Z"/><path class="cls-1" d="M299.68,283h.88v8.4h-.88Z"/><path class="cls-1" d="M310.32,283v8.4h-.73l-5.4-6.82v6.82h-.89V283H304l5.41,6.81V283Z"/><path class="cls-1" d="M313.06,283h.88v8.4h-.88Z"/><path class="cls-1" d="M317.2,291.21a3.25,3.25,0,0,1-1.32-.79l.34-.69a3.32,3.32,0,0,0,1.22.74,4.36,4.36,0,0,0,1.56.29,2.83,2.83,0,0,0,1.69-.42,1.28,1.28,0,0,0,.56-1.07,1.09,1.09,0,0,0-.3-.81,2.2,2.2,0,0,0-.75-.46,10.3,10.3,0,0,0-1.24-.35,14.46,14.46,0,0,1-1.51-.46,2.55,2.55,0,0,1-1-.68,1.81,1.81,0,0,1-.4-1.24,2.07,2.07,0,0,1,.34-1.16,2.3,2.3,0,0,1,1-.83,4.18,4.18,0,0,1,1.73-.31,5.16,5.16,0,0,1,1.41.19,4.36,4.36,0,0,1,1.19.55l-.3.71a4,4,0,0,0-1.13-.52,4.06,4.06,0,0,0-1.17-.18,2.71,2.71,0,0,0-1.67.43,1.32,1.32,0,0,0-.55,1.1,1.13,1.13,0,0,0,.3.81,2,2,0,0,0,.77.46c.31.11.72.23,1.24.36a11.72,11.72,0,0,1,1.5.45,2.42,2.42,0,0,1,1,.67,1.76,1.76,0,0,1,.4,1.22,2.15,2.15,0,0,1-.34,1.16,2.27,2.27,0,0,1-1.05.82,4.33,4.33,0,0,1-1.74.31A5.4,5.4,0,0,1,317.2,291.21Z"/><path class="cls-1" d="M331.08,283v8.4h-.88v-3.88H325v3.88h-.89V283H325v3.74h5.25V283Z"/><path class="cls-1" d="M339.75,290.67v.77h-5.93V283h5.76v.77H334.7v3h4.35v.75H334.7v3.12Z"/><path class="cls-1" d="M341.84,283h3.42a5.06,5.06,0,0,1,2.35.53,4,4,0,0,1,1.59,1.49,4.52,4.52,0,0,1,0,4.36,3.92,3.92,0,0,1-1.59,1.48,4.94,4.94,0,0,1-2.35.54h-3.42Zm3.37,7.63a4.14,4.14,0,0,0,1.94-.44,3.11,3.11,0,0,0,1.28-1.21,3.67,3.67,0,0,0,0-3.56,3.2,3.2,0,0,0-1.28-1.22,4.14,4.14,0,0,0-1.94-.43h-2.48v6.86Z"/><path class="cls-1" d="M361.47,287.82a2.07,2.07,0,0,1,.45,1.37,2,2,0,0,1-.8,1.67,4,4,0,0,1-2.36.58H354.9V283h3.62a3.68,3.68,0,0,1,2.18.56,1.86,1.86,0,0,1,.78,1.6,2,2,0,0,1-.35,1.18,2,2,0,0,1-.94.73A2.27,2.27,0,0,1,361.47,287.82Zm-5.68-4.05v3.05h2.67a2.73,2.73,0,0,0,1.58-.39,1.45,1.45,0,0,0,0-2.27,2.73,2.73,0,0,0-1.58-.39Zm4.67,6.55a1.33,1.33,0,0,0,.57-1.2c0-1.05-.76-1.57-2.28-1.57h-3v3.16h3A3.09,3.09,0,0,0,360.46,290.32Z"/><path class="cls-1" d="M364,283h.88v8.4H364Z"/><path class="cls-1" d="M369,291a4,4,0,0,1-1.58-1.53,4.45,4.45,0,0,1,0-4.36,4.1,4.1,0,0,1,1.58-1.54,4.64,4.64,0,0,1,2.26-.55,4.52,4.52,0,0,1,2.25.55,4.08,4.08,0,0,1,1.58,1.53,4.42,4.42,0,0,1,0,4.38,4.08,4.08,0,0,1-1.58,1.53,4.52,4.52,0,0,1-2.25.55A4.64,4.64,0,0,1,369,291Zm4.06-.68A3.22,3.22,0,0,0,374.3,289a3.67,3.67,0,0,0,0-3.56,3.22,3.22,0,0,0-1.26-1.25,3.59,3.59,0,0,0-1.8-.45,3.64,3.64,0,0,0-1.8.45,3.25,3.25,0,0,0-1.27,1.25,3.61,3.61,0,0,0,0,3.56,3.25,3.25,0,0,0,1.27,1.25,3.64,3.64,0,0,0,1.8.45A3.59,3.59,0,0,0,373,290.27Z"/><path class="cls-1" d="M384.66,283v8.4h-.73l-5.4-6.82v6.82h-.89V283h.73l5.41,6.81V283Z"/><path class="cls-1" d="M387.39,283h.89v8.4h-.89Z"/><path class="cls-1" d="M392.42,291a4.08,4.08,0,0,1-1.58-1.53,4.49,4.49,0,0,1,0-4.38,4.08,4.08,0,0,1,1.58-1.53,4.61,4.61,0,0,1,2.26-.55,4.67,4.67,0,0,1,1.73.31,3.67,3.67,0,0,1,1.34.91l-.56.57a3.35,3.35,0,0,0-2.49-1,3.58,3.58,0,0,0-1.81.46,3.39,3.39,0,0,0-1.28,1.24,3.67,3.67,0,0,0,0,3.56,3.39,3.39,0,0,0,1.28,1.24,3.58,3.58,0,0,0,1.81.46,3.32,3.32,0,0,0,2.49-1l.56.56a3.53,3.53,0,0,1-1.35.92,4.67,4.67,0,0,1-1.73.32A4.52,4.52,0,0,1,392.42,291Z"/><path class="cls-1" d="M275.93,305a3.81,3.81,0,0,1-.91-2.73v-4.81h.89v4.78a3.14,3.14,0,0,0,.66,2.18,2.91,2.91,0,0,0,3.83,0,3.14,3.14,0,0,0,.66-2.18v-4.78h.86v4.81A3.81,3.81,0,0,1,281,305a3.95,3.95,0,0,1-5.09,0Z"/><path class="cls-1" d="M291.62,297.44v8.4h-.73l-5.4-6.82v6.82h-.89v-8.4h.73l5.41,6.82v-6.82Z"/><path class="cls-1" d="M294.35,297.44h.89v8.4h-.89Z"/><path class="cls-1" d="M304.87,297.44l-3.72,8.4h-.88l-3.72-8.4h1l3.22,7.3,3.24-7.3Z"/><path class="cls-1" d="M312,305.07v.77h-5.94v-8.4h5.76v.77H307v3h4.34V302H307v3.12Z"/><path class="cls-1" d="M319.84,305.84l-1.92-2.7c-.21,0-.44,0-.67,0H315v2.66h-.88v-8.4h3.14a3.81,3.81,0,0,1,2.52.77,2.59,2.59,0,0,1,.91,2.11,2.66,2.66,0,0,1-.5,1.66,2.74,2.74,0,0,1-1.42,1l2.05,2.88Zm-.71-4a2.17,2.17,0,0,0,0-3.12,2.93,2.93,0,0,0-1.9-.54H315v4.21h2.24A2.87,2.87,0,0,0,319.13,301.87Z"/><path class="cls-1" d="M323.3,305.61a3.25,3.25,0,0,1-1.32-.79l.35-.68a3.18,3.18,0,0,0,1.21.73,4.36,4.36,0,0,0,1.56.29,2.83,2.83,0,0,0,1.69-.42,1.25,1.25,0,0,0,.56-1.07,1.09,1.09,0,0,0-.3-.81,2.2,2.2,0,0,0-.75-.46,12.59,12.59,0,0,0-1.24-.35,15.26,15.26,0,0,1-1.51-.46,2.55,2.55,0,0,1-1-.68,1.86,1.86,0,0,1-.4-1.24,2.07,2.07,0,0,1,.34-1.16,2.36,2.36,0,0,1,1-.83,4.18,4.18,0,0,1,1.73-.31,5.16,5.16,0,0,1,1.41.19,4.22,4.22,0,0,1,1.19.55l-.3.71a4,4,0,0,0-1.13-.52,4.06,4.06,0,0,0-1.17-.18,2.72,2.72,0,0,0-1.66.43,1.3,1.3,0,0,0-.56,1.1,1.13,1.13,0,0,0,.3.81,2.13,2.13,0,0,0,.77.47c.31.1.72.22,1.24.35a11.72,11.72,0,0,1,1.5.45,2.42,2.42,0,0,1,1,.67,1.76,1.76,0,0,1,.4,1.22,2.07,2.07,0,0,1-.34,1.16,2.27,2.27,0,0,1-1.05.82,4.27,4.27,0,0,1-1.74.31A5.44,5.44,0,0,1,323.3,305.61Z"/><path class="cls-1" d="M330.16,297.44h.89v8.4h-.89Z"/><path class="cls-1" d="M335.42,298.21h-2.95v-.77h6.79v.77h-2.95v7.63h-.89Z"/><path class="cls-1" d="M343.49,302.94v2.9h-.87v-2.9l-3.36-5.5h.95l2.88,4.72,2.88-4.72h.88Z"/><path class="cls-1" d="M357,298.21a2.9,2.9,0,0,1,0,4.22,3.87,3.87,0,0,1-2.52.76h-2.25v2.65h-.89v-8.4h3.14A3.81,3.81,0,0,1,357,298.21Zm-.63,3.65a1.89,1.89,0,0,0,.66-1.54,1.93,1.93,0,0,0-.66-1.57,3,3,0,0,0-1.91-.54h-2.23v4.2h2.23A2.9,2.9,0,0,0,356.41,301.86Z"/><path class="cls-1" d="M365.61,305.84l-1.92-2.7c-.22,0-.44,0-.67,0h-2.26v2.66h-.89v-8.4H363a3.81,3.81,0,0,1,2.52.77,2.59,2.59,0,0,1,.91,2.11,2.61,2.61,0,0,1-1.92,2.64l2.05,2.88Zm-.71-4a2.17,2.17,0,0,0,0-3.12,2.94,2.94,0,0,0-1.91-.54h-2.23v4.21H363A2.88,2.88,0,0,0,364.9,301.87Z"/><path class="cls-1" d="M370,305.35a4,4,0,0,1-1.58-1.53,4.45,4.45,0,0,1,0-4.36,4,4,0,0,1,1.58-1.53,4.86,4.86,0,0,1,4.51,0,4.08,4.08,0,0,1,1.58,1.53,4.42,4.42,0,0,1,0,4.38,4.08,4.08,0,0,1-1.58,1.53,4.86,4.86,0,0,1-4.51,0Zm4.06-.68a3.22,3.22,0,0,0,1.26-1.25,3.67,3.67,0,0,0,0-3.56,3.22,3.22,0,0,0-1.26-1.25,3.59,3.59,0,0,0-1.8-.45,3.64,3.64,0,0,0-1.8.45,3.34,3.34,0,0,0-1.28,1.25,3.67,3.67,0,0,0,0,3.56,3.34,3.34,0,0,0,1.28,1.25,3.64,3.64,0,0,0,1.8.45A3.59,3.59,0,0,0,374,304.67Z"/><path class="cls-1" d="M384.53,301.64h.85v3.2a4.05,4.05,0,0,1-1.39.8,5.25,5.25,0,0,1-1.69.27,4.65,4.65,0,0,1-2.27-.55,4.08,4.08,0,0,1-1.58-1.53,4.42,4.42,0,0,1,0-4.38,4.08,4.08,0,0,1,1.58-1.53,4.66,4.66,0,0,1,2.28-.55,5.06,5.06,0,0,1,1.77.3,3.54,3.54,0,0,1,1.35.91l-.55.56a3.47,3.47,0,0,0-2.53-1,3.74,3.74,0,0,0-1.84.45,3.3,3.3,0,0,0-1.29,1.25,3.61,3.61,0,0,0,0,3.56,3.39,3.39,0,0,0,1.28,1.24,4,4,0,0,0,4-.19Z"/><path class="cls-1" d="M393.63,305.84l-1.92-2.7c-.22,0-.44,0-.67,0h-2.26v2.66h-.89v-8.4H391a3.81,3.81,0,0,1,2.52.77,2.59,2.59,0,0,1,.91,2.11,2.61,2.61,0,0,1-1.92,2.64l2.05,2.88Zm-.71-4a2.17,2.17,0,0,0,0-3.12,2.94,2.94,0,0,0-1.91-.54h-2.23v4.21H391A2.88,2.88,0,0,0,392.92,301.87Z"/><path class="cls-1" d="M401.84,303.6h-4.68l-1,2.24h-.92l3.84-8.4h.87l3.84,8.4h-.94Zm-.33-.72-2-4.52-2,4.52Z"/><path class="cls-1" d="M413.9,297.44v8.4H413v-6.72l-3.29,5.65h-.43l-3.3-5.61v6.68h-.85v-8.4h.73l3.65,6.23,3.62-6.23Z"/><path class="cls-1" d="M286,316.14l1.69-2.36h1.68l-1.64,2.36,1.64,2.34h-1.68Zm2.71,0,1.69-2.36h1.68l-1.64,2.36,1.64,2.34h-1.68Z"/><path class="cls-1" d="M295.48,313.4v2.22h3.89v1.56h-3.89v3.06h-1.94v-8.4h6.35v1.56Z"/><path class="cls-1" d="M306.56,320.24l-1.62-2.34h-1.79v2.34h-1.94v-8.4h3.63a4.63,4.63,0,0,1,1.94.37,2.9,2.9,0,0,1,1.27,1.06,2.93,2.93,0,0,1,.44,1.62,2.84,2.84,0,0,1-.45,1.61,2.89,2.89,0,0,1-1.28,1l1.89,2.7Zm-.49-6.44a2.08,2.08,0,0,0-1.34-.38h-1.58v2.93h1.58a2.08,2.08,0,0,0,1.34-.38,1.35,1.35,0,0,0,.45-1.08A1.33,1.33,0,0,0,306.07,313.8Z"/><path class="cls-1" d="M311.74,319.82a4.37,4.37,0,0,1-1.65-6,4.25,4.25,0,0,1,1.65-1.55,5.15,5.15,0,0,1,4.71,0,4.29,4.29,0,0,1,1.64,1.55,4.44,4.44,0,0,1,0,4.46,4.37,4.37,0,0,1-1.64,1.55,5.23,5.23,0,0,1-4.71,0Zm3.7-1.43a2.48,2.48,0,0,0,.94-1,3,3,0,0,0,0-2.78,2.48,2.48,0,0,0-.94-1,2.83,2.83,0,0,0-2.69,0,2.48,2.48,0,0,0-.94,1,3,3,0,0,0,0,2.78,2.48,2.48,0,0,0,.94,1,2.83,2.83,0,0,0,2.69,0Z"/><path class="cls-1" d="M327.86,311.84v8.4h-1.6l-4.19-5.1v5.1h-1.92v-8.4h1.61l4.18,5.1v-5.1Z"/><path class="cls-1" d="M331.59,313.42H328.9v-1.58h7.32v1.58h-2.69v6.82h-1.94Z"/><path class="cls-1" d="M336.8,315.23h3.39v1.5H336.8Z"/><path class="cls-1" d="M348.43,318.68v1.56h-6.51v-8.4h6.35v1.56h-4.42v1.82h3.9v1.51h-3.9v1.95Z"/><path class="cls-1" d="M357.68,311.84v8.4h-1.6l-4.19-5.1v5.1H350v-8.4h1.61l4.18,5.1v-5.1Z"/><path class="cls-1" d="M359.67,311.84h3.82a5.31,5.31,0,0,1,2.41.52,4,4,0,0,1,1.64,1.47,4.5,4.5,0,0,1,0,4.42,4,4,0,0,1-1.64,1.47,5.44,5.44,0,0,1-2.41.52h-3.82Zm3.72,6.8a2.81,2.81,0,0,0,2-.7,2.78,2.78,0,0,0,0-3.8,2.81,2.81,0,0,0-2-.7h-1.78v5.2Z"/><path class="cls-1" d="M378.55,312.21a2.9,2.9,0,0,1,1.27,1.06,2.93,2.93,0,0,1,.44,1.62,3,3,0,0,1-.44,1.61,2.9,2.9,0,0,1-1.27,1.06,4.8,4.8,0,0,1-1.94.36h-1.69v2.32H373v-8.4h3.63A4.63,4.63,0,0,1,378.55,312.21Zm-.71,3.75a1.32,1.32,0,0,0,.45-1.07,1.33,1.33,0,0,0-.45-1.09,2.07,2.07,0,0,0-1.33-.38h-1.59v2.92h1.59A2.07,2.07,0,0,0,377.84,316Z"/><path class="cls-1" d="M387,320.24l-1.62-2.34h-1.78v2.34h-1.95v-8.4h3.64a4.66,4.66,0,0,1,1.94.37,2.89,2.89,0,0,1,0,5.33l1.88,2.7Zm-.49-6.44a2,2,0,0,0-1.33-.38h-1.58v2.93h1.58a2,2,0,0,0,1.33-.38,1.33,1.33,0,0,0,.46-1.08A1.31,1.31,0,0,0,386.5,313.8Z"/><path class="cls-1" d="M392.17,319.82a4.35,4.35,0,0,1-1.64-6,4.15,4.15,0,0,1,1.64-1.55,5.15,5.15,0,0,1,4.71,0,4.15,4.15,0,0,1,1.64,1.55,4.29,4.29,0,0,1-1.64,6,5.23,5.23,0,0,1-4.71,0Zm3.7-1.43a2.41,2.41,0,0,0,.94-1,2.94,2.94,0,0,0,0-2.78,2.41,2.41,0,0,0-.94-1,2.83,2.83,0,0,0-2.69,0,2.55,2.55,0,0,0-.94,1,3,3,0,0,0,0,2.78,2.55,2.55,0,0,0,.94,1,2.83,2.83,0,0,0,2.69,0Z"/><path class="cls-1" d="M400,318.48l1.65-2.34L400,313.78h1.68l1.7,2.36-1.7,2.34Zm2.72,0,1.64-2.34-1.64-2.36h1.68l1.69,2.36-1.69,2.34Z"/><path class="cls-1" d="M339.17,340v1.58h-6.34V340.3l3.24-3.06a3.44,3.44,0,0,0,.69-.84,1.55,1.55,0,0,0,.18-.7.93.93,0,0,0-.34-.78,1.59,1.59,0,0,0-1-.27,2.33,2.33,0,0,0-1,.21,1.94,1.94,0,0,0-.74.63l-1.42-.91a3.34,3.34,0,0,1,1.36-1.15,4.58,4.58,0,0,1,2-.41,4,4,0,0,1,1.64.31,2.54,2.54,0,0,1,1.09.86,2.23,2.23,0,0,1,.39,1.31,3,3,0,0,1-.29,1.29,4.9,4.9,0,0,1-1.12,1.37L335.56,340Z"/><path class="cls-1" d="M341.69,341.19a3.4,3.4,0,0,1-1.27-1.49,6,6,0,0,1,0-4.67,3.33,3.33,0,0,1,3.13-2,3.34,3.34,0,0,1,1.86.52,3.42,3.42,0,0,1,1.28,1.49,6.16,6.16,0,0,1,0,4.67,3.42,3.42,0,0,1-1.28,1.49,3.34,3.34,0,0,1-1.86.52A3.39,3.39,0,0,1,341.69,341.19Zm3.07-1.79a4.95,4.95,0,0,0,0-4.08,1.42,1.42,0,0,0-2.4,0,4.95,4.95,0,0,0,0,4.08,1.42,1.42,0,0,0,2.4,0Z"/><path class="cls-1" d="M351.27,333.16v8.4h-1.94v-6.84h-1.68v-1.56Z"/><path class="cls-1" d="M359.31,333.16v1.26l-3.12,7.14h-2.11l3-6.81h-2.78v1.37h-1.73v-3Z"/><path class="cls-1" d="M67.87,29.16v8.4H67V30.84l-3.3,5.65H63.3L60,30.87v6.69h-.85v-8.4h.73l3.65,6.22,3.61-6.22Z"/><path class="cls-1" d="M75.88,35.31H71.2l-1,2.25h-.93l3.84-8.4H74l3.84,8.4h-.94Zm-.33-.72-2-4.51-2,4.51Z"/><path class="cls-1" d="M79.73,37.33a3.36,3.36,0,0,1-1.32-.79l.35-.69a3.19,3.19,0,0,0,1.21.74,4.35,4.35,0,0,0,1.56.28,2.9,2.9,0,0,0,1.69-.41,1.28,1.28,0,0,0,.56-1.08,1.09,1.09,0,0,0-.3-.8,2.2,2.2,0,0,0-.75-.46,12.17,12.17,0,0,0-1.24-.36A13,13,0,0,1,80,33.3a2.45,2.45,0,0,1-1-.68,1.82,1.82,0,0,1-.4-1.23A2,2,0,0,1,79,30.23a2.23,2.23,0,0,1,1-.83,4.18,4.18,0,0,1,1.73-.32,5.16,5.16,0,0,1,1.41.2,4,4,0,0,1,1.19.55l-.3.71A4,4,0,0,0,82.88,30a4.41,4.41,0,0,0-1.17-.17,2.66,2.66,0,0,0-1.66.43,1.29,1.29,0,0,0-.56,1.09,1.09,1.09,0,0,0,.3.81,2,2,0,0,0,.77.47c.31.11.72.23,1.24.36a11.72,11.72,0,0,1,1.5.45,2.32,2.32,0,0,1,1,.67,1.74,1.74,0,0,1,.4,1.22,2,2,0,0,1-.34,1.15,2.28,2.28,0,0,1-1,.83,4.27,4.27,0,0,1-1.74.31A5.44,5.44,0,0,1,79.73,37.33Z"/><path class="cls-1" d="M88.1,29.92H85.15v-.76h6.79v.76H89v7.64H88.1Z"/><path class="cls-1" d="M99.3,36.79v.77H93.36v-8.4h5.76v.76H94.25v3h4.34v.76H94.25v3.12Z"/><path class="cls-1" d="M107.12,37.56l-1.92-2.7c-.21,0-.44,0-.67,0h-2.25v2.67h-.89v-8.4h3.14a3.81,3.81,0,0,1,2.52.76A2.63,2.63,0,0,1,108,32a2.68,2.68,0,0,1-.5,1.66,2.74,2.74,0,0,1-1.42,1l2.06,2.88Zm-.7-4a1.89,1.89,0,0,0,.66-1.54,1.92,1.92,0,0,0-.66-1.57,3,3,0,0,0-1.91-.55h-2.23v4.22h2.23A2.9,2.9,0,0,0,106.42,33.58Z"/><path class="cls-1" d="M110.59,37.33a3.33,3.33,0,0,1-1.33-.79l.35-.69a3.27,3.27,0,0,0,1.21.74,4.35,4.35,0,0,0,1.56.28,2.88,2.88,0,0,0,1.69-.41,1.29,1.29,0,0,0,.57-1.08,1.09,1.09,0,0,0-.31-.8,2,2,0,0,0-.75-.46,12.17,12.17,0,0,0-1.24-.36,13,13,0,0,1-1.51-.46,2.41,2.41,0,0,1-1-.68,1.77,1.77,0,0,1-.41-1.23,2.13,2.13,0,0,1,.34-1.16,2.23,2.23,0,0,1,1-.83,4.21,4.21,0,0,1,1.73-.32,5.16,5.16,0,0,1,1.41.2,4,4,0,0,1,1.19.55l-.3.71a4,4,0,0,0-1.12-.53,4.49,4.49,0,0,0-1.18-.17,2.66,2.66,0,0,0-1.66.43,1.32,1.32,0,0,0-.56,1.09,1.06,1.06,0,0,0,.31.81,2,2,0,0,0,.76.47c.31.11.73.23,1.25.36a12,12,0,0,1,1.49.45,2.42,2.42,0,0,1,1,.67,1.79,1.79,0,0,1,.39,1.22,2,2,0,0,1-.34,1.15,2.28,2.28,0,0,1-1,.83,4.27,4.27,0,0,1-1.74.31A5.38,5.38,0,0,1,110.59,37.33Z"/><path class="cls-1" d="M120.59,29.16H124a4.94,4.94,0,0,1,2.35.53,3.85,3.85,0,0,1,1.58,1.49,4.43,4.43,0,0,1,0,4.35A3.79,3.79,0,0,1,126.36,37a4.94,4.94,0,0,1-2.35.54h-3.42ZM124,36.79a4.07,4.07,0,0,0,1.93-.44,3.27,3.27,0,0,0,1.29-1.21,3.77,3.77,0,0,0,0-3.57,3.27,3.27,0,0,0-1.29-1.21,4.07,4.07,0,0,0-1.93-.44h-2.48v6.87Z"/><path class="cls-1" d="M136.44,36.79v.77H130.5v-8.4h5.76v.76h-4.87v3h4.34v.76h-4.34v3.12Z"/><path class="cls-1" d="M144.4,33.36h.85v3.2a4.13,4.13,0,0,1-1.39.79,5.05,5.05,0,0,1-1.7.28,4.69,4.69,0,0,1-2.26-.55,4.1,4.1,0,0,1-1.59-1.53,4.31,4.31,0,0,1-.57-2.19,4.26,4.26,0,0,1,.57-2.19,4,4,0,0,1,1.59-1.53,4.64,4.64,0,0,1,2.28-.56,5,5,0,0,1,1.76.31,3.44,3.44,0,0,1,1.35.91l-.55.56a3.41,3.41,0,0,0-2.53-1,3.77,3.77,0,0,0-1.84.45,3.28,3.28,0,0,0-1.29,1.24,3.52,3.52,0,0,0-.47,1.79,3.44,3.44,0,0,0,.47,1.77,3.34,3.34,0,0,0,1.28,1.25,3.78,3.78,0,0,0,1.84.46,3.72,3.72,0,0,0,2.2-.65Z"/><path class="cls-1" d="M153.49,37.56l-1.92-2.7c-.21,0-.44,0-.67,0h-2.26v2.67h-.88v-8.4h3.14a3.81,3.81,0,0,1,2.52.76,2.63,2.63,0,0,1,.91,2.12,2.68,2.68,0,0,1-.5,1.66,2.74,2.74,0,0,1-1.42,1l2.05,2.88Zm-.71-4a1.89,1.89,0,0,0,.66-1.54,1.92,1.92,0,0,0-.66-1.57,2.93,2.93,0,0,0-1.9-.55h-2.24v4.22h2.24A2.87,2.87,0,0,0,152.78,33.58Z"/><path class="cls-1" d="M162.37,36.79v.77h-5.94v-8.4h5.76v.76h-4.87v3h4.34v.76h-4.34v3.12Z"/><path class="cls-1" d="M170.4,36.79v.77h-5.94v-8.4h5.76v.76h-4.87v3h4.34v.76h-4.34v3.12Z"/><path class="cls-1" d="M55.53,43.56h.88V52h-.88Z"/><path class="cls-1" d="M66.17,43.56V52h-.73L60,45.14V52h-.89v-8.4h.73l5.41,6.81V43.56Z"/><path class="cls-1" d="M72.05,43.56h.89V52h-.89Z"/><path class="cls-1" d="M82.69,43.56V52H82l-5.4-6.82V52h-.89v-8.4h.73l5.42,6.81V43.56Z"/><path class="cls-1" d="M87.06,44.32h-3v-.76H90.9v.76H88V52h-.89Z"/><path class="cls-1" d="M98.26,51.19V52H92.32v-8.4h5.76v.76H93.2v3h4.35v.76H93.2v3.12Z"/><path class="cls-1" d="M106.08,52l-1.92-2.7c-.22,0-.44,0-.67,0h-2.26V52h-.89v-8.4h3.15a3.81,3.81,0,0,1,2.52.76,2.63,2.63,0,0,1,.91,2.12A2.61,2.61,0,0,1,105,49.08l2,2.88Zm-.71-4a1.89,1.89,0,0,0,.66-1.54,1.92,1.92,0,0,0-.66-1.57,3,3,0,0,0-1.91-.55h-2.23v4.22h2.23A2.9,2.9,0,0,0,105.37,48Z"/><path class="cls-1" d="M116,43.56V52h-.73l-5.4-6.82V52H109v-8.4h.73l5.41,6.81V43.56Z"/><path class="cls-1" d="M124,49.71h-4.68l-1,2.25h-.93l3.84-8.4h.88L126,52h-.94Zm-.32-.72-2-4.51-2,4.51Z"/><path class="cls-1" d="M128.59,44.32h-3v-.76h6.79v.76h-3V52h-.89Z"/><path class="cls-1" d="M133.85,43.56h.89V52h-.89Z"/><path class="cls-1" d="M138.88,51.47a4.08,4.08,0,0,1-1.58-1.53,4.47,4.47,0,0,1,0-4.37A4.08,4.08,0,0,1,138.88,44a4.64,4.64,0,0,1,2.26-.56,4.52,4.52,0,0,1,2.25.56A3.94,3.94,0,0,1,145,45.57a4.17,4.17,0,0,1,.58,2.19A4.22,4.22,0,0,1,145,50a4.08,4.08,0,0,1-1.58,1.53,4.86,4.86,0,0,1-4.51,0Zm4.06-.68a3.22,3.22,0,0,0,1.26-1.25,3.47,3.47,0,0,0,.46-1.78A3.51,3.51,0,0,0,144.2,46a3.2,3.2,0,0,0-1.26-1.24,3.59,3.59,0,0,0-1.8-.45,3.64,3.64,0,0,0-1.8.45A3.22,3.22,0,0,0,138.07,46a3.52,3.52,0,0,0-.47,1.79,3.48,3.48,0,0,0,.47,1.78,3.25,3.25,0,0,0,1.27,1.25,3.64,3.64,0,0,0,1.8.45A3.59,3.59,0,0,0,142.94,50.79Z"/><path class="cls-1" d="M154.56,43.56V52h-.73l-5.4-6.82V52h-.89v-8.4h.73l5.41,6.81V43.56Z"/><path class="cls-1" d="M162.56,49.71h-4.68l-1,2.25H156l3.84-8.4h.88l3.84,8.4h-.94Zm-.32-.72-2-4.51-2,4.51Z"/><path class="cls-1" d="M165.9,43.56h.89v7.63h4.7V52H165.9Z"/><path class="cls-1" d="M83.08,65.59v.77H77.14V58H82.9v.76H78v3h4.35v.76H78v3.12Z"/><path class="cls-1" d="M86.51,65.88a4.12,4.12,0,0,1-1.57-1.53,4.31,4.31,0,0,1-.57-2.19A4.26,4.26,0,0,1,84.94,60a3.94,3.94,0,0,1,1.58-1.53,4.82,4.82,0,0,1,4-.24,3.51,3.51,0,0,1,1.35.91l-.57.56a3.34,3.34,0,0,0-2.48-1,3.68,3.68,0,0,0-1.81.45,3.34,3.34,0,0,0-1.28,1.25,3.65,3.65,0,0,0,0,3.55A3.27,3.27,0,0,0,87,65.18a3.69,3.69,0,0,0,1.81.46,3.29,3.29,0,0,0,2.48-1l.57.56a3.65,3.65,0,0,1-1.35.92,4.88,4.88,0,0,1-4-.23Z"/><path class="cls-1" d="M95,65.87a4.08,4.08,0,0,1-1.58-1.53,4.47,4.47,0,0,1,0-4.37A4.08,4.08,0,0,1,95,58.44a4.66,4.66,0,0,1,2.27-.56,4.58,4.58,0,0,1,2.25.56A4,4,0,0,1,101.06,60a4.17,4.17,0,0,1,.58,2.19,4.22,4.22,0,0,1-.58,2.19,4.12,4.12,0,0,1-1.57,1.53,4.88,4.88,0,0,1-4.52,0ZM99,65.19a3.36,3.36,0,0,0,1.26-1.25,3.57,3.57,0,0,0,.45-1.78,3.61,3.61,0,0,0-.45-1.79A3.33,3.33,0,0,0,99,59.13a3.85,3.85,0,0,0-3.61,0,3.29,3.29,0,0,0-1.27,1.24,3.51,3.51,0,0,0-.46,1.79,3.47,3.47,0,0,0,.46,1.78,3.32,3.32,0,0,0,1.27,1.25,3.85,3.85,0,0,0,3.61,0Z"/><path class="cls-1" d="M110.65,58v8.4h-.73l-5.4-6.82v6.82h-.89V58h.73l5.42,6.81V58Z"/><path class="cls-1" d="M114.8,65.87a4,4,0,0,1-1.59-1.53,4.47,4.47,0,0,1,0-4.37,4,4,0,0,1,1.59-1.53,4.82,4.82,0,0,1,4.51,0A4,4,0,0,1,120.89,60a4.26,4.26,0,0,1,.57,2.19,4.31,4.31,0,0,1-.57,2.19,4.15,4.15,0,0,1-1.58,1.53,4.68,4.68,0,0,1-2.25.55A4.62,4.62,0,0,1,114.8,65.87Zm4.06-.68a3.22,3.22,0,0,0,1.26-1.25,3.57,3.57,0,0,0,.46-1.78,3.61,3.61,0,0,0-.46-1.79,3.2,3.2,0,0,0-1.26-1.24,3.64,3.64,0,0,0-1.8-.45,3.68,3.68,0,0,0-1.81.45A3.29,3.29,0,0,0,114,60.37a3.51,3.51,0,0,0-.46,1.79,3.47,3.47,0,0,0,.46,1.78,3.32,3.32,0,0,0,1.27,1.25,3.68,3.68,0,0,0,1.81.45A3.64,3.64,0,0,0,118.86,65.19Z"/><path class="cls-1" d="M132.18,58v8.4h-.85V59.64L128,65.29h-.42l-3.3-5.62v6.69h-.85V58h.73l3.65,6.22L131.45,58Z"/><path class="cls-1" d="M134.92,58h.88v8.4h-.88Z"/><path class="cls-1" d="M139.94,65.88a4.05,4.05,0,0,1-1.57-1.53,4.32,4.32,0,0,1-.58-2.19,4.27,4.27,0,0,1,.58-2.19,3.92,3.92,0,0,1,1.57-1.53,4.84,4.84,0,0,1,4-.24,3.47,3.47,0,0,1,1.34.91l-.56.56a3.38,3.38,0,0,0-2.49-1,3.71,3.71,0,0,0-1.81.45,3.41,3.41,0,0,0-1.28,1.25,3.65,3.65,0,0,0,0,3.55,3.34,3.34,0,0,0,1.28,1.25,3.72,3.72,0,0,0,1.81.46,3.32,3.32,0,0,0,2.49-1l.56.56a3.65,3.65,0,0,1-1.35.92,4.86,4.86,0,0,1-4-.23Z"/><path class="cls-1" d="M147.64,66.13a3.48,3.48,0,0,1-1.33-.79l.35-.69a3.32,3.32,0,0,0,1.22.74,4.35,4.35,0,0,0,1.56.28,2.9,2.9,0,0,0,1.69-.41,1.3,1.3,0,0,0,.56-1.08,1.05,1.05,0,0,0-.31-.8,2,2,0,0,0-.75-.46,11.15,11.15,0,0,0-1.23-.36,12.38,12.38,0,0,1-1.51-.46,2.45,2.45,0,0,1-1-.68,1.77,1.77,0,0,1-.4-1.23,2,2,0,0,1,.34-1.16,2.18,2.18,0,0,1,1-.83,4.18,4.18,0,0,1,1.73-.32,5.22,5.22,0,0,1,1.41.2,4.2,4.2,0,0,1,1.19.55l-.3.71a4,4,0,0,0-1.13-.53,4.41,4.41,0,0,0-1.17-.17,2.71,2.71,0,0,0-1.67.43,1.32,1.32,0,0,0-.56,1.09,1.1,1.1,0,0,0,.31.81,1.93,1.93,0,0,0,.77.47c.31.11.72.23,1.24.36a12.24,12.24,0,0,1,1.5.45,2.39,2.39,0,0,1,1,.67,1.74,1.74,0,0,1,.4,1.22,2,2,0,0,1-.35,1.15,2.19,2.19,0,0,1-1.05.83,4.25,4.25,0,0,1-1.73.31A5.4,5.4,0,0,1,147.64,66.13Z"/><path class="cls-1" d="M105.7,86.72v1.59H99.35V87.05L102.59,84a3.45,3.45,0,0,0,.69-.85,1.55,1.55,0,0,0,.18-.7.93.93,0,0,0-.34-.78,1.59,1.59,0,0,0-1-.27,2.33,2.33,0,0,0-1,.21,1.94,1.94,0,0,0-.74.63L99,81.32a3.25,3.25,0,0,1,1.36-1.14,4.5,4.5,0,0,1,2-.42,4,4,0,0,1,1.64.31,2.49,2.49,0,0,1,1.09.86,2.24,2.24,0,0,1,.39,1.32,3,3,0,0,1-.29,1.28A4.88,4.88,0,0,1,104,84.9l-1.94,1.82Z"/><path class="cls-1" d="M108.22,87.93a3.42,3.42,0,0,1-1.28-1.49,6.16,6.16,0,0,1,0-4.67,3.42,3.42,0,0,1,1.28-1.49,3.34,3.34,0,0,1,1.86-.52,3.33,3.33,0,0,1,3.13,2,6,6,0,0,1,0,4.67,3.33,3.33,0,0,1-3.13,2A3.34,3.34,0,0,1,108.22,87.93Zm3.06-1.78a4.95,4.95,0,0,0,0-4.08,1.42,1.42,0,0,0-2.4,0,4.95,4.95,0,0,0,0,4.08,1.42,1.42,0,0,0,2.4,0Z"/><path class="cls-1" d="M116.36,87.93a3.4,3.4,0,0,1-1.27-1.49,6,6,0,0,1,0-4.67,3.33,3.33,0,0,1,3.13-2,3.34,3.34,0,0,1,1.86.52,3.42,3.42,0,0,1,1.28,1.49,6.16,6.16,0,0,1,0,4.67,3.42,3.42,0,0,1-1.28,1.49,3.34,3.34,0,0,1-1.86.52A3.39,3.39,0,0,1,116.36,87.93Zm3.07-1.78a4.95,4.95,0,0,0,0-4.08,1.42,1.42,0,0,0-2.4,0,4.95,4.95,0,0,0,0,4.08,1.42,1.42,0,0,0,2.4,0Z"/><path class="cls-1" d="M128.48,80.84a4.34,4.34,0,0,1,1,3.09,5.26,5.26,0,0,1-.53,2.44,3.65,3.65,0,0,1-1.51,1.55,4.66,4.66,0,0,1-2.24.53,5.43,5.43,0,0,1-1.29-.15,3.29,3.29,0,0,1-1-.43l.72-1.42a2.72,2.72,0,0,0,1.57.42,2.26,2.26,0,0,0,1.69-.63,2.62,2.62,0,0,0,.67-1.82,2.82,2.82,0,0,1-2.08.75,3.24,3.24,0,0,1-1.47-.32,2.51,2.51,0,0,1-1-.92,2.42,2.42,0,0,1-.39-1.37,2.64,2.64,0,0,1,.42-1.48,2.82,2.82,0,0,1,1.15-1,3.83,3.83,0,0,1,1.61-.34A3.56,3.56,0,0,1,128.48,80.84Zm-1.57,2.53a1.19,1.19,0,0,0,.4-.91,1.14,1.14,0,0,0-.39-.9,1.58,1.58,0,0,0-1.08-.35,1.52,1.52,0,0,0-1,.34,1.14,1.14,0,0,0-.39.91,1.16,1.16,0,0,0,.39.92,1.52,1.52,0,0,0,1,.34A1.56,1.56,0,0,0,126.91,83.37Z"/><path class="cls-1" d="M61.35,224v3.3h4.34V228H61.35v3.57h-.89v-8.4h5.76V224Z"/><path class="cls-1" d="M68.06,223.19H69v8.4h-.89Z"/><path class="cls-1" d="M78.7,223.19v8.4H78l-5.4-6.82v6.82h-.89v-8.4h.73L77.83,230v-6.81Z"/><path class="cls-1" d="M81.44,223.19h.89v8.4h-.89Z"/><path class="cls-1" d="M85.58,231.36a3.25,3.25,0,0,1-1.32-.79l.35-.69a3.19,3.19,0,0,0,1.21.74,4.35,4.35,0,0,0,1.56.28,2.83,2.83,0,0,0,1.69-.41,1.26,1.26,0,0,0,.56-1.07,1.09,1.09,0,0,0-.3-.81,2.2,2.2,0,0,0-.75-.46,10.3,10.3,0,0,0-1.24-.35,12.72,12.72,0,0,1-1.51-.47,2.42,2.42,0,0,1-1-.67,1.86,1.86,0,0,1-.4-1.24,2.07,2.07,0,0,1,.34-1.16,2.29,2.29,0,0,1,1-.83,4.18,4.18,0,0,1,1.73-.31,5.16,5.16,0,0,1,1.41.19,4.22,4.22,0,0,1,1.19.55l-.3.71a4,4,0,0,0-1.13-.52,4.06,4.06,0,0,0-1.17-.18,2.66,2.66,0,0,0-1.66.43,1.3,1.3,0,0,0-.56,1.1,1.13,1.13,0,0,0,.3.81,2,2,0,0,0,.77.46c.31.11.72.23,1.24.36a11.72,11.72,0,0,1,1.5.45,2.42,2.42,0,0,1,1,.67,1.76,1.76,0,0,1,.4,1.22,2.07,2.07,0,0,1-.34,1.16,2.33,2.33,0,0,1-1,.82,4.27,4.27,0,0,1-1.74.31A5.44,5.44,0,0,1,85.58,231.36Z"/><path class="cls-1" d="M99.46,223.19v8.4h-.88v-3.88H93.33v3.88h-.89v-8.4h.89v3.74h5.25v-3.74Z"/><path class="cls-1" d="M108.14,230.82v.77H102.2v-8.4H108V224h-4.88v3h4.35v.76h-4.35v3.12Z"/><path class="cls-1" d="M110.22,223.19h3.42a5.1,5.1,0,0,1,2.36.53,3.92,3.92,0,0,1,1.58,1.49,4.52,4.52,0,0,1,0,4.36,3.89,3.89,0,0,1-1.58,1.48,5,5,0,0,1-2.36.54h-3.42Zm3.38,7.63a4.1,4.1,0,0,0,1.93-.44,3.11,3.11,0,0,0,1.28-1.21,3.67,3.67,0,0,0,0-3.56,3.2,3.2,0,0,0-1.28-1.22,4.1,4.1,0,0,0-1.93-.43h-2.49v6.86Z"/><path class="cls-1" d="M129.85,228a2.06,2.06,0,0,1,.45,1.37,1.93,1.93,0,0,1-.8,1.67,4,4,0,0,1-2.35.58h-3.87v-8.4h3.63a3.66,3.66,0,0,1,2.17.56,1.86,1.86,0,0,1,.78,1.6,2,2,0,0,1-.35,1.18,2,2,0,0,1-.94.73A2.18,2.18,0,0,1,129.85,228Zm-5.68-4.05V227h2.67a2.71,2.71,0,0,0,1.58-.39,1.45,1.45,0,0,0,0-2.27,2.71,2.71,0,0,0-1.58-.39Zm4.67,6.55a1.33,1.33,0,0,0,.57-1.2c0-1.05-.76-1.57-2.28-1.57h-3v3.16h3A3.09,3.09,0,0,0,128.84,230.47Z"/><path class="cls-1" d="M132.33,223.19h.89v8.4h-.89Z"/><path class="cls-1" d="M137.36,231.1a4.08,4.08,0,0,1-1.58-1.53,4.25,4.25,0,0,1,1.58-5.9,4.65,4.65,0,0,1,2.27-.55,4.57,4.57,0,0,1,2.25.55,4.12,4.12,0,0,1,1.57,1.53,4.42,4.42,0,0,1,0,4.38,4.12,4.12,0,0,1-1.57,1.53,4.57,4.57,0,0,1-2.25.55A4.66,4.66,0,0,1,137.36,231.1Zm4.06-.68a3.22,3.22,0,0,0,1.26-1.25,3.67,3.67,0,0,0,0-3.56,3.16,3.16,0,0,0-1.26-1.25,3.58,3.58,0,0,0-1.79-.45,3.65,3.65,0,0,0-1.81.45,3.18,3.18,0,0,0-1.27,1.25,3.61,3.61,0,0,0,0,3.56,3.25,3.25,0,0,0,1.27,1.25,3.65,3.65,0,0,0,1.81.45A3.58,3.58,0,0,0,141.42,230.42Z"/><path class="cls-1" d="M153,223.19v8.4h-.73l-5.4-6.82v6.82H146v-8.4h.73l5.41,6.81v-6.81Z"/><path class="cls-1" d="M155.78,223.19h.88v8.4h-.88Z"/><path class="cls-1" d="M160.8,231.11a4.05,4.05,0,0,1-1.57-1.53,4.49,4.49,0,0,1,0-4.38,4.05,4.05,0,0,1,1.57-1.53,4.95,4.95,0,0,1,4-.24,3.59,3.59,0,0,1,1.34.91l-.56.56a3.38,3.38,0,0,0-2.49-1,3.71,3.71,0,0,0-1.81.45,3.41,3.41,0,0,0-1.28,1.25,3.55,3.55,0,0,0-.46,1.78,3.51,3.51,0,0,0,.46,1.77,3.34,3.34,0,0,0,1.28,1.25,3.61,3.61,0,0,0,1.81.46,3.32,3.32,0,0,0,2.49-1l.56.56a3.65,3.65,0,0,1-1.35.92,4.67,4.67,0,0,1-1.73.32A4.57,4.57,0,0,1,160.8,231.11Z"/><path class="cls-1" d="M44.32,245.12a3.73,3.73,0,0,1-.92-2.72v-4.81h.89v4.77a3.15,3.15,0,0,0,.66,2.19,2.91,2.91,0,0,0,3.83,0,3.15,3.15,0,0,0,.66-2.19v-4.77h.86v4.81a3.77,3.77,0,0,1-.9,2.72,3.9,3.9,0,0,1-5.08,0Z"/><path class="cls-1" d="M60,237.59V246h-.73l-5.4-6.82V246H53v-8.4h.73l5.41,6.81v-6.81Z"/><path class="cls-1" d="M62.74,237.59h.88V246h-.88Z"/><path class="cls-1" d="M73.25,237.59,69.53,246h-.88l-3.72-8.4h1l3.22,7.3,3.24-7.3Z"/><path class="cls-1" d="M80.4,245.22V246H74.46v-8.4h5.76v.77H75.35v3h4.34v.75H75.35v3.12Z"/><path class="cls-1" d="M88.22,246l-1.92-2.7c-.21,0-.44,0-.67,0H83.38V246h-.89v-8.4h3.14a3.81,3.81,0,0,1,2.52.77,2.59,2.59,0,0,1,.91,2.11,2.74,2.74,0,0,1-.49,1.66,2.81,2.81,0,0,1-1.43,1L89.2,246Zm-.7-4a2.17,2.17,0,0,0,0-3.12,3,3,0,0,0-1.91-.54H83.38v4.21h2.23A2.9,2.9,0,0,0,87.52,242Z"/><path class="cls-1" d="M91.69,245.76a3.22,3.22,0,0,1-1.33-.79l.35-.69a3.27,3.27,0,0,0,1.21.74,4.36,4.36,0,0,0,1.56.29,2.81,2.81,0,0,0,1.69-.42,1.27,1.27,0,0,0,.57-1.07,1.1,1.1,0,0,0-.31-.81,2,2,0,0,0-.75-.46,10.3,10.3,0,0,0-1.24-.35,12.72,12.72,0,0,1-1.51-.47,2.39,2.39,0,0,1-1-.67,1.82,1.82,0,0,1-.41-1.24,2.15,2.15,0,0,1,.34-1.16,2.29,2.29,0,0,1,1-.83,4.22,4.22,0,0,1,1.73-.31,5.16,5.16,0,0,1,1.41.19,4.22,4.22,0,0,1,1.19.55L96,239a3.94,3.94,0,0,0-1.12-.52,4.13,4.13,0,0,0-1.18-.18,2.66,2.66,0,0,0-1.66.43,1.32,1.32,0,0,0-.56,1.1,1.09,1.09,0,0,0,.31.81,1.94,1.94,0,0,0,.76.46c.31.11.73.23,1.25.36a12,12,0,0,1,1.49.45,2.53,2.53,0,0,1,1,.67,1.81,1.81,0,0,1,.39,1.22,2.07,2.07,0,0,1-.34,1.16,2.33,2.33,0,0,1-1,.82,4.27,4.27,0,0,1-1.74.31A5.38,5.38,0,0,1,91.69,245.76Z"/><path class="cls-1" d="M98.54,237.59h.89V246h-.89Z"/><path class="cls-1" d="M103.8,238.36h-3v-.77h6.79v.77h-3V246h-.89Z"/><path class="cls-1" d="M111.88,243.08V246H111v-2.91l-3.36-5.49h1l2.88,4.72,2.88-4.72h.89Z"/><path class="cls-1" d="M125.42,238.36a2.87,2.87,0,0,1,0,4.21,3.78,3.78,0,0,1-2.52.77h-2.25V246h-.89v-8.4h3.14A3.78,3.78,0,0,1,125.42,238.36Zm-.63,3.65a1.89,1.89,0,0,0,.66-1.54,1.93,1.93,0,0,0-.66-1.57,3,3,0,0,0-1.91-.54h-2.23v4.2h2.23A3,3,0,0,0,124.79,242Z"/><path class="cls-1" d="M134,246l-1.92-2.7c-.21,0-.44,0-.67,0h-2.26V246h-.88v-8.4h3.14a3.81,3.81,0,0,1,2.52.77,2.59,2.59,0,0,1,.91,2.11,2.68,2.68,0,0,1-.5,1.66,2.74,2.74,0,0,1-1.42,1L135,246Zm-.71-4a2.17,2.17,0,0,0,0-3.12,2.93,2.93,0,0,0-1.9-.54h-2.24v4.21h2.24A2.87,2.87,0,0,0,133.28,242Z"/><path class="cls-1" d="M138.34,245.5a4.08,4.08,0,0,1-1.58-1.53,4.25,4.25,0,0,1,1.58-5.9,4.64,4.64,0,0,1,2.26-.55,4.52,4.52,0,0,1,2.25.55,4.08,4.08,0,0,1,1.58,1.53,4.42,4.42,0,0,1,0,4.38,4.08,4.08,0,0,1-1.58,1.53,4.52,4.52,0,0,1-2.25.55A4.64,4.64,0,0,1,138.34,245.5Zm4.06-.68a3.22,3.22,0,0,0,1.26-1.25,3.67,3.67,0,0,0,0-3.56,3.22,3.22,0,0,0-1.26-1.25,3.59,3.59,0,0,0-1.8-.45,3.64,3.64,0,0,0-1.8.45,3.25,3.25,0,0,0-1.27,1.25,3.61,3.61,0,0,0,0,3.56,3.25,3.25,0,0,0,1.27,1.25,3.64,3.64,0,0,0,1.8.45A3.59,3.59,0,0,0,142.4,244.82Z"/><path class="cls-1" d="M152.92,241.79h.85V245a4,4,0,0,1-1.39.79,5.09,5.09,0,0,1-1.7.28,4.58,4.58,0,0,1-2.26-.55,4,4,0,0,1-1.59-1.53,4.42,4.42,0,0,1,0-4.38,4,4,0,0,1,1.59-1.53,4.63,4.63,0,0,1,2.28-.55,5,5,0,0,1,1.76.3,3.47,3.47,0,0,1,1.35.91l-.55.56a3.47,3.47,0,0,0-2.53-1,3.77,3.77,0,0,0-1.84.45A3.3,3.3,0,0,0,147.6,240a3.45,3.45,0,0,0-.47,1.78,3.42,3.42,0,0,0,.47,1.77,3.34,3.34,0,0,0,1.28,1.25,3.67,3.67,0,0,0,1.84.46,3.72,3.72,0,0,0,2.2-.65Z"/><path class="cls-1" d="M162,246l-1.92-2.7c-.21,0-.44,0-.67,0h-2.26V246h-.88v-8.4h3.14a3.81,3.81,0,0,1,2.52.77,2.59,2.59,0,0,1,.91,2.11,2.68,2.68,0,0,1-.5,1.66,2.74,2.74,0,0,1-1.42,1l2,2.88Zm-.71-4a2.17,2.17,0,0,0,0-3.12,2.93,2.93,0,0,0-1.9-.54h-2.24v4.21h2.24A2.87,2.87,0,0,0,161.3,242Z"/><path class="cls-1" d="M170.22,243.74h-4.68l-1,2.25h-.92l3.84-8.4h.87l3.84,8.4h-.93Zm-.33-.72-2-4.51-2,4.51Z"/><path class="cls-1" d="M182.28,237.59V246h-.85v-6.72l-3.3,5.65h-.42l-3.3-5.61V246h-.86v-8.4h.74l3.64,6.23,3.62-6.23Z"/><path class="cls-1" d="M69.92,256.28l1.7-2.35H73.3l-1.65,2.35,1.65,2.34H71.62Zm2.72,0,1.69-2.35H76l-1.65,2.35L76,258.62H74.33Z"/><path class="cls-1" d="M79.37,253.55v2.22h3.89v1.56H79.37v3.06h-2V252h6.35v1.56Z"/><path class="cls-1" d="M90.44,260.39l-1.62-2.34H87v2.34h-2V252h3.64a4.66,4.66,0,0,1,1.94.37,2.89,2.89,0,0,1,0,5.33l1.88,2.7ZM90,254a2,2,0,0,0-1.33-.38H87v2.93h1.58a2,2,0,0,0,1.33-.38,1.33,1.33,0,0,0,.46-1.08A1.31,1.31,0,0,0,90,254Z"/><path class="cls-1" d="M95.62,260A4.35,4.35,0,0,1,94,254a4.09,4.09,0,0,1,1.64-1.55,4.87,4.87,0,0,1,2.36-.57,4.81,4.81,0,0,1,2.35.57,4.33,4.33,0,0,1,1.65,6,4.27,4.27,0,0,1-1.65,1.56,4.92,4.92,0,0,1-2.35.56A5,5,0,0,1,95.62,260Zm3.7-1.44a2.41,2.41,0,0,0,1-.95,3,3,0,0,0,0-2.78,2.5,2.5,0,0,0-1-1,2.81,2.81,0,0,0-2.68,0,2.5,2.5,0,0,0-1,1,3,3,0,0,0,0,2.78,2.41,2.41,0,0,0,1,.95,2.74,2.74,0,0,0,2.68,0Z"/><path class="cls-1" d="M111.74,252v8.4h-1.59l-4.19-5.1v5.1H104V252h1.61l4.17,5.1V252Z"/><path class="cls-1" d="M115.48,253.57h-2.69V252h7.32v1.58h-2.69v6.82h-1.94Z"/><path class="cls-1" d="M120.68,255.38h3.4v1.5h-3.4Z"/><path class="cls-1" d="M132.31,258.83v1.56h-6.5V252h6.35v1.56h-4.42v1.82h3.9v1.51h-3.9v1.95Z"/><path class="cls-1" d="M141.56,252v8.4H140l-4.19-5.1v5.1h-1.92V252h1.61l4.17,5.1V252Z"/><path class="cls-1" d="M143.56,252h3.81a5.35,5.35,0,0,1,2.42.52,3.94,3.94,0,0,1,1.63,1.47,4.5,4.5,0,0,1,0,4.42,3.94,3.94,0,0,1-1.63,1.47,5.49,5.49,0,0,1-2.42.52h-3.81Zm3.72,6.8a2.81,2.81,0,0,0,2-.7,2.78,2.78,0,0,0,0-3.8,2.82,2.82,0,0,0-2-.71H145.5v5.21Z"/><path class="cls-1" d="M152.89,258.62l1.65-2.34-1.65-2.35h1.68l1.69,2.35-1.69,2.34Zm2.71,0,1.65-2.34-1.65-2.35h1.68l1.7,2.35-1.7,2.34Z"/><path class="cls-1" d="M107.56,280.8v1.59h-6.35v-1.26l3.24-3.06a3.45,3.45,0,0,0,.69-.85,1.55,1.55,0,0,0,.18-.7.93.93,0,0,0-.34-.78,1.59,1.59,0,0,0-1-.27,2.33,2.33,0,0,0-1,.21,1.94,1.94,0,0,0-.74.63l-1.42-.91a3.25,3.25,0,0,1,1.36-1.14,4.5,4.5,0,0,1,2-.42,4,4,0,0,1,1.64.31,2.49,2.49,0,0,1,1.09.86,2.24,2.24,0,0,1,.39,1.32,3,3,0,0,1-.29,1.28,4.88,4.88,0,0,1-1.11,1.37l-1.94,1.82Z"/><path class="cls-1" d="M110.08,282a3.42,3.42,0,0,1-1.28-1.49,6.16,6.16,0,0,1,0-4.67,3.42,3.42,0,0,1,1.28-1.49,3.34,3.34,0,0,1,1.86-.52,3.33,3.33,0,0,1,3.13,2,6,6,0,0,1,0,4.67,3.33,3.33,0,0,1-3.13,2A3.34,3.34,0,0,1,110.08,282Zm3.06-1.78a4.95,4.95,0,0,0,0-4.08,1.42,1.42,0,0,0-2.4,0,4.95,4.95,0,0,0,0,4.08,1.42,1.42,0,0,0,2.4,0Z"/><path class="cls-1" d="M119.65,274v8.4h-1.94v-6.84H116V274Z"/><path class="cls-1" d="M127.69,274v1.26l-3.12,7.14h-2.11l3-6.82h-2.78v1.37H121V274Z"/><path class="cls-1" d="M13.55,342.54v3.3H17.9v.76H13.55v3.57h-.88v-8.4h5.76v.77Z"/><path class="cls-1" d="M20.26,341.77h.89v8.4h-.89Z"/><path class="cls-1" d="M30.91,341.77v8.4h-.74l-5.4-6.82v6.82h-.88v-8.4h.73L30,348.59v-6.82Z"/><path class="cls-1" d="M33.64,341.77h.89v8.4h-.89Z"/><path class="cls-1" d="M37.79,349.94a3.29,3.29,0,0,1-1.33-.79l.35-.68a3.26,3.26,0,0,0,1.21.73,4.44,4.44,0,0,0,1.56.29,2.81,2.81,0,0,0,1.69-.42,1.26,1.26,0,0,0,.57-1.07,1.06,1.06,0,0,0-.31-.81,2,2,0,0,0-.75-.46,12.26,12.26,0,0,0-1.23-.35,14.76,14.76,0,0,1-1.52-.46,2.59,2.59,0,0,1-1-.68,1.81,1.81,0,0,1-.4-1.24,2.14,2.14,0,0,1,.33-1.16,2.41,2.41,0,0,1,1-.83,4.22,4.22,0,0,1,1.73-.31,4.81,4.81,0,0,1,1.41.2,4.13,4.13,0,0,1,1.2.54l-.3.71a4.13,4.13,0,0,0-1.13-.52,4.08,4.08,0,0,0-1.18-.18,2.74,2.74,0,0,0-1.66.43,1.32,1.32,0,0,0-.56,1.1,1.09,1.09,0,0,0,.31.81,2,2,0,0,0,.77.47c.3.1.72.22,1.24.35a12,12,0,0,1,1.49.45,2.53,2.53,0,0,1,1,.67,1.81,1.81,0,0,1,.39,1.22,2.07,2.07,0,0,1-.34,1.16,2.35,2.35,0,0,1-1,.83,4.45,4.45,0,0,1-1.74.3A5.38,5.38,0,0,1,37.79,349.94Z"/><path class="cls-1" d="M51.67,341.77v8.4h-.88v-3.88H45.53v3.88h-.88v-8.4h.88v3.74h5.26v-3.74Z"/><path class="cls-1" d="M60.34,349.4v.77H54.4v-8.4h5.76v.77H55.29v3h4.34v.75H55.29v3.12Z"/><path class="cls-1" d="M62.43,341.77h3.42a5.06,5.06,0,0,1,2.35.53,4,4,0,0,1,1.59,1.49,4.52,4.52,0,0,1,0,4.36,4,4,0,0,1-1.59,1.49,5.06,5.06,0,0,1-2.35.53H62.43Zm3.37,7.63a4,4,0,0,0,1.93-.44A3.14,3.14,0,0,0,69,347.75a3.75,3.75,0,0,0,0-3.56A3.14,3.14,0,0,0,67.73,343a4,4,0,0,0-1.93-.44H63.32v6.86Z"/><path class="cls-1" d="M81.15,342.54a2.9,2.9,0,0,1,0,4.22,3.87,3.87,0,0,1-2.52.76H76.37v2.65h-.88v-8.4h3.14A3.81,3.81,0,0,1,81.15,342.54Zm-.64,3.65a1.89,1.89,0,0,0,.66-1.54,1.93,1.93,0,0,0-.66-1.57,2.93,2.93,0,0,0-1.9-.54H76.37v4.2h2.24A2.87,2.87,0,0,0,80.51,346.19Z"/><path class="cls-1" d="M89.72,350.17l-1.92-2.7c-.22,0-.44,0-.67,0H84.87v2.66H84v-8.4h3.15a3.81,3.81,0,0,1,2.52.77,2.62,2.62,0,0,1,.91,2.11,2.73,2.73,0,0,1-.5,1.66,2.78,2.78,0,0,1-1.42,1l2,2.88Zm-.71-4a2.17,2.17,0,0,0,0-3.12,3,3,0,0,0-1.91-.54H84.87v4.21H87.1A2.9,2.9,0,0,0,89,346.2Z"/><path class="cls-1" d="M94.07,349.68a4,4,0,0,1-1.59-1.53,4.45,4.45,0,0,1,0-4.36,4,4,0,0,1,1.59-1.53,4.51,4.51,0,0,1,2.26-.56,4.57,4.57,0,0,1,2.25.55,4.15,4.15,0,0,1,1.58,1.53,4.49,4.49,0,0,1,0,4.38,4.15,4.15,0,0,1-1.58,1.53,4.57,4.57,0,0,1-2.25.55A4.51,4.51,0,0,1,94.07,349.68Zm4.06-.68a3.22,3.22,0,0,0,1.26-1.25,3.67,3.67,0,0,0,0-3.56,3.22,3.22,0,0,0-1.26-1.25,3.64,3.64,0,0,0-1.8-.45,3.68,3.68,0,0,0-1.81.45,3.32,3.32,0,0,0-1.27,1.25,3.67,3.67,0,0,0,0,3.56A3.32,3.32,0,0,0,94.52,349a3.68,3.68,0,0,0,1.81.45A3.64,3.64,0,0,0,98.13,349Z"/><path class="cls-1" d="M102.11,349.93a2.57,2.57,0,0,1-1-.89l.53-.6a2.08,2.08,0,0,0,1.81,1c1,0,1.56-.61,1.56-1.84v-5.09H102v-.77h3.94v5.82a2.86,2.86,0,0,1-.61,2,2.41,2.41,0,0,1-1.83.66A2.9,2.9,0,0,1,102.11,349.93Z"/><path class="cls-1" d="M114.5,349.4v.77h-5.94v-8.4h5.76v.77h-4.87v3h4.34v.75h-4.34v3.12Z"/><path class="cls-1" d="M117.93,349.69a4.12,4.12,0,0,1-1.57-1.53,4.49,4.49,0,0,1,0-4.38,4.08,4.08,0,0,1,1.58-1.53,4.92,4.92,0,0,1,4-.24,3.62,3.62,0,0,1,1.35.91l-.56.57a3.35,3.35,0,0,0-2.49-1,3.58,3.58,0,0,0-1.81.46,3.39,3.39,0,0,0-1.28,1.24,3.67,3.67,0,0,0,0,3.56,3.39,3.39,0,0,0,1.28,1.24,3.58,3.58,0,0,0,1.81.46,3.32,3.32,0,0,0,2.49-1l.56.57a3.62,3.62,0,0,1-1.35.91,4.49,4.49,0,0,1-1.74.32A4.57,4.57,0,0,1,117.93,349.69Z"/><path class="cls-1" d="M126.69,342.54h-3v-.77h6.79v.77h-3v7.63h-.89Z"/><path class="cls-1" d="M133.24,349.68a4,4,0,0,1-1.59-1.53,4.45,4.45,0,0,1,0-4.36,4,4,0,0,1,1.59-1.53,4.51,4.51,0,0,1,2.26-.56,4.57,4.57,0,0,1,2.25.55,4.15,4.15,0,0,1,1.58,1.53,4.49,4.49,0,0,1,0,4.38,4.15,4.15,0,0,1-1.58,1.53,4.57,4.57,0,0,1-2.25.55A4.51,4.51,0,0,1,133.24,349.68Zm4.06-.68a3.36,3.36,0,0,0,1.26-1.25,3.75,3.75,0,0,0,0-3.56,3.36,3.36,0,0,0-1.26-1.25,3.85,3.85,0,0,0-3.61,0,3.32,3.32,0,0,0-1.27,1.25,3.67,3.67,0,0,0,0,3.56,3.32,3.32,0,0,0,1.27,1.25,3.85,3.85,0,0,0,3.61,0Z"/><path class="cls-1" d="M147.63,350.17l-1.92-2.7c-.22,0-.44,0-.67,0h-2.26v2.66h-.89v-8.4H145a3.81,3.81,0,0,1,2.52.77,2.59,2.59,0,0,1,.91,2.11,2.61,2.61,0,0,1-1.92,2.64l2,2.88Zm-.71-4a2.17,2.17,0,0,0,0-3.12,2.94,2.94,0,0,0-1.91-.54h-2.23v4.21H145A2.88,2.88,0,0,0,146.92,346.2Z"/><path class="cls-1" d="M159.38,342.54a2.9,2.9,0,0,1,0,4.22,3.87,3.87,0,0,1-2.52.76H154.6v2.65h-.89v-8.4h3.15A3.81,3.81,0,0,1,159.38,342.54Zm-.64,3.65a1.89,1.89,0,0,0,.66-1.54,1.93,1.93,0,0,0-.66-1.57,2.94,2.94,0,0,0-1.91-.54H154.6v4.2h2.23A2.88,2.88,0,0,0,158.74,346.19Z"/><path class="cls-1" d="M167.94,350.17l-1.92-2.7c-.21,0-.44,0-.67,0H163.1v2.66h-.89v-8.4h3.14a3.81,3.81,0,0,1,2.52.77,2.6,2.6,0,0,1,.92,2.11,2.73,2.73,0,0,1-.5,1.66,2.78,2.78,0,0,1-1.42,1l2,2.88Zm-.7-4a2.17,2.17,0,0,0,0-3.12,3,3,0,0,0-1.91-.54H163.1v4.21h2.23A2.9,2.9,0,0,0,167.24,346.2Z"/><path class="cls-1" d="M172.29,349.68a4.08,4.08,0,0,1-1.58-1.53,4.45,4.45,0,0,1,0-4.36,4.08,4.08,0,0,1,1.58-1.53,4.88,4.88,0,0,1,4.52,0,4.12,4.12,0,0,1,1.57,1.53,4.42,4.42,0,0,1,0,4.38,4.12,4.12,0,0,1-1.57,1.53,4.88,4.88,0,0,1-4.52,0Zm4.07-.68a3.36,3.36,0,0,0,1.26-1.25,3.75,3.75,0,0,0,0-3.56,3.36,3.36,0,0,0-1.26-1.25,3.85,3.85,0,0,0-3.61,0,3.32,3.32,0,0,0-1.27,1.25,3.67,3.67,0,0,0,0,3.56,3.32,3.32,0,0,0,1.27,1.25,3.85,3.85,0,0,0,3.61,0Z"/><path class="cls-1" d="M186.87,346h.85v3.2a4.05,4.05,0,0,1-1.39.8,5.29,5.29,0,0,1-1.69.27,4.62,4.62,0,0,1-2.27-.55,4.08,4.08,0,0,1-1.58-1.53,4.42,4.42,0,0,1,0-4.38,4.08,4.08,0,0,1,1.58-1.53,4.63,4.63,0,0,1,2.28-.55,5,5,0,0,1,1.76.3,3.58,3.58,0,0,1,1.36.91l-.55.56a3.49,3.49,0,0,0-2.54-1,3.77,3.77,0,0,0-1.84.45,3.37,3.37,0,0,0-1.29,1.25,3.61,3.61,0,0,0,0,3.56,3.42,3.42,0,0,0,1.29,1.24,3.61,3.61,0,0,0,1.83.46,3.67,3.67,0,0,0,2.2-.65Z"/><path class="cls-1" d="M196,350.17l-1.92-2.7c-.21,0-.44,0-.67,0h-2.25v2.66h-.89v-8.4h3.14a3.81,3.81,0,0,1,2.52.77,2.59,2.59,0,0,1,.91,2.11,2.72,2.72,0,0,1-.49,1.66,2.81,2.81,0,0,1-1.43,1l2.06,2.88Zm-.7-4a2.17,2.17,0,0,0,0-3.12,3,3,0,0,0-1.91-.54h-2.23v4.21h2.23A2.9,2.9,0,0,0,195.26,346.2Z"/><path class="cls-1" d="M204.17,347.93h-4.68l-1,2.24h-.92l3.84-8.4h.88l3.84,8.4h-.94Zm-.32-.72-2-4.52-2,4.52Z"/><path class="cls-1" d="M216.23,341.77v8.4h-.85v-6.72l-3.3,5.65h-.42l-3.3-5.61v6.68h-.85v-8.4h.73l3.65,6.23,3.61-6.23Z"/><path class="cls-1" d="M27.92,360.47l1.69-2.36h1.68l-1.64,2.36,1.64,2.34H29.61Zm2.71,0,1.69-2.36H34l-1.64,2.36L34,362.81H32.32Z"/><path class="cls-1" d="M37.36,357.73V360h3.89v1.56H37.36v3.06H35.42v-8.4h6.35v1.56Z"/><path class="cls-1" d="M48.44,364.57l-1.62-2.34H45v2.34H43.09v-8.4h3.63a4.63,4.63,0,0,1,1.94.37,2.9,2.9,0,0,1,1.27,1.06,2.93,2.93,0,0,1,.44,1.62,2.84,2.84,0,0,1-.45,1.61,2.89,2.89,0,0,1-1.28,1l1.89,2.7ZM48,358.13a2.08,2.08,0,0,0-1.34-.38H45v2.93h1.58A2.08,2.08,0,0,0,48,360.3a1.53,1.53,0,0,0,0-2.17Z"/><path class="cls-1" d="M53.62,364.15A4.25,4.25,0,0,1,52,362.6a4.51,4.51,0,0,1,0-4.46,4.25,4.25,0,0,1,1.65-1.55,5.23,5.23,0,0,1,4.71,0A4.29,4.29,0,0,1,60,358.14a4.44,4.44,0,0,1,0,4.46,4.29,4.29,0,0,1-1.64,1.55,5.23,5.23,0,0,1-4.71,0Zm3.7-1.43a2.48,2.48,0,0,0,.94-1,3,3,0,0,0,0-2.78,2.48,2.48,0,0,0-.94-1,2.83,2.83,0,0,0-2.69,0,2.48,2.48,0,0,0-.94,1,3,3,0,0,0,0,2.78,2.48,2.48,0,0,0,.94,1,2.83,2.83,0,0,0,2.69,0Z"/><path class="cls-1" d="M69.74,356.17v8.4h-1.6L64,359.47v5.1H62v-8.4h1.61l4.18,5.1v-5.1Z"/><path class="cls-1" d="M73.47,357.75H70.78v-1.58H78.1v1.58H75.41v6.82H73.47Z"/><path class="cls-1" d="M78.68,359.57h3.39v1.5H78.68Z"/><path class="cls-1" d="M90.31,363v1.56H83.8v-8.4h6.35v1.56H85.73v1.82h3.9v1.52h-3.9V363Z"/><path class="cls-1" d="M99.56,356.17v8.4H98l-4.19-5.1v5.1H91.85v-8.4h1.61l4.18,5.1v-5.1Z"/><path class="cls-1" d="M101.55,356.17h3.82a5.31,5.31,0,0,1,2.41.52,4,4,0,0,1,1.64,1.47,4.5,4.5,0,0,1,0,4.42,4,4,0,0,1-1.64,1.47,5.31,5.31,0,0,1-2.41.52h-3.82Zm3.72,6.8a2.81,2.81,0,0,0,2-.7,2.78,2.78,0,0,0,0-3.8,2.81,2.81,0,0,0-2-.7h-1.78V363Z"/><path class="cls-1" d="M111,364.33a1.15,1.15,0,0,1-.34-.84,1.11,1.11,0,0,1,.34-.83,1.12,1.12,0,0,1,.83-.32,1.14,1.14,0,0,1,.83.32,1.1,1.1,0,0,1,.33.83,1.14,1.14,0,0,1-.33.84,1.16,1.16,0,0,1-.83.34A1.14,1.14,0,0,1,111,364.33Z"/><path class="cls-1" d="M117.74,364.4a3.19,3.19,0,0,1-1.17-.91l1.08-1.3a2,2,0,0,0,1.56.93c.8,0,1.19-.47,1.19-1.39v-4h-3v-1.56h4.88v5.45a3.18,3.18,0,0,1-.76,2.32,3.05,3.05,0,0,1-2.26.77A3.86,3.86,0,0,1,117.74,364.4Z"/><path class="cls-1" d="M129.61,362.77h-3.9l-.75,1.8h-2l3.74-8.4h1.92l3.76,8.4h-2Zm-.62-1.48-1.33-3.21-1.33,3.21Z"/><path class="cls-1" d="M140.89,356.17l-3.64,8.4h-1.92l-3.62-8.4h2.1l2.55,6,2.59-6Z"/><path class="cls-1" d="M146.84,362.77h-3.9l-.75,1.8h-2l3.75-8.4h1.92l3.75,8.4h-2Zm-.61-1.48-1.34-3.21-1.33,3.21Z"/><path class="cls-1" d="M151.33,364.44a4.4,4.4,0,0,1-1.49-.7l.66-1.46a4.63,4.63,0,0,0,1.28.63,4.84,4.84,0,0,0,1.49.24,2.4,2.4,0,0,0,1.22-.24.74.74,0,0,0,.4-.66.62.62,0,0,0-.23-.49,1.68,1.68,0,0,0-.61-.32c-.24-.08-.57-.17-1-.27a13.55,13.55,0,0,1-1.58-.45,2.63,2.63,0,0,1-1.05-.73,2,2,0,0,1-.44-1.35,2.33,2.33,0,0,1,.4-1.32,2.74,2.74,0,0,1,1.19-.95,5,5,0,0,1,1.95-.34,6.45,6.45,0,0,1,1.58.19,4.65,4.65,0,0,1,1.34.55l-.6,1.48a4.69,4.69,0,0,0-2.33-.66,2.14,2.14,0,0,0-1.2.26.81.81,0,0,0-.39.7.69.69,0,0,0,.45.64,6.58,6.58,0,0,0,1.37.41,13.67,13.67,0,0,1,1.57.46,2.54,2.54,0,0,1,1,.72,1.94,1.94,0,0,1,.44,1.33,2.25,2.25,0,0,1-.4,1.31,2.74,2.74,0,0,1-1.21.95,4.9,4.9,0,0,1-2,.34A6.87,6.87,0,0,1,151.33,364.44Z"/><path class="cls-1" d="M159.85,364.16a4.31,4.31,0,0,1,0-7.58,5.27,5.27,0,0,1,4.31-.17,4,4,0,0,1,1.48,1.1l-1.25,1.16a2.66,2.66,0,0,0-2.11-1,2.89,2.89,0,0,0-1.39.34,2.37,2.37,0,0,0-.95,1,2.94,2.94,0,0,0,0,2.78,2.37,2.37,0,0,0,.95,1,2.89,2.89,0,0,0,1.39.34,2.64,2.64,0,0,0,2.11-1l1.25,1.15a3.87,3.87,0,0,1-1.49,1.12,5.25,5.25,0,0,1-4.3-.17Z"/><path class="cls-1" d="M172.3,364.57l-1.62-2.34h-1.79v2.34H167v-8.4h3.63a4.63,4.63,0,0,1,1.94.37,2.9,2.9,0,0,1,1.27,1.06,2.93,2.93,0,0,1,.44,1.62,2.74,2.74,0,0,1-1.73,2.65l1.89,2.7Zm-.49-6.44a2.07,2.07,0,0,0-1.33-.38h-1.59v2.93h1.59a2.07,2.07,0,0,0,1.33-.38,1.53,1.53,0,0,0,0-2.17Z"/><path class="cls-1" d="M175.77,356.17h1.94v8.4h-1.94Z"/><path class="cls-1" d="M185.28,356.54a2.81,2.81,0,0,1,1.26,1.06,2.85,2.85,0,0,1,.45,1.62,2.89,2.89,0,0,1-.45,1.61,2.81,2.81,0,0,1-1.26,1.06,4.83,4.83,0,0,1-1.94.36h-1.69v2.32h-2v-8.4h3.64A4.66,4.66,0,0,1,185.28,356.54Zm-.72,3.75a1.3,1.3,0,0,0,.46-1.07,1.32,1.32,0,0,0-.46-1.09,2,2,0,0,0-1.33-.38h-1.58v2.92h1.58A2,2,0,0,0,184.56,360.29Z"/><path class="cls-1" d="M189.88,357.75h-2.69v-1.58h7.32v1.58h-2.69v6.82h-1.94Z"/><path class="cls-1" d="M194.9,362.81l1.64-2.34-1.64-2.36h1.68l1.69,2.36-1.69,2.34Zm2.71,0,1.64-2.34-1.64-2.36h1.68l1.69,2.36-1.69,2.34Z"/><path class="cls-1" d="M107.32,383.94v1.58H101v-1.26l3.24-3.06a3.64,3.64,0,0,0,.69-.84,1.56,1.56,0,0,0,.18-.71.92.92,0,0,0-.34-.77,1.59,1.59,0,0,0-1-.27,2.33,2.33,0,0,0-1,.21,1.94,1.94,0,0,0-.74.63l-1.42-.91a3.34,3.34,0,0,1,1.36-1.15,4.64,4.64,0,0,1,2-.41,4.17,4.17,0,0,1,1.64.3,2.58,2.58,0,0,1,1.09.87,2.23,2.23,0,0,1,.39,1.31,3,3,0,0,1-.29,1.29,4.86,4.86,0,0,1-1.11,1.36l-1.94,1.83Z"/><path class="cls-1" d="M109.84,385.15a3.42,3.42,0,0,1-1.28-1.49,6.16,6.16,0,0,1,0-4.67,3.5,3.5,0,0,1,1.28-1.5,3.42,3.42,0,0,1,1.86-.51,3.29,3.29,0,0,1,3.13,2,6,6,0,0,1,0,4.67,3.4,3.4,0,0,1-1.27,1.49,3.47,3.47,0,0,1-1.86.52A3.42,3.42,0,0,1,109.84,385.15Zm3.06-1.79a4.95,4.95,0,0,0,0-4.08,1.42,1.42,0,0,0-2.4,0,4.95,4.95,0,0,0,0,4.08,1.42,1.42,0,0,0,2.4,0Z"/><path class="cls-1" d="M119.41,377.12v8.4h-1.94v-6.84h-1.68v-1.56Z"/><path class="cls-1" d="M127.58,381.92a2.11,2.11,0,0,1,.33,1.17,2.16,2.16,0,0,1-.45,1.36,2.78,2.78,0,0,1-1.24.9,5.1,5.1,0,0,1-1.86.32,5,5,0,0,1-1.86-.32,2.75,2.75,0,0,1-1.23-.9,2.15,2.15,0,0,1-.44-1.36,2.11,2.11,0,0,1,.33-1.17,2.35,2.35,0,0,1,.94-.81,2.18,2.18,0,0,1-.72-.73,2,2,0,0,1-.25-1,2,2,0,0,1,.41-1.27,2.62,2.62,0,0,1,1.14-.84,4.54,4.54,0,0,1,1.68-.29,4.64,4.64,0,0,1,1.69.29,2.6,2.6,0,0,1,1.15.84,2.15,2.15,0,0,1,.16,2.27,2.16,2.16,0,0,1-.74.73A2.34,2.34,0,0,1,127.58,381.92Zm-2.07,2a1.05,1.05,0,0,0,.43-.88,1,1,0,0,0-.43-.88,1.83,1.83,0,0,0-1.15-.32,1.8,1.8,0,0,0-1.14.32,1.06,1.06,0,0,0-.42.88,1,1,0,0,0,.42.88,1.8,1.8,0,0,0,1.14.33A1.83,1.83,0,0,0,125.51,383.91Zm-2.1-5.22a1,1,0,0,0,0,1.53,1.51,1.51,0,0,0,1,.27,1.56,1.56,0,0,0,1-.27,1,1,0,0,0,0-1.53,1.5,1.5,0,0,0-1-.28A1.47,1.47,0,0,0,123.41,378.69Z"/><path class="cls-1" d="M58.05,137.06a2.07,2.07,0,0,1,.45,1.37,2,2,0,0,1-.8,1.67,4,4,0,0,1-2.35.58H51.48v-8.4h3.63a3.66,3.66,0,0,1,2.17.56,1.86,1.86,0,0,1,.78,1.6,2,2,0,0,1-.35,1.18,2,2,0,0,1-.94.73A2.27,2.27,0,0,1,58.05,137.06ZM52.37,133v3.05H55a2.73,2.73,0,0,0,1.58-.39,1.45,1.45,0,0,0,0-2.27A2.73,2.73,0,0,0,55,133ZM57,139.56a1.33,1.33,0,0,0,.57-1.2c0-1.05-.76-1.57-2.28-1.57h-3V140h3A3.09,3.09,0,0,0,57,139.56Z"/><path class="cls-1" d="M66.47,139.91v.77H60.53v-8.4h5.76v.77H61.42v3h4.34v.76H61.42v3.12Z"/><path class="cls-1" d="M69.91,140.2a4,4,0,0,1-1.57-1.53,4.49,4.49,0,0,1,0-4.38,4,4,0,0,1,1.57-1.53,4.95,4.95,0,0,1,4-.24,3.59,3.59,0,0,1,1.34.91l-.56.56a3.38,3.38,0,0,0-2.49-1,3.71,3.71,0,0,0-1.81.45,3.55,3.55,0,0,0-1.28,4.8,3.34,3.34,0,0,0,1.28,1.25,3.61,3.61,0,0,0,1.81.46,3.32,3.32,0,0,0,2.49-1l.56.56a3.53,3.53,0,0,1-1.35.92,4.67,4.67,0,0,1-1.73.32A4.52,4.52,0,0,1,69.91,140.2Z"/><path class="cls-1" d="M82.19,138.43H77.51l-1,2.25h-.92l3.84-8.4h.87l3.84,8.4H83.2Zm-.32-.72-2-4.51-2,4.51Z"/><path class="cls-1" d="M94.25,132.28v8.4H93.4V134l-3.3,5.65h-.42L86.38,134v6.69h-.85v-8.4h.73l3.64,6.23,3.62-6.23Z"/><path class="cls-1" d="M102.92,139.91v.77H97v-8.4h5.76v.77H97.87v3h4.35v.76H97.87v3.12Z"/><path class="cls-1" d="M113.42,138.43h-4.68l-1,2.25h-.93l3.84-8.4h.88l3.84,8.4h-.94Zm-.32-.72-2-4.51-2,4.51Z"/><path class="cls-1" d="M126.92,132.28v8.4h-.87V136.8h-5.26v3.88h-.89v-8.4h.89V136h5.26v-3.74Z"/><path class="cls-1" d="M135.6,139.91v.77h-5.94v-8.4h5.76v.77h-4.87v3h4.34v.76h-4.34v3.12Z"/><path class="cls-1" d="M143,138.43h-4.68l-1,2.25h-.93l3.84-8.4h.88l3.84,8.4H144Zm-.33-.72-2-4.51-2,4.51Z"/><path class="cls-1" d="M146.29,132.28h3.42a5.06,5.06,0,0,1,2.35.53,3.94,3.94,0,0,1,1.59,1.49,4.52,4.52,0,0,1,0,4.36,3.92,3.92,0,0,1-1.59,1.48,4.94,4.94,0,0,1-2.35.54h-3.42Zm3.37,7.63a4.14,4.14,0,0,0,1.94-.44,3.11,3.11,0,0,0,1.28-1.21,3.67,3.67,0,0,0,0-3.56,3.2,3.2,0,0,0-1.28-1.22,4.14,4.14,0,0,0-1.94-.43h-2.48v6.86Z"/><path class="cls-1" d="M160.76,140.19a4,4,0,0,1-1.59-1.53,4.47,4.47,0,0,1,0-4.37,4.18,4.18,0,0,1,1.59-1.53,4.9,4.9,0,0,1,4.51,0,4.15,4.15,0,0,1,1.58,1.53,4.49,4.49,0,0,1,0,4.38,4.15,4.15,0,0,1-1.58,1.53,4.86,4.86,0,0,1-4.51,0Zm4.06-.68a3.22,3.22,0,0,0,1.26-1.25,3.67,3.67,0,0,0,0-3.56,3.16,3.16,0,0,0-1.26-1.25A3.64,3.64,0,0,0,163,133a3.68,3.68,0,0,0-1.81.45,3.25,3.25,0,0,0-1.27,1.25,3.67,3.67,0,0,0,0,3.56,3.32,3.32,0,0,0,1.27,1.25A3.68,3.68,0,0,0,163,140,3.64,3.64,0,0,0,164.82,139.51Z"/><path class="cls-1" d="M170.3,133.05v3.3h4.35v.76H170.3v3.57h-.88v-8.4h5.76v.77Z"/><path class="cls-1" d="M68.71,146.68h3.42a5.08,5.08,0,0,1,2.35.53,3.85,3.85,0,0,1,1.58,1.49,4.45,4.45,0,0,1,0,4.36,3.83,3.83,0,0,1-1.58,1.48,5,5,0,0,1-2.35.54H68.71Zm3.37,7.63a4.1,4.1,0,0,0,1.93-.44,3.11,3.11,0,0,0,1.28-1.21,3.67,3.67,0,0,0,0-3.56A3.2,3.2,0,0,0,74,147.88a4.1,4.1,0,0,0-1.93-.43H69.59v6.86Z"/><path class="cls-1" d="M84.56,154.31v.77H78.62v-8.4h5.76v.77H79.51v3h4.34v.76H79.51v3.12Z"/><path class="cls-1" d="M92.31,147.45a2.89,2.89,0,0,1,0,4.21,3.81,3.81,0,0,1-2.52.77H87.53v2.65h-.88v-8.4h3.14A3.76,3.76,0,0,1,92.31,147.45Zm-.64,3.65a1.89,1.89,0,0,0,.66-1.54,1.93,1.93,0,0,0-.66-1.57,2.93,2.93,0,0,0-1.9-.54H87.53v4.2h2.24A2.93,2.93,0,0,0,91.67,151.1Z"/><path class="cls-1" d="M100,152.83H95.31l-1,2.25h-.92l3.84-8.4h.87l3.84,8.4H101Zm-.32-.72-2-4.51-2,4.51Z"/><path class="cls-1" d="M109.06,155.08l-1.92-2.7c-.21,0-.44,0-.67,0h-2.26v2.67h-.88v-8.4h3.14a3.76,3.76,0,0,1,2.52.77,2.59,2.59,0,0,1,.91,2.11,2.68,2.68,0,0,1-.5,1.66,2.74,2.74,0,0,1-1.42,1l2,2.88Zm-.71-4a2.17,2.17,0,0,0,0-3.12,2.93,2.93,0,0,0-1.9-.54h-2.24v4.21h2.24A2.93,2.93,0,0,0,108.35,151.11Z"/><path class="cls-1" d="M113.51,147.45h-3v-.77h6.79v.77H114.4v7.63h-.89Z"/><path class="cls-1" d="M124.71,154.31v.77h-5.94v-8.4h5.76v.77h-4.87v3H124v.76h-4.34v3.12Z"/><path class="cls-1" d="M135.52,146.68v8.4h-.85v-6.72l-3.3,5.65H131l-3.3-5.62v6.69h-.85v-8.4h.73l3.65,6.23,3.61-6.23Z"/><path class="cls-1" d="M144.2,154.31v.77h-5.94v-8.4H144v.77h-4.88v3h4.35v.76h-4.35v3.12Z"/><path class="cls-1" d="M153.3,146.68v8.4h-.73l-5.4-6.82v6.82h-.88v-8.4H147l5.41,6.81v-6.81Z"/><path class="cls-1" d="M157.67,147.45h-2.95v-.77h6.79v.77h-2.95v7.63h-.89Z"/><path class="cls-1" d="M107.72,174.45V176h-6.34v-1.26l3.24-3.06a3.44,3.44,0,0,0,.69-.84,1.55,1.55,0,0,0,.18-.7.93.93,0,0,0-.34-.78,1.59,1.59,0,0,0-1-.27,2.33,2.33,0,0,0-1,.21,1.94,1.94,0,0,0-.74.63l-1.42-.91a3.34,3.34,0,0,1,1.36-1.15,4.58,4.58,0,0,1,2-.41,4,4,0,0,1,1.64.31,2.54,2.54,0,0,1,1.09.86,2.23,2.23,0,0,1,.39,1.31,3,3,0,0,1-.29,1.29,4.9,4.9,0,0,1-1.12,1.37l-1.93,1.82Z"/><path class="cls-1" d="M110.24,175.66a3.4,3.4,0,0,1-1.27-1.49,6,6,0,0,1,0-4.67,3.33,3.33,0,0,1,3.13-2A3.34,3.34,0,0,1,114,168a3.42,3.42,0,0,1,1.28,1.49,6.16,6.16,0,0,1,0,4.67,3.42,3.42,0,0,1-1.28,1.49,3.34,3.34,0,0,1-1.86.52A3.39,3.39,0,0,1,110.24,175.66Zm3.07-1.79a4.95,4.95,0,0,0,0-4.08,1.42,1.42,0,0,0-2.4,0,4.95,4.95,0,0,0,0,4.08,1.42,1.42,0,0,0,2.4,0Z"/><path class="cls-1" d="M119.82,167.63V176h-1.94v-6.84H116.2v-1.56Z"/><path class="cls-1" d="M126.9,171.88a2.25,2.25,0,0,1,.59,1.59,2.52,2.52,0,0,1-.39,1.35,2.63,2.63,0,0,1-1.17,1,4.56,4.56,0,0,1-1.92.37,6.48,6.48,0,0,1-1.75-.24,4.36,4.36,0,0,1-1.46-.66l.76-1.49a3.62,3.62,0,0,0,1.11.56,4.34,4.34,0,0,0,1.29.2,2,2,0,0,0,1.15-.29.89.89,0,0,0,.42-.79c0-.69-.52-1-1.57-1h-.89v-1.28l1.73-2h-3.58v-1.56h5.88v1.26l-1.89,2.16A2.83,2.83,0,0,1,126.9,171.88Z"/><circle class="cls-1" cx="230.58" cy="72.89" r="3.77"/><path class="cls-4" d="M230.58,73.4H.5a.5.5,0,0,1-.5-.5.5.5,0,0,1,.5-.5H230.58a.5.5,0,0,1,.5.5A.51.51,0,0,1,230.58,73.4Z"/><circle class="cls-1" cx="230.58" cy="207.22" r="3.77"/><path class="cls-5" d="M461.5,207.72H230.58a.5.5,0,0,1-.5-.5.5.5,0,0,1,.5-.5H461.5a.5.5,0,0,1,.5.5A.5.5,0,0,1,461.5,207.72Z"/><circle class="cls-1" cx="230.58" cy="162.13" r="3.77"/><path class="cls-6" d="M230.58,162.63H.5a.5.5,0,0,1-.5-.5.5.5,0,0,1,.5-.5H230.58a.5.5,0,0,1,.5.5A.51.51,0,0,1,230.58,162.63Z"/><circle class="cls-1" cx="230.58" cy="326.56" r="3.77"/><path class="cls-7" d="M461.5,327.06H230.58a.5.5,0,0,1-.5-.5.5.5,0,0,1,.5-.5H461.5a.5.5,0,0,1,.5.5A.5.5,0,0,1,461.5,327.06Z"/><circle class="cls-1" cx="230.58" cy="267.5" r="3.77"/><path class="cls-8" d="M230.58,268H.5a.5.5,0,0,1-.5-.5.5.5,0,0,1,.5-.5H230.58a.5.5,0,0,1,.5.5A.51.51,0,0,1,230.58,268Z"/><circle class="cls-1" cx="230.58" cy="371.62" r="3.77"/><path class="cls-9" d="M230.58,372.12H.5a.5.5,0,0,1-.5-.5.5.5,0,0,1,.5-.5H230.58a.5.5,0,0,1,.5.5A.51.51,0,0,1,230.58,372.12Z"/></g></g></svg>