<svg xmlns="http://www.w3.org/2000/svg" viewBox="0 0 1027.48 156.06"><defs><style>.cls-1,.cls-2,.cls-3,.cls-5{fill:none;stroke:#201600;}.cls-1,.cls-5{stroke-linecap:round;}.cls-1,.cls-2,.cls-3{stroke-miterlimit:10;}.cls-1,.cls-2{stroke-width:2px;}.cls-4{fill:#201600;}.cls-5{stroke-linejoin:round;}</style></defs><title>34563mxdgnf,s</title><g id="Слой_2" data-name="Слой 2"><g id="Слой_1-2" data-name="Слой 1"><line class="cls-1" x1="6.54" y1="79.65" x2="1026.48" y2="79.65"/><path class="cls-2" d="M30.27,30.29l-2.83,8.4h-.93l-2.46-7.16-2.47,7.16h-.93l-2.83-8.4h.91l2.42,7.23,2.51-7.23h.83L27,37.55l2.46-7.26Z"/><path class="cls-2" d="M36.91,36.45H32.23l-1,2.24H30.3l3.84-8.4H35l3.83,8.4h-.93Zm-.32-.72-2-4.51-2,4.51Z"/><path class="cls-2" d="M40.77,38.47a3.3,3.3,0,0,1-1.33-.8l.35-.68a3.41,3.41,0,0,0,1.21.74,4.43,4.43,0,0,0,1.56.28,2.88,2.88,0,0,0,1.69-.41,1.29,1.29,0,0,0,.57-1.08,1.05,1.05,0,0,0-.31-.8,1.9,1.9,0,0,0-.75-.46,11.85,11.85,0,0,0-1.23-.36A12.38,12.38,0,0,1,41,34.44a2.45,2.45,0,0,1-1-.68,1.77,1.77,0,0,1-.4-1.23A2.12,2.12,0,0,1,40,31.37a2.34,2.34,0,0,1,1-.84,4.3,4.3,0,0,1,1.72-.31,5.16,5.16,0,0,1,1.41.2,3.9,3.9,0,0,1,1.2.55l-.3.7A4.24,4.24,0,0,0,42.74,31a2.75,2.75,0,0,0-1.66.42,1.34,1.34,0,0,0-.56,1.1,1.06,1.06,0,0,0,.31.81,1.93,1.93,0,0,0,.77.47,10.87,10.87,0,0,0,1.24.35c.62.16,1.11.31,1.49.45a2.55,2.55,0,0,1,1,.68,1.78,1.78,0,0,1,.39,1.21,2,2,0,0,1-.34,1.16,2.28,2.28,0,0,1-1.05.83,4.44,4.44,0,0,1-1.74.31A5.38,5.38,0,0,1,40.77,38.47Z"/><path class="cls-2" d="M57.34,35.08a2,2,0,0,1,.45,1.37,1.94,1.94,0,0,1-.8,1.66,4,4,0,0,1-2.36.58H50.77v-8.4H54.4a3.59,3.59,0,0,1,2.17.57,1.85,1.85,0,0,1,.78,1.59,2,2,0,0,1-1.29,1.91A2.22,2.22,0,0,1,57.34,35.08Zm-5.68-4v3h2.67a2.73,2.73,0,0,0,1.58-.39,1.44,1.44,0,0,0,0-2.26A2.73,2.73,0,0,0,54.33,31Zm4.67,6.55a1.35,1.35,0,0,0,.57-1.2c0-1.05-.76-1.57-2.28-1.57h-3V38h3A3.19,3.19,0,0,0,56.33,37.58Z"/><path class="cls-2" d="M61.23,38.21a4,4,0,0,1-1.59-1.53,4.47,4.47,0,0,1,0-4.37,4,4,0,0,1,1.59-1.53,4.62,4.62,0,0,1,2.26-.56,4.68,4.68,0,0,1,2.25.55,4.15,4.15,0,0,1,1.58,1.53,4.31,4.31,0,0,1,.57,2.19,4.26,4.26,0,0,1-.57,2.19,4,4,0,0,1-1.58,1.53,4.82,4.82,0,0,1-4.51,0Zm4.06-.69a3.2,3.2,0,0,0,1.26-1.24A3.61,3.61,0,0,0,67,34.49a3.57,3.57,0,0,0-.46-1.78,3.22,3.22,0,0,0-1.26-1.25,3.64,3.64,0,0,0-1.8-.45,3.68,3.68,0,0,0-1.81.45,3.32,3.32,0,0,0-1.27,1.25A3.47,3.47,0,0,0,60,34.49a3.51,3.51,0,0,0,.46,1.79,3.29,3.29,0,0,0,1.27,1.24,3.68,3.68,0,0,0,1.81.45A3.64,3.64,0,0,0,65.29,37.52Z"/><path class="cls-2" d="M75.62,38.69,73.7,36A4.83,4.83,0,0,1,73,36H70.77v2.66h-.88v-8.4H73a3.81,3.81,0,0,1,2.52.77,2.61,2.61,0,0,1,.91,2.11,2.59,2.59,0,0,1-1.92,2.64l2,2.88Zm-.71-4a2.16,2.16,0,0,0,0-3.11,2.87,2.87,0,0,0-1.9-.55H70.77v4.21H73A2.87,2.87,0,0,0,74.91,34.72Z"/><path class="cls-2" d="M85.58,30.29v8.4h-.73l-5.4-6.81v6.81h-.89v-8.4h.73l5.42,6.82V30.29Z"/><path class="cls-3" d="M24.12,58.23v1.58H17.77V58.55L21,55.49a3.53,3.53,0,0,0,.7-.84,1.55,1.55,0,0,0,.18-.7.93.93,0,0,0-.35-.78,1.57,1.57,0,0,0-1-.27,2.25,2.25,0,0,0-1,.21,1.9,1.9,0,0,0-.75.63l-1.41-.91a3.31,3.31,0,0,1,1.35-1.15,4.64,4.64,0,0,1,2-.41,4,4,0,0,1,1.64.31,2.49,2.49,0,0,1,1.09.86,2.23,2.23,0,0,1,.39,1.31A3,3,0,0,1,23.56,55a5.29,5.29,0,0,1-1.12,1.37l-1.93,1.82Z"/><path class="cls-3" d="M28.16,51.41v8.4H26.22V53H24.54V51.41Z"/><path class="cls-3" d="M29.9,59.57a1.14,1.14,0,0,1-.33-.84,1.1,1.1,0,0,1,.33-.83,1.24,1.24,0,0,1,1.66,0,1.1,1.1,0,0,1,.33.83,1.14,1.14,0,0,1-.33.84,1.18,1.18,0,0,1-1.66,0Z"/><path class="cls-3" d="M35.82,51.41v8.4h-2V53H32.19V51.41Z"/><path class="cls-3" d="M39,59.44A3.4,3.4,0,0,1,37.75,58a6,6,0,0,1,0-4.67,3.33,3.33,0,0,1,3.13-2,3.34,3.34,0,0,1,1.86.52A3.42,3.42,0,0,1,44,53.28,6.16,6.16,0,0,1,44,58a3.42,3.42,0,0,1-1.28,1.49,3.34,3.34,0,0,1-1.86.52A3.39,3.39,0,0,1,39,59.44Zm3.07-1.79a4.95,4.95,0,0,0,0-4.08,1.42,1.42,0,0,0-2.4,0,4.95,4.95,0,0,0,0,4.08,1.42,1.42,0,0,0,2.4,0Z"/><path class="cls-3" d="M45.55,59.57a1.14,1.14,0,0,1-.33-.84,1.1,1.1,0,0,1,.33-.83,1.16,1.16,0,0,1,.83-.32,1.18,1.18,0,0,1,.83.32,1.1,1.1,0,0,1,.33.83,1.14,1.14,0,0,1-.33.84,1.12,1.12,0,0,1-.83.34A1.1,1.1,0,0,1,45.55,59.57Z"/><path class="cls-3" d="M51.47,51.41v8.4H49.52V53H47.84V51.41Z"/><path class="cls-3" d="M58.64,52.34a4.37,4.37,0,0,1,1,3.09,5.15,5.15,0,0,1-.54,2.45,3.57,3.57,0,0,1-1.5,1.55,4.67,4.67,0,0,1-2.25.53,5.4,5.4,0,0,1-1.28-.15,3.19,3.19,0,0,1-1-.43L53.75,58a2.7,2.7,0,0,0,1.57.42A2.28,2.28,0,0,0,57,57.74a2.59,2.59,0,0,0,.67-1.81,2.83,2.83,0,0,1-2.09.75,3.36,3.36,0,0,1-1.46-.32,2.51,2.51,0,0,1-1-.92,2.44,2.44,0,0,1-.39-1.37,2.62,2.62,0,0,1,.42-1.48,2.76,2.76,0,0,1,1.15-1,3.69,3.69,0,0,1,1.61-.34A3.59,3.59,0,0,1,58.64,52.34Zm-1.58,2.54a1.16,1.16,0,0,0,.41-.91,1.14,1.14,0,0,0-.39-.9A1.58,1.58,0,0,0,56,52.72a1.47,1.47,0,0,0-1,.34,1.14,1.14,0,0,0-.39.91,1.17,1.17,0,0,0,.39.92,1.72,1.72,0,0,0,2.07,0Z"/><path class="cls-3" d="M67.28,56.21a2.11,2.11,0,0,1,.33,1.17,2.16,2.16,0,0,1-.45,1.36,2.78,2.78,0,0,1-1.24.9,5.1,5.1,0,0,1-1.86.32,5,5,0,0,1-1.86-.32,2.84,2.84,0,0,1-1.24-.9,2.21,2.21,0,0,1-.43-1.36,2.11,2.11,0,0,1,.33-1.17,2.42,2.42,0,0,1,.94-.81,2.09,2.09,0,0,1-.72-.73,1.93,1.93,0,0,1-.25-1,2,2,0,0,1,.4-1.27,2.74,2.74,0,0,1,1.14-.84,5.07,5.07,0,0,1,3.38,0,2.6,2.6,0,0,1,1.15.84,2.05,2.05,0,0,1,.41,1.27,2,2,0,0,1-.25,1,2.07,2.07,0,0,1-.74.73A2.42,2.42,0,0,1,67.28,56.21Zm-2.07,2a1.12,1.12,0,0,0,0-1.76,1.89,1.89,0,0,0-1.15-.32,1.82,1.82,0,0,0-1.14.32,1,1,0,0,0-.42.88,1.05,1.05,0,0,0,.42.89,2.18,2.18,0,0,0,2.29,0ZM63.11,53a1,1,0,0,0-.35.77.9.9,0,0,0,.35.76,1.49,1.49,0,0,0,1,.28,1.58,1.58,0,0,0,1-.28.92.92,0,0,0,.35-.76A1,1,0,0,0,65,53a1.52,1.52,0,0,0-1-.28A1.47,1.47,0,0,0,63.11,53Z"/><path class="cls-3" d="M74,54.87a2.6,2.6,0,0,1,1,.92,2.49,2.49,0,0,1,.38,1.37A2.64,2.64,0,0,1,75,58.64a2.76,2.76,0,0,1-1.15,1,3.83,3.83,0,0,1-1.61.34,3.56,3.56,0,0,1-2.76-1.08,4.42,4.42,0,0,1-1-3.09A5.14,5.14,0,0,1,69,53.35a3.76,3.76,0,0,1,1.51-1.55,4.61,4.61,0,0,1,2.24-.53,5.43,5.43,0,0,1,1.29.15,3.35,3.35,0,0,1,1.05.43l-.72,1.42a2.76,2.76,0,0,0-1.57-.42,2.29,2.29,0,0,0-1.7.63,2.62,2.62,0,0,0-.67,1.81,2.8,2.8,0,0,1,2.08-.74A3.22,3.22,0,0,1,74,54.87Zm-.84,3.3a1.14,1.14,0,0,0,.39-.91,1.16,1.16,0,0,0-.39-.92,1.52,1.52,0,0,0-1-.34,1.58,1.58,0,0,0-1.05.35,1.23,1.23,0,0,0,0,1.81,1.61,1.61,0,0,0,1.08.35A1.53,1.53,0,0,0,73.16,58.17Z"/><path class="cls-2" d="M112.18,96.27v8.4h-.86V98L108,103.6h-.42L104.3,98v6.69h-.85v-8.4h.73l3.65,6.23,3.61-6.23Z"/><path class="cls-2" d="M120.18,102.42H115.5l-1,2.25h-.92l3.84-8.4h.87l3.84,8.4h-.93Zm-.32-.72-2-4.51-2,4.51Z"/><path class="cls-2" d="M124,104.44a3.29,3.29,0,0,1-1.33-.79l.35-.69a3.27,3.27,0,0,0,1.21.74,4.43,4.43,0,0,0,1.56.28,2.81,2.81,0,0,0,1.69-.41,1.27,1.27,0,0,0,.57-1.07,1.06,1.06,0,0,0-.31-.81,2,2,0,0,0-.75-.46,10.06,10.06,0,0,0-1.23-.35,12.38,12.38,0,0,1-1.52-.47,2.46,2.46,0,0,1-1-.67,1.81,1.81,0,0,1-.4-1.24,2.14,2.14,0,0,1,.33-1.16,2.34,2.34,0,0,1,1-.83A4.22,4.22,0,0,1,126,96.2a5.16,5.16,0,0,1,1.41.19,4.42,4.42,0,0,1,1.2.55l-.3.71a4.13,4.13,0,0,0-1.13-.52A4.08,4.08,0,0,0,126,97a2.68,2.68,0,0,0-1.66.43,1.32,1.32,0,0,0-.56,1.1,1.09,1.09,0,0,0,.31.81,1.91,1.91,0,0,0,.77.46c.3.11.72.23,1.24.36a12,12,0,0,1,1.49.45,2.53,2.53,0,0,1,1,.67,1.81,1.81,0,0,1,.39,1.22,2.07,2.07,0,0,1-.34,1.16,2.33,2.33,0,0,1-1.05.82,4.27,4.27,0,0,1-1.74.31A5.38,5.38,0,0,1,124,104.44Z"/><path class="cls-2" d="M132.41,97h-2.95v-.77h6.79V97H133.3v7.63h-.89Z"/><path class="cls-2" d="M143.6,103.9v.77h-5.94v-8.4h5.76V97h-4.87v3h4.35v.76h-4.35v3.12Z"/><path class="cls-2" d="M151.43,104.67l-1.92-2.7c-.22,0-.44,0-.67,0h-2.26v2.67h-.89v-8.4h3.15a3.76,3.76,0,0,1,2.52.77,2.62,2.62,0,0,1,.91,2.11,2.75,2.75,0,0,1-.5,1.66,2.78,2.78,0,0,1-1.42,1l2.05,2.88Zm-.71-4a2.17,2.17,0,0,0,0-3.12,3,3,0,0,0-1.91-.54h-2.23v4.21h2.23A3,3,0,0,0,150.72,100.7Z"/><path class="cls-2" d="M154.89,104.44a3.29,3.29,0,0,1-1.33-.79l.35-.69a3.27,3.27,0,0,0,1.21.74,4.43,4.43,0,0,0,1.56.28,2.79,2.79,0,0,0,1.69-.41,1.27,1.27,0,0,0,.57-1.07,1.06,1.06,0,0,0-.31-.81,2,2,0,0,0-.75-.46,10.06,10.06,0,0,0-1.23-.35,12.15,12.15,0,0,1-1.51-.47,2.42,2.42,0,0,1-1-.67,1.81,1.81,0,0,1-.4-1.24,2.14,2.14,0,0,1,.33-1.16,2.32,2.32,0,0,1,1-.83,4.13,4.13,0,0,1,1.72-.31,5.16,5.16,0,0,1,1.41.19,4.42,4.42,0,0,1,1.2.55l-.3.71a4.13,4.13,0,0,0-1.13-.52,4.08,4.08,0,0,0-1.18-.18,2.68,2.68,0,0,0-1.66.43,1.32,1.32,0,0,0-.56,1.1,1.13,1.13,0,0,0,.31.81,1.91,1.91,0,0,0,.77.46c.3.11.72.23,1.24.36a11.51,11.51,0,0,1,1.49.45,2.53,2.53,0,0,1,1,.67,1.81,1.81,0,0,1,.39,1.22,2.07,2.07,0,0,1-.34,1.16,2.23,2.23,0,0,1-1.05.82,4.27,4.27,0,0,1-1.74.31A5.38,5.38,0,0,1,154.89,104.44Z"/><path class="cls-2" d="M164.89,96.27h3.42a5.06,5.06,0,0,1,2.35.53,3.94,3.94,0,0,1,1.59,1.49,4.52,4.52,0,0,1,0,4.36,3.92,3.92,0,0,1-1.59,1.48,4.94,4.94,0,0,1-2.35.54h-3.42Zm3.37,7.63a4.07,4.07,0,0,0,1.93-.44,3.14,3.14,0,0,0,1.29-1.21,3.75,3.75,0,0,0,0-3.56,3.23,3.23,0,0,0-1.29-1.22,4.07,4.07,0,0,0-1.93-.43h-2.48v6.86Z"/><path class="cls-2" d="M180.74,103.9v.77H174.8v-8.4h5.76V97h-4.87v3H180v.76h-4.34v3.12Z"/><path class="cls-2" d="M188.7,100.47h.85v3.2a4,4,0,0,1-1.39.79,5,5,0,0,1-1.69.28,4.62,4.62,0,0,1-2.27-.55,4.17,4.17,0,0,1-1.59-1.53,4.49,4.49,0,0,1,0-4.38,4.17,4.17,0,0,1,1.59-1.53,4.63,4.63,0,0,1,2.28-.55,5,5,0,0,1,1.76.3,3.58,3.58,0,0,1,1.36.91l-.55.56a3.49,3.49,0,0,0-2.54-1,3.77,3.77,0,0,0-1.84.45,3.23,3.23,0,0,0-1.29,1.25,3.45,3.45,0,0,0-.47,1.78,3.42,3.42,0,0,0,.47,1.77,3.3,3.3,0,0,0,1.29,1.25,3.61,3.61,0,0,0,1.83.46,3.67,3.67,0,0,0,2.2-.65Z"/><path class="cls-2" d="M197.79,104.67l-1.92-2.7c-.21,0-.44,0-.67,0H193v2.67h-.89v-8.4h3.14a3.76,3.76,0,0,1,2.52.77,2.59,2.59,0,0,1,.91,2.11,2.74,2.74,0,0,1-.49,1.66,2.81,2.81,0,0,1-1.43,1l2.06,2.88Zm-.7-4a2.17,2.17,0,0,0,0-3.12,3,3,0,0,0-1.91-.54H193v4.21h2.23A3,3,0,0,0,197.09,100.7Z"/><path class="cls-2" d="M206.67,103.9v.77h-5.94v-8.4h5.76V97h-4.87v3H206v.76h-4.35v3.12Z"/><path class="cls-2" d="M214.7,103.9v.77h-5.94v-8.4h5.76V97h-4.87v3H214v.76h-4.34v3.12Z"/><path class="cls-2" d="M103.45,110.67h.89v8.4h-.89Z"/><path class="cls-2" d="M114.1,110.67v8.4h-.74l-5.4-6.82v6.82h-.88v-8.4h.73l5.41,6.81v-6.81Z"/><path class="cls-2" d="M120,110.67h.88v8.4H120Z"/><path class="cls-2" d="M130.62,110.67v8.4h-.73l-5.4-6.82v6.82h-.89v-8.4h.73l5.41,6.81v-6.81Z"/><path class="cls-2" d="M135,111.44h-3v-.77h6.8v.77h-3v7.63H135Z"/><path class="cls-2" d="M146.18,118.3v.77h-5.94v-8.4H146v.77h-4.87v3h4.34v.76h-4.34v3.12Z"/><path class="cls-2" d="M154,119.07l-1.92-2.7c-.22,0-.44,0-.68,0h-2.25v2.67h-.89v-8.4h3.14a3.72,3.72,0,0,1,2.52.77,2.6,2.6,0,0,1,.92,2.11,2.75,2.75,0,0,1-.5,1.66,2.78,2.78,0,0,1-1.42,1l2,2.88Zm-.71-4a2.17,2.17,0,0,0,0-3.12,3,3,0,0,0-1.91-.54h-2.23v4.21h2.23A3,3,0,0,0,153.3,115.1Z"/><path class="cls-2" d="M164,110.67v8.4h-.74l-5.4-6.82v6.82H157v-8.4h.73l5.41,6.81v-6.81Z"/><path class="cls-2" d="M172,116.82h-4.68l-1,2.25h-.92l3.84-8.4h.87l3.84,8.4H173Zm-.32-.72-2-4.51-2,4.51Z"/><path class="cls-2" d="M176.52,111.44h-3v-.77h6.79v.77h-3v7.63h-.89Z"/><path class="cls-2" d="M181.77,110.67h.89v8.4h-.89Z"/><path class="cls-2" d="M186.81,118.58a4,4,0,0,1-1.59-1.53,4.47,4.47,0,0,1,0-4.37,4.18,4.18,0,0,1,1.59-1.53,4.9,4.9,0,0,1,4.51,0,4.15,4.15,0,0,1,1.58,1.53,4.49,4.49,0,0,1,0,4.38,4.15,4.15,0,0,1-1.58,1.53,4.86,4.86,0,0,1-4.51,0Zm4.06-.68a3.22,3.22,0,0,0,1.26-1.25,3.67,3.67,0,0,0,0-3.56,3.16,3.16,0,0,0-1.26-1.25,3.64,3.64,0,0,0-1.8-.45,3.68,3.68,0,0,0-1.81.45,3.25,3.25,0,0,0-1.27,1.25,3.67,3.67,0,0,0,0,3.56,3.32,3.32,0,0,0,1.27,1.25,3.68,3.68,0,0,0,1.81.45A3.64,3.64,0,0,0,190.87,117.9Z"/><path class="cls-2" d="M202.49,110.67v8.4h-.74l-5.4-6.82v6.82h-.88v-8.4h.73l5.41,6.81v-6.81Z"/><path class="cls-2" d="M210.49,116.82h-4.68l-1,2.25h-.92l3.84-8.4h.87l3.84,8.4h-.93Zm-.32-.72-2-4.51-2,4.51Z"/><path class="cls-2" d="M213.83,110.67h.88v7.63h4.71v.77h-5.59Z"/><path class="cls-2" d="M109.39,132.7v.77h-5.94v-8.4h5.76v.77h-4.87v3h4.34v.76h-4.34v3.12Z"/><path class="cls-2" d="M112.83,133a4.05,4.05,0,0,1-1.57-1.53,4.49,4.49,0,0,1,0-4.38,4,4,0,0,1,1.58-1.53,4.57,4.57,0,0,1,2.25-.55,4.63,4.63,0,0,1,1.73.31,3.51,3.51,0,0,1,1.34.91l-.56.56a3.35,3.35,0,0,0-2.48-1,3.72,3.72,0,0,0-1.82.45,3.32,3.32,0,0,0-1.27,1.25,3.45,3.45,0,0,0-.47,1.78A3.42,3.42,0,0,0,112,131a3.25,3.25,0,0,0,1.27,1.25,3.62,3.62,0,0,0,1.82.46,3.32,3.32,0,0,0,2.48-1l.56.56a3.49,3.49,0,0,1-1.35.92,4.67,4.67,0,0,1-1.73.32A4.57,4.57,0,0,1,112.83,133Z"/><path class="cls-2" d="M121.29,133a4,4,0,0,1-1.58-1.53,4.47,4.47,0,0,1,0-4.37,4.08,4.08,0,0,1,1.58-1.53,4.64,4.64,0,0,1,2.26-.55,4.57,4.57,0,0,1,2.25.55,4.08,4.08,0,0,1,1.58,1.53,4.42,4.42,0,0,1,0,4.38A4.08,4.08,0,0,1,125.8,133a4.57,4.57,0,0,1-2.25.55A4.64,4.64,0,0,1,121.29,133Zm4.06-.68a3.22,3.22,0,0,0,1.26-1.25,3.67,3.67,0,0,0,0-3.56,3.16,3.16,0,0,0-1.26-1.25,3.83,3.83,0,0,0-3.6,0,3.27,3.27,0,0,0-1.28,1.25,3.67,3.67,0,0,0,0,3.56,3.34,3.34,0,0,0,1.28,1.25,3.82,3.82,0,0,0,3.6,0Z"/><path class="cls-2" d="M137,125.07v8.4h-.74l-5.4-6.82v6.82H130v-8.4h.73l5.41,6.81v-6.81Z"/><path class="cls-2" d="M141.11,133a4.08,4.08,0,0,1-1.58-1.53,4.25,4.25,0,0,1,1.58-5.9,4.64,4.64,0,0,1,2.26-.55,4.52,4.52,0,0,1,2.25.55,4.08,4.08,0,0,1,1.58,1.53,4.42,4.42,0,0,1,0,4.38,4.08,4.08,0,0,1-1.58,1.53,4.52,4.52,0,0,1-2.25.55A4.64,4.64,0,0,1,141.11,133Zm4.06-.68a3.32,3.32,0,0,0,1.27-1.25,3.75,3.75,0,0,0,0-3.56,3.25,3.25,0,0,0-1.27-1.25,3.59,3.59,0,0,0-1.8-.45,3.64,3.64,0,0,0-1.8.45,3.18,3.18,0,0,0-1.27,1.25,3.61,3.61,0,0,0,0,3.56,3.25,3.25,0,0,0,1.27,1.25,3.64,3.64,0,0,0,1.8.45A3.59,3.59,0,0,0,145.17,132.3Z"/><path class="cls-2" d="M158.49,125.07v8.4h-.85v-6.72l-3.3,5.65h-.42l-3.3-5.62v6.69h-.85v-8.4h.73l3.65,6.23,3.61-6.23Z"/><path class="cls-2" d="M161.23,125.07h.89v8.4h-.89Z"/><path class="cls-2" d="M166.25,133a4.05,4.05,0,0,1-1.57-1.53,4.49,4.49,0,0,1,0-4.38,4.08,4.08,0,0,1,1.58-1.53,4.57,4.57,0,0,1,2.25-.55,4.63,4.63,0,0,1,1.73.31,3.62,3.62,0,0,1,1.35.91l-.57.56a3.34,3.34,0,0,0-2.48-1,3.65,3.65,0,0,0-1.81.45,3.34,3.34,0,0,0-1.28,1.25,3.45,3.45,0,0,0-.46,1.78,3.41,3.41,0,0,0,.46,1.77,3.27,3.27,0,0,0,1.28,1.25,3.56,3.56,0,0,0,1.81.46,3.3,3.3,0,0,0,2.48-1l.57.56a3.65,3.65,0,0,1-1.35.92,4.72,4.72,0,0,1-1.74.32A4.57,4.57,0,0,1,166.25,133Z"/><path class="cls-2" d="M174,133.24a3.22,3.22,0,0,1-1.33-.79l.35-.69a3.27,3.27,0,0,0,1.21.74,4.35,4.35,0,0,0,1.56.28,2.81,2.81,0,0,0,1.69-.41,1.27,1.27,0,0,0,.57-1.07,1.1,1.1,0,0,0-.31-.81A2,2,0,0,0,177,130a10.3,10.3,0,0,0-1.24-.35,12.72,12.72,0,0,1-1.51-.47,2.39,2.39,0,0,1-1-.67,1.82,1.82,0,0,1-.41-1.24,2.15,2.15,0,0,1,.34-1.16,2.29,2.29,0,0,1,1-.83,4.22,4.22,0,0,1,1.73-.31,5.16,5.16,0,0,1,1.41.19,4.22,4.22,0,0,1,1.19.55l-.3.71a3.94,3.94,0,0,0-1.12-.52,4.13,4.13,0,0,0-1.18-.18,2.66,2.66,0,0,0-1.66.43,1.32,1.32,0,0,0-.56,1.1,1.09,1.09,0,0,0,.31.81,1.94,1.94,0,0,0,.76.46c.31.11.73.23,1.25.36a12,12,0,0,1,1.49.45,2.53,2.53,0,0,1,1,.67,1.81,1.81,0,0,1,.39,1.22,2.07,2.07,0,0,1-.34,1.16,2.33,2.33,0,0,1-1,.82,4.27,4.27,0,0,1-1.74.31A5.38,5.38,0,0,1,174,133.24Z"/><path class="cls-3" d="M108.83,153.83v1.59h-6.35v-1.26l3.24-3.06a3.54,3.54,0,0,0,.7-.85,1.52,1.52,0,0,0,.18-.7.92.92,0,0,0-.35-.77,1.57,1.57,0,0,0-1-.27,2.25,2.25,0,0,0-1,.21,1.9,1.9,0,0,0-.75.63l-1.41-.92a3.29,3.29,0,0,1,1.35-1.14,4.5,4.5,0,0,1,2-.42,4.14,4.14,0,0,1,1.64.31,2.49,2.49,0,0,1,1.09.86,2.26,2.26,0,0,1,.39,1.32,2.82,2.82,0,0,1-.29,1.28,4.88,4.88,0,0,1-1.11,1.37l-1.93,1.82Z"/><path class="cls-3" d="M111.35,155.05a3.5,3.5,0,0,1-1.28-1.5,6.16,6.16,0,0,1,0-4.67,3.36,3.36,0,0,1,3.14-2,3.36,3.36,0,0,1,3.14,2,6.16,6.16,0,0,1,0,4.67,3.57,3.57,0,0,1-1.28,1.5,3.47,3.47,0,0,1-1.86.51A3.42,3.42,0,0,1,111.35,155.05Zm3.06-1.79a4.95,4.95,0,0,0,0-4.08,1.42,1.42,0,0,0-2.4,0,5.05,5.05,0,0,0,0,4.08,1.42,1.42,0,0,0,2.4,0Z"/><path class="cls-3" d="M119.5,155.05a3.44,3.44,0,0,1-1.28-1.5,6,6,0,0,1,0-4.67,3.36,3.36,0,0,1,1.28-1.49,3.41,3.41,0,0,1,1.85-.52,3.48,3.48,0,0,1,1.87.52,3.4,3.4,0,0,1,1.27,1.49,6,6,0,0,1,0,4.67,3.29,3.29,0,0,1-3.14,2A3.41,3.41,0,0,1,119.5,155.05Zm3.06-1.79a4.95,4.95,0,0,0,0-4.08,1.42,1.42,0,0,0-2.4,0,4.95,4.95,0,0,0,0,4.08,1.42,1.42,0,0,0,2.4,0Z"/><path class="cls-3" d="M131.62,148a4.38,4.38,0,0,1,1,3.09,5.31,5.31,0,0,1-.53,2.45,3.62,3.62,0,0,1-1.51,1.54,4.55,4.55,0,0,1-2.24.53,5.43,5.43,0,0,1-1.29-.15,3.65,3.65,0,0,1-1-.42l.72-1.43a2.72,2.72,0,0,0,1.57.42,2.26,2.26,0,0,0,1.69-.63,2.67,2.67,0,0,0,.68-1.82,2.85,2.85,0,0,1-2.09.76,3.24,3.24,0,0,1-1.47-.33,2.45,2.45,0,0,1-1-.92,2.41,2.41,0,0,1-.38-1.37,2.57,2.57,0,0,1,.42-1.48,2.64,2.64,0,0,1,1.14-1,3.72,3.72,0,0,1,1.61-.35A3.59,3.59,0,0,1,131.62,148ZM130,150.48a1.16,1.16,0,0,0,.4-.91,1.17,1.17,0,0,0-.39-.9,1.56,1.56,0,0,0-1.07-.34,1.53,1.53,0,0,0-1,.33,1.27,1.27,0,0,0,0,1.83,1.74,1.74,0,0,0,2.08,0Z"/><path class="cls-2" d="M181.08,24.05a2.57,2.57,0,0,1-1-.88l.53-.6a2.12,2.12,0,0,0,1.81,1c1,0,1.56-.62,1.56-1.85V16.66h-3.07v-.77h4v5.82a2.84,2.84,0,0,1-.62,2,2.39,2.39,0,0,1-1.83.67A2.87,2.87,0,0,1,181.08,24.05Z"/><path class="cls-2" d="M188.93,23.81a4.08,4.08,0,0,1-1.58-1.53,4.47,4.47,0,0,1,0-4.37,4.08,4.08,0,0,1,1.58-1.53,4.86,4.86,0,0,1,4.51,0A4.08,4.08,0,0,1,195,17.9a4.22,4.22,0,0,1,.58,2.19,4.17,4.17,0,0,1-.58,2.19,3.94,3.94,0,0,1-1.58,1.53,4.52,4.52,0,0,1-2.25.56A4.64,4.64,0,0,1,188.93,23.81Zm4.06-.69a3.2,3.2,0,0,0,1.26-1.24,3.51,3.51,0,0,0,.46-1.79,3.47,3.47,0,0,0-.46-1.78A3.22,3.22,0,0,0,193,17.06a3.59,3.59,0,0,0-1.8-.45,3.64,3.64,0,0,0-1.8.45,3.25,3.25,0,0,0-1.27,1.25,3.48,3.48,0,0,0-.47,1.78,3.52,3.52,0,0,0,.47,1.79,3.22,3.22,0,0,0,1.27,1.24,3.64,3.64,0,0,0,1.8.45A3.59,3.59,0,0,0,193,23.12Z"/><path class="cls-2" d="M204.16,20.68a2,2,0,0,1,.45,1.37,1.94,1.94,0,0,1-.8,1.66,4,4,0,0,1-2.36.58h-3.86v-8.4h3.62a3.6,3.6,0,0,1,2.18.57,1.85,1.85,0,0,1,.78,1.59A2,2,0,0,1,202.88,20,2.22,2.22,0,0,1,204.16,20.68Zm-5.68-4.05v3h2.67a2.73,2.73,0,0,0,1.58-.39,1.44,1.44,0,0,0,0-2.26,2.73,2.73,0,0,0-1.58-.39Zm4.67,6.55a1.35,1.35,0,0,0,.57-1.2c0-1.05-.76-1.57-2.28-1.57h-3v3.15h3A3.19,3.19,0,0,0,203.15,23.18Z"/><path class="cls-2" d="M211.19,23.81a4.08,4.08,0,0,1-1.58-1.53,4.47,4.47,0,0,1,0-4.37,4.08,4.08,0,0,1,1.58-1.53,4.86,4.86,0,0,1,4.51,0,4.08,4.08,0,0,1,1.58,1.53,4.22,4.22,0,0,1,.58,2.19,4.17,4.17,0,0,1-.58,2.19,3.94,3.94,0,0,1-1.58,1.53,4.52,4.52,0,0,1-2.25.56A4.64,4.64,0,0,1,211.19,23.81Zm4.06-.69a3.2,3.2,0,0,0,1.26-1.24,3.51,3.51,0,0,0,.46-1.79,3.47,3.47,0,0,0-.46-1.78,3.22,3.22,0,0,0-1.26-1.25,3.59,3.59,0,0,0-1.8-.45,3.64,3.64,0,0,0-1.8.45,3.25,3.25,0,0,0-1.27,1.25,3.48,3.48,0,0,0-.47,1.78,3.52,3.52,0,0,0,.47,1.79,3.22,3.22,0,0,0,1.27,1.24,3.64,3.64,0,0,0,1.8.45A3.59,3.59,0,0,0,215.25,23.12Z"/><path class="cls-2" d="M226.87,15.89v8.4h-.73l-5.4-6.81v6.81h-.89v-8.4h.73L226,22.71V15.89Z"/><path class="cls-2" d="M233.27,24.07a3.26,3.26,0,0,1-1.32-.8l.34-.68a3.46,3.46,0,0,0,1.22.74,4.35,4.35,0,0,0,1.56.28,2.9,2.9,0,0,0,1.69-.41,1.3,1.3,0,0,0,.56-1.08,1.09,1.09,0,0,0-.3-.8,2.22,2.22,0,0,0-.75-.47c-.3-.1-.71-.22-1.24-.35a12.38,12.38,0,0,1-1.51-.46,2.45,2.45,0,0,1-1-.68,1.77,1.77,0,0,1-.4-1.23,2,2,0,0,1,.34-1.16,2.25,2.25,0,0,1,1-.84,4.35,4.35,0,0,1,1.73-.31,5.16,5.16,0,0,1,1.41.2,3.84,3.84,0,0,1,1.19.55l-.3.7a4.29,4.29,0,0,0-1.13-.52,4.41,4.41,0,0,0-1.17-.17,2.78,2.78,0,0,0-1.67.42,1.33,1.33,0,0,0-.55,1.1,1.09,1.09,0,0,0,.3.81,2,2,0,0,0,.77.47,11.51,11.51,0,0,0,1.24.35q.93.24,1.5.45a2.52,2.52,0,0,1,1,.67,1.78,1.78,0,0,1,.4,1.22,2.13,2.13,0,0,1-.34,1.16,2.35,2.35,0,0,1-1.05.83,4.51,4.51,0,0,1-1.74.31A5.4,5.4,0,0,1,233.27,24.07Z"/><path class="cls-2" d="M241.64,16.66h-2.95v-.77h6.79v.77h-2.95v7.63h-.89Z"/><path class="cls-2" d="M248.19,23.81a4,4,0,0,1-1.59-1.53,4.47,4.47,0,0,1,0-4.37,4,4,0,0,1,1.59-1.53,4.62,4.62,0,0,1,2.26-.56,4.68,4.68,0,0,1,2.25.55,4.15,4.15,0,0,1,1.58,1.53,4.31,4.31,0,0,1,.57,2.19,4.26,4.26,0,0,1-.57,2.19,4,4,0,0,1-1.58,1.53,4.82,4.82,0,0,1-4.51,0Zm4.06-.69a3.2,3.2,0,0,0,1.26-1.24,3.61,3.61,0,0,0,.46-1.79,3.57,3.57,0,0,0-.46-1.78,3.22,3.22,0,0,0-1.26-1.25,3.64,3.64,0,0,0-1.8-.45,3.68,3.68,0,0,0-1.81.45,3.32,3.32,0,0,0-1.27,1.25,3.47,3.47,0,0,0-.46,1.78,3.51,3.51,0,0,0,.46,1.79,3.29,3.29,0,0,0,1.27,1.24,3.68,3.68,0,0,0,1.81.45A3.64,3.64,0,0,0,252.25,23.12Z"/><path class="cls-2" d="M258.24,23.81a4,4,0,0,1-1.57-1.53,4.26,4.26,0,0,1-.57-2.19,4.31,4.31,0,0,1,.57-2.19,4.08,4.08,0,0,1,1.58-1.53,4.69,4.69,0,0,1,2.26-.55,4.78,4.78,0,0,1,1.72.31,3.65,3.65,0,0,1,1.35.92l-.57.56a3.35,3.35,0,0,0-2.48-1,3.69,3.69,0,0,0-1.81.46,3.27,3.27,0,0,0-1.28,1.25,3.65,3.65,0,0,0,0,3.55,3.34,3.34,0,0,0,1.28,1.25,3.68,3.68,0,0,0,1.81.45,3.28,3.28,0,0,0,2.48-1l.57.56a3.65,3.65,0,0,1-1.35.92,4.68,4.68,0,0,1-1.74.32A4.58,4.58,0,0,1,258.24,23.81Z"/><path class="cls-2" d="M268.08,20.35l-1.72,1.74v2.2h-.89v-8.4h.89V21l4.93-5.08h1l-3.63,3.81,3.89,4.59h-1.06Z"/><path class="cls-2" d="M187.45,37.93v.76h-5.94v-8.4h5.76v.77H182.4v3h4.34v.76H182.4v3.12Z"/><path class="cls-2" d="M194.7,38.69,192,35l-2.7,3.69h-1l3.19-4.32-3-4.08h1L192,33.73l2.52-3.44h1l-3,4.06,3.2,4.34Z"/><path class="cls-2" d="M198.4,38.21a3.92,3.92,0,0,1-1.57-1.53,4.26,4.26,0,0,1-.57-2.19,4.31,4.31,0,0,1,.57-2.19,4.08,4.08,0,0,1,1.58-1.53,4.68,4.68,0,0,1,2.25-.55,4.84,4.84,0,0,1,1.73.31,3.65,3.65,0,0,1,1.35.92l-.57.56a3.35,3.35,0,0,0-2.48-1,3.66,3.66,0,0,0-1.81.46,3.27,3.27,0,0,0-1.28,1.25,3.65,3.65,0,0,0,0,3.55,3.34,3.34,0,0,0,1.28,1.25,3.65,3.65,0,0,0,1.81.45,3.29,3.29,0,0,0,2.48-1l.57.56a3.65,3.65,0,0,1-1.35.92,4.72,4.72,0,0,1-1.74.32A4.58,4.58,0,0,1,198.4,38.21Z"/><path class="cls-2" d="M212.65,30.29v8.4h-.87V34.82h-5.26v3.87h-.89v-8.4h.89V34h5.26V30.29Z"/><path class="cls-2" d="M220.66,36.45H216l-1,2.24H214l3.84-8.4h.88l3.84,8.4h-.94Zm-.33-.72-2-4.51-2,4.51Z"/><path class="cls-2" d="M231,30.29v8.4h-.73l-5.4-6.81v6.81H224v-8.4h.73l5.41,6.82V30.29Z"/><path class="cls-2" d="M239.66,34.49h.85V37.7a4,4,0,0,1-1.39.79,5.25,5.25,0,0,1-1.69.28,4.63,4.63,0,0,1-2.27-.56,3.94,3.94,0,0,1-1.58-1.53,4.17,4.17,0,0,1-.58-2.19,4.22,4.22,0,0,1,.58-2.19,4.08,4.08,0,0,1,1.58-1.53,4.75,4.75,0,0,1,2.28-.55,4.84,4.84,0,0,1,1.77.31,3.49,3.49,0,0,1,1.35.9L240,32a3.44,3.44,0,0,0-2.53-1,3.74,3.74,0,0,0-1.84.45,3.3,3.3,0,0,0-1.29,1.25,3.48,3.48,0,0,0,1.28,4.81,3.74,3.74,0,0,0,1.84.45,3.66,3.66,0,0,0,2.19-.64Z"/><path class="cls-2" d="M249,37.93v.76H243v-8.4h5.76v.77h-4.87v3h4.34v.76h-4.34v3.12Z"/><path class="cls-2" d="M262.92,30.29v8.4h-.85V32l-3.3,5.66h-.42L255.05,32v6.68h-.86v-8.4h.74l3.64,6.23,3.62-6.23Z"/><path class="cls-2" d="M270.92,36.45h-4.68l-1,2.24h-.92l3.84-8.4H269l3.84,8.4h-.94Zm-.32-.72-2-4.51-2,4.51Z"/><path class="cls-2" d="M280,38.69,278.07,36a4.83,4.83,0,0,1-.67,0h-2.25v2.66h-.89v-8.4h3.14a3.81,3.81,0,0,1,2.52.77,2.61,2.61,0,0,1,.91,2.11,2.57,2.57,0,0,1-1.92,2.64L281,38.69Zm-.7-4a2.16,2.16,0,0,0,0-3.11,2.9,2.9,0,0,0-1.91-.55h-2.23v4.21h2.23A2.9,2.9,0,0,0,279.29,34.72Z"/><path class="cls-2" d="M285.54,34.75l-1.72,1.74v2.2h-.89v-8.4h.89v5.08l4.93-5.08h1l-3.63,3.81L290,38.69H289Z"/><path class="cls-2" d="M297.41,37.93v.76h-5.94v-8.4h5.76v.77h-4.88v3h4.35v.76h-4.35v3.12Z"/><path class="cls-2" d="M301.13,31.06h-3v-.77H305v.77h-3v7.63h-.88Z"/><path class="cls-2" d="M320.35,101.05a2.06,2.06,0,0,1,.45,1.37,2,2,0,0,1-.79,1.67,4.07,4.07,0,0,1-2.36.58h-3.87v-8.4h3.63a3.72,3.72,0,0,1,2.18.56,1.88,1.88,0,0,1,.77,1.6,2,2,0,0,1-.34,1.18,2.09,2.09,0,0,1-.94.73A2.19,2.19,0,0,1,320.35,101.05Zm-5.68-4v3h2.68a2.7,2.7,0,0,0,1.57-.39,1.45,1.45,0,0,0,0-2.27,2.7,2.7,0,0,0-1.57-.39Zm4.67,6.55a1.34,1.34,0,0,0,.58-1.2c0-1-.76-1.57-2.28-1.57h-3v3.16h3A3,3,0,0,0,319.34,103.55Z"/><path class="cls-2" d="M328.77,103.9v.77h-5.94v-8.4h5.76V97h-4.87v3h4.34v.76h-4.34v3.12Z"/><path class="cls-2" d="M332.21,104.19a4.05,4.05,0,0,1-1.57-1.53,4.49,4.49,0,0,1,0-4.38,4,4,0,0,1,1.58-1.53,4.57,4.57,0,0,1,2.25-.55,4.63,4.63,0,0,1,1.73.31,3.51,3.51,0,0,1,1.34.91L337,98a3.35,3.35,0,0,0-2.48-1,3.72,3.72,0,0,0-1.82.45,3.32,3.32,0,0,0-1.27,1.25,3.45,3.45,0,0,0-.47,1.78,3.42,3.42,0,0,0,.47,1.77,3.25,3.25,0,0,0,1.27,1.25,3.62,3.62,0,0,0,1.82.46,3.32,3.32,0,0,0,2.48-1l.56.56a3.49,3.49,0,0,1-1.35.92,4.67,4.67,0,0,1-1.73.32A4.57,4.57,0,0,1,332.21,104.19Z"/><path class="cls-2" d="M344.49,102.42h-4.68l-1,2.25h-.92l3.84-8.4h.88l3.84,8.4h-.94Zm-.32-.72-2-4.51-2,4.51Z"/><path class="cls-2" d="M356.55,96.27v8.4h-.85V98l-3.3,5.65H352L348.68,98v6.69h-.85v-8.4h.73l3.65,6.23,3.61-6.23Z"/><path class="cls-2" d="M365.23,103.9v.77h-5.94v-8.4h5.76V97h-4.87v3h4.34v.76h-4.34v3.12Z"/><path class="cls-2" d="M375.73,102.42h-4.68l-1,2.25h-.92l3.84-8.4h.87l3.84,8.4h-.93Zm-.33-.72-2-4.51-2,4.51Z"/><path class="cls-2" d="M389.23,96.27v8.4h-.88v-3.88H383.1v3.88h-.89v-8.4h.89V100h5.25V96.27Z"/><path class="cls-2" d="M397.9,103.9v.77H392v-8.4h5.76V97h-4.87v3h4.35v.76h-4.35v3.12Z"/><path class="cls-2" d="M405.26,102.42h-4.68l-1,2.25h-.92l3.84-8.4h.87l3.84,8.4h-.93Zm-.33-.72-2-4.51-2,4.51Z"/><path class="cls-2" d="M408.6,96.27H412a5.08,5.08,0,0,1,2.35.53A3.85,3.85,0,0,1,416,98.29a4.45,4.45,0,0,1,0,4.36,3.83,3.83,0,0,1-1.58,1.48,5,5,0,0,1-2.35.54H408.6ZM412,103.9a4.1,4.1,0,0,0,1.93-.44,3.11,3.11,0,0,0,1.28-1.21,3.67,3.67,0,0,0,0-3.56,3.2,3.2,0,0,0-1.28-1.22A4.1,4.1,0,0,0,412,97h-2.49v6.86Z"/><path class="cls-2" d="M423.06,104.18a4,4,0,0,1-1.58-1.53,4.47,4.47,0,0,1,0-4.37,4.15,4.15,0,0,1,1.58-1.53,4.64,4.64,0,0,1,2.26-.55,4.52,4.52,0,0,1,2.25.55,4.08,4.08,0,0,1,1.58,1.53,4.42,4.42,0,0,1,0,4.38,4.08,4.08,0,0,1-1.58,1.53,4.52,4.52,0,0,1-2.25.55A4.64,4.64,0,0,1,423.06,104.18Zm4.06-.68a3.22,3.22,0,0,0,1.26-1.25,3.67,3.67,0,0,0,0-3.56,3.16,3.16,0,0,0-1.26-1.25,3.59,3.59,0,0,0-1.8-.45,3.64,3.64,0,0,0-1.8.45,3.18,3.18,0,0,0-1.27,1.25,3.61,3.61,0,0,0,0,3.56,3.25,3.25,0,0,0,1.27,1.25,3.64,3.64,0,0,0,1.8.45A3.59,3.59,0,0,0,427.12,103.5Z"/><path class="cls-2" d="M432.61,97v3.3H437v.76h-4.34v3.57h-.89v-8.4h5.76V97Z"/><path class="cls-2" d="M313.78,110.67h3.42a5.1,5.1,0,0,1,2.36.53,3.92,3.92,0,0,1,1.58,1.49,4.52,4.52,0,0,1,0,4.36,3.89,3.89,0,0,1-1.58,1.48,5,5,0,0,1-2.36.54h-3.42Zm3.38,7.63a4.1,4.1,0,0,0,1.93-.44,3.11,3.11,0,0,0,1.28-1.21,3.67,3.67,0,0,0,0-3.56,3.2,3.2,0,0,0-1.28-1.22,4.1,4.1,0,0,0-1.93-.43h-2.49v6.86Z"/><path class="cls-2" d="M329.64,118.3v.77H323.7v-8.4h5.76v.77h-4.88v3h4.35v.76h-4.35v3.12Z"/><path class="cls-2" d="M337.39,111.44a2.89,2.89,0,0,1,0,4.21,3.81,3.81,0,0,1-2.52.77h-2.26v2.65h-.89v-8.4h3.15A3.76,3.76,0,0,1,337.39,111.44Zm-.64,3.65a1.89,1.89,0,0,0,.66-1.54,1.93,1.93,0,0,0-.66-1.57,2.94,2.94,0,0,0-1.91-.54h-2.23v4.2h2.23A2.94,2.94,0,0,0,336.75,115.09Z"/><path class="cls-2" d="M345.07,116.82h-4.68l-1,2.25h-.92l3.84-8.4h.87l3.84,8.4h-.93Zm-.33-.72-2-4.51-2,4.51Z"/><path class="cls-2" d="M354.14,119.07l-1.92-2.7c-.22,0-.44,0-.67,0h-2.26v2.67h-.89v-8.4h3.15a3.76,3.76,0,0,1,2.52.77,2.62,2.62,0,0,1,.91,2.11,2.75,2.75,0,0,1-.5,1.66,2.78,2.78,0,0,1-1.42,1l2.05,2.88Zm-.71-4a2.17,2.17,0,0,0,0-3.12,2.94,2.94,0,0,0-1.91-.54h-2.23v4.21h2.23A2.94,2.94,0,0,0,353.43,115.1Z"/><path class="cls-2" d="M358.59,111.44h-2.95v-.77h6.79v.77h-2.95v7.63h-.89Z"/><path class="cls-2" d="M369.79,118.3v.77h-5.94v-8.4h5.76v.77h-4.87v3h4.34v.76h-4.34v3.12Z"/><path class="cls-2" d="M380.6,110.67v8.4h-.85v-6.72l-3.3,5.65H376l-3.3-5.62v6.69h-.85v-8.4h.73l3.65,6.23,3.61-6.23Z"/><path class="cls-2" d="M389.27,118.3v.77h-5.94v-8.4h5.76v.77h-4.87v3h4.35v.76h-4.35v3.12Z"/><path class="cls-2" d="M398.38,110.67v8.4h-.73l-5.4-6.82v6.82h-.89v-8.4h.73l5.42,6.81v-6.81Z"/><path class="cls-2" d="M402.75,111.44H399.8v-.77h6.79v.77h-2.95v7.63h-.89Z"/><path class="cls-2" d="M436.08,18.45a2,2,0,0,1,.45,1.37,1.93,1.93,0,0,1-.79,1.66,4,4,0,0,1-2.36.58h-3.87v-8.4h3.63a3.64,3.64,0,0,1,2.18.57,1.86,1.86,0,0,1,.77,1.59,2,2,0,0,1-.34,1.19,2.07,2.07,0,0,1-.94.72A2.2,2.2,0,0,1,436.08,18.45Zm-5.68-4v3h2.68a2.7,2.7,0,0,0,1.57-.39,1.44,1.44,0,0,0,0-2.26,2.7,2.7,0,0,0-1.57-.39ZM435.07,21a1.36,1.36,0,0,0,.58-1.2c0-1.05-.76-1.57-2.28-1.57h-3v3.15h3A3.12,3.12,0,0,0,435.07,21Z"/><path class="cls-2" d="M444.5,21.3v.76h-5.94v-8.4h5.76v.77h-4.87v3h4.34v.76h-4.34V21.3Z"/><path class="cls-2" d="M447.94,21.58a3.92,3.92,0,0,1-1.57-1.53,4.26,4.26,0,0,1-.57-2.19,4.31,4.31,0,0,1,.57-2.19A4,4,0,0,1,448,14.14a4.68,4.68,0,0,1,2.25-.55,4.84,4.84,0,0,1,1.73.31,3.53,3.53,0,0,1,1.34.92l-.56.56a3.36,3.36,0,0,0-2.48-1,3.73,3.73,0,0,0-1.82.46,3.25,3.25,0,0,0-1.27,1.25,3.59,3.59,0,0,0,0,3.55,3.32,3.32,0,0,0,1.27,1.25,3.72,3.72,0,0,0,1.82.45,3.31,3.31,0,0,0,2.48-1l.56.56a3.49,3.49,0,0,1-1.35.92,4.67,4.67,0,0,1-1.73.32A4.58,4.58,0,0,1,447.94,21.58Z"/><path class="cls-2" d="M460.22,19.82h-4.68l-1,2.24h-.92l3.84-8.4h.88l3.84,8.4h-.94Zm-.32-.72-2-4.51-2,4.51Z"/><path class="cls-2" d="M472.28,13.66v8.4h-.85V15.34L468.13,21h-.42l-3.3-5.62v6.68h-.85v-8.4h.73l3.65,6.23,3.61-6.23Z"/><path class="cls-2" d="M481,21.3v.76H475v-8.4h5.76v.77h-4.87v3h4.34v.76h-4.34V21.3Z"/><path class="cls-2" d="M491.46,19.82h-4.68l-1,2.24h-.92l3.84-8.4h.87l3.84,8.4h-.94Zm-.33-.72-2-4.51-2,4.51Z"/><path class="cls-2" d="M499.33,21.58a4,4,0,0,1-1.57-1.53,4.26,4.26,0,0,1-.57-2.19,4.31,4.31,0,0,1,.57-2.19,4.08,4.08,0,0,1,1.58-1.53,4.72,4.72,0,0,1,2.26-.55,4.88,4.88,0,0,1,1.73.31,3.69,3.69,0,0,1,1.34.92l-.56.56a3.38,3.38,0,0,0-2.49-1,3.69,3.69,0,0,0-1.81.46,3.34,3.34,0,0,0-1.28,1.25,3.47,3.47,0,0,0,1.28,4.8,3.68,3.68,0,0,0,1.81.45,3.32,3.32,0,0,0,2.49-1l.56.56a3.65,3.65,0,0,1-1.35.92,4.67,4.67,0,0,1-1.73.32A4.59,4.59,0,0,1,499.33,21.58Z"/><path class="cls-2" d="M512.51,21.3v.76h-5.94v-8.4h5.76v.77h-4.88v3h4.35v.76h-4.35V21.3Z"/><path class="cls-2" d="M516,21.58a4,4,0,0,1-1.59-1.53,4.47,4.47,0,0,1,0-4.37A4,4,0,0,1,516,14.15a4.62,4.62,0,0,1,2.26-.56,4.68,4.68,0,0,1,2.25.55,4.15,4.15,0,0,1,1.58,1.53,4.31,4.31,0,0,1,.57,2.19,4.26,4.26,0,0,1-.57,2.19,4,4,0,0,1-1.58,1.53,4.82,4.82,0,0,1-4.51,0Zm4.06-.69a3.33,3.33,0,0,0,1.26-1.24,3.61,3.61,0,0,0,.45-1.79,3.57,3.57,0,0,0-.45-1.78A3.36,3.36,0,0,0,520,14.83a3.85,3.85,0,0,0-3.61,0,3.32,3.32,0,0,0-1.27,1.25,3.47,3.47,0,0,0-.46,1.78,3.51,3.51,0,0,0,.46,1.79,3.29,3.29,0,0,0,1.27,1.24,3.85,3.85,0,0,0,3.61,0Z"/><path class="cls-2" d="M430.92,36a4.08,4.08,0,0,1-1.58-1.53,4.47,4.47,0,0,1,0-4.37,4.08,4.08,0,0,1,1.58-1.53,4.88,4.88,0,0,1,4.52,0A4.12,4.12,0,0,1,437,30.07a4.22,4.22,0,0,1,.58,2.19,4.17,4.17,0,0,1-.58,2.19A4,4,0,0,1,435.44,36a4.58,4.58,0,0,1-2.25.56A4.66,4.66,0,0,1,430.92,36Zm4.07-.69a3.33,3.33,0,0,0,1.26-1.24,3.61,3.61,0,0,0,.45-1.79,3.57,3.57,0,0,0-.45-1.78A3.36,3.36,0,0,0,435,29.23a3.85,3.85,0,0,0-3.61,0,3.32,3.32,0,0,0-1.27,1.25,3.47,3.47,0,0,0-.46,1.78,3.51,3.51,0,0,0,.46,1.79,3.29,3.29,0,0,0,1.27,1.24,3.85,3.85,0,0,0,3.61,0Z"/><path class="cls-2" d="M440.47,28.83v3.3h4.34v.77h-4.34v3.56h-.89v-8.4h5.76v.77Z"/><path class="cls-2" d="M452,28.83H449v-.77h6.79v.77h-3v7.63H452Z"/><path class="cls-2" d="M464.23,28.06v8.4h-.88V32.59H458.1v3.87h-.89v-8.4h.89v3.75h5.25V28.06Z"/><path class="cls-2" d="M472.9,35.7v.76H467v-8.4h5.76v.77h-4.87v3h4.35v.76h-4.35V35.7Z"/><path class="cls-2" d="M479.53,36A4,4,0,0,1,478,34.45a4.26,4.26,0,0,1-.57-2.19,4.31,4.31,0,0,1,.57-2.19,4.08,4.08,0,0,1,1.58-1.53A4.69,4.69,0,0,1,481.8,28a4.78,4.78,0,0,1,1.72.31,3.65,3.65,0,0,1,1.35.92l-.57.56a3.35,3.35,0,0,0-2.48-1,3.69,3.69,0,0,0-1.81.46,3.27,3.27,0,0,0-1.28,1.25,3.65,3.65,0,0,0,0,3.55A3.34,3.34,0,0,0,480,35.29a3.68,3.68,0,0,0,1.81.45,3.28,3.28,0,0,0,2.48-1l.57.56a3.65,3.65,0,0,1-1.35.92,4.68,4.68,0,0,1-1.74.32A4.58,4.58,0,0,1,479.53,36Z"/><path class="cls-2" d="M488,36a4,4,0,0,1-1.59-1.53,4.47,4.47,0,0,1,0-4.37A4,4,0,0,1,488,28.55a4.59,4.59,0,0,1,2.26-.56,4.68,4.68,0,0,1,2.25.55,4.12,4.12,0,0,1,1.57,1.53,4.22,4.22,0,0,1,.58,2.19,4.17,4.17,0,0,1-.58,2.19A4,4,0,0,1,492.51,36,4.82,4.82,0,0,1,488,36Zm4.06-.69a3.33,3.33,0,0,0,1.26-1.24,3.61,3.61,0,0,0,.45-1.79,3.57,3.57,0,0,0-.45-1.78,3.36,3.36,0,0,0-1.26-1.25,3.85,3.85,0,0,0-3.61,0,3.32,3.32,0,0,0-1.27,1.25,3.47,3.47,0,0,0-.46,1.78,3.51,3.51,0,0,0,.46,1.79,3.29,3.29,0,0,0,1.27,1.24,3.85,3.85,0,0,0,3.61,0Z"/><path class="cls-2" d="M505.38,28.06v8.4h-.86V29.74l-3.29,5.66h-.43l-3.3-5.62v6.68h-.85v-8.4h.73L501,34.29l3.62-6.23Z"/><path class="cls-2" d="M513.78,28.83a2.9,2.9,0,0,1,0,4.22,3.81,3.81,0,0,1-2.52.76H509v2.65h-.89v-8.4h3.15A3.81,3.81,0,0,1,513.78,28.83Zm-.64,3.66a2.16,2.16,0,0,0,0-3.11,2.9,2.9,0,0,0-1.91-.55H509V33h2.23A3,3,0,0,0,513.14,32.49Z"/><path class="cls-2" d="M521.46,34.22h-4.68l-1,2.24h-.92l3.84-8.4h.87l3.84,8.4h-.94Zm-.33-.72-2-4.51-2,4.51Z"/><path class="cls-2" d="M533.52,28.06v8.4h-.86V29.74l-3.3,5.66h-.42l-3.3-5.62v6.68h-.85v-8.4h.73l3.65,6.23,3.61-6.23Z"/><path class="cls-2" d="M539.13,33.56v2.9h-.87v-2.9l-3.36-5.5h.94l2.88,4.72,2.88-4.72h.89Z"/><path class="cls-2" d="M560.18,97v3.3h4.34v.77h-4.34v3.56h-.89v-8.4h5.76V97Z"/><path class="cls-2" d="M566.89,96.22h.88v8.4h-.88Z"/><path class="cls-2" d="M577.53,96.22v8.4h-.73l-5.4-6.82v6.82h-.89v-8.4h.73l5.41,6.82V96.22Z"/><path class="cls-2" d="M580.27,96.22h.88v8.4h-.88Z"/><path class="cls-2" d="M584.41,104.39a3.25,3.25,0,0,1-1.32-.79l.35-.68a3.18,3.18,0,0,0,1.21.73,4.36,4.36,0,0,0,1.56.29,2.83,2.83,0,0,0,1.69-.42,1.27,1.27,0,0,0,.56-1.07,1.09,1.09,0,0,0-.3-.81,2.2,2.2,0,0,0-.75-.46,12.59,12.59,0,0,0-1.24-.35,12.38,12.38,0,0,1-1.51-.46,2.55,2.55,0,0,1-1-.68,1.86,1.86,0,0,1-.4-1.24,2.07,2.07,0,0,1,.34-1.16,2.3,2.3,0,0,1,1-.83,4.18,4.18,0,0,1,1.73-.31,4.81,4.81,0,0,1,1.41.2,4.07,4.07,0,0,1,1.19.54l-.3.71a4,4,0,0,0-1.13-.52,4.06,4.06,0,0,0-1.17-.18,2.72,2.72,0,0,0-1.66.43,1.3,1.3,0,0,0-.56,1.1,1.13,1.13,0,0,0,.3.81,2.13,2.13,0,0,0,.77.47c.31.1.72.22,1.24.35a11.72,11.72,0,0,1,1.5.45,2.42,2.42,0,0,1,1,.67,1.76,1.76,0,0,1,.4,1.22,2.07,2.07,0,0,1-.34,1.16,2.35,2.35,0,0,1-1,.83,4.45,4.45,0,0,1-1.74.3A5.4,5.4,0,0,1,584.41,104.39Z"/><path class="cls-2" d="M598.29,96.22v8.4h-.88v-3.88h-5.25v3.88h-.89v-8.4h.89V100h5.25V96.22Z"/><path class="cls-2" d="M607,103.85v.77H601v-8.4h5.76V97h-4.88v3h4.35v.75h-4.35v3.12Z"/><path class="cls-2" d="M609.05,96.22h3.42a5.1,5.1,0,0,1,2.36.53,4,4,0,0,1,1.58,1.49,4.52,4.52,0,0,1,0,4.36,4,4,0,0,1-1.58,1.49,5.1,5.1,0,0,1-2.36.53h-3.42Zm3.38,7.63a4,4,0,0,0,1.93-.44,3.11,3.11,0,0,0,1.28-1.21,3.67,3.67,0,0,0,0-3.56,3.11,3.11,0,0,0-1.28-1.21,4,4,0,0,0-1.93-.44h-2.49v6.86Z"/><path class="cls-2" d="M628.68,101a2.08,2.08,0,0,1,.45,1.38,1.94,1.94,0,0,1-.8,1.66,4,4,0,0,1-2.35.58h-3.87v-8.4h3.62a3.68,3.68,0,0,1,2.18.56,1.86,1.86,0,0,1,.78,1.6,2,2,0,0,1-1.29,1.91A2.27,2.27,0,0,1,628.68,101ZM623,97v3h2.67a2.73,2.73,0,0,0,1.58-.39,1.45,1.45,0,0,0,0-2.27,2.73,2.73,0,0,0-1.58-.39Zm4.67,6.55a1.33,1.33,0,0,0,.57-1.2c0-1-.76-1.57-2.28-1.57h-3v3.16h3A3.09,3.09,0,0,0,627.67,103.5Z"/><path class="cls-2" d="M631.16,96.22h.89v8.4h-.89Z"/><path class="cls-2" d="M636.19,104.13a4.08,4.08,0,0,1-1.58-1.53,4.45,4.45,0,0,1,0-4.36,4.08,4.08,0,0,1,1.58-1.53,4.86,4.86,0,0,1,4.51,0,4.08,4.08,0,0,1,1.58,1.53,4.42,4.42,0,0,1,0,4.38,4.08,4.08,0,0,1-1.58,1.53,4.86,4.86,0,0,1-4.51,0Zm4.06-.68a3.22,3.22,0,0,0,1.26-1.25,3.67,3.67,0,0,0,0-3.56,3.22,3.22,0,0,0-1.26-1.25,3.59,3.59,0,0,0-1.8-.45,3.64,3.64,0,0,0-1.8.45,3.25,3.25,0,0,0-1.27,1.25,3.61,3.61,0,0,0,0,3.56,3.25,3.25,0,0,0,1.27,1.25,3.64,3.64,0,0,0,1.8.45A3.59,3.59,0,0,0,640.25,103.45Z"/><path class="cls-2" d="M651.87,96.22v8.4h-.73l-5.4-6.82v6.82h-.89v-8.4h.73L651,103V96.22Z"/><path class="cls-2" d="M654.61,96.22h.88v8.4h-.88Z"/><path class="cls-2" d="M659.63,104.14a4.05,4.05,0,0,1-1.57-1.53,4.49,4.49,0,0,1,0-4.38,4.05,4.05,0,0,1,1.57-1.53,4.95,4.95,0,0,1,4-.24,3.59,3.59,0,0,1,1.34.91l-.56.57a3.35,3.35,0,0,0-2.49-1,3.61,3.61,0,0,0-1.81.46,3.39,3.39,0,0,0-1.28,1.24,3.67,3.67,0,0,0,0,3.56,3.39,3.39,0,0,0,1.28,1.24,3.61,3.61,0,0,0,1.81.46,3.32,3.32,0,0,0,2.49-1l.56.57a3.62,3.62,0,0,1-1.35.91,4.48,4.48,0,0,1-1.73.32A4.57,4.57,0,0,1,659.63,104.14Z"/><path class="cls-2" d="M560.13,118.16a3.75,3.75,0,0,1-.91-2.73v-4.81h.89v4.78a3.14,3.14,0,0,0,.66,2.18,2.91,2.91,0,0,0,3.83,0,3.14,3.14,0,0,0,.66-2.18v-4.78h.86v4.81a3.75,3.75,0,0,1-.91,2.73,3.37,3.37,0,0,1-2.53.93A3.41,3.41,0,0,1,560.13,118.16Z"/><path class="cls-2" d="M575.81,110.62V119h-.73l-5.4-6.82V119h-.88v-8.4h.73l5.41,6.82v-6.82Z"/><path class="cls-2" d="M578.55,110.62h.89V119h-.89Z"/><path class="cls-2" d="M589.06,110.62l-3.72,8.4h-.87l-3.72-8.4h1l3.21,7.3,3.24-7.3Z"/><path class="cls-2" d="M596.21,118.25V119h-5.94v-8.4H596v.77h-4.87v3h4.35v.75h-4.35v3.12Z"/><path class="cls-2" d="M604,119l-1.92-2.7a4.92,4.92,0,0,1-.67,0h-2.26V119h-.89v-8.4h3.15a3.81,3.81,0,0,1,2.52.77,2.62,2.62,0,0,1,.91,2.11,2.73,2.73,0,0,1-.5,1.66,2.78,2.78,0,0,1-1.42,1l2,2.88Zm-.71-4a2.16,2.16,0,0,0,0-3.11,2.88,2.88,0,0,0-1.91-.55h-2.23v4.21h2.23A2.88,2.88,0,0,0,603.33,115.05Z"/><path class="cls-2" d="M607.5,118.79a3.25,3.25,0,0,1-1.32-.79l.34-.68a3.5,3.5,0,0,0,1.21.74,4.67,4.67,0,0,0,1.56.28,2.84,2.84,0,0,0,1.7-.42,1.27,1.27,0,0,0,.56-1.07,1,1,0,0,0-.31-.8,2,2,0,0,0-.75-.47c-.29-.1-.7-.22-1.23-.35a12.38,12.38,0,0,1-1.51-.46,2.55,2.55,0,0,1-1-.68,1.81,1.81,0,0,1-.4-1.24,2.14,2.14,0,0,1,.33-1.16,2.39,2.39,0,0,1,1-.83,4.18,4.18,0,0,1,1.73-.31,4.9,4.9,0,0,1,1.41.2,4.07,4.07,0,0,1,1.19.54l-.3.71a4.29,4.29,0,0,0-1.13-.52,4,4,0,0,0-1.17-.17,2.78,2.78,0,0,0-1.67.42,1.34,1.34,0,0,0-.56,1.1,1.12,1.12,0,0,0,.31.81,2.13,2.13,0,0,0,.77.47c.31.11.72.22,1.24.35a11,11,0,0,1,1.49.45,2.45,2.45,0,0,1,1,.67,1.81,1.81,0,0,1,.4,1.22,2.06,2.06,0,0,1-.35,1.16,2.24,2.24,0,0,1-1.05.83,4.45,4.45,0,0,1-1.74.3A5.38,5.38,0,0,1,607.5,118.79Z"/><path class="cls-2" d="M614.36,110.62h.89V119h-.89Z"/><path class="cls-2" d="M619.61,111.39h-3v-.77h6.79v.77h-3V119h-.89Z"/><path class="cls-2" d="M627.69,116.12V119h-.88v-2.9l-3.36-5.5h.95l2.88,4.72,2.88-4.72h.89Z"/><path class="cls-2" d="M641.24,111.39a2.9,2.9,0,0,1,0,4.22,3.87,3.87,0,0,1-2.52.76h-2.26V119h-.89v-8.4h3.15A3.81,3.81,0,0,1,641.24,111.39ZM640.6,115a1.87,1.87,0,0,0,.66-1.54,1.9,1.9,0,0,0-.66-1.56,2.88,2.88,0,0,0-1.91-.55h-2.23v4.2h2.23A2.88,2.88,0,0,0,640.6,115Z"/><path class="cls-2" d="M649.81,119l-1.92-2.7a5,5,0,0,1-.68,0H645V119h-.89v-8.4h3.14a3.78,3.78,0,0,1,2.52.77,2.6,2.6,0,0,1,.92,2.11,2.73,2.73,0,0,1-.5,1.66,2.78,2.78,0,0,1-1.42,1l2,2.88Zm-.71-4a2.16,2.16,0,0,0,0-3.11,2.9,2.9,0,0,0-1.91-.55H645v4.21h2.23A2.9,2.9,0,0,0,649.1,115.05Z"/><path class="cls-2" d="M654.16,118.53a4.08,4.08,0,0,1-1.59-1.52,4.26,4.26,0,0,1-.57-2.19,4.2,4.2,0,0,1,.57-2.18,4,4,0,0,1,1.59-1.53,4.51,4.51,0,0,1,2.26-.56,4.57,4.57,0,0,1,2.25.55,4.15,4.15,0,0,1,1.58,1.53,4.49,4.49,0,0,1,0,4.38,4.15,4.15,0,0,1-1.58,1.53,4.57,4.57,0,0,1-2.25.55A4.51,4.51,0,0,1,654.16,118.53Zm4.06-.68a3.29,3.29,0,0,0,1.26-1.25,3.75,3.75,0,0,0,0-3.56,3.36,3.36,0,0,0-1.26-1.25,3.85,3.85,0,0,0-3.61,0,3.32,3.32,0,0,0-1.27,1.25,3.67,3.67,0,0,0,0,3.56,3.25,3.25,0,0,0,1.27,1.25,3.85,3.85,0,0,0,3.61,0Z"/><path class="cls-2" d="M668.73,114.82h.85V118a4.05,4.05,0,0,1-1.39.8,5.29,5.29,0,0,1-1.69.27,4.62,4.62,0,0,1-2.27-.55,4.08,4.08,0,0,1-1.58-1.53,4.42,4.42,0,0,1,0-4.38,4.08,4.08,0,0,1,1.58-1.53,4.63,4.63,0,0,1,2.28-.55,5,5,0,0,1,1.76.3,3.58,3.58,0,0,1,1.36.91l-.55.56a3.49,3.49,0,0,0-2.53-1,3.81,3.81,0,0,0-1.85.45,3.55,3.55,0,0,0-1.29,4.81,3.52,3.52,0,0,0,1.29,1.25,3.7,3.7,0,0,0,1.83.45,3.61,3.61,0,0,0,2.2-.65Z"/><path class="cls-2" d="M677.83,119l-1.92-2.7a5,5,0,0,1-.68,0H673V119h-.89v-8.4h3.14a3.78,3.78,0,0,1,2.52.77,2.6,2.6,0,0,1,.92,2.11,2.73,2.73,0,0,1-.5,1.66,2.78,2.78,0,0,1-1.42,1l2,2.88Zm-.71-4a2.16,2.16,0,0,0,0-3.11,2.9,2.9,0,0,0-1.91-.55H673v4.21h2.23A2.9,2.9,0,0,0,677.12,115.05Z"/><path class="cls-2" d="M686,116.78h-4.68l-1,2.24h-.93l3.84-8.4h.88L688,119H687Zm-.32-.72-2-4.51-2,4.51Z"/><path class="cls-2" d="M698.09,110.62V119h-.85V112.3l-3.3,5.65h-.42l-3.3-5.61V119h-.85v-8.4h.73l3.65,6.23,3.61-6.23Z"/><path class="cls-2" d="M558.48,129.32l1.69-2.36h1.68l-1.65,2.36,1.65,2.34h-1.68Zm2.71,0,1.69-2.36h1.68l-1.64,2.36,1.64,2.34h-1.68Z"/><path class="cls-2" d="M567.92,126.58v2.22h3.89v1.56h-3.89v3.06H566V125h6.34v1.56Z"/><path class="cls-2" d="M579,133.42l-1.62-2.34h-1.78v2.34h-2V125h3.64a4.66,4.66,0,0,1,1.94.37,2.81,2.81,0,0,1,1.26,1.06,3.12,3.12,0,0,1,0,3.23,2.89,2.89,0,0,1-1.28,1l1.88,2.7ZM578.5,127a2,2,0,0,0-1.33-.38h-1.58v2.93h1.58a2,2,0,0,0,1.33-.38,1.51,1.51,0,0,0,0-2.17Z"/><path class="cls-2" d="M584.17,133a4.29,4.29,0,0,1,0-7.56,4.87,4.87,0,0,1,2.36-.56,4.8,4.8,0,0,1,2.35.56,4.28,4.28,0,0,1,0,7.56,4.8,4.8,0,0,1-2.35.56A4.87,4.87,0,0,1,584.17,133Zm3.71-1.43a2.55,2.55,0,0,0,.94-1,3,3,0,0,0,0-2.78,2.55,2.55,0,0,0-.94-1,2.83,2.83,0,0,0-2.69,0,2.41,2.41,0,0,0-.94,1,2.94,2.94,0,0,0,0,2.78,2.41,2.41,0,0,0,.94,1,2.83,2.83,0,0,0,2.69,0Z"/><path class="cls-2" d="M600.3,125v8.4h-1.6l-4.19-5.1v5.1h-1.92V125h1.61l4.18,5.1V125Z"/><path class="cls-2" d="M604,126.6h-2.69V125h7.32v1.58H606v6.82H604Z"/><path class="cls-2" d="M609.23,128.42h3.4v1.5h-3.4Z"/><path class="cls-2" d="M620.86,131.86v1.56h-6.5V125h6.35v1.56h-4.42v1.82h3.9v1.52h-3.9v1.94Z"/><path class="cls-2" d="M630.11,125v8.4h-1.59l-4.19-5.1v5.1h-1.92V125H624l4.17,5.1V125Z"/><path class="cls-2" d="M632.11,125h3.81a5.35,5.35,0,0,1,2.42.52A3.94,3.94,0,0,1,640,127a4.43,4.43,0,0,1,0,4.42,3.94,3.94,0,0,1-1.63,1.47,5.35,5.35,0,0,1-2.42.52h-3.81Zm3.72,6.8a2.81,2.81,0,0,0,2-.7,2.78,2.78,0,0,0,0-3.8,2.81,2.81,0,0,0-2-.7h-1.78v5.2Z"/><path class="cls-2" d="M641.44,131.66l1.65-2.34L641.44,127h1.68l1.69,2.36-1.69,2.34Zm2.71,0,1.65-2.34L644.15,127h1.68l1.7,2.36-1.7,2.34Z"/><path class="cls-2" d="M692,2.06v3.3h4.34v.76H692V9.69h-.89V1.29h5.76v.77Z"/><path class="cls-2" d="M698.71,1.29h.89v8.4h-.89Z"/><path class="cls-2" d="M709.35,1.29v8.4h-.73l-5.4-6.82V9.69h-.89V1.29h.73l5.42,6.81V1.29Z"/><path class="cls-2" d="M712.09,1.29H713v8.4h-.89Z"/><path class="cls-2" d="M716.23,9.46a3.25,3.25,0,0,1-1.32-.79l.35-.69a3.19,3.19,0,0,0,1.21.74A4.36,4.36,0,0,0,718,9a2.83,2.83,0,0,0,1.69-.42,1.26,1.26,0,0,0,.56-1.07,1.09,1.09,0,0,0-.3-.81,2.2,2.2,0,0,0-.75-.46A10.3,10.3,0,0,0,718,5.9a14.46,14.46,0,0,1-1.51-.46,2.55,2.55,0,0,1-1-.68,1.86,1.86,0,0,1-.4-1.24,2.07,2.07,0,0,1,.34-1.16,2.36,2.36,0,0,1,1-.83,4.18,4.18,0,0,1,1.73-.31,5.16,5.16,0,0,1,1.41.19,4.22,4.22,0,0,1,1.19.55l-.3.71a4,4,0,0,0-1.13-.52A4.06,4.06,0,0,0,718.21,2a2.66,2.66,0,0,0-1.66.43A1.3,1.3,0,0,0,716,3.5a1.13,1.13,0,0,0,.3.81,2,2,0,0,0,.77.46c.31.11.72.23,1.24.36a11.72,11.72,0,0,1,1.5.45,2.42,2.42,0,0,1,1,.67,1.76,1.76,0,0,1,.4,1.22,2.07,2.07,0,0,1-.34,1.16,2.27,2.27,0,0,1-1.05.82,4.27,4.27,0,0,1-1.74.31A5.44,5.44,0,0,1,716.23,9.46Z"/><path class="cls-2" d="M730.11,1.29v8.4h-.88V5.81H724V9.69h-.89V1.29H724V5h5.25V1.29Z"/><path class="cls-2" d="M738.79,8.92v.77h-5.94V1.29h5.76v.77h-4.88v3h4.35V5.8h-4.35V8.92Z"/><path class="cls-2" d="M740.87,1.29h3.42a5.1,5.1,0,0,1,2.36.53,4,4,0,0,1,1.58,1.49,4.17,4.17,0,0,1,.56,2.18,4.17,4.17,0,0,1-.56,2.18,3.89,3.89,0,0,1-1.58,1.48,5,5,0,0,1-2.36.54h-3.42Zm3.38,7.63a4.1,4.1,0,0,0,1.93-.44,3.11,3.11,0,0,0,1.28-1.21,3.37,3.37,0,0,0,.46-1.78,3.37,3.37,0,0,0-.46-1.78,3.2,3.2,0,0,0-1.28-1.22,4.1,4.1,0,0,0-1.93-.43h-2.49V8.92Z"/><path class="cls-2" d="M760.5,6.07A2.07,2.07,0,0,1,761,7.44a1.93,1.93,0,0,1-.8,1.67,4,4,0,0,1-2.35.58h-3.87V1.29h3.63a3.66,3.66,0,0,1,2.17.56,1.86,1.86,0,0,1,.78,1.6,2,2,0,0,1-.35,1.18,2,2,0,0,1-.94.73A2.27,2.27,0,0,1,760.5,6.07ZM754.82,2V5.07h2.67a2.71,2.71,0,0,0,1.58-.39,1.3,1.3,0,0,0,.55-1.13,1.3,1.3,0,0,0-.55-1.14A2.71,2.71,0,0,0,757.49,2Zm4.67,6.55a1.33,1.33,0,0,0,.57-1.2c0-1-.76-1.57-2.28-1.57h-3V9h3A3.09,3.09,0,0,0,759.49,8.57Z"/><path class="cls-2" d="M763,1.29h.89v8.4H763Z"/><path class="cls-2" d="M768,9.2a4.08,4.08,0,0,1-1.58-1.53,4.22,4.22,0,0,1-.57-2.18A4.16,4.16,0,0,1,768,1.77a4.64,4.64,0,0,1,2.26-.55,4.52,4.52,0,0,1,2.25.55A4.08,4.08,0,0,1,774.1,3.3a4.17,4.17,0,0,1,.58,2.19,4.17,4.17,0,0,1-.58,2.19,4.08,4.08,0,0,1-1.58,1.53,4.52,4.52,0,0,1-2.25.55A4.64,4.64,0,0,1,768,9.2Zm4.06-.68a3.22,3.22,0,0,0,1.26-1.25,3.47,3.47,0,0,0,.46-1.78,3.45,3.45,0,0,0-.46-1.78,3.22,3.22,0,0,0-1.26-1.25,3.59,3.59,0,0,0-1.8-.45,3.64,3.64,0,0,0-1.8.45,3.25,3.25,0,0,0-1.27,1.25,3.45,3.45,0,0,0-.47,1.78,3.48,3.48,0,0,0,.47,1.78,3.25,3.25,0,0,0,1.27,1.25,3.64,3.64,0,0,0,1.8.45A3.59,3.59,0,0,0,772.07,8.52Z"/><path class="cls-2" d="M783.69,1.29v8.4H783l-5.4-6.82V9.69h-.89V1.29h.73l5.41,6.81V1.29Z"/><path class="cls-2" d="M786.43,1.29h.88v8.4h-.88Z"/><path class="cls-2" d="M791.45,9.21a4.05,4.05,0,0,1-1.57-1.53,4.26,4.26,0,0,1-.57-2.19,4.26,4.26,0,0,1,.57-2.19,4.05,4.05,0,0,1,1.57-1.53,4.95,4.95,0,0,1,4-.24,3.59,3.59,0,0,1,1.34.91l-.56.57a3.35,3.35,0,0,0-2.49-1,3.61,3.61,0,0,0-1.81.46,3.39,3.39,0,0,0-1.28,1.24,3.55,3.55,0,0,0-.46,1.78,3.57,3.57,0,0,0,.46,1.78,3.39,3.39,0,0,0,1.28,1.24,3.61,3.61,0,0,0,1.81.46,3.32,3.32,0,0,0,2.49-1l.56.56a3.53,3.53,0,0,1-1.35.92,4.67,4.67,0,0,1-1.73.32A4.57,4.57,0,0,1,791.45,9.21Z"/><path class="cls-2" d="M692,23.23A3.77,3.77,0,0,1,691,20.5V15.69h.89v4.78a3.14,3.14,0,0,0,.66,2.18,2.91,2.91,0,0,0,3.83,0,3.14,3.14,0,0,0,.66-2.18V15.69h.86V20.5a3.77,3.77,0,0,1-.91,2.73,3.37,3.37,0,0,1-2.53.93A3.41,3.41,0,0,1,692,23.23Z"/><path class="cls-2" d="M707.64,15.69v8.4h-.74l-5.4-6.82v6.82h-.88v-8.4h.73l5.41,6.82V15.69Z"/><path class="cls-2" d="M710.37,15.69h.89v8.4h-.89Z"/><path class="cls-2" d="M720.88,15.69l-3.72,8.4h-.87l-3.72-8.4h1l3.21,7.3,3.24-7.3Z"/><path class="cls-2" d="M728,23.32v.77H722.1v-8.4h5.75v.77H723v3h4.35v.75H723v3.12Z"/><path class="cls-2" d="M735.86,24.09l-1.92-2.7c-.22,0-.44,0-.67,0H731v2.66h-.89v-8.4h3.15a3.81,3.81,0,0,1,2.52.77,2.59,2.59,0,0,1,.91,2.11,2.61,2.61,0,0,1-1.92,2.64l2.05,2.88Zm-.71-4a1.92,1.92,0,0,0,.66-1.55,1.93,1.93,0,0,0-.66-1.57,2.94,2.94,0,0,0-1.91-.54H731v4.21h2.23A2.88,2.88,0,0,0,735.15,20.12Z"/><path class="cls-2" d="M739.32,23.86a3.25,3.25,0,0,1-1.32-.79l.34-.68a3.3,3.3,0,0,0,1.22.73,4.35,4.35,0,0,0,1.55.29,2.84,2.84,0,0,0,1.7-.42,1.27,1.27,0,0,0,.56-1.07,1.06,1.06,0,0,0-.31-.81,2,2,0,0,0-.75-.46,11.52,11.52,0,0,0-1.23-.35,14.46,14.46,0,0,1-1.51-.46,2.55,2.55,0,0,1-1-.68,1.81,1.81,0,0,1-.4-1.24,2.14,2.14,0,0,1,.33-1.16,2.39,2.39,0,0,1,1-.83,4.18,4.18,0,0,1,1.73-.31,5.26,5.26,0,0,1,1.41.19,4.36,4.36,0,0,1,1.19.55l-.3.71a4,4,0,0,0-1.13-.52,4.06,4.06,0,0,0-1.17-.18,2.78,2.78,0,0,0-1.67.43,1.32,1.32,0,0,0-.56,1.1,1.13,1.13,0,0,0,.31.81,2.13,2.13,0,0,0,.77.47c.31.1.72.22,1.24.35a11.72,11.72,0,0,1,1.5.45,2.42,2.42,0,0,1,1,.67,1.81,1.81,0,0,1,.4,1.22A2.08,2.08,0,0,1,743.9,23a2.17,2.17,0,0,1-1,.82,4.27,4.27,0,0,1-1.74.31A5.38,5.38,0,0,1,739.32,23.86Z"/><path class="cls-2" d="M746.18,15.69h.89v8.4h-.89Z"/><path class="cls-2" d="M751.44,16.46h-3v-.77h6.79v.77h-2.95v7.63h-.88Z"/><path class="cls-2" d="M759.51,21.19v2.9h-.87v-2.9l-3.37-5.5h1l2.88,4.72L762,15.69h.89Z"/><path class="cls-2" d="M773.06,16.46a2.59,2.59,0,0,1,.91,2.11,2.59,2.59,0,0,1-.91,2.11,3.87,3.87,0,0,1-2.52.76h-2.26v2.65h-.88v-8.4h3.14A3.81,3.81,0,0,1,773.06,16.46Zm-.64,3.65a1.89,1.89,0,0,0,.66-1.54,1.93,1.93,0,0,0-.66-1.57,2.93,2.93,0,0,0-1.9-.54h-2.24v4.2h2.24A2.87,2.87,0,0,0,772.42,20.11Z"/><path class="cls-2" d="M781.63,24.09l-1.92-2.7c-.22,0-.44,0-.68,0h-2.25v2.66h-.89v-8.4H779a3.82,3.82,0,0,1,2.53.77,2.62,2.62,0,0,1,.91,2.11,2.73,2.73,0,0,1-.5,1.66,2.78,2.78,0,0,1-1.42,1l2.05,2.88Zm-.71-4a1.92,1.92,0,0,0,.66-1.55,1.93,1.93,0,0,0-.66-1.57,3,3,0,0,0-1.91-.54h-2.23v4.21H779A2.9,2.9,0,0,0,780.92,20.12Z"/><path class="cls-2" d="M786,23.6a4,4,0,0,1-1.59-1.53,4.45,4.45,0,0,1,0-4.36A4,4,0,0,1,786,16.18a4.51,4.51,0,0,1,2.26-.56,4.57,4.57,0,0,1,2.25.55,4.15,4.15,0,0,1,1.58,1.53,4.49,4.49,0,0,1,0,4.38,4.15,4.15,0,0,1-1.58,1.53,4.57,4.57,0,0,1-2.25.55A4.51,4.51,0,0,1,786,23.6Zm4.06-.68a3.36,3.36,0,0,0,1.26-1.25,3.75,3.75,0,0,0,0-3.56A3.36,3.36,0,0,0,790,16.86a3.85,3.85,0,0,0-3.61,0,3.32,3.32,0,0,0-1.27,1.25,3.67,3.67,0,0,0,0,3.56,3.32,3.32,0,0,0,1.27,1.25,3.85,3.85,0,0,0,3.61,0Z"/><path class="cls-2" d="M800.55,19.89h.85v3.2a4.05,4.05,0,0,1-1.39.8,5.29,5.29,0,0,1-1.69.27,4.62,4.62,0,0,1-2.27-.55,4.08,4.08,0,0,1-1.58-1.53,4.42,4.42,0,0,1,0-4.38,4.08,4.08,0,0,1,1.58-1.53,4.63,4.63,0,0,1,2.28-.55,5,5,0,0,1,1.76.3,3.58,3.58,0,0,1,1.36.91l-.55.56a3.49,3.49,0,0,0-2.53-1,3.81,3.81,0,0,0-1.85.45,3.45,3.45,0,0,0,0,6.05,3.61,3.61,0,0,0,1.83.46,3.67,3.67,0,0,0,2.2-.65Z"/><path class="cls-2" d="M809.65,24.09l-1.92-2.7c-.22,0-.44,0-.68,0H804.8v2.66h-.89v-8.4h3.14a3.78,3.78,0,0,1,2.52.77,2.6,2.6,0,0,1,.92,2.11,2.73,2.73,0,0,1-.5,1.66,2.78,2.78,0,0,1-1.42,1l2,2.88Zm-.71-4a1.92,1.92,0,0,0,.66-1.55,1.93,1.93,0,0,0-.66-1.57,3,3,0,0,0-1.91-.54H804.8v4.21H807A2.9,2.9,0,0,0,808.94,20.12Z"/><path class="cls-2" d="M817.85,21.85h-4.68l-1,2.24h-.93l3.84-8.4H816l3.84,8.4h-.94Zm-.32-.72-2-4.52-2,4.52Z"/><path class="cls-2" d="M829.91,15.69v8.4h-.85V17.37L825.76,23h-.42L822,17.41v6.68h-.85v-8.4h.73l3.65,6.23,3.61-6.23Z"/><path class="cls-2" d="M690.3,34.39,692,32h1.68L692,34.39l1.65,2.34H692Zm2.71,0L694.7,32h1.68l-1.64,2.36,1.64,2.34H694.7Z"/><path class="cls-2" d="M699.74,31.65v2.22h3.89v1.56h-3.89v3.06H697.8v-8.4h6.34v1.56Z"/><path class="cls-2" d="M710.81,38.49l-1.62-2.34h-1.78v2.34h-1.95v-8.4h3.64a4.66,4.66,0,0,1,1.94.37,2.81,2.81,0,0,1,1.26,1.06,3.12,3.12,0,0,1,0,3.23,2.89,2.89,0,0,1-1.28,1l1.88,2.7Zm-.49-6.44a2,2,0,0,0-1.33-.38h-1.58V34.6H709a2,2,0,0,0,1.33-.38,1.33,1.33,0,0,0,.46-1.08A1.31,1.31,0,0,0,710.32,32.05Z"/><path class="cls-2" d="M716,38.07a4.16,4.16,0,0,1-2.23-3.78A4.16,4.16,0,0,1,716,30.51a4.87,4.87,0,0,1,2.36-.57,4.81,4.81,0,0,1,2.35.57,4.35,4.35,0,0,1,1.65,6,4.32,4.32,0,0,1-1.65,1.55,4.92,4.92,0,0,1-2.35.56A5,5,0,0,1,716,38.07Zm3.71-1.43a2.48,2.48,0,0,0,.94-1,3,3,0,0,0,0-2.78,2.48,2.48,0,0,0-.94-1,2.83,2.83,0,0,0-2.69,0,2.41,2.41,0,0,0-.94,1,2.94,2.94,0,0,0,0,2.78,2.41,2.41,0,0,0,.94,1,2.83,2.83,0,0,0,2.69,0Z"/><path class="cls-2" d="M732.12,30.09v8.4h-1.6l-4.19-5.1v5.1h-1.92v-8.4H726l4.18,5.1v-5.1Z"/><path class="cls-2" d="M735.85,31.67h-2.69V30.09h7.32v1.58h-2.69v6.82h-1.94Z"/><path class="cls-2" d="M741.06,33.48h3.39V35h-3.39Z"/><path class="cls-2" d="M752.68,36.93v1.56h-6.5v-8.4h6.35v1.56h-4.42v1.82H752V35h-3.9v2Z"/><path class="cls-2" d="M761.94,30.09v8.4h-1.6l-4.19-5.1v5.1h-1.92v-8.4h1.61l4.18,5.1v-5.1Z"/><path class="cls-2" d="M763.93,30.09h3.81a5.35,5.35,0,0,1,2.42.52,3.94,3.94,0,0,1,1.63,1.47,4.43,4.43,0,0,1,0,4.42A3.94,3.94,0,0,1,770.16,38a5.49,5.49,0,0,1-2.42.52h-3.81Zm3.72,6.8a2.81,2.81,0,0,0,2-.7,2.78,2.78,0,0,0,0-3.8,2.81,2.81,0,0,0-2-.7h-1.78v5.2Z"/><path class="cls-2" d="M782.81,30.46a2.81,2.81,0,0,1,1.26,1.06,2.85,2.85,0,0,1,.45,1.62,2.89,2.89,0,0,1-.45,1.61,2.81,2.81,0,0,1-1.26,1.06,4.83,4.83,0,0,1-1.94.36h-1.69v2.32h-1.95v-8.4h3.64A4.66,4.66,0,0,1,782.81,30.46Zm-.71,3.75a1.32,1.32,0,0,0,.45-1.07,1.33,1.33,0,0,0-.45-1.09,2.08,2.08,0,0,0-1.34-.38h-1.58v2.92h1.58A2.08,2.08,0,0,0,782.1,34.21Z"/><path class="cls-2" d="M791.25,38.49l-1.62-2.34h-1.79v2.34H785.9v-8.4h3.63a4.63,4.63,0,0,1,1.94.37,2.9,2.9,0,0,1,1.27,1.06,2.93,2.93,0,0,1,.44,1.62,2.74,2.74,0,0,1-1.73,2.65l1.89,2.7Zm-.49-6.44a2.07,2.07,0,0,0-1.33-.38h-1.59V34.6h1.59a2.07,2.07,0,0,0,1.33-.38,1.35,1.35,0,0,0,.45-1.08A1.33,1.33,0,0,0,790.76,32.05Z"/><path class="cls-2" d="M796.43,38.07a4.37,4.37,0,0,1-1.65-6,4.25,4.25,0,0,1,1.65-1.55,5.15,5.15,0,0,1,4.71,0,4.35,4.35,0,0,1,1.64,6,4.29,4.29,0,0,1-1.64,1.55,5.23,5.23,0,0,1-4.71,0Zm3.7-1.43a2.41,2.41,0,0,0,.94-1,2.94,2.94,0,0,0,0-2.78,2.41,2.41,0,0,0-.94-1,2.83,2.83,0,0,0-2.69,0,2.48,2.48,0,0,0-.94,1,3,3,0,0,0,0,2.78,2.48,2.48,0,0,0,.94,1,2.83,2.83,0,0,0,2.69,0Z"/><path class="cls-2" d="M804.27,36.73l1.64-2.34L804.27,32H806l1.69,2.36L806,36.73Zm2.71,0,1.65-2.34L807,32h1.68l1.69,2.36-1.69,2.34Z"/><path class="cls-2" d="M821.35,97v3.3h4.35v.76h-4.35v3.57h-.88v-8.4h5.76V97Z"/><path class="cls-2" d="M828.06,96.27H829v8.4h-.89Z"/><path class="cls-2" d="M838.7,96.27v8.4H838l-5.4-6.82v6.82h-.88v-8.4h.73l5.41,6.82V96.27Z"/><path class="cls-2" d="M841.44,96.27h.89v8.4h-.89Z"/><path class="cls-2" d="M845.59,104.44a3.29,3.29,0,0,1-1.33-.79l.35-.68a3.26,3.26,0,0,0,1.21.73,4.36,4.36,0,0,0,1.56.29,2.81,2.81,0,0,0,1.69-.42,1.26,1.26,0,0,0,.57-1.07,1.1,1.1,0,0,0-.31-.81,2,2,0,0,0-.75-.46c-.3-.11-.71-.22-1.23-.35a14.76,14.76,0,0,1-1.52-.46,2.52,2.52,0,0,1-1-.68,1.82,1.82,0,0,1-.41-1.24,2.15,2.15,0,0,1,.34-1.16,2.36,2.36,0,0,1,1-.83,4.22,4.22,0,0,1,1.73-.31,5.16,5.16,0,0,1,1.41.19,4.22,4.22,0,0,1,1.19.55l-.3.71a3.94,3.94,0,0,0-1.12-.52,4.13,4.13,0,0,0-1.18-.18,2.72,2.72,0,0,0-1.66.43,1.32,1.32,0,0,0-.56,1.1,1.09,1.09,0,0,0,.31.81,2.08,2.08,0,0,0,.76.47c.31.1.73.22,1.25.35a12,12,0,0,1,1.49.45,2.53,2.53,0,0,1,1,.67,1.81,1.81,0,0,1,.39,1.22,2.07,2.07,0,0,1-.34,1.16,2.35,2.35,0,0,1-1,.83,4.45,4.45,0,0,1-1.74.3A5.38,5.38,0,0,1,845.59,104.44Z"/><path class="cls-2" d="M859.46,96.27v8.4h-.87v-3.88h-5.26v3.88h-.89v-8.4h.89V100h5.26V96.27Z"/><path class="cls-2" d="M868.14,103.9v.77H862.2v-8.4H868V97h-4.87v3h4.34v.75h-4.34v3.12Z"/><path class="cls-2" d="M870.23,96.27h3.42a5.06,5.06,0,0,1,2.35.53,3.92,3.92,0,0,1,1.58,1.49,4.45,4.45,0,0,1,0,4.36,3.92,3.92,0,0,1-1.58,1.49,5.06,5.06,0,0,1-2.35.53h-3.42Zm3.37,7.63a4,4,0,0,0,1.93-.44,3.2,3.2,0,0,0,1.29-1.21,3.75,3.75,0,0,0,0-3.56,3.2,3.2,0,0,0-1.29-1.21A4,4,0,0,0,873.6,97h-2.48v6.86Z"/><path class="cls-2" d="M889,97a2.9,2.9,0,0,1,0,4.22,3.87,3.87,0,0,1-2.52.76h-2.26v2.65h-.89v-8.4h3.15A3.81,3.81,0,0,1,889,97Zm-.64,3.65a1.89,1.89,0,0,0,.66-1.54,1.93,1.93,0,0,0-.66-1.57A2.94,2.94,0,0,0,886.4,97h-2.23v4.2h2.23A2.88,2.88,0,0,0,888.31,100.69Z"/><path class="cls-2" d="M897.52,104.67,895.6,102c-.22,0-.44,0-.68,0h-2.25v2.66h-.89v-8.4h3.14a3.78,3.78,0,0,1,2.52.77,2.6,2.6,0,0,1,.92,2.11,2.73,2.73,0,0,1-.5,1.66,2.78,2.78,0,0,1-1.42,1l2,2.88Zm-.71-4a2.17,2.17,0,0,0,0-3.12A3,3,0,0,0,894.9,97h-2.23v4.21h2.23A2.9,2.9,0,0,0,896.81,100.7Z"/><path class="cls-2" d="M901.87,104.18a4,4,0,0,1-1.59-1.53,4.45,4.45,0,0,1,0-4.36,4,4,0,0,1,1.59-1.53,4.51,4.51,0,0,1,2.26-.56,4.57,4.57,0,0,1,2.25.55A4.15,4.15,0,0,1,908,98.28a4.49,4.49,0,0,1,0,4.38,4.15,4.15,0,0,1-1.58,1.53,4.57,4.57,0,0,1-2.25.55A4.51,4.51,0,0,1,901.87,104.18Zm4.06-.68a3.36,3.36,0,0,0,1.26-1.25,3.75,3.75,0,0,0,0-3.56,3.36,3.36,0,0,0-1.26-1.25,3.85,3.85,0,0,0-3.61,0,3.32,3.32,0,0,0-1.27,1.25,3.67,3.67,0,0,0,0,3.56,3.32,3.32,0,0,0,1.27,1.25,3.85,3.85,0,0,0,3.61,0Z"/><path class="cls-2" d="M909.91,104.43a2.5,2.5,0,0,1-1-.89l.52-.6a2.11,2.11,0,0,0,1.82,1c1,0,1.56-.61,1.56-1.84V97h-3.08v-.77h4v5.82a2.81,2.81,0,0,1-.62,2,2.38,2.38,0,0,1-1.83.66A2.86,2.86,0,0,1,909.91,104.43Z"/><path class="cls-2" d="M922.3,103.9v.77h-5.94v-8.4h5.76V97h-4.88v3h4.35v.75h-4.35v3.12Z"/><path class="cls-2" d="M925.73,104.19a4.05,4.05,0,0,1-1.57-1.53,4.49,4.49,0,0,1,0-4.38,4.08,4.08,0,0,1,1.58-1.53,4.92,4.92,0,0,1,4-.24,3.62,3.62,0,0,1,1.35.91l-.57.57A3.31,3.31,0,0,0,928,97a3.56,3.56,0,0,0-1.81.46,3.32,3.32,0,0,0-1.28,1.24,3.67,3.67,0,0,0,0,3.56,3.32,3.32,0,0,0,1.28,1.24A3.56,3.56,0,0,0,928,104a3.3,3.3,0,0,0,2.48-1l.57.57a3.62,3.62,0,0,1-1.35.91,4.49,4.49,0,0,1-1.74.32A4.57,4.57,0,0,1,925.73,104.19Z"/><path class="cls-2" d="M934.49,97h-3v-.77h6.79V97h-3v7.63h-.89Z"/><path class="cls-2" d="M941,104.18a4.08,4.08,0,0,1-1.58-1.53,4.45,4.45,0,0,1,0-4.36A4.08,4.08,0,0,1,941,96.76a4.88,4.88,0,0,1,4.52,0,4.12,4.12,0,0,1,1.57,1.53,4.42,4.42,0,0,1,0,4.38,4.12,4.12,0,0,1-1.57,1.53,4.88,4.88,0,0,1-4.52,0Zm4.07-.68a3.26,3.26,0,0,0,1.25-1.25,3.67,3.67,0,0,0,0-3.56,3.26,3.26,0,0,0-1.25-1.25,3.85,3.85,0,0,0-3.61,0,3.25,3.25,0,0,0-1.27,1.25,3.67,3.67,0,0,0,0,3.56,3.25,3.25,0,0,0,1.27,1.25,3.85,3.85,0,0,0,3.61,0Z"/><path class="cls-2" d="M955.43,104.67l-1.92-2.7c-.22,0-.44,0-.67,0h-2.26v2.66h-.89v-8.4h3.15a3.81,3.81,0,0,1,2.52.77,2.62,2.62,0,0,1,.91,2.11,2.73,2.73,0,0,1-.5,1.66,2.78,2.78,0,0,1-1.42,1l2,2.88Zm-.71-4a2.17,2.17,0,0,0,0-3.12,3,3,0,0,0-1.91-.54h-2.23v4.21h2.23A2.9,2.9,0,0,0,954.72,100.7Z"/><path class="cls-2" d="M967.18,97a2.9,2.9,0,0,1,0,4.22,3.88,3.88,0,0,1-2.53.76H962.4v2.65h-.89v-8.4h3.14A3.82,3.82,0,0,1,967.18,97Zm-.64,3.65a1.89,1.89,0,0,0,.66-1.54,1.93,1.93,0,0,0-.66-1.57,3,3,0,0,0-1.91-.54H962.4v4.2h2.23A2.9,2.9,0,0,0,966.54,100.69Z"/><path class="cls-2" d="M975.74,104.67l-1.92-2.7c-.21,0-.44,0-.67,0H970.9v2.66H970v-8.4h3.14a3.81,3.81,0,0,1,2.52.77,2.59,2.59,0,0,1,.91,2.11,2.72,2.72,0,0,1-.49,1.66,2.81,2.81,0,0,1-1.43,1l2.06,2.88Zm-.7-4a2.2,2.2,0,0,0,0-3.12,3,3,0,0,0-1.91-.54H970.9v4.21h2.23A2.9,2.9,0,0,0,975,100.7Z"/><path class="cls-2" d="M980.09,104.18a4.08,4.08,0,0,1-1.58-1.53,4.45,4.45,0,0,1,0-4.36,4.08,4.08,0,0,1,1.58-1.53,4.86,4.86,0,0,1,4.51,0,4.08,4.08,0,0,1,1.58,1.53,4.42,4.42,0,0,1,0,4.38,4.08,4.08,0,0,1-1.58,1.53,4.86,4.86,0,0,1-4.51,0Zm4.06-.68a3.22,3.22,0,0,0,1.26-1.25,3.67,3.67,0,0,0,0-3.56,3.22,3.22,0,0,0-1.26-1.25,3.59,3.59,0,0,0-1.8-.45,3.64,3.64,0,0,0-1.8.45,3.25,3.25,0,0,0-1.27,1.25,3.61,3.61,0,0,0,0,3.56,3.25,3.25,0,0,0,1.27,1.25,3.64,3.64,0,0,0,1.8.45A3.59,3.59,0,0,0,984.15,103.5Z"/><path class="cls-2" d="M994.67,100.47h.85v3.2a4.15,4.15,0,0,1-1.39.8,5.29,5.29,0,0,1-1.69.27,4.62,4.62,0,0,1-2.27-.55,4.17,4.17,0,0,1-1.59-1.53,4.49,4.49,0,0,1,0-4.38,4.17,4.17,0,0,1,1.59-1.53,4.63,4.63,0,0,1,2.28-.55,5,5,0,0,1,1.76.3,3.58,3.58,0,0,1,1.36.91L995,98a3.49,3.49,0,0,0-2.54-1,3.77,3.77,0,0,0-1.84.45,3.3,3.3,0,0,0-1.29,1.25,3.61,3.61,0,0,0,0,3.56,3.35,3.35,0,0,0,1.29,1.24,3.61,3.61,0,0,0,1.83.46,3.67,3.67,0,0,0,2.2-.65Z"/><path class="cls-2" d="M1003.76,104.67l-1.92-2.7c-.21,0-.44,0-.67,0h-2.26v2.66H998v-8.4h3.14a3.81,3.81,0,0,1,2.52.77,2.59,2.59,0,0,1,.91,2.11,2.66,2.66,0,0,1-.5,1.66,2.74,2.74,0,0,1-1.42,1l2.05,2.88Zm-.7-4a2.2,2.2,0,0,0,0-3.12,3,3,0,0,0-1.91-.54h-2.24v4.21h2.24A2.92,2.92,0,0,0,1003.06,100.7Z"/><path class="cls-2" d="M1012,102.43h-4.68l-1,2.24h-.92l3.84-8.4h.87l3.84,8.4H1013Zm-.32-.72-2-4.52-2,4.52Z"/><path class="cls-2" d="M1024,96.27v8.4h-.85V98l-3.3,5.65h-.42l-3.3-5.61v6.68h-.85v-8.4h.73l3.65,6.23,3.61-6.23Z"/><path class="cls-2" d="M819.65,115l1.69-2.36H823L821.38,115l1.64,2.34h-1.68Zm2.71,0,1.69-2.36h1.68L824.09,115l1.64,2.34h-1.68Z"/><path class="cls-2" d="M829.09,112.23v2.22H833V116h-3.89v3.06h-1.94v-8.4h6.35v1.56Z"/><path class="cls-2" d="M840.17,119.07l-1.62-2.34h-1.79v2.34h-1.94v-8.4h3.63a4.63,4.63,0,0,1,1.94.37,2.9,2.9,0,0,1,1.27,1.06,2.93,2.93,0,0,1,.44,1.62,2.84,2.84,0,0,1-.45,1.61,2.89,2.89,0,0,1-1.28,1l1.89,2.7Zm-.49-6.44a2.07,2.07,0,0,0-1.33-.38h-1.59v2.93h1.59a2.07,2.07,0,0,0,1.33-.38,1.53,1.53,0,0,0,0-2.17Z"/><path class="cls-2" d="M845.35,118.65a4.25,4.25,0,0,1-1.65-1.55,4.51,4.51,0,0,1,0-4.46,4.25,4.25,0,0,1,1.65-1.55,5.23,5.23,0,0,1,4.71,0,4.29,4.29,0,0,1,1.64,1.55,4.44,4.44,0,0,1,0,4.46,4.29,4.29,0,0,1-1.64,1.55,5.23,5.23,0,0,1-4.71,0Zm3.7-1.43a2.48,2.48,0,0,0,.94-1,3,3,0,0,0,0-2.78,2.48,2.48,0,0,0-.94-1,2.83,2.83,0,0,0-2.69,0,2.48,2.48,0,0,0-.94,1,3,3,0,0,0,0,2.78,2.48,2.48,0,0,0,.94,1,2.83,2.83,0,0,0,2.69,0Z"/><path class="cls-2" d="M861.47,110.67v8.4h-1.6l-4.18-5.1v5.1h-1.92v-8.4h1.6l4.18,5.1v-5.1Z"/><path class="cls-2" d="M865.2,112.25h-2.69v-1.58h7.32v1.58h-2.69v6.82H865.2Z"/><path class="cls-2" d="M870.41,114.07h3.39v1.5h-3.39Z"/><path class="cls-2" d="M882,117.51v1.56h-6.51v-8.4h6.35v1.56h-4.42v1.82h3.9v1.52h-3.9v1.94Z"/><path class="cls-2" d="M891.29,110.67v8.4h-1.6L885.5,114v5.1h-1.92v-8.4h1.61l4.18,5.1v-5.1Z"/><path class="cls-2" d="M893.28,110.67h3.82a5.38,5.38,0,0,1,2.42.52,4,4,0,0,1,1.63,1.47,4.5,4.5,0,0,1,0,4.42,4,4,0,0,1-1.63,1.47,5.38,5.38,0,0,1-2.42.52h-3.82Zm3.72,6.8a2.81,2.81,0,0,0,2-.7,2.78,2.78,0,0,0,0-3.8,2.81,2.81,0,0,0-2-.7h-1.77v5.2Z"/><path class="cls-2" d="M902.7,118.83a1.15,1.15,0,0,1-.34-.84,1.11,1.11,0,0,1,.34-.83,1.12,1.12,0,0,1,.83-.32,1.14,1.14,0,0,1,.83.32,1.1,1.1,0,0,1,.33.83,1.14,1.14,0,0,1-.33.84,1.16,1.16,0,0,1-.83.34A1.14,1.14,0,0,1,902.7,118.83Z"/><path class="cls-2" d="M909.47,118.9a3.19,3.19,0,0,1-1.17-.91l1.08-1.3a2,2,0,0,0,1.56.93c.8,0,1.19-.47,1.19-1.39v-4h-3v-1.56h4.88v5.45a3.18,3.18,0,0,1-.76,2.32,3.05,3.05,0,0,1-2.26.77A3.86,3.86,0,0,1,909.47,118.9Z"/><path class="cls-2" d="M921.34,117.27h-3.9l-.75,1.8h-2l3.74-8.4h1.92l3.76,8.4h-2Zm-.62-1.48-1.33-3.21-1.33,3.21Z"/><path class="cls-2" d="M932.62,110.67l-3.64,8.4h-1.92l-3.62-8.4h2.1l2.55,6,2.59-6Z"/><path class="cls-2" d="M938.57,117.27h-3.9l-.75,1.8h-2l3.75-8.4h1.92l3.75,8.4h-2Zm-.61-1.48-1.34-3.21-1.33,3.21Z"/><path class="cls-2" d="M943.06,118.94a4.4,4.4,0,0,1-1.49-.7l.66-1.46a4.63,4.63,0,0,0,1.28.63,4.84,4.84,0,0,0,1.49.24,2.4,2.4,0,0,0,1.22-.24.74.74,0,0,0,.4-.66.62.62,0,0,0-.23-.49,1.71,1.71,0,0,0-.6-.32q-.37-.12-1-.27a14.15,14.15,0,0,1-1.58-.45,2.7,2.7,0,0,1-1.05-.73,2,2,0,0,1-.43-1.35,2.33,2.33,0,0,1,.39-1.32,2.71,2.71,0,0,1,1.2-.95,4.9,4.9,0,0,1,1.95-.34,6.37,6.37,0,0,1,1.57.19,4.65,4.65,0,0,1,1.34.55l-.6,1.48a4.66,4.66,0,0,0-2.33-.66,2.14,2.14,0,0,0-1.2.26.81.81,0,0,0-.39.7.69.69,0,0,0,.45.64,6.78,6.78,0,0,0,1.37.41,13.09,13.09,0,0,1,1.57.46,2.54,2.54,0,0,1,1.05.72,1.89,1.89,0,0,1,.44,1.33,2.25,2.25,0,0,1-.4,1.31,2.74,2.74,0,0,1-1.21,1,4.9,4.9,0,0,1-2,.34A6.87,6.87,0,0,1,943.06,118.94Z"/><path class="cls-2" d="M951.58,118.66a4.31,4.31,0,0,1,0-7.58,5.27,5.27,0,0,1,4.31-.17,4,4,0,0,1,1.48,1.1l-1.25,1.16a2.66,2.66,0,0,0-2.11-1,2.89,2.89,0,0,0-1.39.34,2.37,2.37,0,0,0-1,1,2.94,2.94,0,0,0,0,2.78,2.37,2.37,0,0,0,1,1,2.89,2.89,0,0,0,1.39.34,2.64,2.64,0,0,0,2.11-1l1.25,1.15a3.87,3.87,0,0,1-1.49,1.12,5.25,5.25,0,0,1-4.3-.17Z"/><path class="cls-2" d="M964,119.07l-1.62-2.34h-1.79v2.34h-1.94v-8.4h3.64a4.58,4.58,0,0,1,1.93.37,2.9,2.9,0,0,1,1.27,1.06,2.89,2.89,0,0,1-1.28,4.27l1.88,2.7Zm-.49-6.44a2,2,0,0,0-1.33-.38h-1.59v2.93h1.59a2,2,0,0,0,1.33-.38,1.51,1.51,0,0,0,0-2.17Z"/><path class="cls-2" d="M967.5,110.67h1.94v8.4H967.5Z"/><path class="cls-2" d="M977,111a2.81,2.81,0,0,1,1.26,1.06,2.85,2.85,0,0,1,.45,1.62,2.89,2.89,0,0,1-.45,1.61,2.81,2.81,0,0,1-1.26,1.06,4.83,4.83,0,0,1-1.94.36h-1.69v2.32h-1.94v-8.4h3.63A4.66,4.66,0,0,1,977,111Zm-.71,3.75a1.32,1.32,0,0,0,.45-1.07,1.35,1.35,0,0,0-.45-1.09,2.08,2.08,0,0,0-1.34-.38h-1.58v2.92H975A2.08,2.08,0,0,0,976.3,114.79Z"/><path class="cls-2" d="M981.61,112.25h-2.69v-1.58h7.32v1.58h-2.68v6.82h-1.95Z"/><path class="cls-2" d="M986.63,117.31l1.64-2.34-1.64-2.36h1.68L990,115l-1.69,2.34Zm2.71,0L991,115l-1.64-2.36H991l1.69,2.36L991,117.31Z"/><path class="cls-4" d="M3.77,75.88a3.77,3.77,0,1,0,3.77,3.77,3.77,3.77,0,0,0-3.77-3.77Z"/><polyline class="cls-5" points="4.1 78.48 13.77 45.15 89.61 45.15"/><path class="cls-3" d="M186.83,58.23v1.58h-6.35V58.55l3.24-3.06a3.53,3.53,0,0,0,.7-.84,1.55,1.55,0,0,0,.18-.7.93.93,0,0,0-.35-.78,1.57,1.57,0,0,0-1-.27,2.25,2.25,0,0,0-1,.21,1.9,1.9,0,0,0-.75.63l-1.41-.91a3.31,3.31,0,0,1,1.35-1.15,4.64,4.64,0,0,1,2-.41,4,4,0,0,1,1.64.31,2.49,2.49,0,0,1,1.09.86,2.23,2.23,0,0,1,.39,1.31,2.84,2.84,0,0,1-.29,1.29,5,5,0,0,1-1.11,1.37l-1.93,1.82Z"/><path class="cls-3" d="M189.35,59.44A3.42,3.42,0,0,1,188.07,58a6.16,6.16,0,0,1,0-4.67,3.42,3.42,0,0,1,1.28-1.49,3.34,3.34,0,0,1,1.86-.52,3.39,3.39,0,0,1,1.86.52,3.48,3.48,0,0,1,1.28,1.49,6.16,6.16,0,0,1,0,4.67,3.48,3.48,0,0,1-1.28,1.49,3.39,3.39,0,0,1-1.86.52A3.34,3.34,0,0,1,189.35,59.44Zm3.06-1.79a4.95,4.95,0,0,0,0-4.08,1.42,1.42,0,0,0-2.4,0,5.05,5.05,0,0,0,0,4.08,1.42,1.42,0,0,0,2.4,0Z"/><path class="cls-3" d="M197.5,59.44A3.36,3.36,0,0,1,196.22,58a6,6,0,0,1,0-4.67,3.36,3.36,0,0,1,3.13-2,3.33,3.33,0,0,1,3.14,2,6,6,0,0,1,0,4.67,3.33,3.33,0,0,1-3.14,2A3.33,3.33,0,0,1,197.5,59.44Zm3.06-1.79a4.95,4.95,0,0,0,0-4.08,1.42,1.42,0,0,0-2.4,0,4.95,4.95,0,0,0,0,4.08,1.42,1.42,0,0,0,2.4,0Z"/><path class="cls-3" d="M209.62,52.34a4.41,4.41,0,0,1,1,3.09,5.28,5.28,0,0,1-.53,2.45,3.65,3.65,0,0,1-1.51,1.55,4.66,4.66,0,0,1-2.24.53,5.43,5.43,0,0,1-1.29-.15,3.39,3.39,0,0,1-1-.43l.72-1.43a2.72,2.72,0,0,0,1.57.42,2.26,2.26,0,0,0,1.69-.63,2.64,2.64,0,0,0,.68-1.81,2.85,2.85,0,0,1-2.09.75,3.37,3.37,0,0,1-1.47-.32,2.51,2.51,0,0,1-1-.92,2.44,2.44,0,0,1-.38-1.37,2.54,2.54,0,0,1,.42-1.48,2.73,2.73,0,0,1,1.14-1,3.72,3.72,0,0,1,1.61-.34A3.62,3.62,0,0,1,209.62,52.34ZM208,54.88a1.23,1.23,0,0,0,0-1.81,1.57,1.57,0,0,0-1.07-.35,1.48,1.48,0,0,0-1,.34,1.14,1.14,0,0,0-.39.91,1.17,1.17,0,0,0,.39.92,1.52,1.52,0,0,0,1,.34A1.56,1.56,0,0,0,208,54.88Z"/><path class="cls-4" d="M167.31,75.88a3.77,3.77,0,1,0,3.77,3.77,3.77,3.77,0,0,0-3.77-3.77Z"/><polyline class="cls-5" points="167.65 78.48 177.31 45.15 306.58 45.15"/><path class="cls-3" d="M434.89,58.23v1.58h-6.35V58.55l3.24-3.06a3.3,3.3,0,0,0,.7-.84,1.55,1.55,0,0,0,.18-.7,1,1,0,0,0-.34-.78,1.62,1.62,0,0,0-1-.27,2.28,2.28,0,0,0-1,.21,1.9,1.9,0,0,0-.75.63l-1.41-.91a3.38,3.38,0,0,1,1.35-1.15,4.64,4.64,0,0,1,2-.41,4,4,0,0,1,1.64.31,2.49,2.49,0,0,1,1.09.86,2.23,2.23,0,0,1,.39,1.31,3,3,0,0,1-.28,1.29,5.29,5.29,0,0,1-1.12,1.37l-1.93,1.82Z"/><path class="cls-3" d="M437.41,59.44A3.48,3.48,0,0,1,436.13,58a6.16,6.16,0,0,1,0-4.67,3.48,3.48,0,0,1,1.28-1.49,3.59,3.59,0,0,1,3.72,0,3.48,3.48,0,0,1,1.28,1.49,6.16,6.16,0,0,1,0,4.67,3.48,3.48,0,0,1-1.28,1.49,3.59,3.59,0,0,1-3.72,0Zm3.07-1.79a5.05,5.05,0,0,0,0-4.08,1.39,1.39,0,0,0-1.21-.66,1.36,1.36,0,0,0-1.19.66,4.95,4.95,0,0,0,0,4.08,1.36,1.36,0,0,0,1.19.66A1.39,1.39,0,0,0,440.48,57.65Z"/><path class="cls-3" d="M447,51.41v8.4H445V53h-1.68V51.41Z"/><path class="cls-3" d="M454,54.87a2.51,2.51,0,0,1,1,.92,2.42,2.42,0,0,1,.39,1.37,2.64,2.64,0,0,1-.42,1.48,2.82,2.82,0,0,1-1.15,1,3.83,3.83,0,0,1-1.61.34,3.56,3.56,0,0,1-2.76-1.08,4.37,4.37,0,0,1-1-3.09,5.14,5.14,0,0,1,.54-2.44,3.65,3.65,0,0,1,1.51-1.55,4.59,4.59,0,0,1,2.23-.53,5.43,5.43,0,0,1,1.29.15,3.16,3.16,0,0,1,1.05.43l-.72,1.42a2.74,2.74,0,0,0-1.57-.42,2.28,2.28,0,0,0-1.69.63,2.57,2.57,0,0,0-.67,1.81,2.78,2.78,0,0,1,2.07-.74A3.24,3.24,0,0,1,454,54.87Zm-.85,3.3a1.14,1.14,0,0,0,.39-.91,1.16,1.16,0,0,0-.39-.92,1.5,1.5,0,0,0-1-.34,1.56,1.56,0,0,0-1,.35,1.16,1.16,0,0,0-.41.91,1.12,1.12,0,0,0,.4.9,1.58,1.58,0,0,0,1.08.35A1.52,1.52,0,0,0,453.11,58.17Z"/><path class="cls-4" d="M415.38,75.88a3.77,3.77,0,1,0,3.77,3.77,3.77,3.77,0,0,0-3.77-3.77Z"/><polyline class="cls-5" points="415.71 78.48 425.38 45.15 555.13 45.15"/><path class="cls-3" d="M696.49,58.23v1.58h-6.35V58.55l3.24-3.06a3.44,3.44,0,0,0,.69-.84,1.57,1.57,0,0,0,.19-.7.93.93,0,0,0-.35-.78,1.57,1.57,0,0,0-1-.27,2.33,2.33,0,0,0-1,.21,1.94,1.94,0,0,0-.74.63l-1.41-.91a3.25,3.25,0,0,1,1.35-1.15,4.64,4.64,0,0,1,2-.41,4,4,0,0,1,1.64.31,2.49,2.49,0,0,1,1.09.86,2.23,2.23,0,0,1,.39,1.31,3,3,0,0,1-.29,1.29,5,5,0,0,1-1.11,1.37l-1.94,1.82Z"/><path class="cls-3" d="M699,59.44A3.42,3.42,0,0,1,697.73,58a6.16,6.16,0,0,1,0-4.67A3.42,3.42,0,0,1,699,51.79a3.34,3.34,0,0,1,1.86-.52,3.39,3.39,0,0,1,1.86.52A3.48,3.48,0,0,1,704,53.28,6.16,6.16,0,0,1,704,58a3.48,3.48,0,0,1-1.28,1.49,3.39,3.39,0,0,1-1.86.52A3.34,3.34,0,0,1,699,59.44Zm3.06-1.79a4.95,4.95,0,0,0,0-4.08,1.42,1.42,0,0,0-2.4,0,4.95,4.95,0,0,0,0,4.08,1.42,1.42,0,0,0,2.4,0Z"/><path class="cls-3" d="M708.58,51.41v8.4h-1.94V53H705V51.41Z"/><path class="cls-3" d="M716.62,51.41v1.26l-3.12,7.14h-2.11l3-6.81h-2.78v1.37h-1.73v-3Z"/><path class="cls-4" d="M677,75.88a3.77,3.77,0,1,0,3.77,3.77A3.77,3.77,0,0,0,677,75.88Z"/><polyline class="cls-5" points="677.31 78.48 686.97 45.15 832.73 45.15"/><path class="cls-4" d="M82,76.48a3.77,3.77,0,1,0,3.77,3.77A3.77,3.77,0,0,0,82,76.48Z"/><polyline class="cls-5" points="82.33 81.42 99.08 140.02 221.84 140.02"/><path class="cls-3" d="M564.67,153.83v1.59h-6.35v-1.26l3.24-3.06a3.54,3.54,0,0,0,.7-.85,1.52,1.52,0,0,0,.18-.7.92.92,0,0,0-.35-.77,1.59,1.59,0,0,0-1-.27,2.25,2.25,0,0,0-1,.21,1.9,1.9,0,0,0-.75.63l-1.41-.92a3.29,3.29,0,0,1,1.35-1.14,4.5,4.5,0,0,1,2-.42,4.14,4.14,0,0,1,1.64.31A2.49,2.49,0,0,1,564,148a2.26,2.26,0,0,1,.39,1.32,2.82,2.82,0,0,1-.29,1.28A4.88,4.88,0,0,1,563,152l-1.93,1.82Z"/><path class="cls-3" d="M567.19,155.05a3.5,3.5,0,0,1-1.28-1.5,6.16,6.16,0,0,1,0-4.67,3.36,3.36,0,0,1,3.14-2,3.36,3.36,0,0,1,3.14,2,6.16,6.16,0,0,1,0,4.67,3.57,3.57,0,0,1-1.28,1.5,3.47,3.47,0,0,1-1.86.51A3.42,3.42,0,0,1,567.19,155.05Zm3.06-1.79a4.95,4.95,0,0,0,0-4.08,1.42,1.42,0,0,0-2.4,0,5.05,5.05,0,0,0,0,4.08,1.42,1.42,0,0,0,2.4,0Z"/><path class="cls-3" d="M576.76,147v8.4h-1.94v-6.84h-1.68V147Z"/><path class="cls-3" d="M584.8,147v1.26l-3.12,7.14h-2.11l3-6.82H579.8V150h-1.73V147Z"/><path class="cls-4" d="M537.84,76.48a3.77,3.77,0,1,0,3.77,3.77,3.77,3.77,0,0,0-3.77-3.77Z"/><polyline class="cls-5" points="538.17 81.42 554.92 140.02 700.68 140.02"/><path class="cls-3" d="M825.84,138.44V140h-6.35v-1.26l3.24-3.06a3.48,3.48,0,0,0,.7-.84,1.56,1.56,0,0,0,.18-.71,1,1,0,0,0-.34-.77,1.61,1.61,0,0,0-1-.27,2.29,2.29,0,0,0-1,.21,2,2,0,0,0-.75.63l-1.41-.91a3.34,3.34,0,0,1,1.36-1.15,4.56,4.56,0,0,1,2-.41,4.14,4.14,0,0,1,1.64.3,2.67,2.67,0,0,1,1.1.87,2.22,2.22,0,0,1,.38,1.31,3,3,0,0,1-.28,1.29,5.12,5.12,0,0,1-1.12,1.36l-1.93,1.83Z"/><path class="cls-3" d="M828.36,139.65a3.48,3.48,0,0,1-1.28-1.49,6.16,6.16,0,0,1,0-4.67,3.57,3.57,0,0,1,1.28-1.5,3.65,3.65,0,0,1,3.72,0,3.5,3.5,0,0,1,1.28,1.5,6.16,6.16,0,0,1,0,4.67,3.5,3.5,0,0,1-5,1.49Zm3.07-1.79a5.05,5.05,0,0,0,0-4.08,1.38,1.38,0,0,0-1.21-.66,1.36,1.36,0,0,0-1.19.66,4.95,4.95,0,0,0,0,4.08,1.36,1.36,0,0,0,1.19.66A1.38,1.38,0,0,0,831.43,137.86Z"/><path class="cls-3" d="M837.94,131.62V140h-2v-6.84h-1.68v-1.56Z"/><path class="cls-3" d="M846.1,136.42a2.11,2.11,0,0,1,.33,1.17A2.21,2.21,0,0,1,846,139a2.81,2.81,0,0,1-1.25.9,5.1,5.1,0,0,1-1.86.32,5,5,0,0,1-1.85-.32,2.72,2.72,0,0,1-1.24-.9,2.21,2.21,0,0,1-.44-1.36,2.11,2.11,0,0,1,.33-1.17,2.41,2.41,0,0,1,.94-.81,2.18,2.18,0,0,1-.72-.73,2.15,2.15,0,0,1,.16-2.27,2.62,2.62,0,0,1,1.14-.84,4.62,4.62,0,0,1,1.68-.29,4.69,4.69,0,0,1,1.7.29,2.71,2.71,0,0,1,1.15.84,2,2,0,0,1,.4,1.27,2,2,0,0,1-.25,1,2.12,2.12,0,0,1-.73.73A2.38,2.38,0,0,1,846.1,136.42Zm-2.06,2a1.08,1.08,0,0,0,.43-.88,1.07,1.07,0,0,0-.43-.88,1.86,1.86,0,0,0-1.16-.32,1.8,1.8,0,0,0-1.14.32,1.06,1.06,0,0,0-.42.88,1,1,0,0,0,.42.88,1.8,1.8,0,0,0,1.14.33A1.86,1.86,0,0,0,844,138.41Zm-2.1-5.22a.92.92,0,0,0-.36.77.94.94,0,0,0,.35.76,1.51,1.51,0,0,0,1,.27,1.56,1.56,0,0,0,1-.27,1,1,0,0,0,0-1.53,1.5,1.5,0,0,0-1-.28A1.44,1.44,0,0,0,841.94,133.19Z"/><path class="cls-4" d="M799,76.48a3.77,3.77,0,1,0,3.77,3.77A3.77,3.77,0,0,0,799,76.48Z"/><polyline class="cls-5" points="799.35 81.42 812.05 125.31 1026.48 125.31"/><path class="cls-3" d="M319.16,138.44V140h-6.35v-1.26l3.24-3.06a3.48,3.48,0,0,0,.7-.84,1.56,1.56,0,0,0,.18-.71,1,1,0,0,0-.34-.77,1.62,1.62,0,0,0-1-.27,2.28,2.28,0,0,0-1,.21,1.9,1.9,0,0,0-.75.63l-1.41-.91a3.38,3.38,0,0,1,1.35-1.15,4.64,4.64,0,0,1,2-.41,4.14,4.14,0,0,1,1.64.3,2.58,2.58,0,0,1,1.09.87,2.23,2.23,0,0,1,.39,1.31,3,3,0,0,1-.28,1.29,5.12,5.12,0,0,1-1.12,1.36l-1.93,1.83Z"/><path class="cls-3" d="M321.68,139.65a3.48,3.48,0,0,1-1.28-1.49,6.16,6.16,0,0,1,0-4.67,3.57,3.57,0,0,1,1.28-1.5,3.65,3.65,0,0,1,3.72,0,3.57,3.57,0,0,1,1.28,1.5,6.16,6.16,0,0,1,0,4.67,3.48,3.48,0,0,1-1.28,1.49,3.59,3.59,0,0,1-3.72,0Zm3.07-1.79a5.05,5.05,0,0,0,0-4.08,1.39,1.39,0,0,0-1.21-.66,1.36,1.36,0,0,0-1.19.66,4.95,4.95,0,0,0,0,4.08,1.36,1.36,0,0,0,1.19.66A1.39,1.39,0,0,0,324.75,137.86Z"/><path class="cls-3" d="M331.26,131.62V140h-1.95v-6.84h-1.68v-1.56Z"/><path class="cls-3" d="M338.34,135.86a2.28,2.28,0,0,1,.58,1.59,2.52,2.52,0,0,1-.38,1.36,2.66,2.66,0,0,1-1.17,1,4.45,4.45,0,0,1-1.93.38,6.41,6.41,0,0,1-1.74-.24,4.36,4.36,0,0,1-1.46-.66l.76-1.49a3.86,3.86,0,0,0,1.11.56,4.33,4.33,0,0,0,1.29.19,2,2,0,0,0,1.15-.28.9.9,0,0,0,.42-.8c0-.68-.53-1-1.57-1h-.89v-1.28l1.73-2h-3.58v-1.56h5.88v1.26l-1.9,2.16A2.91,2.91,0,0,1,338.34,135.86Z"/><path class="cls-4" d="M292.33,76.48a3.77,3.77,0,1,0,3.77,3.77,3.77,3.77,0,0,0-3.77-3.77Z"/><polyline class="cls-5" points="292.67 81.42 305.84 124.65 439.51 124.65"/></g></g></svg>